%TF.GenerationSoftware,KiCad,Pcbnew,10.0.5*%
%TF.CreationDate,2026-09-23T00:18:21+08:00*%
%TF.ProjectId,thesis,74686573-6973-42e6-9b69-6361645f7063,rev?*%
%TF.SameCoordinates,Original*%
%TF.FileFunction,Copper,L2,Bot*%
%TF.FilePolarity,Positive*%
%FSLAX46Y46*%
G04 Gerber Fmt 4.6, Leading zero omitted, Abs format (unit mm)*
G04 Created by KiCad (PCBNEW 10.0.5) date 2026-09-23 00:18:21*
%MOMM*%
%LPD*%
G01*
G04 APERTURE LIST*
G04 Aperture macros list*
%AMRoundRect*
0 Rectangle with rounded corners*
0 $1 Rounding radius*
0 $2 $3 $4 $5 $6 $7 $8 $9 X,Y pos of 4 corners*
0 Add a 4 corners polygon primitive as box body*
4,1,4,$2,$3,$4,$5,$6,$7,$8,$9,$2,$3,0*
0 Add four circle primitives for the rounded corners*
1,1,$1+$1,$2,$3*
1,1,$1+$1,$4,$5*
1,1,$1+$1,$6,$7*
1,1,$1+$1,$8,$9*
0 Add four rect primitives between the rounded corners*
20,1,$1+$1,$2,$3,$4,$5,0*
20,1,$1+$1,$4,$5,$6,$7,0*
20,1,$1+$1,$6,$7,$8,$9,0*
20,1,$1+$1,$8,$9,$2,$3,0*%
G04 Aperture macros list end*
%TA.AperFunction,NonConductor*%
%ADD10C,0.200000*%
%TD*%
%TA.AperFunction,ComponentPad*%
%ADD11R,1.700000X1.700000*%
%TD*%
%TA.AperFunction,ComponentPad*%
%ADD12C,2.600000*%
%TD*%
%TA.AperFunction,ComponentPad*%
%ADD13RoundRect,0.250000X1.050000X1.050000X-1.050000X1.050000X-1.050000X-1.050000X1.050000X-1.050000X0*%
%TD*%
%TA.AperFunction,ComponentPad*%
%ADD14C,1.700000*%
%TD*%
%TA.AperFunction,ComponentPad*%
%ADD15C,1.600000*%
%TD*%
%TA.AperFunction,ComponentPad*%
%ADD16C,1.400000*%
%TD*%
%TA.AperFunction,ComponentPad*%
%ADD17RoundRect,0.250000X1.050000X-1.050000X1.050000X1.050000X-1.050000X1.050000X-1.050000X-1.050000X0*%
%TD*%
%TA.AperFunction,ComponentPad*%
%ADD18R,2.000000X1.905000*%
%TD*%
%TA.AperFunction,ComponentPad*%
%ADD19O,2.000000X1.905000*%
%TD*%
%TA.AperFunction,ComponentPad*%
%ADD20C,5.000000*%
%TD*%
%TA.AperFunction,ComponentPad*%
%ADD21RoundRect,0.250000X1.350000X1.350000X-1.350000X1.350000X-1.350000X-1.350000X1.350000X-1.350000X0*%
%TD*%
%TA.AperFunction,ComponentPad*%
%ADD22C,3.200000*%
%TD*%
%TA.AperFunction,ComponentPad*%
%ADD23C,1.727200*%
%TD*%
%TA.AperFunction,ComponentPad*%
%ADD24R,1.727200X1.727200*%
%TD*%
%TA.AperFunction,ViaPad*%
%ADD25C,0.600000*%
%TD*%
%TA.AperFunction,Conductor*%
%ADD26C,0.250000*%
%TD*%
%TA.AperFunction,Conductor*%
%ADD27C,0.500000*%
%TD*%
G04 APERTURE END LIST*
D10*
X94000000Y-135000000D02*
X194000000Y-135000000D01*
X93000000Y-59000000D02*
X93000000Y-134000000D01*
D11*
%TO.P,J1,1,Pin_1_1*%
%TO.N,Vin*%
X190200000Y-124000000D03*
%TD*%
D12*
%TO.P,TH2,2*%
%TO.N,GND*%
X134965000Y-66327500D03*
D13*
%TO.P,TH2,1*%
%TO.N,Net-(A1-PadA1)*%
X140045000Y-66327500D03*
%TD*%
D11*
%TO.P,J11,1,Pin_1_1*%
%TO.N,+3.3V*%
X162000000Y-128000000D03*
D14*
%TO.P,J11,2,Pin_2_2*%
X159460000Y-128000000D03*
%TO.P,J11,3,Pin_3_3*%
X156920000Y-128000000D03*
%TO.P,J11,4,Pin_4_4*%
X154380000Y-128000000D03*
%TO.P,J11,5,Pin_5_5*%
X151840000Y-128000000D03*
%TD*%
D11*
%TO.P,J2,1,Pin_1_1*%
%TO.N,GND*%
X121040000Y-131000000D03*
D14*
%TO.P,J2,2,Pin_2_2*%
X118500000Y-131000000D03*
%TO.P,J2,3,Pin_3_3*%
X115960000Y-131000000D03*
%TO.P,J2,4,Pin_4_4*%
X113420000Y-131000000D03*
%TO.P,J2,5,Pin_5_5*%
X110880000Y-131000000D03*
%TD*%
D15*
%TO.P,C1,2*%
%TO.N,GND*%
X160700000Y-104400000D03*
%TO.P,C1,1*%
%TO.N,Net-(A1-PadA2)*%
X158200000Y-104400000D03*
%TD*%
D11*
%TO.P,U1,1,A1_1*%
%TO.N,GND*%
X166920000Y-128000000D03*
D14*
%TO.P,U1,2,A0_2*%
X169460000Y-128000000D03*
%TO.P,U1,3,SDA_3*%
%TO.N,/A1*%
X172000000Y-128000000D03*
%TO.P,U1,4,SCL_4*%
%TO.N,/A0*%
X174540000Y-128000000D03*
%TO.P,U1,5,VS_5*%
%TO.N,+3.3V*%
X177080000Y-128000000D03*
%TO.P,U1,6,GND_6*%
%TO.N,GND*%
X179620000Y-128000000D03*
%TO.P,U1,7,IN-_7*%
%TO.N,Net-(D1-K)*%
X182160000Y-128000000D03*
%TO.P,U1,8,IN+_8*%
%TO.N,Vin*%
X184700000Y-128000000D03*
%TD*%
D11*
%TO.P,J9,1,Pin_1_1*%
%TO.N,Net-(J9-Pin_1)*%
X153750000Y-99080000D03*
D14*
%TO.P,J9,2,Pin_2_2*%
%TO.N,Net-(J9-Pin_2)*%
X153750000Y-96540000D03*
%TO.P,J9,3,Pin_3_3*%
%TO.N,Net-(J9-Pin_3)*%
X153750000Y-94000000D03*
%TD*%
D16*
%TO.P,R5,1*%
%TO.N,Net-(J10-Pin_1)*%
X165810000Y-109900000D03*
%TO.P,R5,2*%
%TO.N,Net-(A1-PadA2)*%
X158190000Y-109900000D03*
%TD*%
%TO.P,R4,1*%
%TO.N,Net-(A1-PadA1)*%
X140400000Y-73490000D03*
%TO.P,R4,2*%
%TO.N,+3.3V*%
X140400000Y-81110000D03*
%TD*%
D11*
%TO.P,J10,1,Pin_1_1*%
%TO.N,Net-(J10-Pin_1)*%
X163600000Y-114300000D03*
%TD*%
%TO.P,J8,1,Pin_1_1*%
%TO.N,Net-(J8-Pin_1)*%
X153750000Y-88500000D03*
%TD*%
%TO.P,J7,1,Pin_1_1*%
%TO.N,Net-(J7-Pin_1)*%
X153750000Y-118250000D03*
%TD*%
%TO.P,J6,1,Pin_1_1*%
%TO.N,Net-(A1-D1{slash}TX)*%
X124250000Y-87500000D03*
%TD*%
%TO.P,J5,1,Pin_1_1*%
%TO.N,Net-(A1-D0{slash}RX)*%
X119500000Y-87500000D03*
%TD*%
D17*
%TO.P,L1,1*%
%TO.N,Net-(D1-K)*%
X185172500Y-93080000D03*
D12*
%TO.P,L1,2*%
%TO.N,Net-(L1-Pad2)*%
X185172500Y-88000000D03*
%TD*%
D18*
%TO.P,Q1,1,G_1*%
%TO.N,Net-(Q1-G)*%
X103950000Y-86040000D03*
D19*
%TO.P,Q1,2,D_2*%
%TO.N,Net-(D1-A)*%
X103950000Y-83500000D03*
%TO.P,Q1,3,S_3*%
%TO.N,GND*%
X103950000Y-80960000D03*
%TD*%
D20*
%TO.P,H1,1,1_1*%
%TO.N,GND*%
X190000000Y-63000000D03*
%TD*%
D21*
%TO.P,D2,1,K_1*%
%TO.N,Net-(D1-K)*%
X172350000Y-71000000D03*
D22*
%TO.P,D2,2,A_2*%
%TO.N,Net-(D1-A)*%
X159650000Y-71000000D03*
%TD*%
D20*
%TO.P,H3,1,1_1*%
%TO.N,GND*%
X190000000Y-130000000D03*
%TD*%
D17*
%TO.P,L2,1*%
%TO.N,Net-(D1-K)*%
X185172500Y-117827500D03*
D12*
%TO.P,L2,2*%
%TO.N,Net-(L2-Pad2)*%
X185172500Y-112747500D03*
%TD*%
D20*
%TO.P,H2,1,1_1*%
%TO.N,GND*%
X98000000Y-63000000D03*
%TD*%
D16*
%TO.P,R1,1*%
%TO.N,Net-(A1-PadA0)*%
X136650000Y-73490000D03*
%TO.P,R1,2*%
%TO.N,+3.3V*%
X136650000Y-81110000D03*
%TD*%
D21*
%TO.P,D1,1,K_1*%
%TO.N,Net-(D1-K)*%
X172350000Y-81750000D03*
D22*
%TO.P,D1,2,A_2*%
%TO.N,Net-(D1-A)*%
X159650000Y-81750000D03*
%TD*%
D11*
%TO.P,J4,1,Pin_1_1*%
%TO.N,Net-(J4-Pin_1)*%
X124000000Y-116500000D03*
D14*
%TO.P,J4,2,Pin_2_2*%
%TO.N,Net-(A1-D11_MOSI)*%
X124000000Y-119040000D03*
%TO.P,J4,3,Pin_3_3*%
%TO.N,Net-(A1-D12_MISO)*%
X124000000Y-121580000D03*
%TO.P,J4,4,Pin_4_4*%
%TO.N,Net-(A1-D13_SCK)*%
X124000000Y-124120000D03*
%TD*%
D16*
%TO.P,R3,1*%
%TO.N,Net-(Q1-G)*%
X112690000Y-113000000D03*
%TO.P,R3,2*%
%TO.N,Net-(A1-PadD9)*%
X120310000Y-113000000D03*
%TD*%
D17*
%TO.P,L4,1*%
%TO.N,Net-(L1-Pad2)*%
X185172500Y-81545000D03*
D12*
%TO.P,L4,2*%
%TO.N,Net-(D1-A)*%
X185172500Y-76465000D03*
%TD*%
D13*
%TO.P,TH1,1*%
%TO.N,Net-(A1-PadA0)*%
X123500000Y-66000000D03*
D12*
%TO.P,TH1,2*%
%TO.N,GND*%
X118420000Y-66000000D03*
%TD*%
D20*
%TO.P,H4,1,1_1*%
%TO.N,GND*%
X98000000Y-130000000D03*
%TD*%
D17*
%TO.P,L3,1*%
%TO.N,Net-(L2-Pad2)*%
X185172500Y-106545000D03*
D12*
%TO.P,L3,2*%
%TO.N,Net-(D1-A)*%
X185172500Y-101465000D03*
%TD*%
D11*
%TO.P,J3,1,Pin_1_1*%
%TO.N,Net-(J3-Pin_1)*%
X124000000Y-91750000D03*
D14*
%TO.P,J3,2,Pin_2_2*%
%TO.N,Net-(J3-Pin_2)*%
X124000000Y-94290000D03*
%TO.P,J3,3,Pin_3_3*%
%TO.N,Net-(J3-Pin_3)*%
X124000000Y-96830000D03*
%TO.P,J3,4,Pin_4_4*%
%TO.N,Net-(J3-Pin_4)*%
X124000000Y-99370000D03*
%TO.P,J3,5,Pin_5_5*%
%TO.N,Net-(J3-Pin_5)*%
X124000000Y-101910000D03*
%TO.P,J3,6,Pin_6_6*%
%TO.N,Net-(J3-Pin_6)*%
X124000000Y-104450000D03*
%TO.P,J3,7,Pin_7_7*%
%TO.N,Net-(J3-Pin_7)*%
X124000000Y-106990000D03*
%TD*%
D16*
%TO.P,R2,1*%
%TO.N,Net-(Q1-G)*%
X112690000Y-105500000D03*
%TO.P,R2,2*%
%TO.N,GND*%
X120310000Y-105500000D03*
%TD*%
D23*
%TO.P,A1,3V3,3.3V_3V3*%
%TO.N,+3.3V*%
X146240000Y-121700000D03*
%TO.P,A1,5V,5V_5V*%
%TO.N,unconnected-(A1-Pad5V)*%
X146240000Y-96300000D03*
%TO.P,A1,A0,A0_A0*%
%TO.N,Net-(A1-PadA0)*%
X146240000Y-116620000D03*
%TO.P,A1,A1,A1_A1*%
%TO.N,Net-(A1-PadA1)*%
X146240000Y-114080000D03*
%TO.P,A1,A2,A2_A2*%
%TO.N,Net-(A1-PadA2)*%
X146240000Y-111540000D03*
%TO.P,A1,A3,A3_A3*%
%TO.N,Net-(J9-Pin_1)*%
X146240000Y-109000000D03*
%TO.P,A1,A4,A4/SDA_A4*%
%TO.N,/A0*%
X146240000Y-106460000D03*
%TO.P,A1,A5,A5/SCL_A5*%
%TO.N,/A1*%
X146240000Y-103920000D03*
%TO.P,A1,A6,A6_A6*%
%TO.N,Net-(J9-Pin_2)*%
X146240000Y-101380000D03*
%TO.P,A1,A7,A7_A7*%
%TO.N,Net-(J9-Pin_3)*%
X146240000Y-98840000D03*
%TO.P,A1,AREF,AREF_AREF*%
%TO.N,Net-(J7-Pin_1)*%
X146240000Y-119160000D03*
%TO.P,A1,D0,D0/RX_D0*%
%TO.N,Net-(A1-D0{slash}RX)*%
X131000000Y-91220000D03*
%TO.P,A1,D1,D1/TX_D1*%
%TO.N,Net-(A1-D1{slash}TX)*%
X131000000Y-88680000D03*
%TO.P,A1,D2,D2_D2*%
%TO.N,Net-(J3-Pin_1)*%
X131000000Y-98840000D03*
%TO.P,A1,D3,D3_D3*%
%TO.N,Net-(J3-Pin_2)*%
X131000000Y-101380000D03*
%TO.P,A1,D4,D4_D4*%
%TO.N,Net-(J3-Pin_3)*%
X131000000Y-103920000D03*
%TO.P,A1,D5,D5_D5*%
%TO.N,Net-(J3-Pin_4)*%
X131000000Y-106460000D03*
%TO.P,A1,D6,D6_D6*%
%TO.N,Net-(J3-Pin_5)*%
X131000000Y-109000000D03*
%TO.P,A1,D7,D7_D7*%
%TO.N,Net-(J3-Pin_6)*%
X131000000Y-111540000D03*
%TO.P,A1,D8,D8_D8*%
%TO.N,Net-(J3-Pin_7)*%
X131000000Y-114080000D03*
%TO.P,A1,D9,D9_D9*%
%TO.N,Net-(A1-PadD9)*%
X131000000Y-116620000D03*
%TO.P,A1,D10,D10_D10*%
%TO.N,Net-(J4-Pin_1)*%
X131000000Y-119160000D03*
%TO.P,A1,D11,D11_MOSI_D11*%
%TO.N,Net-(A1-D11_MOSI)*%
X131000000Y-121700000D03*
%TO.P,A1,D12,D12_MISO_D12*%
%TO.N,Net-(A1-D12_MISO)*%
X131000000Y-124240000D03*
%TO.P,A1,D13,D13_SCK_D13*%
%TO.N,Net-(A1-D13_SCK)*%
X146240000Y-124240000D03*
D24*
%TO.P,A1,GND1,GND_GND1*%
%TO.N,GND*%
X131000000Y-96300000D03*
%TO.P,A1,GND2,GND_GND2*%
X146240000Y-91220000D03*
D23*
%TO.P,A1,RST1,RESET_RST1*%
%TO.N,unconnected-(A1-RESET-PadRST1)*%
X131000000Y-93760000D03*
%TO.P,A1,RST2,RESET_RST2*%
%TO.N,unconnected-(A1-RESET-PadRST2)*%
X146240000Y-93760000D03*
%TO.P,A1,VIN,VIN_VIN*%
%TO.N,Net-(J8-Pin_1)*%
X146240000Y-88680000D03*
%TD*%
D25*
%TO.N,GND*%
X150250000Y-114000000D03*
X151750000Y-114000000D03*
X151000000Y-114000000D03*
X135000000Y-109500000D03*
X135750000Y-109500000D03*
X164500000Y-102000000D03*
X165250000Y-102000000D03*
X163750000Y-102000000D03*
X136500000Y-109500000D03*
%TD*%
%TO.N,/A1*%
D26*
X144480000Y-103920000D02*
X146240000Y-103920000D01*
X143900000Y-104500000D02*
X144480000Y-103920000D01*
X143900000Y-106900000D02*
X143900000Y-104500000D01*
X144700000Y-107700000D02*
X143900000Y-106900000D01*
X150700000Y-107700000D02*
X144700000Y-107700000D01*
X164000000Y-121000000D02*
X150700000Y-107700000D01*
X171325000Y-130425000D02*
X164675000Y-130425000D01*
X164675000Y-130425000D02*
X164000000Y-129750000D01*
X172000000Y-129750000D02*
X171325000Y-130425000D01*
X164000000Y-129750000D02*
X164000000Y-121000000D01*
X172000000Y-128000000D02*
X172000000Y-129750000D01*
%TO.N,Net-(J9-Pin_1)*%
X144400000Y-102600000D02*
X149000000Y-102600000D01*
X149000000Y-102600000D02*
X152520000Y-99080000D01*
X152520000Y-99080000D02*
X153750000Y-99080000D01*
X143300000Y-107800000D02*
X143300000Y-103700000D01*
X144500000Y-109000000D02*
X143300000Y-107800000D01*
X146240000Y-109000000D02*
X144500000Y-109000000D01*
X143300000Y-103700000D02*
X144400000Y-102600000D01*
%TO.N,Net-(A1-PadA2)*%
X143900000Y-83500000D02*
X152100000Y-83500000D01*
X142750000Y-84650000D02*
X143900000Y-83500000D01*
X145540000Y-111540000D02*
X142750000Y-108750000D01*
X142750000Y-108750000D02*
X142750000Y-84650000D01*
X158200000Y-89600000D02*
X158200000Y-104400000D01*
X146240000Y-111540000D02*
X145540000Y-111540000D01*
X152100000Y-83500000D02*
X158200000Y-89600000D01*
%TO.N,Net-(A1-PadA1)*%
X142000000Y-75090000D02*
X140400000Y-73490000D01*
X142000000Y-109840000D02*
X142000000Y-75090000D01*
X146240000Y-114080000D02*
X142000000Y-109840000D01*
%TO.N,Net-(A1-PadA0)*%
X141250000Y-78090000D02*
X136650000Y-73490000D01*
X141425000Y-80685431D02*
X141250000Y-80510431D01*
X141425000Y-81534569D02*
X141425000Y-80685431D01*
X141250000Y-80510431D02*
X141250000Y-78090000D01*
X146240000Y-116620000D02*
X141250000Y-111630000D01*
X141250000Y-111630000D02*
X141250000Y-81709569D01*
X141250000Y-81709569D02*
X141425000Y-81534569D01*
%TO.N,GND*%
D27*
X118420000Y-74540000D02*
X112000000Y-80960000D01*
X118420000Y-66000000D02*
X118420000Y-74540000D01*
X112000000Y-80960000D02*
X119360000Y-80960000D01*
%TO.N,/A0*%
D26*
X150260000Y-106460000D02*
X146240000Y-106460000D01*
X163550000Y-119750000D02*
X150260000Y-106460000D01*
X164500000Y-120750000D02*
X163550000Y-119800000D01*
X164500000Y-129000000D02*
X164500000Y-120750000D01*
X170750000Y-129000000D02*
X169775000Y-129975000D01*
X170750000Y-127250000D02*
X170750000Y-129000000D01*
X169775000Y-129975000D02*
X165475000Y-129975000D01*
X163550000Y-119800000D02*
X163550000Y-119750000D01*
X165475000Y-129975000D02*
X164500000Y-129000000D01*
X171250000Y-126750000D02*
X170750000Y-127250000D01*
X174540000Y-128000000D02*
X173290000Y-126750000D01*
X173290000Y-126750000D02*
X171250000Y-126750000D01*
%TO.N,GND*%
D27*
X177120000Y-125500000D02*
X179620000Y-128000000D01*
X170500000Y-125500000D02*
X177120000Y-125500000D01*
X169460000Y-126540000D02*
X170500000Y-125500000D01*
X169460000Y-128000000D02*
X169460000Y-126540000D01*
X166920000Y-128000000D02*
X169460000Y-128000000D01*
%TO.N,+3.3V*%
X162460000Y-131000000D02*
X159460000Y-128000000D01*
X177080000Y-128000000D02*
X174080000Y-131000000D01*
X174080000Y-131000000D02*
X162460000Y-131000000D01*
%TO.N,GND*%
X122040000Y-132000000D02*
X175620000Y-132000000D01*
X121040000Y-131000000D02*
X122040000Y-132000000D01*
X179620000Y-128000000D02*
X175620000Y-132000000D01*
%TO.N,+3.3V*%
X154380000Y-128000000D02*
X151840000Y-128000000D01*
X154380000Y-128000000D02*
X156920000Y-128000000D01*
X156920000Y-128000000D02*
X159460000Y-128000000D01*
X162000000Y-128000000D02*
X159460000Y-128000000D01*
%TO.N,GND*%
X113420000Y-131000000D02*
X118500000Y-131000000D01*
X110880000Y-131000000D02*
X113420000Y-131000000D01*
X118500000Y-131000000D02*
X115960000Y-131000000D01*
X115100000Y-130140000D02*
X115960000Y-131000000D01*
X120310000Y-105500000D02*
X115100000Y-110710000D01*
X115100000Y-110710000D02*
X115100000Y-130140000D01*
%TO.N,+3.3V*%
X151840000Y-127300000D02*
X151840000Y-128000000D01*
X146240000Y-121700000D02*
X151840000Y-127300000D01*
%TO.N,GND*%
X160700000Y-90200000D02*
X160700000Y-104400000D01*
X144100000Y-73600000D02*
X160700000Y-90200000D01*
X142100000Y-63400000D02*
X144100000Y-65400000D01*
X137892500Y-63400000D02*
X142100000Y-63400000D01*
X144100000Y-65400000D02*
X144100000Y-73600000D01*
X134965000Y-66327500D02*
X137892500Y-63400000D01*
%TO.N,Net-(A1-PadA1)*%
D26*
X140400000Y-67355000D02*
X140400000Y-73490000D01*
X140045000Y-66327500D02*
X140045000Y-67000000D01*
X140045000Y-67000000D02*
X140400000Y-67355000D01*
%TO.N,Net-(A1-PadA0)*%
X129160000Y-66000000D02*
X136650000Y-73490000D01*
X123500000Y-66000000D02*
X129160000Y-66000000D01*
%TO.N,GND*%
D27*
X121420000Y-63000000D02*
X118420000Y-66000000D01*
X131637500Y-63000000D02*
X121420000Y-63000000D01*
X134965000Y-66327500D02*
X131637500Y-63000000D01*
%TO.N,Vin*%
X188700000Y-124000000D02*
X190200000Y-124000000D01*
X184700000Y-128000000D02*
X188700000Y-124000000D01*
%TO.N,Net-(J10-Pin_1)*%
D26*
X165810000Y-112090000D02*
X163600000Y-114300000D01*
X165810000Y-109900000D02*
X165810000Y-112090000D01*
%TO.N,Net-(A1-D13_SCK)*%
X138660000Y-124240000D02*
X146240000Y-124240000D01*
X133700000Y-129200000D02*
X138660000Y-124240000D01*
X129080000Y-129200000D02*
X133700000Y-129200000D01*
X124000000Y-124120000D02*
X129080000Y-129200000D01*
%TO.N,Net-(A1-D0{slash}RX)*%
X129780000Y-90000000D02*
X131000000Y-91220000D01*
X122000000Y-90000000D02*
X129780000Y-90000000D01*
X119500000Y-87500000D02*
X122000000Y-90000000D01*
%TO.N,Net-(J3-Pin_1)*%
X124000000Y-91840000D02*
X131000000Y-98840000D01*
X124000000Y-91750000D02*
X124000000Y-91840000D01*
%TO.N,Net-(J3-Pin_2)*%
X131000000Y-101290000D02*
X131000000Y-101380000D01*
X124000000Y-94290000D02*
X131000000Y-101290000D01*
%TO.N,Net-(J3-Pin_3)*%
X131000000Y-103830000D02*
X131000000Y-103920000D01*
X124000000Y-96830000D02*
X131000000Y-103830000D01*
%TO.N,Net-(J3-Pin_4)*%
X124000000Y-99370000D02*
X131000000Y-106370000D01*
X131000000Y-106370000D02*
X131000000Y-106460000D01*
%TO.N,Net-(J3-Pin_5)*%
X124000000Y-101910000D02*
X131000000Y-108910000D01*
X131000000Y-108910000D02*
X131000000Y-109000000D01*
%TO.N,Net-(J3-Pin_6)*%
X131000000Y-111450000D02*
X131000000Y-111540000D01*
X124000000Y-104450000D02*
X131000000Y-111450000D01*
%TO.N,Net-(J3-Pin_7)*%
X131000000Y-113990000D02*
X131000000Y-114080000D01*
X124000000Y-106990000D02*
X131000000Y-113990000D01*
%TO.N,GND*%
D27*
X120310000Y-105500000D02*
X120310000Y-93770000D01*
X120310000Y-93770000D02*
X107500000Y-80960000D01*
X107500000Y-80960000D02*
X112000000Y-80960000D01*
%TO.N,Net-(A1-D1{slash}TX)*%
D26*
X129820000Y-87500000D02*
X131000000Y-88680000D01*
X124250000Y-87500000D02*
X129820000Y-87500000D01*
%TO.N,Net-(A1-D12_MISO)*%
X126660000Y-124240000D02*
X131000000Y-124240000D01*
X124000000Y-121580000D02*
X126660000Y-124240000D01*
%TO.N,Net-(A1-D11_MOSI)*%
X126660000Y-121700000D02*
X131000000Y-121700000D01*
X124000000Y-119040000D02*
X126660000Y-121700000D01*
%TO.N,Net-(J4-Pin_1)*%
X128340000Y-116500000D02*
X131000000Y-119160000D01*
X124000000Y-116500000D02*
X128340000Y-116500000D01*
%TO.N,Net-(A1-PadD9)*%
X127380000Y-113000000D02*
X131000000Y-116620000D01*
X120310000Y-113000000D02*
X127380000Y-113000000D01*
%TO.N,Net-(Q1-G)*%
X103950000Y-96760000D02*
X112690000Y-105500000D01*
X103950000Y-86040000D02*
X103950000Y-96760000D01*
X112690000Y-105500000D02*
X112690000Y-113000000D01*
%TO.N,GND*%
D27*
X125900000Y-82900000D02*
X126100000Y-82900000D01*
X121300000Y-82900000D02*
X126100000Y-82900000D01*
%TO.N,Net-(D1-A)*%
D26*
X99400000Y-78950000D02*
X103950000Y-83500000D01*
X99400000Y-76200000D02*
X99400000Y-78950000D01*
X106600000Y-69000000D02*
X99400000Y-76200000D01*
X149650000Y-61000000D02*
X112200000Y-61000000D01*
X112200000Y-61000000D02*
X106600000Y-66600000D01*
X159650000Y-71000000D02*
X149650000Y-61000000D01*
X106600000Y-66600000D02*
X106600000Y-69000000D01*
%TO.N,GND*%
D27*
X134800000Y-92500000D02*
X131000000Y-96300000D01*
X134800000Y-84500000D02*
X134800000Y-92500000D01*
X133200000Y-82900000D02*
X134800000Y-84500000D01*
X126100000Y-82900000D02*
X133200000Y-82900000D01*
X103950000Y-80960000D02*
X107500000Y-80960000D01*
X119360000Y-80960000D02*
X121300000Y-82900000D01*
%TO.N,Net-(D1-A)*%
D26*
X162850000Y-67800000D02*
X159650000Y-71000000D01*
X176507500Y-67800000D02*
X162850000Y-67800000D01*
X185172500Y-76465000D02*
X176507500Y-67800000D01*
%TO.N,Net-(L1-Pad2)*%
X185172500Y-81545000D02*
X185172500Y-88000000D01*
%TO.N,Net-(D1-K)*%
X183680000Y-93080000D02*
X172350000Y-81750000D01*
X185172500Y-93080000D02*
X183680000Y-93080000D01*
%TO.N,Net-(D1-A)*%
X185172500Y-101465000D02*
X165457500Y-81750000D01*
X165457500Y-81750000D02*
X159650000Y-81750000D01*
%TO.N,Net-(L2-Pad2)*%
X185172500Y-112747500D02*
X185172500Y-106545000D01*
%TO.N,Net-(D1-K)*%
X186572500Y-117827500D02*
X185172500Y-117827500D01*
X189200000Y-97107500D02*
X189200000Y-115200000D01*
X185172500Y-93080000D02*
X189200000Y-97107500D01*
X189200000Y-115200000D02*
X186572500Y-117827500D01*
X172350000Y-71000000D02*
X172350000Y-81750000D01*
%TO.N,Net-(D1-A)*%
X159650000Y-71000000D02*
X159650000Y-81750000D01*
%TO.N,+3.3V*%
D27*
X136650000Y-81110000D02*
X140400000Y-81110000D01*
X140400000Y-115860000D02*
X140400000Y-81110000D01*
X146240000Y-121700000D02*
X140400000Y-115860000D01*
%TO.N,Net-(J7-Pin_1)*%
D26*
X152840000Y-119160000D02*
X153750000Y-118250000D01*
X146240000Y-119160000D02*
X152840000Y-119160000D01*
%TO.N,GND*%
D27*
X162200000Y-105900000D02*
X160700000Y-104400000D01*
X162200000Y-111400000D02*
X162200000Y-105900000D01*
X158100000Y-112800000D02*
X160800000Y-112800000D01*
X156000000Y-110700000D02*
X158100000Y-112800000D01*
X160800000Y-112800000D02*
X162200000Y-111400000D01*
X156000000Y-92600000D02*
X156000000Y-110700000D01*
X154620000Y-91220000D02*
X156000000Y-92600000D01*
X146240000Y-91220000D02*
X154620000Y-91220000D01*
%TO.N,Net-(J8-Pin_1)*%
D26*
X146420000Y-88500000D02*
X146240000Y-88680000D01*
X153750000Y-88500000D02*
X146420000Y-88500000D01*
%TO.N,Net-(J9-Pin_3)*%
X148910000Y-98840000D02*
X153750000Y-94000000D01*
X146240000Y-98840000D02*
X148910000Y-98840000D01*
%TO.N,Net-(J9-Pin_2)*%
X148910000Y-101380000D02*
X153750000Y-96540000D01*
X146240000Y-101380000D02*
X148910000Y-101380000D01*
%TO.N,Net-(A1-PadA2)*%
X158190000Y-104410000D02*
X158200000Y-104400000D01*
X158190000Y-109900000D02*
X158190000Y-104410000D01*
%TO.N,Net-(D1-K)*%
X185172500Y-124987500D02*
X185172500Y-117827500D01*
X182160000Y-128000000D02*
X185172500Y-124987500D01*
%TD*%
%TA.AperFunction,Conductor*%
%TO.N,GND*%
G36*
X168994075Y-128192993D02*
G01*
X169059901Y-128307007D01*
X169152993Y-128400099D01*
X169267007Y-128465925D01*
X169330589Y-128482962D01*
X168698282Y-129115269D01*
X168698282Y-129115271D01*
X168711923Y-129125182D01*
X168754589Y-129180512D01*
X168760568Y-129250125D01*
X168727963Y-129311920D01*
X168667124Y-129346277D01*
X168639038Y-129349500D01*
X168268377Y-129349500D01*
X168201338Y-129329815D01*
X168155583Y-129277011D01*
X168145639Y-129207853D01*
X168169111Y-129151188D01*
X168213352Y-129092089D01*
X168213354Y-129092086D01*
X168263598Y-128957375D01*
X168272501Y-128874556D01*
X168275550Y-128874883D01*
X168274642Y-128857984D01*
X168307642Y-128798802D01*
X168977037Y-128129408D01*
X168994075Y-128192993D01*
G37*
%TD.AperFunction*%
%TA.AperFunction,Conductor*%
G36*
X150456587Y-108345185D02*
G01*
X150477229Y-108361819D01*
X163338181Y-121222771D01*
X163371666Y-121284094D01*
X163374500Y-121310452D01*
X163374500Y-126669713D01*
X163354815Y-126736752D01*
X163302011Y-126782507D01*
X163232853Y-126792451D01*
X163176189Y-126768980D01*
X163148755Y-126748443D01*
X163092331Y-126706204D01*
X163092329Y-126706203D01*
X163092328Y-126706202D01*
X162957482Y-126655908D01*
X162957483Y-126655908D01*
X162897883Y-126649501D01*
X162897881Y-126649500D01*
X162897873Y-126649500D01*
X162897864Y-126649500D01*
X161102129Y-126649500D01*
X161102123Y-126649501D01*
X161042516Y-126655908D01*
X160907671Y-126706202D01*
X160907664Y-126706206D01*
X160792455Y-126792452D01*
X160792452Y-126792455D01*
X160706206Y-126907664D01*
X160706203Y-126907669D01*
X160657189Y-127039083D01*
X160615317Y-127095016D01*
X160549853Y-127119433D01*
X160481580Y-127104581D01*
X160453326Y-127083430D01*
X160339786Y-126969890D01*
X160167820Y-126844951D01*
X159978414Y-126748444D01*
X159978413Y-126748443D01*
X159978412Y-126748443D01*
X159776243Y-126682754D01*
X159776241Y-126682753D01*
X159776240Y-126682753D01*
X159614957Y-126657208D01*
X159566287Y-126649500D01*
X159353713Y-126649500D01*
X159305042Y-126657208D01*
X159143760Y-126682753D01*
X159070228Y-126706645D01*
X158941647Y-126748424D01*
X158941585Y-126748444D01*
X158752179Y-126844951D01*
X158580213Y-126969890D01*
X158429892Y-127120211D01*
X158373097Y-127198385D01*
X158317767Y-127241051D01*
X158272779Y-127249500D01*
X158107221Y-127249500D01*
X158040182Y-127229815D01*
X158006903Y-127198385D01*
X157950107Y-127120211D01*
X157799786Y-126969890D01*
X157627820Y-126844951D01*
X157438414Y-126748444D01*
X157438413Y-126748443D01*
X157438412Y-126748443D01*
X157236243Y-126682754D01*
X157236241Y-126682753D01*
X157236240Y-126682753D01*
X157074957Y-126657208D01*
X157026287Y-126649500D01*
X156813713Y-126649500D01*
X156765042Y-126657208D01*
X156603760Y-126682753D01*
X156530228Y-126706645D01*
X156401647Y-126748424D01*
X156401585Y-126748444D01*
X156212179Y-126844951D01*
X156040213Y-126969890D01*
X155889892Y-127120211D01*
X155833097Y-127198385D01*
X155777767Y-127241051D01*
X155732779Y-127249500D01*
X155567221Y-127249500D01*
X155500182Y-127229815D01*
X155466903Y-127198385D01*
X155410107Y-127120211D01*
X155259786Y-126969890D01*
X155087820Y-126844951D01*
X154898414Y-126748444D01*
X154898413Y-126748443D01*
X154898412Y-126748443D01*
X154696243Y-126682754D01*
X154696241Y-126682753D01*
X154696240Y-126682753D01*
X154534957Y-126657208D01*
X154486287Y-126649500D01*
X154273713Y-126649500D01*
X154225042Y-126657208D01*
X154063760Y-126682753D01*
X153990228Y-126706645D01*
X153861647Y-126748424D01*
X153861585Y-126748444D01*
X153672179Y-126844951D01*
X153500213Y-126969890D01*
X153349892Y-127120211D01*
X153293097Y-127198385D01*
X153237767Y-127241051D01*
X153192779Y-127249500D01*
X153027221Y-127249500D01*
X152960182Y-127229815D01*
X152926903Y-127198385D01*
X152870107Y-127120211D01*
X152719786Y-126969890D01*
X152547820Y-126844951D01*
X152445485Y-126792809D01*
X152358412Y-126748443D01*
X152358410Y-126748442D01*
X152358374Y-126748424D01*
X152326988Y-126725620D01*
X147622061Y-122020693D01*
X147588576Y-121959370D01*
X147587269Y-121913619D01*
X147604100Y-121807357D01*
X147604100Y-121592643D01*
X147570511Y-121380573D01*
X147537336Y-121278470D01*
X147504162Y-121176369D01*
X147504161Y-121176366D01*
X147445678Y-121061588D01*
X147406683Y-120985056D01*
X147280477Y-120811349D01*
X147128651Y-120659523D01*
X146954944Y-120533317D01*
X146954943Y-120533316D01*
X146951002Y-120530453D01*
X146952405Y-120528521D01*
X146912078Y-120484073D01*
X146900558Y-120415160D01*
X146928125Y-120350958D01*
X146951709Y-120330521D01*
X146951002Y-120329547D01*
X146954944Y-120326683D01*
X147128651Y-120200477D01*
X147280477Y-120048651D01*
X147406683Y-119874944D01*
X147417759Y-119853205D01*
X147465732Y-119802410D01*
X147528244Y-119785500D01*
X152901607Y-119785500D01*
X152962029Y-119773481D01*
X153022452Y-119761463D01*
X153022455Y-119761461D01*
X153022458Y-119761461D01*
X153055787Y-119747654D01*
X153055786Y-119747654D01*
X153055792Y-119747652D01*
X153136286Y-119714312D01*
X153190955Y-119677782D01*
X153238733Y-119645858D01*
X153247773Y-119636818D01*
X153309096Y-119603333D01*
X153335454Y-119600499D01*
X154647871Y-119600499D01*
X154647872Y-119600499D01*
X154707483Y-119594091D01*
X154842331Y-119543796D01*
X154957546Y-119457546D01*
X155043796Y-119342331D01*
X155094091Y-119207483D01*
X155100500Y-119147873D01*
X155100499Y-117352128D01*
X155094091Y-117292517D01*
X155043796Y-117157669D01*
X155043795Y-117157668D01*
X155043793Y-117157664D01*
X154957547Y-117042455D01*
X154957544Y-117042452D01*
X154842335Y-116956206D01*
X154842328Y-116956202D01*
X154707482Y-116905908D01*
X154707483Y-116905908D01*
X154647883Y-116899501D01*
X154647881Y-116899500D01*
X154647873Y-116899500D01*
X154647864Y-116899500D01*
X152852129Y-116899500D01*
X152852123Y-116899501D01*
X152792516Y-116905908D01*
X152657671Y-116956202D01*
X152657664Y-116956206D01*
X152542455Y-117042452D01*
X152542452Y-117042455D01*
X152456206Y-117157664D01*
X152456202Y-117157671D01*
X152405908Y-117292517D01*
X152401347Y-117334944D01*
X152399500Y-117352127D01*
X152399500Y-117915658D01*
X152399501Y-118410500D01*
X152379817Y-118477539D01*
X152327013Y-118523294D01*
X152275501Y-118534500D01*
X147528244Y-118534500D01*
X147461205Y-118514815D01*
X147417759Y-118466794D01*
X147406683Y-118445056D01*
X147280477Y-118271349D01*
X147128651Y-118119523D01*
X146954944Y-117993317D01*
X146954943Y-117993316D01*
X146951002Y-117990453D01*
X146952405Y-117988521D01*
X146912078Y-117944073D01*
X146900558Y-117875160D01*
X146928125Y-117810958D01*
X146951709Y-117790521D01*
X146951002Y-117789547D01*
X146954944Y-117786683D01*
X147128651Y-117660477D01*
X147280477Y-117508651D01*
X147406683Y-117334944D01*
X147504161Y-117143633D01*
X147570511Y-116939427D01*
X147604100Y-116727357D01*
X147604100Y-116512643D01*
X147570511Y-116300573D01*
X147532891Y-116184789D01*
X147504162Y-116096369D01*
X147504161Y-116096366D01*
X147421389Y-115933918D01*
X147406683Y-115905056D01*
X147280477Y-115731349D01*
X147128651Y-115579523D01*
X146954944Y-115453317D01*
X146954943Y-115453316D01*
X146951002Y-115450453D01*
X146952405Y-115448521D01*
X146912078Y-115404073D01*
X146900558Y-115335160D01*
X146928125Y-115270958D01*
X146951709Y-115250521D01*
X146951002Y-115249547D01*
X146954944Y-115246683D01*
X147128651Y-115120477D01*
X147280477Y-114968651D01*
X147406683Y-114794944D01*
X147504161Y-114603633D01*
X147570511Y-114399427D01*
X147604100Y-114187357D01*
X147604100Y-113972643D01*
X147570511Y-113760573D01*
X147537336Y-113658470D01*
X147504162Y-113556369D01*
X147504161Y-113556366D01*
X147454492Y-113458888D01*
X147406683Y-113365056D01*
X147280477Y-113191349D01*
X147128651Y-113039523D01*
X146954944Y-112913317D01*
X146954943Y-112913316D01*
X146951002Y-112910453D01*
X146952405Y-112908521D01*
X146912078Y-112864073D01*
X146900558Y-112795160D01*
X146928125Y-112730958D01*
X146951709Y-112710521D01*
X146951002Y-112709547D01*
X146954944Y-112706683D01*
X147128651Y-112580477D01*
X147280477Y-112428651D01*
X147406683Y-112254944D01*
X147504161Y-112063633D01*
X147570511Y-111859427D01*
X147604100Y-111647357D01*
X147604100Y-111432643D01*
X147570511Y-111220573D01*
X147521893Y-111070940D01*
X147504162Y-111016369D01*
X147504161Y-111016366D01*
X147440951Y-110892310D01*
X147406683Y-110825056D01*
X147280477Y-110651349D01*
X147128651Y-110499523D01*
X146954944Y-110373317D01*
X146954943Y-110373316D01*
X146951002Y-110370453D01*
X146952405Y-110368521D01*
X146912078Y-110324073D01*
X146900558Y-110255160D01*
X146928125Y-110190958D01*
X146951709Y-110170521D01*
X146951002Y-110169547D01*
X146954944Y-110166683D01*
X147128651Y-110040477D01*
X147280477Y-109888651D01*
X147406683Y-109714944D01*
X147504161Y-109523633D01*
X147570511Y-109319427D01*
X147604100Y-109107357D01*
X147604100Y-108892643D01*
X147570511Y-108680573D01*
X147540288Y-108587557D01*
X147507882Y-108487818D01*
X147505887Y-108417977D01*
X147541968Y-108358144D01*
X147604669Y-108327316D01*
X147625813Y-108325500D01*
X150389548Y-108325500D01*
X150456587Y-108345185D01*
G37*
%TD.AperFunction*%
%TA.AperFunction,Conductor*%
G36*
X151856587Y-84145185D02*
G01*
X151877229Y-84161819D01*
X154653229Y-86937819D01*
X154686714Y-86999142D01*
X154681730Y-87068834D01*
X154639858Y-87124767D01*
X154574394Y-87149184D01*
X154565548Y-87149500D01*
X152852129Y-87149500D01*
X152852123Y-87149501D01*
X152792516Y-87155908D01*
X152657671Y-87206202D01*
X152657664Y-87206206D01*
X152542455Y-87292452D01*
X152542452Y-87292455D01*
X152456206Y-87407664D01*
X152456202Y-87407671D01*
X152405908Y-87542517D01*
X152399501Y-87602116D01*
X152399500Y-87602135D01*
X152399500Y-87750500D01*
X152379815Y-87817539D01*
X152327011Y-87863294D01*
X152275500Y-87874500D01*
X147404071Y-87874500D01*
X147337032Y-87854815D01*
X147303753Y-87823386D01*
X147299505Y-87817539D01*
X147280477Y-87791349D01*
X147128651Y-87639523D01*
X146954944Y-87513317D01*
X146763633Y-87415839D01*
X146763621Y-87415835D01*
X146747057Y-87410453D01*
X146689382Y-87371015D01*
X146662184Y-87306656D01*
X146674099Y-87237810D01*
X146721343Y-87186334D01*
X146729060Y-87182048D01*
X146842994Y-87123996D01*
X146989501Y-87017553D01*
X147117553Y-86889501D01*
X147223996Y-86742994D01*
X147306211Y-86581639D01*
X147362171Y-86409409D01*
X147380695Y-86292452D01*
X147390500Y-86230551D01*
X147390500Y-86049448D01*
X147374019Y-85945397D01*
X147362171Y-85870591D01*
X147306211Y-85698361D01*
X147306211Y-85698360D01*
X147277740Y-85642484D01*
X147223996Y-85537006D01*
X147210396Y-85518287D01*
X147117558Y-85390505D01*
X147117554Y-85390500D01*
X146989499Y-85262445D01*
X146989494Y-85262441D01*
X146842997Y-85156006D01*
X146842996Y-85156005D01*
X146842994Y-85156004D01*
X146791300Y-85129664D01*
X146681639Y-85073788D01*
X146681636Y-85073787D01*
X146509410Y-85017829D01*
X146330551Y-84989500D01*
X146330546Y-84989500D01*
X146149454Y-84989500D01*
X146149449Y-84989500D01*
X145970589Y-85017829D01*
X145798363Y-85073787D01*
X145798360Y-85073788D01*
X145637002Y-85156006D01*
X145490505Y-85262441D01*
X145490500Y-85262445D01*
X145362445Y-85390500D01*
X145362441Y-85390505D01*
X145256006Y-85537002D01*
X145173788Y-85698360D01*
X145173787Y-85698363D01*
X145117829Y-85870589D01*
X145089500Y-86049448D01*
X145089500Y-86230551D01*
X145117829Y-86409410D01*
X145173787Y-86581636D01*
X145173788Y-86581639D01*
X145256006Y-86742997D01*
X145362441Y-86889494D01*
X145362445Y-86889499D01*
X145490500Y-87017554D01*
X145490505Y-87017558D01*
X145603953Y-87099982D01*
X145637006Y-87123996D01*
X145750918Y-87182037D01*
X145801714Y-87230012D01*
X145818509Y-87297833D01*
X145795972Y-87363968D01*
X145741257Y-87407419D01*
X145732943Y-87410452D01*
X145716374Y-87415835D01*
X145716366Y-87415838D01*
X145525055Y-87513317D01*
X145474621Y-87549960D01*
X145351349Y-87639523D01*
X145351347Y-87639525D01*
X145351346Y-87639525D01*
X145199525Y-87791346D01*
X145199525Y-87791347D01*
X145199523Y-87791349D01*
X145180495Y-87817539D01*
X145073317Y-87965055D01*
X144975838Y-88156366D01*
X144975837Y-88156369D01*
X144909489Y-88360571D01*
X144894140Y-88457482D01*
X144875900Y-88572643D01*
X144875900Y-88787357D01*
X144877595Y-88798056D01*
X144909489Y-88999428D01*
X144975837Y-89203630D01*
X144975838Y-89203633D01*
X145053776Y-89356593D01*
X145073317Y-89394944D01*
X145199523Y-89568651D01*
X145199525Y-89568653D01*
X145296211Y-89665339D01*
X145329696Y-89726662D01*
X145324712Y-89796354D01*
X145282840Y-89852287D01*
X145251863Y-89869202D01*
X145134313Y-89913045D01*
X145134306Y-89913049D01*
X145019212Y-89999209D01*
X145019209Y-89999212D01*
X144933049Y-90114306D01*
X144933045Y-90114313D01*
X144882803Y-90249020D01*
X144882801Y-90249027D01*
X144876400Y-90308555D01*
X144876400Y-90970000D01*
X145797749Y-90970000D01*
X145766619Y-91023919D01*
X145732000Y-91153120D01*
X145732000Y-91286880D01*
X145766619Y-91416081D01*
X145797749Y-91470000D01*
X144876400Y-91470000D01*
X144876400Y-92131444D01*
X144882801Y-92190972D01*
X144882803Y-92190979D01*
X144933045Y-92325686D01*
X144933049Y-92325693D01*
X145019209Y-92440787D01*
X145019212Y-92440790D01*
X145134306Y-92526950D01*
X145134313Y-92526954D01*
X145251863Y-92570797D01*
X145307797Y-92612668D01*
X145332214Y-92678132D01*
X145317363Y-92746405D01*
X145296212Y-92774660D01*
X145199522Y-92871350D01*
X145073317Y-93045055D01*
X144975838Y-93236366D01*
X144975837Y-93236369D01*
X144909489Y-93440571D01*
X144887060Y-93582184D01*
X144875900Y-93652643D01*
X144875900Y-93867357D01*
X144888126Y-93944547D01*
X144909489Y-94079428D01*
X144975837Y-94283630D01*
X144975838Y-94283633D01*
X145073317Y-94474944D01*
X145199523Y-94648651D01*
X145351349Y-94800477D01*
X145511478Y-94916818D01*
X145528998Y-94929547D01*
X145527624Y-94931437D01*
X145568030Y-94976152D01*
X145579411Y-95045089D01*
X145551715Y-95109235D01*
X145528314Y-95129511D01*
X145528998Y-95130453D01*
X145525056Y-95133316D01*
X145525056Y-95133317D01*
X145351349Y-95259523D01*
X145351347Y-95259525D01*
X145351346Y-95259525D01*
X145199525Y-95411346D01*
X145199525Y-95411347D01*
X145199523Y-95411349D01*
X145175038Y-95445050D01*
X145073317Y-95585055D01*
X144975838Y-95776366D01*
X144975837Y-95776369D01*
X144909489Y-95980571D01*
X144887060Y-96122184D01*
X144875900Y-96192643D01*
X144875900Y-96407357D01*
X144882582Y-96449547D01*
X144909489Y-96619428D01*
X144975837Y-96823630D01*
X144975838Y-96823633D01*
X145073317Y-97014944D01*
X145199523Y-97188651D01*
X145351349Y-97340477D01*
X145525056Y-97466683D01*
X145528998Y-97469547D01*
X145527624Y-97471437D01*
X145568030Y-97516152D01*
X145579411Y-97585089D01*
X145551715Y-97649235D01*
X145528314Y-97669511D01*
X145528998Y-97670453D01*
X145525056Y-97673316D01*
X145525056Y-97673317D01*
X145351349Y-97799523D01*
X145351347Y-97799525D01*
X145351346Y-97799525D01*
X145199525Y-97951346D01*
X145199525Y-97951347D01*
X145199523Y-97951349D01*
X145171793Y-97989516D01*
X145073317Y-98125055D01*
X144975838Y-98316366D01*
X144975837Y-98316369D01*
X144909489Y-98520571D01*
X144875900Y-98732643D01*
X144875900Y-98947356D01*
X144909489Y-99159428D01*
X144975837Y-99363630D01*
X144975838Y-99363633D01*
X145033239Y-99476287D01*
X145073317Y-99554944D01*
X145199523Y-99728651D01*
X145351349Y-99880477D01*
X145525056Y-100006683D01*
X145528998Y-100009547D01*
X145527624Y-100011437D01*
X145568030Y-100056152D01*
X145579411Y-100125089D01*
X145551715Y-100189235D01*
X145528314Y-100209511D01*
X145528998Y-100210453D01*
X145525056Y-100213316D01*
X145525056Y-100213317D01*
X145351349Y-100339523D01*
X145351347Y-100339525D01*
X145351346Y-100339525D01*
X145199525Y-100491346D01*
X145199525Y-100491347D01*
X145199523Y-100491349D01*
X145175038Y-100525050D01*
X145073317Y-100665055D01*
X144975838Y-100856366D01*
X144975837Y-100856369D01*
X144909489Y-101060571D01*
X144875900Y-101272643D01*
X144875900Y-101487356D01*
X144909489Y-101699430D01*
X144946124Y-101812183D01*
X144948119Y-101882024D01*
X144912038Y-101941857D01*
X144849337Y-101972684D01*
X144828193Y-101974500D01*
X144338389Y-101974500D01*
X144277971Y-101986518D01*
X144234743Y-101995116D01*
X144217546Y-101998537D01*
X144174696Y-102016287D01*
X144174695Y-102016287D01*
X144103715Y-102045686D01*
X144093627Y-102052428D01*
X144093626Y-102052429D01*
X144001268Y-102114140D01*
X143957705Y-102157703D01*
X143914142Y-102201267D01*
X143587181Y-102528228D01*
X143525858Y-102561713D01*
X143456166Y-102556729D01*
X143400233Y-102514857D01*
X143375816Y-102449393D01*
X143375500Y-102440547D01*
X143375500Y-84960452D01*
X143395185Y-84893413D01*
X143411819Y-84872771D01*
X144122772Y-84161819D01*
X144184095Y-84128334D01*
X144210453Y-84125500D01*
X151789548Y-84125500D01*
X151856587Y-84145185D01*
G37*
%TD.AperFunction*%
%TA.AperFunction,Conductor*%
G36*
X129536587Y-90645185D02*
G01*
X129557223Y-90661814D01*
X129646779Y-90751370D01*
X129680263Y-90812693D01*
X129677029Y-90877366D01*
X129669488Y-90900573D01*
X129635900Y-91112643D01*
X129635900Y-91327356D01*
X129669489Y-91539428D01*
X129735837Y-91743630D01*
X129735838Y-91743633D01*
X129803895Y-91877200D01*
X129833317Y-91934944D01*
X129959523Y-92108651D01*
X130111349Y-92260477D01*
X130285056Y-92386683D01*
X130288998Y-92389547D01*
X130287624Y-92391437D01*
X130328030Y-92436152D01*
X130339411Y-92505089D01*
X130311715Y-92569235D01*
X130288314Y-92589511D01*
X130288998Y-92590453D01*
X130285056Y-92593316D01*
X130285056Y-92593317D01*
X130111349Y-92719523D01*
X130111347Y-92719525D01*
X130111346Y-92719525D01*
X129959525Y-92871346D01*
X129959525Y-92871347D01*
X129959523Y-92871349D01*
X129905322Y-92945949D01*
X129833317Y-93045055D01*
X129735838Y-93236366D01*
X129735837Y-93236369D01*
X129669489Y-93440571D01*
X129647060Y-93582184D01*
X129635900Y-93652643D01*
X129635900Y-93867357D01*
X129648126Y-93944547D01*
X129669489Y-94079428D01*
X129735837Y-94283630D01*
X129735838Y-94283633D01*
X129833317Y-94474944D01*
X129959523Y-94648651D01*
X129959525Y-94648653D01*
X130056211Y-94745339D01*
X130089696Y-94806662D01*
X130084712Y-94876354D01*
X130042840Y-94932287D01*
X130011863Y-94949202D01*
X129894313Y-94993045D01*
X129894306Y-94993049D01*
X129779212Y-95079209D01*
X129779209Y-95079212D01*
X129693049Y-95194306D01*
X129693045Y-95194313D01*
X129642803Y-95329020D01*
X129642801Y-95329027D01*
X129636400Y-95388555D01*
X129636400Y-96050000D01*
X130557749Y-96050000D01*
X130526619Y-96103919D01*
X130492000Y-96233120D01*
X130492000Y-96366880D01*
X130526619Y-96496081D01*
X130557749Y-96550000D01*
X129645952Y-96550000D01*
X129578913Y-96530315D01*
X129558271Y-96513681D01*
X125386818Y-92342228D01*
X125353333Y-92280905D01*
X125350499Y-92254547D01*
X125350499Y-90852129D01*
X125350498Y-90852123D01*
X125350498Y-90852116D01*
X125344091Y-90792517D01*
X125344090Y-90792515D01*
X125344090Y-90792512D01*
X125342308Y-90784969D01*
X125343624Y-90784657D01*
X125339225Y-90723142D01*
X125372709Y-90661819D01*
X125434032Y-90628334D01*
X125460391Y-90625500D01*
X129469548Y-90625500D01*
X129536587Y-90645185D01*
G37*
%TD.AperFunction*%
%TA.AperFunction,Conductor*%
G36*
X193442539Y-59520185D02*
G01*
X193488294Y-59572989D01*
X193499500Y-59624500D01*
X193499500Y-133375500D01*
X193479815Y-133442539D01*
X193427011Y-133488294D01*
X193375500Y-133499500D01*
X94624500Y-133499500D01*
X94557461Y-133479815D01*
X94511706Y-133427011D01*
X94500500Y-133375500D01*
X94500500Y-130893753D01*
X109530000Y-130893753D01*
X109530000Y-131106246D01*
X109563242Y-131316127D01*
X109563242Y-131316130D01*
X109628904Y-131518217D01*
X109725375Y-131707550D01*
X109764728Y-131761716D01*
X110397037Y-131129408D01*
X110414075Y-131192993D01*
X110479901Y-131307007D01*
X110572993Y-131400099D01*
X110687007Y-131465925D01*
X110750590Y-131482962D01*
X110118282Y-132115269D01*
X110118282Y-132115270D01*
X110172449Y-132154624D01*
X110361782Y-132251095D01*
X110563870Y-132316757D01*
X110773754Y-132350000D01*
X110986246Y-132350000D01*
X111196127Y-132316757D01*
X111196130Y-132316757D01*
X111398217Y-132251095D01*
X111587554Y-132154622D01*
X111641716Y-132115270D01*
X111641717Y-132115270D01*
X111009408Y-131482962D01*
X111072993Y-131465925D01*
X111187007Y-131400099D01*
X111280099Y-131307007D01*
X111345925Y-131192993D01*
X111362962Y-131129409D01*
X111995270Y-131761717D01*
X111995270Y-131761716D01*
X112034622Y-131707554D01*
X112039514Y-131697954D01*
X112087488Y-131647157D01*
X112155308Y-131630361D01*
X112221444Y-131652897D01*
X112260486Y-131697954D01*
X112265375Y-131707550D01*
X112304728Y-131761716D01*
X112937037Y-131129408D01*
X112954075Y-131192993D01*
X113019901Y-131307007D01*
X113112993Y-131400099D01*
X113227007Y-131465925D01*
X113290590Y-131482962D01*
X112658282Y-132115269D01*
X112658282Y-132115270D01*
X112712449Y-132154624D01*
X112901782Y-132251095D01*
X113103870Y-132316757D01*
X113313754Y-132350000D01*
X113526246Y-132350000D01*
X113736127Y-132316757D01*
X113736130Y-132316757D01*
X113938217Y-132251095D01*
X114127554Y-132154622D01*
X114181716Y-132115270D01*
X114181717Y-132115270D01*
X113549408Y-131482962D01*
X113612993Y-131465925D01*
X113727007Y-131400099D01*
X113820099Y-131307007D01*
X113885925Y-131192993D01*
X113902962Y-131129409D01*
X114535270Y-131761717D01*
X114535270Y-131761716D01*
X114574622Y-131707554D01*
X114579514Y-131697954D01*
X114627488Y-131647157D01*
X114695308Y-131630361D01*
X114761444Y-131652897D01*
X114800486Y-131697954D01*
X114805375Y-131707550D01*
X114844728Y-131761716D01*
X115477037Y-131129408D01*
X115494075Y-131192993D01*
X115559901Y-131307007D01*
X115652993Y-131400099D01*
X115767007Y-131465925D01*
X115830590Y-131482962D01*
X115198282Y-132115269D01*
X115198282Y-132115270D01*
X115252449Y-132154624D01*
X115441782Y-132251095D01*
X115643870Y-132316757D01*
X115853754Y-132350000D01*
X116066246Y-132350000D01*
X116276127Y-132316757D01*
X116276130Y-132316757D01*
X116478217Y-132251095D01*
X116667554Y-132154622D01*
X116721716Y-132115270D01*
X116721717Y-132115270D01*
X116089408Y-131482962D01*
X116152993Y-131465925D01*
X116267007Y-131400099D01*
X116360099Y-131307007D01*
X116425925Y-131192993D01*
X116442962Y-131129408D01*
X117075270Y-131761717D01*
X117075270Y-131761716D01*
X117114622Y-131707554D01*
X117119514Y-131697954D01*
X117167488Y-131647157D01*
X117235308Y-131630361D01*
X117301444Y-131652897D01*
X117340486Y-131697954D01*
X117345375Y-131707550D01*
X117384728Y-131761716D01*
X118017037Y-131129408D01*
X118034075Y-131192993D01*
X118099901Y-131307007D01*
X118192993Y-131400099D01*
X118307007Y-131465925D01*
X118370590Y-131482962D01*
X117738282Y-132115269D01*
X117738282Y-132115270D01*
X117792449Y-132154624D01*
X117981782Y-132251095D01*
X118183870Y-132316757D01*
X118393754Y-132350000D01*
X118606246Y-132350000D01*
X118816127Y-132316757D01*
X118816130Y-132316757D01*
X119018217Y-132251095D01*
X119207554Y-132154622D01*
X119261716Y-132115270D01*
X119261717Y-132115270D01*
X118629408Y-131482962D01*
X118692993Y-131465925D01*
X118807007Y-131400099D01*
X118900099Y-131307007D01*
X118965925Y-131192993D01*
X118982962Y-131129408D01*
X119652356Y-131798803D01*
X119685841Y-131860126D01*
X119684926Y-131874831D01*
X119687497Y-131874555D01*
X119696401Y-131957373D01*
X119696403Y-131957380D01*
X119746645Y-132092086D01*
X119746649Y-132092093D01*
X119832809Y-132207187D01*
X119832812Y-132207190D01*
X119947906Y-132293350D01*
X119947913Y-132293354D01*
X120082620Y-132343596D01*
X120082627Y-132343598D01*
X120142155Y-132349999D01*
X120142172Y-132350000D01*
X120790000Y-132350000D01*
X120790000Y-131433012D01*
X120847007Y-131465925D01*
X120974174Y-131500000D01*
X121105826Y-131500000D01*
X121232993Y-131465925D01*
X121290000Y-131433012D01*
X121290000Y-132350000D01*
X121937828Y-132350000D01*
X121937844Y-132349999D01*
X121997372Y-132343598D01*
X121997379Y-132343596D01*
X122132086Y-132293354D01*
X122132093Y-132293350D01*
X122247187Y-132207190D01*
X122247190Y-132207187D01*
X122333350Y-132092093D01*
X122333354Y-132092086D01*
X122383596Y-131957379D01*
X122383598Y-131957372D01*
X122389999Y-131897844D01*
X122390000Y-131897827D01*
X122390000Y-131250000D01*
X121473012Y-131250000D01*
X121505925Y-131192993D01*
X121540000Y-131065826D01*
X121540000Y-130934174D01*
X121505925Y-130807007D01*
X121473012Y-130750000D01*
X122390000Y-130750000D01*
X122390000Y-130102172D01*
X122389999Y-130102155D01*
X122383598Y-130042627D01*
X122383596Y-130042620D01*
X122333354Y-129907913D01*
X122333350Y-129907906D01*
X122247190Y-129792812D01*
X122247187Y-129792809D01*
X122132093Y-129706649D01*
X122132086Y-129706645D01*
X121997379Y-129656403D01*
X121997372Y-129656401D01*
X121937844Y-129650000D01*
X121290000Y-129650000D01*
X121290000Y-130566988D01*
X121232993Y-130534075D01*
X121105826Y-130500000D01*
X120974174Y-130500000D01*
X120847007Y-130534075D01*
X120790000Y-130566988D01*
X120790000Y-129650000D01*
X120142155Y-129650000D01*
X120082627Y-129656401D01*
X120082620Y-129656403D01*
X119947913Y-129706645D01*
X119947906Y-129706649D01*
X119832812Y-129792809D01*
X119832809Y-129792812D01*
X119746649Y-129907906D01*
X119746645Y-129907913D01*
X119696403Y-130042619D01*
X119696401Y-130042626D01*
X119687497Y-130125444D01*
X119684434Y-130125114D01*
X119685336Y-130142094D01*
X119652356Y-130201195D01*
X118982962Y-130870590D01*
X118965925Y-130807007D01*
X118900099Y-130692993D01*
X118807007Y-130599901D01*
X118692993Y-130534075D01*
X118629409Y-130517037D01*
X119261716Y-129884728D01*
X119207550Y-129845375D01*
X119018217Y-129748904D01*
X118816129Y-129683242D01*
X118606246Y-129650000D01*
X118393754Y-129650000D01*
X118183872Y-129683242D01*
X118183869Y-129683242D01*
X117981782Y-129748904D01*
X117792439Y-129845380D01*
X117738282Y-129884727D01*
X117738282Y-129884728D01*
X118370591Y-130517037D01*
X118307007Y-130534075D01*
X118192993Y-130599901D01*
X118099901Y-130692993D01*
X118034075Y-130807007D01*
X118017037Y-130870591D01*
X117384728Y-130238282D01*
X117384727Y-130238282D01*
X117345380Y-130292440D01*
X117340483Y-130302051D01*
X117292506Y-130352845D01*
X117224684Y-130369638D01*
X117158550Y-130347098D01*
X117119516Y-130302048D01*
X117114626Y-130292452D01*
X117075270Y-130238282D01*
X117075269Y-130238282D01*
X116442962Y-130870590D01*
X116425925Y-130807007D01*
X116360099Y-130692993D01*
X116267007Y-130599901D01*
X116152993Y-130534075D01*
X116089409Y-130517037D01*
X116721716Y-129884728D01*
X116667550Y-129845375D01*
X116478217Y-129748904D01*
X116276129Y-129683242D01*
X116066246Y-129650000D01*
X115853754Y-129650000D01*
X115643872Y-129683242D01*
X115643869Y-129683242D01*
X115441782Y-129748904D01*
X115252439Y-129845380D01*
X115198282Y-129884727D01*
X115198282Y-129884728D01*
X115830591Y-130517037D01*
X115767007Y-130534075D01*
X115652993Y-130599901D01*
X115559901Y-130692993D01*
X115494075Y-130807007D01*
X115477037Y-130870591D01*
X114844728Y-130238282D01*
X114844727Y-130238282D01*
X114805380Y-130292440D01*
X114800483Y-130302051D01*
X114752506Y-130352845D01*
X114684684Y-130369638D01*
X114618550Y-130347098D01*
X114579516Y-130302048D01*
X114574626Y-130292452D01*
X114535270Y-130238282D01*
X114535269Y-130238282D01*
X113902962Y-130870590D01*
X113885925Y-130807007D01*
X113820099Y-130692993D01*
X113727007Y-130599901D01*
X113612993Y-130534075D01*
X113549409Y-130517037D01*
X114181716Y-129884728D01*
X114127550Y-129845375D01*
X113938217Y-129748904D01*
X113736129Y-129683242D01*
X113526246Y-129650000D01*
X113313754Y-129650000D01*
X113103872Y-129683242D01*
X113103869Y-129683242D01*
X112901782Y-129748904D01*
X112712439Y-129845380D01*
X112658282Y-129884727D01*
X112658282Y-129884728D01*
X113290591Y-130517037D01*
X113227007Y-130534075D01*
X113112993Y-130599901D01*
X113019901Y-130692993D01*
X112954075Y-130807007D01*
X112937037Y-130870591D01*
X112304728Y-130238282D01*
X112304727Y-130238282D01*
X112265380Y-130292440D01*
X112260483Y-130302051D01*
X112212506Y-130352845D01*
X112144684Y-130369638D01*
X112078550Y-130347098D01*
X112039516Y-130302048D01*
X112034626Y-130292452D01*
X111995270Y-130238282D01*
X111995269Y-130238282D01*
X111362962Y-130870590D01*
X111345925Y-130807007D01*
X111280099Y-130692993D01*
X111187007Y-130599901D01*
X111072993Y-130534075D01*
X111009409Y-130517037D01*
X111641716Y-129884728D01*
X111587550Y-129845375D01*
X111398217Y-129748904D01*
X111196129Y-129683242D01*
X110986246Y-129650000D01*
X110773754Y-129650000D01*
X110563872Y-129683242D01*
X110563869Y-129683242D01*
X110361782Y-129748904D01*
X110172439Y-129845380D01*
X110118282Y-129884727D01*
X110118282Y-129884728D01*
X110750591Y-130517037D01*
X110687007Y-130534075D01*
X110572993Y-130599901D01*
X110479901Y-130692993D01*
X110414075Y-130807007D01*
X110397037Y-130870591D01*
X109764728Y-130238282D01*
X109764727Y-130238282D01*
X109725380Y-130292439D01*
X109628904Y-130481782D01*
X109563242Y-130683869D01*
X109563242Y-130683872D01*
X109530000Y-130893753D01*
X94500500Y-130893753D01*
X94500500Y-76138394D01*
X98774500Y-76138394D01*
X98774500Y-76147080D01*
X98774500Y-79011611D01*
X98798535Y-79132444D01*
X98798540Y-79132461D01*
X98845685Y-79246280D01*
X98845690Y-79246289D01*
X98879914Y-79297507D01*
X98879915Y-79297509D01*
X98914140Y-79348731D01*
X98914141Y-79348732D01*
X98914142Y-79348733D01*
X99001267Y-79435858D01*
X99001268Y-79435858D01*
X99008335Y-79442925D01*
X99008334Y-79442925D01*
X99008338Y-79442928D01*
X102490375Y-82924966D01*
X102523860Y-82986289D01*
X102520625Y-83050964D01*
X102485278Y-83159751D01*
X102449500Y-83385646D01*
X102449500Y-83614353D01*
X102485278Y-83840246D01*
X102485278Y-83840249D01*
X102555950Y-84057755D01*
X102659783Y-84261538D01*
X102792525Y-84444242D01*
X102816005Y-84510046D01*
X102800180Y-84578100D01*
X102750074Y-84626795D01*
X102735541Y-84633308D01*
X102707670Y-84643703D01*
X102707664Y-84643706D01*
X102592455Y-84729952D01*
X102592452Y-84729955D01*
X102506206Y-84845164D01*
X102506202Y-84845171D01*
X102455908Y-84980017D01*
X102449501Y-85039616D01*
X102449501Y-85039623D01*
X102449500Y-85039635D01*
X102449500Y-87040370D01*
X102449501Y-87040376D01*
X102455908Y-87099983D01*
X102506202Y-87234828D01*
X102506206Y-87234835D01*
X102592452Y-87350044D01*
X102592455Y-87350047D01*
X102707664Y-87436293D01*
X102707671Y-87436297D01*
X102752618Y-87453061D01*
X102842517Y-87486591D01*
X102902127Y-87493000D01*
X103200500Y-87492999D01*
X103267539Y-87512683D01*
X103313294Y-87565487D01*
X103324500Y-87616999D01*
X103324500Y-96698393D01*
X103324500Y-96821607D01*
X103324903Y-96823633D01*
X103336517Y-96882027D01*
X103345074Y-96925046D01*
X103348536Y-96942447D01*
X103348538Y-96942455D01*
X103395685Y-97056280D01*
X103395690Y-97056289D01*
X103429914Y-97107507D01*
X103429915Y-97107509D01*
X103464140Y-97158731D01*
X103464141Y-97158732D01*
X103464142Y-97158733D01*
X103551267Y-97245858D01*
X103551268Y-97245858D01*
X103558335Y-97252925D01*
X103558334Y-97252925D01*
X103558338Y-97252928D01*
X111475099Y-105169690D01*
X111508584Y-105231013D01*
X111509891Y-105276769D01*
X111489500Y-105405513D01*
X111489500Y-105594486D01*
X111519059Y-105781118D01*
X111577454Y-105960836D01*
X111653564Y-106110208D01*
X111663240Y-106129199D01*
X111774310Y-106282073D01*
X111907927Y-106415690D01*
X112013387Y-106492311D01*
X112056051Y-106547640D01*
X112064500Y-106592628D01*
X112064500Y-111907371D01*
X112044815Y-111974410D01*
X112013386Y-112007689D01*
X111907925Y-112084311D01*
X111774312Y-112217924D01*
X111774312Y-112217925D01*
X111774310Y-112217927D01*
X111734701Y-112272444D01*
X111663240Y-112370800D01*
X111577454Y-112539163D01*
X111519059Y-112718881D01*
X111489500Y-112905513D01*
X111489500Y-113094486D01*
X111519059Y-113281118D01*
X111577454Y-113460836D01*
X111626130Y-113556367D01*
X111663240Y-113629199D01*
X111774310Y-113782073D01*
X111907927Y-113915690D01*
X112060801Y-114026760D01*
X112140347Y-114067290D01*
X112229163Y-114112545D01*
X112229165Y-114112545D01*
X112229168Y-114112547D01*
X112325497Y-114143846D01*
X112408881Y-114170940D01*
X112595514Y-114200500D01*
X112595519Y-114200500D01*
X112784486Y-114200500D01*
X112971118Y-114170940D01*
X113005929Y-114159629D01*
X113150832Y-114112547D01*
X113319199Y-114026760D01*
X113472073Y-113915690D01*
X113605690Y-113782073D01*
X113716760Y-113629199D01*
X113802547Y-113460832D01*
X113860940Y-113281118D01*
X113875158Y-113191349D01*
X113890500Y-113094486D01*
X113890500Y-112905513D01*
X113860940Y-112718881D01*
X113819620Y-112591714D01*
X113802547Y-112539168D01*
X113802545Y-112539165D01*
X113802545Y-112539163D01*
X113737929Y-112412348D01*
X113716760Y-112370801D01*
X113605690Y-112217927D01*
X113472073Y-112084310D01*
X113366614Y-112007689D01*
X113323949Y-111952358D01*
X113315500Y-111907371D01*
X113315500Y-106592628D01*
X113316103Y-106590573D01*
X113315569Y-106588501D01*
X113325899Y-106557210D01*
X113335185Y-106525589D01*
X113337013Y-106523548D01*
X113337474Y-106522154D01*
X113347056Y-106512340D01*
X113351051Y-106507882D01*
X119655669Y-106507882D01*
X119655670Y-106507883D01*
X119681059Y-106526329D01*
X119849362Y-106612085D01*
X120028997Y-106670451D01*
X120215553Y-106700000D01*
X120404447Y-106700000D01*
X120591002Y-106670451D01*
X120770637Y-106612085D01*
X120938937Y-106526331D01*
X120964328Y-106507883D01*
X120964328Y-106507882D01*
X120310001Y-105853554D01*
X120310000Y-105853554D01*
X119655669Y-106507882D01*
X113351051Y-106507882D01*
X113361461Y-106496264D01*
X113363973Y-106494229D01*
X113472073Y-106415690D01*
X113605690Y-106282073D01*
X113716760Y-106129199D01*
X113802547Y-105960832D01*
X113860940Y-105781118D01*
X113873788Y-105700000D01*
X113890500Y-105594486D01*
X113890500Y-105405552D01*
X119110000Y-105405552D01*
X119110000Y-105594447D01*
X119139548Y-105781002D01*
X119197914Y-105960637D01*
X119283666Y-106128933D01*
X119302116Y-106154328D01*
X119956446Y-105500000D01*
X119956446Y-105499999D01*
X119910369Y-105453922D01*
X119960000Y-105453922D01*
X119960000Y-105546078D01*
X119983852Y-105635095D01*
X120029930Y-105714905D01*
X120095095Y-105780070D01*
X120174905Y-105826148D01*
X120263922Y-105850000D01*
X120356078Y-105850000D01*
X120445095Y-105826148D01*
X120524905Y-105780070D01*
X120590070Y-105714905D01*
X120636148Y-105635095D01*
X120660000Y-105546078D01*
X120660000Y-105499999D01*
X120663554Y-105499999D01*
X120663554Y-105500000D01*
X121317882Y-106154328D01*
X121317883Y-106154328D01*
X121336331Y-106128937D01*
X121422085Y-105960637D01*
X121480451Y-105781002D01*
X121510000Y-105594447D01*
X121510000Y-105405552D01*
X121480451Y-105218997D01*
X121422085Y-105039362D01*
X121336329Y-104871059D01*
X121317883Y-104845670D01*
X121317882Y-104845669D01*
X120663554Y-105499999D01*
X120660000Y-105499999D01*
X120660000Y-105453922D01*
X120636148Y-105364905D01*
X120590070Y-105285095D01*
X120524905Y-105219930D01*
X120445095Y-105173852D01*
X120356078Y-105150000D01*
X120263922Y-105150000D01*
X120174905Y-105173852D01*
X120095095Y-105219930D01*
X120029930Y-105285095D01*
X119983852Y-105364905D01*
X119960000Y-105453922D01*
X119910369Y-105453922D01*
X119302116Y-104845669D01*
X119302116Y-104845670D01*
X119283669Y-104871060D01*
X119197914Y-105039362D01*
X119139548Y-105218997D01*
X119110000Y-105405552D01*
X113890500Y-105405552D01*
X113890500Y-105405513D01*
X113860940Y-105218881D01*
X113818916Y-105089547D01*
X113802547Y-105039168D01*
X113802545Y-105039165D01*
X113802545Y-105039163D01*
X113732803Y-104902288D01*
X113716760Y-104870801D01*
X113605690Y-104717927D01*
X113472073Y-104584310D01*
X113345179Y-104492116D01*
X119655669Y-104492116D01*
X120310000Y-105146446D01*
X120310001Y-105146446D01*
X120964328Y-104492116D01*
X120938933Y-104473666D01*
X120770637Y-104387914D01*
X120591002Y-104329548D01*
X120404447Y-104300000D01*
X120215553Y-104300000D01*
X120028997Y-104329548D01*
X119849362Y-104387914D01*
X119681060Y-104473669D01*
X119655670Y-104492116D01*
X119655669Y-104492116D01*
X113345179Y-104492116D01*
X113319199Y-104473240D01*
X113150836Y-104387454D01*
X112971118Y-104329059D01*
X112784486Y-104299500D01*
X112784481Y-104299500D01*
X112595519Y-104299500D01*
X112595514Y-104299500D01*
X112466769Y-104319891D01*
X112397475Y-104310936D01*
X112359690Y-104285099D01*
X104611819Y-96537228D01*
X104578334Y-96475905D01*
X104575500Y-96449547D01*
X104575500Y-87616999D01*
X104595185Y-87549960D01*
X104647989Y-87504205D01*
X104699500Y-87492999D01*
X104997871Y-87492999D01*
X104997872Y-87492999D01*
X105057483Y-87486591D01*
X105192331Y-87436296D01*
X105307546Y-87350046D01*
X105393796Y-87234831D01*
X105444091Y-87099983D01*
X105450500Y-87040373D01*
X105450500Y-86602135D01*
X118149500Y-86602135D01*
X118149500Y-88397870D01*
X118149501Y-88397876D01*
X118155908Y-88457483D01*
X118206202Y-88592328D01*
X118206206Y-88592335D01*
X118292452Y-88707544D01*
X118292455Y-88707547D01*
X118407664Y-88793793D01*
X118407671Y-88793797D01*
X118542517Y-88844091D01*
X118542516Y-88844091D01*
X118549444Y-88844835D01*
X118602127Y-88850500D01*
X119914547Y-88850499D01*
X119981586Y-88870184D01*
X120002228Y-88886818D01*
X121511016Y-90395606D01*
X121511045Y-90395637D01*
X121601264Y-90485856D01*
X121601267Y-90485858D01*
X121678190Y-90537256D01*
X121703710Y-90554309D01*
X121703713Y-90554311D01*
X121703715Y-90554312D01*
X121758775Y-90577118D01*
X121758776Y-90577119D01*
X121758777Y-90577119D01*
X121817548Y-90601463D01*
X121877971Y-90613481D01*
X121938393Y-90625500D01*
X121938394Y-90625500D01*
X122539609Y-90625500D01*
X122606648Y-90645185D01*
X122652403Y-90697989D01*
X122662347Y-90767147D01*
X122656366Y-90790577D01*
X122655908Y-90792516D01*
X122649501Y-90852116D01*
X122649501Y-90852123D01*
X122649500Y-90852135D01*
X122649500Y-92647870D01*
X122649501Y-92647876D01*
X122655908Y-92707483D01*
X122706202Y-92842328D01*
X122706206Y-92842335D01*
X122792452Y-92957544D01*
X122792455Y-92957547D01*
X122907664Y-93043793D01*
X122907671Y-93043797D01*
X123039082Y-93092810D01*
X123095016Y-93134681D01*
X123119433Y-93200145D01*
X123104582Y-93268418D01*
X123083431Y-93296673D01*
X122969889Y-93410215D01*
X122844951Y-93582179D01*
X122748444Y-93771585D01*
X122682753Y-93973760D01*
X122679245Y-93995909D01*
X122649500Y-94183713D01*
X122649500Y-94396287D01*
X122682754Y-94606243D01*
X122747874Y-94806662D01*
X122748444Y-94808414D01*
X122844951Y-94997820D01*
X122969890Y-95169786D01*
X123120213Y-95320109D01*
X123292182Y-95445050D01*
X123300946Y-95449516D01*
X123351742Y-95497491D01*
X123368536Y-95565312D01*
X123345998Y-95631447D01*
X123300946Y-95670484D01*
X123292182Y-95674949D01*
X123120213Y-95799890D01*
X122969890Y-95950213D01*
X122844951Y-96122179D01*
X122748444Y-96311585D01*
X122682753Y-96513760D01*
X122661763Y-96646286D01*
X122649500Y-96723713D01*
X122649500Y-96936287D01*
X122659249Y-96997837D01*
X122668506Y-97056289D01*
X122682754Y-97146243D01*
X122728761Y-97287838D01*
X122748444Y-97348414D01*
X122844951Y-97537820D01*
X122969890Y-97709786D01*
X123120213Y-97860109D01*
X123292182Y-97985050D01*
X123300946Y-97989516D01*
X123351742Y-98037491D01*
X123368536Y-98105312D01*
X123345998Y-98171447D01*
X123300946Y-98210484D01*
X123292182Y-98214949D01*
X123120213Y-98339890D01*
X122969890Y-98490213D01*
X122844951Y-98662179D01*
X122748444Y-98851585D01*
X122682753Y-99053760D01*
X122666017Y-99159427D01*
X122649500Y-99263713D01*
X122649500Y-99476287D01*
X122682754Y-99686243D01*
X122734894Y-99846714D01*
X122748444Y-99888414D01*
X122844951Y-100077820D01*
X122969890Y-100249786D01*
X123120213Y-100400109D01*
X123292182Y-100525050D01*
X123300946Y-100529516D01*
X123351742Y-100577491D01*
X123368536Y-100645312D01*
X123345998Y-100711447D01*
X123300946Y-100750484D01*
X123292182Y-100754949D01*
X123120213Y-100879890D01*
X122969890Y-101030213D01*
X122844951Y-101202179D01*
X122748444Y-101391585D01*
X122682753Y-101593760D01*
X122649500Y-101803713D01*
X122649500Y-102016286D01*
X122678798Y-102201270D01*
X122682754Y-102226243D01*
X122728761Y-102367838D01*
X122748444Y-102428414D01*
X122844951Y-102617820D01*
X122969890Y-102789786D01*
X123120213Y-102940109D01*
X123292182Y-103065050D01*
X123300946Y-103069516D01*
X123351742Y-103117491D01*
X123368536Y-103185312D01*
X123345998Y-103251447D01*
X123300946Y-103290484D01*
X123292182Y-103294949D01*
X123120213Y-103419890D01*
X122969890Y-103570213D01*
X122844951Y-103742179D01*
X122748444Y-103931585D01*
X122682753Y-104133760D01*
X122651618Y-104330342D01*
X122649500Y-104343713D01*
X122649500Y-104556287D01*
X122653939Y-104584312D01*
X122675868Y-104722771D01*
X122682754Y-104766243D01*
X122728761Y-104907838D01*
X122748444Y-104968414D01*
X122844951Y-105157820D01*
X122969890Y-105329786D01*
X123120213Y-105480109D01*
X123292182Y-105605050D01*
X123300946Y-105609516D01*
X123351742Y-105657491D01*
X123368536Y-105725312D01*
X123345998Y-105791447D01*
X123300946Y-105830484D01*
X123292182Y-105834949D01*
X123120213Y-105959890D01*
X122969890Y-106110213D01*
X122844951Y-106282179D01*
X122748444Y-106471585D01*
X122682753Y-106673760D01*
X122660081Y-106816906D01*
X122649500Y-106883713D01*
X122649500Y-107096287D01*
X122682754Y-107306243D01*
X122728761Y-107447838D01*
X122748444Y-107508414D01*
X122844951Y-107697820D01*
X122969890Y-107869786D01*
X123120213Y-108020109D01*
X123292179Y-108145048D01*
X123292181Y-108145049D01*
X123292184Y-108145051D01*
X123481588Y-108241557D01*
X123683757Y-108307246D01*
X123893713Y-108340500D01*
X123893714Y-108340500D01*
X124106286Y-108340500D01*
X124106287Y-108340500D01*
X124316243Y-108307246D01*
X124331840Y-108302177D01*
X124401679Y-108300183D01*
X124457838Y-108332428D01*
X129668849Y-113543439D01*
X129702334Y-113604762D01*
X129699099Y-113669437D01*
X129669489Y-113760569D01*
X129635900Y-113972643D01*
X129635900Y-114071948D01*
X129616215Y-114138987D01*
X129563411Y-114184742D01*
X129494253Y-114194686D01*
X129430697Y-114165661D01*
X129424219Y-114159629D01*
X127870198Y-112605608D01*
X127870178Y-112605586D01*
X127778736Y-112514144D01*
X127778728Y-112514138D01*
X127724780Y-112478091D01*
X127724778Y-112478090D01*
X127676286Y-112445688D01*
X127676287Y-112445688D01*
X127676285Y-112445687D01*
X127635147Y-112428648D01*
X127595792Y-112412347D01*
X127562452Y-112398537D01*
X127562448Y-112398536D01*
X127562444Y-112398535D01*
X127500859Y-112386285D01*
X127500858Y-112386285D01*
X127441611Y-112374500D01*
X127441607Y-112374500D01*
X127441606Y-112374500D01*
X121402628Y-112374500D01*
X121335589Y-112354815D01*
X121302312Y-112323388D01*
X121225690Y-112217927D01*
X121092073Y-112084310D01*
X120939199Y-111973240D01*
X120770836Y-111887454D01*
X120591118Y-111829059D01*
X120404486Y-111799500D01*
X120404481Y-111799500D01*
X120215519Y-111799500D01*
X120215514Y-111799500D01*
X120028881Y-111829059D01*
X119849163Y-111887454D01*
X119680800Y-111973240D01*
X119633386Y-112007689D01*
X119527927Y-112084310D01*
X119527925Y-112084312D01*
X119527924Y-112084312D01*
X119394312Y-112217924D01*
X119394312Y-112217925D01*
X119394310Y-112217927D01*
X119354701Y-112272444D01*
X119283240Y-112370800D01*
X119197454Y-112539163D01*
X119139059Y-112718881D01*
X119109500Y-112905513D01*
X119109500Y-113094486D01*
X119139059Y-113281118D01*
X119197454Y-113460836D01*
X119246130Y-113556367D01*
X119283240Y-113629199D01*
X119394310Y-113782073D01*
X119527927Y-113915690D01*
X119680801Y-114026760D01*
X119760347Y-114067290D01*
X119849163Y-114112545D01*
X119849165Y-114112545D01*
X119849168Y-114112547D01*
X119945497Y-114143846D01*
X120028881Y-114170940D01*
X120215514Y-114200500D01*
X120215519Y-114200500D01*
X120404486Y-114200500D01*
X120591118Y-114170940D01*
X120625929Y-114159629D01*
X120770832Y-114112547D01*
X120939199Y-114026760D01*
X121092073Y-113915690D01*
X121225690Y-113782073D01*
X121302311Y-113676612D01*
X121357640Y-113633949D01*
X121402628Y-113625500D01*
X127069548Y-113625500D01*
X127136587Y-113645185D01*
X127157229Y-113661819D01*
X129646778Y-116151368D01*
X129680263Y-116212691D01*
X129677029Y-116277363D01*
X129669491Y-116300562D01*
X129669487Y-116300579D01*
X129635900Y-116512643D01*
X129635900Y-116611948D01*
X129616215Y-116678987D01*
X129563411Y-116724742D01*
X129494253Y-116734686D01*
X129430697Y-116705661D01*
X129424219Y-116699629D01*
X128830198Y-116105608D01*
X128830178Y-116105586D01*
X128738735Y-116014143D01*
X128720098Y-116001690D01*
X128683324Y-115977119D01*
X128683325Y-115977119D01*
X128683323Y-115977117D01*
X128636290Y-115945690D01*
X128636287Y-115945688D01*
X128636286Y-115945688D01*
X128538190Y-115905056D01*
X128538187Y-115905054D01*
X128538186Y-115905054D01*
X128522455Y-115898538D01*
X128522453Y-115898537D01*
X128522452Y-115898537D01*
X128462029Y-115886518D01*
X128401610Y-115874500D01*
X128401607Y-115874500D01*
X128401606Y-115874500D01*
X125474499Y-115874500D01*
X125407460Y-115854815D01*
X125361705Y-115802011D01*
X125350499Y-115750500D01*
X125350499Y-115602129D01*
X125350498Y-115602123D01*
X125350497Y-115602116D01*
X125344091Y-115542517D01*
X125342389Y-115537955D01*
X125293797Y-115407671D01*
X125293793Y-115407664D01*
X125207547Y-115292455D01*
X125207544Y-115292452D01*
X125092335Y-115206206D01*
X125092328Y-115206202D01*
X124957482Y-115155908D01*
X124957483Y-115155908D01*
X124897883Y-115149501D01*
X124897881Y-115149500D01*
X124897873Y-115149500D01*
X124897864Y-115149500D01*
X123102129Y-115149500D01*
X123102123Y-115149501D01*
X123042516Y-115155908D01*
X122907671Y-115206202D01*
X122907664Y-115206206D01*
X122792455Y-115292452D01*
X122792452Y-115292455D01*
X122706206Y-115407664D01*
X122706202Y-115407671D01*
X122655908Y-115542517D01*
X122649865Y-115598731D01*
X122649501Y-115602123D01*
X122649500Y-115602135D01*
X122649500Y-117397870D01*
X122649501Y-117397876D01*
X122655908Y-117457483D01*
X122706202Y-117592328D01*
X122706206Y-117592335D01*
X122792452Y-117707544D01*
X122792455Y-117707547D01*
X122907664Y-117793793D01*
X122907671Y-117793797D01*
X123039082Y-117842810D01*
X123095016Y-117884681D01*
X123119433Y-117950145D01*
X123104582Y-118018418D01*
X123083431Y-118046673D01*
X122969889Y-118160215D01*
X122844951Y-118332179D01*
X122748444Y-118521585D01*
X122682753Y-118723760D01*
X122649500Y-118933713D01*
X122649500Y-119146286D01*
X122681965Y-119351266D01*
X122682754Y-119356243D01*
X122743694Y-119543797D01*
X122748444Y-119558414D01*
X122844951Y-119747820D01*
X122969890Y-119919786D01*
X123120213Y-120070109D01*
X123292182Y-120195050D01*
X123300946Y-120199516D01*
X123351742Y-120247491D01*
X123368536Y-120315312D01*
X123345998Y-120381447D01*
X123300946Y-120420484D01*
X123292182Y-120424949D01*
X123120213Y-120549890D01*
X122969890Y-120700213D01*
X122844951Y-120872179D01*
X122748444Y-121061585D01*
X122682753Y-121263760D01*
X122649500Y-121473713D01*
X122649500Y-121686286D01*
X122668675Y-121807356D01*
X122682754Y-121896243D01*
X122747541Y-122095637D01*
X122748444Y-122098414D01*
X122844951Y-122287820D01*
X122969890Y-122459786D01*
X123120213Y-122610109D01*
X123292182Y-122735050D01*
X123300946Y-122739516D01*
X123351742Y-122787491D01*
X123368536Y-122855312D01*
X123345998Y-122921447D01*
X123300946Y-122960484D01*
X123292182Y-122964949D01*
X123120213Y-123089890D01*
X122969890Y-123240213D01*
X122844951Y-123412179D01*
X122748444Y-123601585D01*
X122748443Y-123601587D01*
X122748443Y-123601588D01*
X122721117Y-123685687D01*
X122682753Y-123803760D01*
X122649500Y-124013713D01*
X122649500Y-124226286D01*
X122668675Y-124347356D01*
X122682754Y-124436243D01*
X122747541Y-124635637D01*
X122748444Y-124638414D01*
X122844951Y-124827820D01*
X122969890Y-124999786D01*
X123120213Y-125150109D01*
X123292179Y-125275048D01*
X123292181Y-125275049D01*
X123292184Y-125275051D01*
X123481588Y-125371557D01*
X123683757Y-125437246D01*
X123893713Y-125470500D01*
X123893714Y-125470500D01*
X124106286Y-125470500D01*
X124106287Y-125470500D01*
X124316243Y-125437246D01*
X124331840Y-125432177D01*
X124401679Y-125430183D01*
X124457838Y-125462428D01*
X128591016Y-129595606D01*
X128591045Y-129595637D01*
X128681264Y-129685856D01*
X128681267Y-129685858D01*
X128758190Y-129737256D01*
X128783710Y-129754309D01*
X128783712Y-129754310D01*
X128783715Y-129754312D01*
X128850396Y-129781931D01*
X128850398Y-129781933D01*
X128892809Y-129799500D01*
X128897548Y-129801463D01*
X128924334Y-129806790D01*
X128948500Y-129811598D01*
X128948520Y-129811601D01*
X128948542Y-129811606D01*
X129018391Y-129825499D01*
X129018392Y-129825500D01*
X129018393Y-129825500D01*
X133761608Y-129825500D01*
X133761608Y-129825499D01*
X133831458Y-129811606D01*
X133831459Y-129811606D01*
X133848770Y-129808162D01*
X133882452Y-129801463D01*
X133915792Y-129787652D01*
X133996286Y-129754312D01*
X134047509Y-129720084D01*
X134098733Y-129685858D01*
X134185858Y-129598733D01*
X134185859Y-129598731D01*
X134192925Y-129591665D01*
X134192927Y-129591661D01*
X138882771Y-124901819D01*
X138944094Y-124868334D01*
X138970452Y-124865500D01*
X144951756Y-124865500D01*
X145018795Y-124885185D01*
X145062240Y-124933205D01*
X145073317Y-124954944D01*
X145199523Y-125128651D01*
X145351349Y-125280477D01*
X145525056Y-125406683D01*
X145716367Y-125504161D01*
X145732938Y-125509545D01*
X145790615Y-125548981D01*
X145817814Y-125613339D01*
X145805902Y-125682186D01*
X145758659Y-125733663D01*
X145750919Y-125737961D01*
X145637004Y-125796004D01*
X145490505Y-125902441D01*
X145490500Y-125902445D01*
X145362445Y-126030500D01*
X145362441Y-126030505D01*
X145256006Y-126177002D01*
X145173788Y-126338360D01*
X145173787Y-126338363D01*
X145117829Y-126510589D01*
X145089500Y-126689448D01*
X145089500Y-126870551D01*
X145117829Y-127049410D01*
X145173787Y-127221636D01*
X145173788Y-127221639D01*
X145229664Y-127331300D01*
X145248637Y-127368536D01*
X145256006Y-127382997D01*
X145362441Y-127529494D01*
X145362445Y-127529499D01*
X145490500Y-127657554D01*
X145490505Y-127657558D01*
X145536799Y-127691192D01*
X145637006Y-127763996D01*
X145742484Y-127817740D01*
X145798360Y-127846211D01*
X145798363Y-127846212D01*
X145884476Y-127874191D01*
X145970591Y-127902171D01*
X146053429Y-127915291D01*
X146149449Y-127930500D01*
X146149454Y-127930500D01*
X146330551Y-127930500D01*
X146417259Y-127916765D01*
X146509409Y-127902171D01*
X146681639Y-127846211D01*
X146842994Y-127763996D01*
X146989501Y-127657553D01*
X147117553Y-127529501D01*
X147223996Y-127382994D01*
X147306211Y-127221639D01*
X147362171Y-127049409D01*
X147384583Y-126907906D01*
X147390500Y-126870551D01*
X147390500Y-126689448D01*
X147372691Y-126577011D01*
X147362171Y-126510591D01*
X147311808Y-126355586D01*
X147306212Y-126338363D01*
X147306211Y-126338360D01*
X147268393Y-126264140D01*
X147223996Y-126177006D01*
X147194580Y-126136518D01*
X147117558Y-126030505D01*
X147117554Y-126030500D01*
X146989499Y-125902445D01*
X146989494Y-125902441D01*
X146842997Y-125796006D01*
X146842996Y-125796005D01*
X146842994Y-125796004D01*
X146729081Y-125737962D01*
X146678285Y-125689987D01*
X146661490Y-125622166D01*
X146684028Y-125556031D01*
X146738743Y-125512580D01*
X146747057Y-125509546D01*
X146763633Y-125504161D01*
X146954944Y-125406683D01*
X147128651Y-125280477D01*
X147280477Y-125128651D01*
X147406683Y-124954944D01*
X147504161Y-124763633D01*
X147570511Y-124559427D01*
X147596368Y-124396172D01*
X147626297Y-124333038D01*
X147685609Y-124296107D01*
X147755471Y-124297105D01*
X147806522Y-124327890D01*
X150650228Y-127171596D01*
X150683713Y-127232919D01*
X150678729Y-127302611D01*
X150673032Y-127315572D01*
X150588444Y-127481585D01*
X150522753Y-127683760D01*
X150489500Y-127893713D01*
X150489500Y-128106286D01*
X150522753Y-128316239D01*
X150588444Y-128518414D01*
X150684951Y-128707820D01*
X150809890Y-128879786D01*
X150960213Y-129030109D01*
X151132179Y-129155048D01*
X151132181Y-129155049D01*
X151132184Y-129155051D01*
X151321588Y-129251557D01*
X151523757Y-129317246D01*
X151733713Y-129350500D01*
X151733714Y-129350500D01*
X151946286Y-129350500D01*
X151946287Y-129350500D01*
X152156243Y-129317246D01*
X152358412Y-129251557D01*
X152547816Y-129155051D01*
X152569789Y-129139086D01*
X152719786Y-129030109D01*
X152719788Y-129030106D01*
X152719792Y-129030104D01*
X152870104Y-128879792D01*
X152873908Y-128874556D01*
X152926903Y-128801615D01*
X152982233Y-128758949D01*
X153027221Y-128750500D01*
X153192779Y-128750500D01*
X153259818Y-128770185D01*
X153293097Y-128801615D01*
X153349892Y-128879788D01*
X153500213Y-129030109D01*
X153672179Y-129155048D01*
X153672181Y-129155049D01*
X153672184Y-129155051D01*
X153861588Y-129251557D01*
X154063757Y-129317246D01*
X154273713Y-129350500D01*
X154273714Y-129350500D01*
X154486286Y-129350500D01*
X154486287Y-129350500D01*
X154696243Y-129317246D01*
X154898412Y-129251557D01*
X155087816Y-129155051D01*
X155109789Y-129139086D01*
X155259786Y-129030109D01*
X155259788Y-129030106D01*
X155259792Y-129030104D01*
X155410104Y-128879792D01*
X155413908Y-128874556D01*
X155466903Y-128801615D01*
X155522233Y-128758949D01*
X155567221Y-128750500D01*
X155732779Y-128750500D01*
X155799818Y-128770185D01*
X155833097Y-128801615D01*
X155889892Y-128879788D01*
X156040213Y-129030109D01*
X156212179Y-129155048D01*
X156212181Y-129155049D01*
X156212184Y-129155051D01*
X156401588Y-129251557D01*
X156603757Y-129317246D01*
X156813713Y-129350500D01*
X156813714Y-129350500D01*
X157026286Y-129350500D01*
X157026287Y-129350500D01*
X157236243Y-129317246D01*
X157438412Y-129251557D01*
X157627816Y-129155051D01*
X157649789Y-129139086D01*
X157799786Y-129030109D01*
X157799788Y-129030106D01*
X157799792Y-129030104D01*
X157950104Y-128879792D01*
X157953908Y-128874556D01*
X158006903Y-128801615D01*
X158062233Y-128758949D01*
X158107221Y-128750500D01*
X158272779Y-128750500D01*
X158339818Y-128770185D01*
X158373097Y-128801615D01*
X158429892Y-128879788D01*
X158580213Y-129030109D01*
X158752179Y-129155048D01*
X158752181Y-129155049D01*
X158752184Y-129155051D01*
X158941588Y-129251557D01*
X159143757Y-129317246D01*
X159353713Y-129350500D01*
X159353714Y-129350500D01*
X159566286Y-129350500D01*
X159566287Y-129350500D01*
X159661728Y-129335383D01*
X159731021Y-129344337D01*
X159768806Y-129370174D01*
X161877049Y-131478416D01*
X161981584Y-131582951D01*
X161981587Y-131582953D01*
X161981588Y-131582954D01*
X162104503Y-131665083D01*
X162104506Y-131665085D01*
X162161079Y-131688518D01*
X162161080Y-131688518D01*
X162241088Y-131721659D01*
X162357241Y-131744763D01*
X162376468Y-131748587D01*
X162386081Y-131750500D01*
X162386082Y-131750500D01*
X174153920Y-131750500D01*
X174251462Y-131731096D01*
X174298913Y-131721658D01*
X174435495Y-131665084D01*
X174484729Y-131632186D01*
X174487461Y-131630361D01*
X174509071Y-131615921D01*
X174558416Y-131582952D01*
X176771193Y-129370172D01*
X176832514Y-129336689D01*
X176878265Y-129335382D01*
X176973713Y-129350500D01*
X176973715Y-129350500D01*
X177186286Y-129350500D01*
X177186287Y-129350500D01*
X177396243Y-129317246D01*
X177598412Y-129251557D01*
X177787816Y-129155051D01*
X177809789Y-129139086D01*
X177959786Y-129030109D01*
X177959788Y-129030106D01*
X177959792Y-129030104D01*
X178110104Y-128879792D01*
X178110106Y-128879788D01*
X178110109Y-128879786D01*
X178184620Y-128777229D01*
X178235051Y-128707816D01*
X178239793Y-128698508D01*
X178287763Y-128647711D01*
X178355583Y-128630911D01*
X178421719Y-128653445D01*
X178460763Y-128698500D01*
X178465373Y-128707547D01*
X178504728Y-128761716D01*
X179137037Y-128129408D01*
X179154075Y-128192993D01*
X179219901Y-128307007D01*
X179312993Y-128400099D01*
X179427007Y-128465925D01*
X179490590Y-128482962D01*
X178858282Y-129115269D01*
X178858282Y-129115270D01*
X178912449Y-129154624D01*
X179101782Y-129251095D01*
X179303870Y-129316757D01*
X179513754Y-129350000D01*
X179726246Y-129350000D01*
X179936127Y-129316757D01*
X179936130Y-129316757D01*
X180138217Y-129251095D01*
X180327554Y-129154622D01*
X180381716Y-129115270D01*
X180381717Y-129115270D01*
X179749408Y-128482962D01*
X179812993Y-128465925D01*
X179927007Y-128400099D01*
X180020099Y-128307007D01*
X180085925Y-128192993D01*
X180102962Y-128129408D01*
X180735270Y-128761717D01*
X180735270Y-128761716D01*
X180774622Y-128707555D01*
X180779232Y-128698507D01*
X180827205Y-128647709D01*
X180895025Y-128630912D01*
X180961161Y-128653447D01*
X181000204Y-128698504D01*
X181004949Y-128707817D01*
X181129890Y-128879786D01*
X181280213Y-129030109D01*
X181452179Y-129155048D01*
X181452181Y-129155049D01*
X181452184Y-129155051D01*
X181641588Y-129251557D01*
X181843757Y-129317246D01*
X182053713Y-129350500D01*
X182053714Y-129350500D01*
X182266286Y-129350500D01*
X182266287Y-129350500D01*
X182476243Y-129317246D01*
X182678412Y-129251557D01*
X182867816Y-129155051D01*
X182889789Y-129139086D01*
X183039786Y-129030109D01*
X183039788Y-129030106D01*
X183039792Y-129030104D01*
X183190104Y-128879792D01*
X183190106Y-128879788D01*
X183190109Y-128879786D01*
X183315048Y-128707820D01*
X183315047Y-128707820D01*
X183315051Y-128707816D01*
X183319514Y-128699054D01*
X183367488Y-128648259D01*
X183435308Y-128631463D01*
X183501444Y-128653999D01*
X183540486Y-128699056D01*
X183544951Y-128707820D01*
X183669890Y-128879786D01*
X183820213Y-129030109D01*
X183992179Y-129155048D01*
X183992181Y-129155049D01*
X183992184Y-129155051D01*
X184181588Y-129251557D01*
X184383757Y-129317246D01*
X184593713Y-129350500D01*
X184593714Y-129350500D01*
X184806286Y-129350500D01*
X184806287Y-129350500D01*
X185016243Y-129317246D01*
X185218412Y-129251557D01*
X185407816Y-129155051D01*
X185429789Y-129139086D01*
X185579786Y-129030109D01*
X185579788Y-129030106D01*
X185579792Y-129030104D01*
X185730104Y-128879792D01*
X185730106Y-128879788D01*
X185730109Y-128879786D01*
X185855048Y-128707820D01*
X185855047Y-128707820D01*
X185855051Y-128707816D01*
X185951557Y-128518412D01*
X186017246Y-128316243D01*
X186050500Y-128106287D01*
X186050500Y-127893713D01*
X186035382Y-127798268D01*
X186044336Y-127728979D01*
X186070171Y-127691195D01*
X188705342Y-125056023D01*
X188766663Y-125022540D01*
X188836355Y-125027524D01*
X188892288Y-125069396D01*
X188900881Y-125085131D01*
X188901953Y-125084546D01*
X188906206Y-125092335D01*
X188992452Y-125207544D01*
X188992455Y-125207547D01*
X189107664Y-125293793D01*
X189107671Y-125293797D01*
X189242517Y-125344091D01*
X189242516Y-125344091D01*
X189249444Y-125344835D01*
X189302127Y-125350500D01*
X191097872Y-125350499D01*
X191157483Y-125344091D01*
X191292331Y-125293796D01*
X191407546Y-125207546D01*
X191493796Y-125092331D01*
X191544091Y-124957483D01*
X191550500Y-124897873D01*
X191550499Y-123102128D01*
X191544091Y-123042517D01*
X191493796Y-122907669D01*
X191493795Y-122907668D01*
X191493793Y-122907664D01*
X191407547Y-122792455D01*
X191407544Y-122792452D01*
X191292335Y-122706206D01*
X191292328Y-122706202D01*
X191157482Y-122655908D01*
X191157483Y-122655908D01*
X191097883Y-122649501D01*
X191097881Y-122649500D01*
X191097873Y-122649500D01*
X191097864Y-122649500D01*
X189302129Y-122649500D01*
X189302123Y-122649501D01*
X189242516Y-122655908D01*
X189107671Y-122706202D01*
X189107664Y-122706206D01*
X188992455Y-122792452D01*
X188992452Y-122792455D01*
X188906206Y-122907664D01*
X188906202Y-122907671D01*
X188855908Y-123042517D01*
X188850815Y-123089896D01*
X188849501Y-123102123D01*
X188849500Y-123102135D01*
X188849500Y-123125500D01*
X188829815Y-123192539D01*
X188777011Y-123238294D01*
X188725500Y-123249500D01*
X188626080Y-123249500D01*
X188481092Y-123278340D01*
X188481082Y-123278343D01*
X188344511Y-123334912D01*
X188344498Y-123334919D01*
X188221584Y-123417048D01*
X188221580Y-123417051D01*
X185008806Y-126629824D01*
X184947483Y-126663309D01*
X184901726Y-126664616D01*
X184806291Y-126649500D01*
X184806287Y-126649500D01*
X184694452Y-126649500D01*
X184627413Y-126629815D01*
X184581658Y-126577011D01*
X184571714Y-126507853D01*
X184600739Y-126444297D01*
X184606771Y-126437819D01*
X185014086Y-126030505D01*
X185658357Y-125386234D01*
X185720123Y-125293796D01*
X185726811Y-125283786D01*
X185773963Y-125169952D01*
X185798000Y-125049106D01*
X185798000Y-119751999D01*
X185817685Y-119684960D01*
X185870489Y-119639205D01*
X185922000Y-119627999D01*
X186272502Y-119627999D01*
X186272508Y-119627999D01*
X186375297Y-119617499D01*
X186541834Y-119562314D01*
X186691156Y-119470212D01*
X186815212Y-119346156D01*
X186907314Y-119196834D01*
X186962499Y-119030297D01*
X186973000Y-118927509D01*
X186972999Y-118362953D01*
X186992683Y-118295915D01*
X187009319Y-118275272D01*
X187065416Y-118219175D01*
X187065427Y-118219161D01*
X189598729Y-115685860D01*
X189598733Y-115685858D01*
X189685858Y-115598733D01*
X189726473Y-115537949D01*
X189754312Y-115496286D01*
X189801463Y-115382451D01*
X189801636Y-115381584D01*
X189810870Y-115335160D01*
X189819954Y-115289492D01*
X189819954Y-115289489D01*
X189825500Y-115261607D01*
X189825500Y-115138393D01*
X189825500Y-97045894D01*
X189801463Y-96925048D01*
X189772963Y-96856243D01*
X189772961Y-96856239D01*
X189754314Y-96811219D01*
X189754312Y-96811214D01*
X189701020Y-96731459D01*
X189685858Y-96708767D01*
X189685855Y-96708764D01*
X189685853Y-96708761D01*
X189595637Y-96618545D01*
X189595606Y-96618516D01*
X187009318Y-94032228D01*
X186975833Y-93970905D01*
X186972999Y-93944547D01*
X186972999Y-91979998D01*
X186972998Y-91979981D01*
X186962499Y-91877203D01*
X186962498Y-91877200D01*
X186926293Y-91767942D01*
X186907314Y-91710666D01*
X186815212Y-91561344D01*
X186691156Y-91437288D01*
X186541834Y-91345186D01*
X186375297Y-91290001D01*
X186375295Y-91290000D01*
X186272510Y-91279500D01*
X184072498Y-91279500D01*
X184072481Y-91279501D01*
X183969703Y-91290000D01*
X183969700Y-91290001D01*
X183803168Y-91345185D01*
X183803163Y-91345187D01*
X183653842Y-91437289D01*
X183529789Y-91561342D01*
X183529788Y-91561344D01*
X183448348Y-91693381D01*
X183437685Y-91710668D01*
X183435430Y-91715504D01*
X183389256Y-91767942D01*
X183322062Y-91787092D01*
X183255181Y-91766874D01*
X183235368Y-91750777D01*
X174486818Y-83002227D01*
X174453333Y-82940904D01*
X174450499Y-82914546D01*
X174450499Y-80444983D01*
X183372000Y-80444983D01*
X183372000Y-82645001D01*
X183372001Y-82645018D01*
X183382500Y-82747796D01*
X183382501Y-82747799D01*
X183431130Y-82894549D01*
X183437686Y-82914334D01*
X183529788Y-83063656D01*
X183653844Y-83187712D01*
X183803166Y-83279814D01*
X183969703Y-83334999D01*
X184072491Y-83345500D01*
X184423000Y-83345499D01*
X184490039Y-83365183D01*
X184535794Y-83417987D01*
X184547000Y-83469499D01*
X184547000Y-86227389D01*
X184527315Y-86294428D01*
X184474511Y-86340183D01*
X184470464Y-86341945D01*
X184374451Y-86381716D01*
X184374448Y-86381717D01*
X184374440Y-86381721D01*
X184170045Y-86499730D01*
X183982802Y-86643406D01*
X183982795Y-86643412D01*
X183815912Y-86810295D01*
X183815906Y-86810302D01*
X183672230Y-86997545D01*
X183554219Y-87201943D01*
X183554215Y-87201953D01*
X183463894Y-87420006D01*
X183402806Y-87647989D01*
X183372001Y-87881979D01*
X183372000Y-87881995D01*
X183372000Y-88118004D01*
X183372001Y-88118020D01*
X183389310Y-88249500D01*
X183402807Y-88352014D01*
X183405100Y-88360571D01*
X183463894Y-88579993D01*
X183554214Y-88798045D01*
X183554219Y-88798056D01*
X183595863Y-88870184D01*
X183672227Y-89002450D01*
X183672229Y-89002453D01*
X183672230Y-89002454D01*
X183815906Y-89189697D01*
X183815912Y-89189704D01*
X183982795Y-89356587D01*
X183982802Y-89356593D01*
X184062250Y-89417555D01*
X184170050Y-89500273D01*
X184288481Y-89568649D01*
X184374443Y-89618280D01*
X184374448Y-89618282D01*
X184374451Y-89618284D01*
X184592507Y-89708606D01*
X184820486Y-89769693D01*
X185054489Y-89800500D01*
X185054496Y-89800500D01*
X185290504Y-89800500D01*
X185290511Y-89800500D01*
X185524514Y-89769693D01*
X185752493Y-89708606D01*
X185970549Y-89618284D01*
X186174950Y-89500273D01*
X186362199Y-89356592D01*
X186529092Y-89189699D01*
X186672773Y-89002450D01*
X186790784Y-88798049D01*
X186881106Y-88579993D01*
X186942193Y-88352014D01*
X186973000Y-88118011D01*
X186973000Y-87881989D01*
X186942193Y-87647986D01*
X186881106Y-87420007D01*
X186792549Y-87206211D01*
X186790785Y-87201953D01*
X186790780Y-87201943D01*
X186732654Y-87101267D01*
X186672773Y-86997550D01*
X186529092Y-86810301D01*
X186529087Y-86810295D01*
X186362204Y-86643412D01*
X186362197Y-86643406D01*
X186174954Y-86499730D01*
X186174953Y-86499729D01*
X186174950Y-86499727D01*
X186078543Y-86444066D01*
X185970559Y-86381721D01*
X185970554Y-86381719D01*
X185970549Y-86381716D01*
X185874545Y-86341949D01*
X185820143Y-86298108D01*
X185798079Y-86231813D01*
X185798000Y-86227389D01*
X185798000Y-83469499D01*
X185817685Y-83402460D01*
X185870489Y-83356705D01*
X185922000Y-83345499D01*
X186272502Y-83345499D01*
X186272508Y-83345499D01*
X186375297Y-83334999D01*
X186541834Y-83279814D01*
X186691156Y-83187712D01*
X186815212Y-83063656D01*
X186907314Y-82914334D01*
X186962499Y-82747797D01*
X186973000Y-82645009D01*
X186972999Y-80444992D01*
X186962499Y-80342203D01*
X186907314Y-80175666D01*
X186815212Y-80026344D01*
X186691156Y-79902288D01*
X186541834Y-79810186D01*
X186375297Y-79755001D01*
X186375295Y-79755000D01*
X186272510Y-79744500D01*
X184072498Y-79744500D01*
X184072481Y-79744501D01*
X183969703Y-79755000D01*
X183969700Y-79755001D01*
X183803168Y-79810185D01*
X183803163Y-79810187D01*
X183653842Y-79902289D01*
X183529789Y-80026342D01*
X183437687Y-80175663D01*
X183437685Y-80175668D01*
X183413982Y-80247200D01*
X183382501Y-80342203D01*
X183382501Y-80342204D01*
X183382500Y-80342204D01*
X183372000Y-80444983D01*
X174450499Y-80444983D01*
X174450499Y-80349998D01*
X174450498Y-80349981D01*
X174439999Y-80247203D01*
X174439998Y-80247200D01*
X174423934Y-80198723D01*
X174384814Y-80080666D01*
X174292712Y-79931344D01*
X174168656Y-79807288D01*
X174075888Y-79750069D01*
X174019336Y-79715187D01*
X174019331Y-79715185D01*
X174017862Y-79714698D01*
X173852797Y-79660001D01*
X173852795Y-79660000D01*
X173750016Y-79649500D01*
X173750009Y-79649500D01*
X173099500Y-79649500D01*
X173032461Y-79629815D01*
X172986706Y-79577011D01*
X172975500Y-79525500D01*
X172975500Y-73224499D01*
X172995185Y-73157460D01*
X173047989Y-73111705D01*
X173099500Y-73100499D01*
X173750002Y-73100499D01*
X173750008Y-73100499D01*
X173852797Y-73089999D01*
X174019334Y-73034814D01*
X174168656Y-72942712D01*
X174292712Y-72818656D01*
X174384814Y-72669334D01*
X174439999Y-72502797D01*
X174450500Y-72400009D01*
X174450499Y-69599992D01*
X174439999Y-69497203D01*
X174384814Y-69330666D01*
X174292712Y-69181344D01*
X174168656Y-69057288D01*
X174019334Y-68965186D01*
X173852797Y-68910001D01*
X173852795Y-68910000D01*
X173750010Y-68899500D01*
X170949998Y-68899500D01*
X170949981Y-68899501D01*
X170847203Y-68910000D01*
X170847200Y-68910001D01*
X170680668Y-68965185D01*
X170680663Y-68965187D01*
X170531342Y-69057289D01*
X170407289Y-69181342D01*
X170315187Y-69330663D01*
X170315186Y-69330666D01*
X170260001Y-69497203D01*
X170260001Y-69497204D01*
X170260000Y-69497204D01*
X170249500Y-69599983D01*
X170249500Y-72400001D01*
X170249501Y-72400018D01*
X170260000Y-72502796D01*
X170260001Y-72502799D01*
X170315185Y-72669331D01*
X170315186Y-72669334D01*
X170407288Y-72818656D01*
X170531344Y-72942712D01*
X170680666Y-73034814D01*
X170847203Y-73089999D01*
X170949991Y-73100500D01*
X171600500Y-73100499D01*
X171667539Y-73120183D01*
X171713294Y-73172987D01*
X171724500Y-73224499D01*
X171724500Y-79525500D01*
X171704815Y-79592539D01*
X171652011Y-79638294D01*
X171600500Y-79649500D01*
X170949998Y-79649500D01*
X170949980Y-79649501D01*
X170847203Y-79660000D01*
X170847200Y-79660001D01*
X170680668Y-79715185D01*
X170680663Y-79715187D01*
X170531342Y-79807289D01*
X170407289Y-79931342D01*
X170315187Y-80080663D01*
X170315186Y-80080666D01*
X170260001Y-80247203D01*
X170260001Y-80247204D01*
X170260000Y-80247204D01*
X170249500Y-80349983D01*
X170249500Y-83150001D01*
X170249501Y-83150018D01*
X170260000Y-83252796D01*
X170260001Y-83252799D01*
X170294433Y-83356705D01*
X170315186Y-83419334D01*
X170407288Y-83568656D01*
X170531344Y-83692712D01*
X170680666Y-83784814D01*
X170847203Y-83839999D01*
X170949991Y-83850500D01*
X173514546Y-83850499D01*
X173581585Y-83870184D01*
X173602227Y-83886818D01*
X183281263Y-93565855D01*
X183281264Y-93565856D01*
X183281267Y-93565858D01*
X183316891Y-93589661D01*
X183361695Y-93643272D01*
X183372000Y-93692763D01*
X183372000Y-94180001D01*
X183372001Y-94180019D01*
X183382500Y-94282796D01*
X183382501Y-94282799D01*
X183437685Y-94449331D01*
X183437687Y-94449336D01*
X183453482Y-94474944D01*
X183529788Y-94598656D01*
X183653844Y-94722712D01*
X183803166Y-94814814D01*
X183969703Y-94869999D01*
X184072491Y-94880500D01*
X186037047Y-94880499D01*
X186104086Y-94900184D01*
X186124728Y-94916818D01*
X188538181Y-97330271D01*
X188571666Y-97391594D01*
X188574500Y-97417952D01*
X188574500Y-114889547D01*
X188554815Y-114956586D01*
X188538181Y-114977228D01*
X187075402Y-116440006D01*
X187014079Y-116473491D01*
X186944387Y-116468507D01*
X186888454Y-116426635D01*
X186882182Y-116417421D01*
X186833454Y-116338420D01*
X186815212Y-116308844D01*
X186691156Y-116184788D01*
X186562784Y-116105608D01*
X186541836Y-116092687D01*
X186541831Y-116092685D01*
X186540362Y-116092198D01*
X186375297Y-116037501D01*
X186375295Y-116037500D01*
X186272510Y-116027000D01*
X184072498Y-116027000D01*
X184072481Y-116027001D01*
X183969703Y-116037500D01*
X183969700Y-116037501D01*
X183803168Y-116092685D01*
X183803163Y-116092687D01*
X183653842Y-116184789D01*
X183529789Y-116308842D01*
X183437687Y-116458163D01*
X183437686Y-116458166D01*
X183382501Y-116624703D01*
X183382501Y-116624704D01*
X183382500Y-116624704D01*
X183372000Y-116727483D01*
X183372000Y-118927501D01*
X183372001Y-118927518D01*
X183382500Y-119030296D01*
X183382501Y-119030299D01*
X183406888Y-119103893D01*
X183437686Y-119196834D01*
X183529788Y-119346156D01*
X183653844Y-119470212D01*
X183803166Y-119562314D01*
X183969703Y-119617499D01*
X184072491Y-119628000D01*
X184423000Y-119627999D01*
X184490039Y-119647683D01*
X184535794Y-119700487D01*
X184547000Y-119751999D01*
X184547000Y-124677046D01*
X184527315Y-124744085D01*
X184510681Y-124764727D01*
X182617837Y-126657570D01*
X182556514Y-126691055D01*
X182491842Y-126687821D01*
X182476246Y-126682754D01*
X182317239Y-126657570D01*
X182266287Y-126649500D01*
X182053713Y-126649500D01*
X182005042Y-126657208D01*
X181843760Y-126682753D01*
X181770228Y-126706645D01*
X181641647Y-126748424D01*
X181641585Y-126748444D01*
X181452179Y-126844951D01*
X181280213Y-126969890D01*
X181129890Y-127120213D01*
X181004949Y-127292182D01*
X181000202Y-127301499D01*
X180952227Y-127352293D01*
X180884405Y-127369087D01*
X180818271Y-127346548D01*
X180779234Y-127301495D01*
X180774626Y-127292452D01*
X180735270Y-127238282D01*
X180735269Y-127238282D01*
X180102962Y-127870590D01*
X180085925Y-127807007D01*
X180020099Y-127692993D01*
X179927007Y-127599901D01*
X179812993Y-127534075D01*
X179749409Y-127517037D01*
X180381716Y-126884728D01*
X180327550Y-126845375D01*
X180138217Y-126748904D01*
X179936129Y-126683242D01*
X179726246Y-126650000D01*
X179513754Y-126650000D01*
X179303872Y-126683242D01*
X179303869Y-126683242D01*
X179101782Y-126748904D01*
X178912439Y-126845380D01*
X178858282Y-126884727D01*
X178858282Y-126884728D01*
X179490591Y-127517037D01*
X179427007Y-127534075D01*
X179312993Y-127599901D01*
X179219901Y-127692993D01*
X179154075Y-127807007D01*
X179137037Y-127870591D01*
X178504728Y-127238282D01*
X178504727Y-127238282D01*
X178465380Y-127292440D01*
X178465376Y-127292446D01*
X178460760Y-127301505D01*
X178412781Y-127352297D01*
X178344959Y-127369087D01*
X178278826Y-127346543D01*
X178239794Y-127301493D01*
X178235051Y-127292184D01*
X178235049Y-127292181D01*
X178235048Y-127292179D01*
X178110109Y-127120213D01*
X177959786Y-126969890D01*
X177787820Y-126844951D01*
X177598414Y-126748444D01*
X177598413Y-126748443D01*
X177598412Y-126748443D01*
X177396243Y-126682754D01*
X177396241Y-126682753D01*
X177396240Y-126682753D01*
X177234957Y-126657208D01*
X177186287Y-126649500D01*
X176973713Y-126649500D01*
X176925042Y-126657208D01*
X176763760Y-126682753D01*
X176690228Y-126706645D01*
X176561647Y-126748424D01*
X176561585Y-126748444D01*
X176372179Y-126844951D01*
X176200213Y-126969890D01*
X176049890Y-127120213D01*
X175924949Y-127292182D01*
X175920484Y-127300946D01*
X175872509Y-127351742D01*
X175804688Y-127368536D01*
X175738553Y-127345998D01*
X175699516Y-127300946D01*
X175695050Y-127292182D01*
X175570109Y-127120213D01*
X175419786Y-126969890D01*
X175247820Y-126844951D01*
X175058414Y-126748444D01*
X175058413Y-126748443D01*
X175058412Y-126748443D01*
X174856243Y-126682754D01*
X174856241Y-126682753D01*
X174856240Y-126682753D01*
X174694957Y-126657208D01*
X174646287Y-126649500D01*
X174433713Y-126649500D01*
X174405006Y-126654046D01*
X174223757Y-126682753D01*
X174208158Y-126687822D01*
X174138317Y-126689816D01*
X174082161Y-126657571D01*
X173780198Y-126355608D01*
X173780178Y-126355586D01*
X173688733Y-126264141D01*
X173637509Y-126229915D01*
X173586287Y-126195689D01*
X173586286Y-126195688D01*
X173586283Y-126195686D01*
X173586280Y-126195685D01*
X173505792Y-126162347D01*
X173472453Y-126148537D01*
X173462427Y-126146543D01*
X173412029Y-126136518D01*
X173351610Y-126124500D01*
X173351607Y-126124500D01*
X173351606Y-126124500D01*
X171311607Y-126124500D01*
X171188393Y-126124500D01*
X171188389Y-126124500D01*
X171127971Y-126136518D01*
X171067548Y-126148537D01*
X171067543Y-126148538D01*
X171034207Y-126162347D01*
X171020397Y-126168067D01*
X170998826Y-126177002D01*
X170953713Y-126195688D01*
X170943557Y-126202475D01*
X170943449Y-126202547D01*
X170851268Y-126264140D01*
X170807705Y-126307703D01*
X170764142Y-126351267D01*
X170351266Y-126764143D01*
X170299144Y-126816264D01*
X170237821Y-126849748D01*
X170168129Y-126844763D01*
X170155169Y-126839067D01*
X169978217Y-126748904D01*
X169776129Y-126683242D01*
X169566246Y-126650000D01*
X169353754Y-126650000D01*
X169143872Y-126683242D01*
X169143869Y-126683242D01*
X168941782Y-126748904D01*
X168752439Y-126845380D01*
X168698282Y-126884727D01*
X168698282Y-126884728D01*
X169330591Y-127517037D01*
X169267007Y-127534075D01*
X169152993Y-127599901D01*
X169059901Y-127692993D01*
X168994075Y-127807007D01*
X168977037Y-127870591D01*
X168307642Y-127201196D01*
X168274157Y-127139873D01*
X168275077Y-127125166D01*
X168272501Y-127125444D01*
X168263596Y-127042619D01*
X168213354Y-126907913D01*
X168213350Y-126907906D01*
X168127190Y-126792812D01*
X168127187Y-126792809D01*
X168012093Y-126706649D01*
X168012086Y-126706645D01*
X167877379Y-126656403D01*
X167877372Y-126656401D01*
X167817844Y-126650000D01*
X167170000Y-126650000D01*
X167170000Y-127566988D01*
X167112993Y-127534075D01*
X166985826Y-127500000D01*
X166854174Y-127500000D01*
X166727007Y-127534075D01*
X166670000Y-127566988D01*
X166670000Y-126650000D01*
X166022155Y-126650000D01*
X165962627Y-126656401D01*
X165962620Y-126656403D01*
X165827913Y-126706645D01*
X165827906Y-126706649D01*
X165712812Y-126792809D01*
X165712809Y-126792812D01*
X165626649Y-126907906D01*
X165626645Y-126907913D01*
X165576403Y-127042620D01*
X165576401Y-127042627D01*
X165570000Y-127102155D01*
X165570000Y-127750000D01*
X166486988Y-127750000D01*
X166454075Y-127807007D01*
X166420000Y-127934174D01*
X166420000Y-128065826D01*
X166454075Y-128192993D01*
X166486988Y-128250000D01*
X165570000Y-128250000D01*
X165570000Y-128886048D01*
X165550315Y-128953087D01*
X165497511Y-128998842D01*
X165428353Y-129008786D01*
X165364797Y-128979761D01*
X165358319Y-128973729D01*
X165161819Y-128777229D01*
X165128334Y-128715906D01*
X165125500Y-128689548D01*
X165125500Y-120688393D01*
X165125499Y-120688389D01*
X165101464Y-120567555D01*
X165101463Y-120567548D01*
X165069553Y-120490511D01*
X165054312Y-120453715D01*
X165035091Y-120424949D01*
X165019399Y-120401464D01*
X165019398Y-120401462D01*
X164985861Y-120351271D01*
X164985855Y-120351263D01*
X164895637Y-120261045D01*
X164895606Y-120261016D01*
X164133070Y-119498480D01*
X164106189Y-119458249D01*
X164104311Y-119453714D01*
X164092819Y-119436515D01*
X164035858Y-119351266D01*
X163945637Y-119261045D01*
X163945606Y-119261016D01*
X158086725Y-113402135D01*
X162249500Y-113402135D01*
X162249500Y-115197870D01*
X162249501Y-115197876D01*
X162255908Y-115257483D01*
X162306202Y-115392328D01*
X162306206Y-115392335D01*
X162392452Y-115507544D01*
X162392455Y-115507547D01*
X162507664Y-115593793D01*
X162507671Y-115593797D01*
X162642517Y-115644091D01*
X162642516Y-115644091D01*
X162649444Y-115644835D01*
X162702127Y-115650500D01*
X164497872Y-115650499D01*
X164557483Y-115644091D01*
X164692331Y-115593796D01*
X164807546Y-115507546D01*
X164893796Y-115392331D01*
X164944091Y-115257483D01*
X164950500Y-115197873D01*
X164950499Y-113885450D01*
X164970184Y-113818412D01*
X164986813Y-113797775D01*
X166208729Y-112575860D01*
X166208733Y-112575858D01*
X166295858Y-112488733D01*
X166336004Y-112428651D01*
X166364312Y-112386286D01*
X166411463Y-112272451D01*
X166435500Y-112151607D01*
X166435500Y-112028393D01*
X166435500Y-110992628D01*
X166455185Y-110925589D01*
X166486611Y-110892312D01*
X166592073Y-110815690D01*
X166725690Y-110682073D01*
X166836760Y-110529199D01*
X166922547Y-110360832D01*
X166980940Y-110181118D01*
X166983226Y-110166683D01*
X167010500Y-109994486D01*
X167010500Y-109805513D01*
X166980940Y-109618881D01*
X166953846Y-109535497D01*
X166922547Y-109439168D01*
X166922545Y-109439165D01*
X166922545Y-109439163D01*
X166877290Y-109350347D01*
X166836760Y-109270801D01*
X166725690Y-109117927D01*
X166592073Y-108984310D01*
X166439199Y-108873240D01*
X166270836Y-108787454D01*
X166091118Y-108729059D01*
X165904486Y-108699500D01*
X165904481Y-108699500D01*
X165715519Y-108699500D01*
X165715514Y-108699500D01*
X165528881Y-108729059D01*
X165349163Y-108787454D01*
X165180800Y-108873240D01*
X165133386Y-108907689D01*
X165027927Y-108984310D01*
X165027925Y-108984312D01*
X165027924Y-108984312D01*
X164894312Y-109117924D01*
X164894312Y-109117925D01*
X164894310Y-109117927D01*
X164846610Y-109183579D01*
X164783240Y-109270800D01*
X164697454Y-109439163D01*
X164639059Y-109618881D01*
X164609500Y-109805513D01*
X164609500Y-109994486D01*
X164639059Y-110181118D01*
X164697454Y-110360836D01*
X164761094Y-110485735D01*
X164783240Y-110529199D01*
X164894310Y-110682073D01*
X165027927Y-110815690D01*
X165133387Y-110892311D01*
X165176051Y-110947640D01*
X165184500Y-110992628D01*
X165184500Y-111779547D01*
X165164815Y-111846586D01*
X165148181Y-111867228D01*
X164102227Y-112913181D01*
X164040904Y-112946666D01*
X164014546Y-112949500D01*
X162702129Y-112949500D01*
X162702123Y-112949501D01*
X162642516Y-112955908D01*
X162507671Y-113006202D01*
X162507664Y-113006206D01*
X162392455Y-113092452D01*
X162392452Y-113092455D01*
X162306206Y-113207664D01*
X162306202Y-113207671D01*
X162255908Y-113342517D01*
X162249501Y-113402116D01*
X162249500Y-113402135D01*
X158086725Y-113402135D01*
X150750198Y-106065608D01*
X150750178Y-106065586D01*
X150658736Y-105974144D01*
X150658728Y-105974138D01*
X150576958Y-105919501D01*
X150576956Y-105919499D01*
X150576956Y-105919500D01*
X150556285Y-105905687D01*
X150516039Y-105889017D01*
X150475792Y-105872347D01*
X150442453Y-105858537D01*
X150432427Y-105856543D01*
X150382029Y-105846518D01*
X150321610Y-105834500D01*
X150321607Y-105834500D01*
X150321606Y-105834500D01*
X147528244Y-105834500D01*
X147461205Y-105814815D01*
X147417759Y-105766794D01*
X147406683Y-105745056D01*
X147280477Y-105571349D01*
X147128651Y-105419523D01*
X146954944Y-105293317D01*
X146954943Y-105293316D01*
X146951002Y-105290453D01*
X146952405Y-105288521D01*
X146912078Y-105244073D01*
X146900558Y-105175160D01*
X146928125Y-105110958D01*
X146951709Y-105090521D01*
X146951002Y-105089547D01*
X146962284Y-105081350D01*
X147128651Y-104960477D01*
X147280477Y-104808651D01*
X147406683Y-104634944D01*
X147504161Y-104443633D01*
X147570511Y-104239427D01*
X147604100Y-104027357D01*
X147604100Y-103812643D01*
X147570511Y-103600573D01*
X147536105Y-103494682D01*
X147502656Y-103391734D01*
X147503802Y-103391361D01*
X147496936Y-103327482D01*
X147528211Y-103265003D01*
X147588301Y-103229351D01*
X147618965Y-103225500D01*
X149061607Y-103225500D01*
X149122029Y-103213481D01*
X149182452Y-103201463D01*
X149182455Y-103201461D01*
X149182458Y-103201461D01*
X149215787Y-103187654D01*
X149215786Y-103187654D01*
X149215792Y-103187652D01*
X149296286Y-103154312D01*
X149347509Y-103120084D01*
X149398733Y-103085858D01*
X149485858Y-102998733D01*
X149485859Y-102998731D01*
X149492925Y-102991665D01*
X149492928Y-102991661D01*
X152293391Y-100191197D01*
X152354712Y-100157714D01*
X152424404Y-100162698D01*
X152480336Y-100204568D01*
X152484742Y-100210453D01*
X152533287Y-100275301D01*
X152542455Y-100287547D01*
X152657664Y-100373793D01*
X152657671Y-100373797D01*
X152792517Y-100424091D01*
X152792516Y-100424091D01*
X152799444Y-100424835D01*
X152852127Y-100430500D01*
X154647872Y-100430499D01*
X154707483Y-100424091D01*
X154842331Y-100373796D01*
X154957546Y-100287546D01*
X155043796Y-100172331D01*
X155094091Y-100037483D01*
X155100500Y-99977873D01*
X155100499Y-98182128D01*
X155094091Y-98122517D01*
X155092571Y-98118443D01*
X155043797Y-97987671D01*
X155043793Y-97987664D01*
X154957547Y-97872455D01*
X154957544Y-97872452D01*
X154842335Y-97786206D01*
X154842328Y-97786202D01*
X154710917Y-97737189D01*
X154654983Y-97695318D01*
X154630566Y-97629853D01*
X154645418Y-97561580D01*
X154666563Y-97533332D01*
X154780104Y-97419792D01*
X154790348Y-97405693D01*
X154863402Y-97305141D01*
X154905051Y-97247816D01*
X155001557Y-97058412D01*
X155067246Y-96856243D01*
X155100500Y-96646287D01*
X155100500Y-96433713D01*
X155067246Y-96223757D01*
X155001557Y-96021588D01*
X154905051Y-95832184D01*
X154905049Y-95832181D01*
X154905048Y-95832179D01*
X154780109Y-95660213D01*
X154629786Y-95509890D01*
X154457820Y-95384951D01*
X154457115Y-95384591D01*
X154449054Y-95380485D01*
X154398259Y-95332512D01*
X154381463Y-95264692D01*
X154403999Y-95198556D01*
X154449054Y-95159515D01*
X154457816Y-95155051D01*
X154479789Y-95139086D01*
X154629786Y-95030109D01*
X154629788Y-95030106D01*
X154629792Y-95030104D01*
X154780104Y-94879792D01*
X154780106Y-94879788D01*
X154780109Y-94879786D01*
X154905048Y-94707820D01*
X154905047Y-94707820D01*
X154905051Y-94707816D01*
X155001557Y-94518412D01*
X155067246Y-94316243D01*
X155100500Y-94106287D01*
X155100500Y-93893713D01*
X155067246Y-93683757D01*
X155001557Y-93481588D01*
X154905051Y-93292184D01*
X154905049Y-93292181D01*
X154905048Y-93292179D01*
X154780109Y-93120213D01*
X154629786Y-92969890D01*
X154457820Y-92844951D01*
X154268414Y-92748444D01*
X154268413Y-92748443D01*
X154268412Y-92748443D01*
X154066243Y-92682754D01*
X154066241Y-92682753D01*
X154066240Y-92682753D01*
X153904957Y-92657208D01*
X153856287Y-92649500D01*
X153643713Y-92649500D01*
X153595042Y-92657208D01*
X153433760Y-92682753D01*
X153231585Y-92748444D01*
X153042179Y-92844951D01*
X152870213Y-92969890D01*
X152719890Y-93120213D01*
X152594951Y-93292179D01*
X152498444Y-93481585D01*
X152432753Y-93683760D01*
X152399500Y-93893713D01*
X152399500Y-94106286D01*
X152432754Y-94316246D01*
X152432754Y-94316247D01*
X152437821Y-94331842D01*
X152439814Y-94401683D01*
X152407570Y-94457837D01*
X148687229Y-98178181D01*
X148625906Y-98211666D01*
X148599548Y-98214500D01*
X147528244Y-98214500D01*
X147461205Y-98194815D01*
X147417759Y-98146794D01*
X147406683Y-98125056D01*
X147280477Y-97951349D01*
X147128651Y-97799523D01*
X146954944Y-97673317D01*
X146954943Y-97673316D01*
X146951002Y-97670453D01*
X146952405Y-97668521D01*
X146912078Y-97624073D01*
X146900558Y-97555160D01*
X146928125Y-97490958D01*
X146951709Y-97470521D01*
X146951002Y-97469547D01*
X146954944Y-97466683D01*
X147128651Y-97340477D01*
X147280477Y-97188651D01*
X147406683Y-97014944D01*
X147504161Y-96823633D01*
X147570511Y-96619427D01*
X147604100Y-96407357D01*
X147604100Y-96192643D01*
X147570511Y-95980573D01*
X147511804Y-95799890D01*
X147504162Y-95776369D01*
X147504161Y-95776366D01*
X147406682Y-95585055D01*
X147392338Y-95565312D01*
X147280477Y-95411349D01*
X147128651Y-95259523D01*
X146954944Y-95133317D01*
X146954943Y-95133316D01*
X146951002Y-95130453D01*
X146952405Y-95128521D01*
X146912078Y-95084073D01*
X146900558Y-95015160D01*
X146928125Y-94950958D01*
X146951709Y-94930521D01*
X146951002Y-94929547D01*
X146968522Y-94916818D01*
X147128651Y-94800477D01*
X147280477Y-94648651D01*
X147406683Y-94474944D01*
X147504161Y-94283633D01*
X147570511Y-94079427D01*
X147604100Y-93867357D01*
X147604100Y-93652643D01*
X147570511Y-93440573D01*
X147537336Y-93338470D01*
X147504162Y-93236369D01*
X147504161Y-93236366D01*
X147434933Y-93100500D01*
X147406683Y-93045056D01*
X147280477Y-92871349D01*
X147183788Y-92774660D01*
X147150303Y-92713337D01*
X147155287Y-92643645D01*
X147197159Y-92587712D01*
X147228137Y-92570797D01*
X147345684Y-92526955D01*
X147345693Y-92526950D01*
X147460787Y-92440790D01*
X147460790Y-92440787D01*
X147546950Y-92325693D01*
X147546954Y-92325686D01*
X147597196Y-92190979D01*
X147597198Y-92190972D01*
X147603599Y-92131444D01*
X147603600Y-92131427D01*
X147603600Y-91470000D01*
X146682251Y-91470000D01*
X146713381Y-91416081D01*
X146748000Y-91286880D01*
X146748000Y-91153120D01*
X146713381Y-91023919D01*
X146682251Y-90970000D01*
X147603600Y-90970000D01*
X147603600Y-90308572D01*
X147603599Y-90308555D01*
X147597198Y-90249027D01*
X147597196Y-90249020D01*
X147546954Y-90114313D01*
X147546950Y-90114306D01*
X147460790Y-89999212D01*
X147460787Y-89999209D01*
X147345693Y-89913049D01*
X147345686Y-89913045D01*
X147228136Y-89869202D01*
X147172202Y-89827331D01*
X147147785Y-89761866D01*
X147162637Y-89693593D01*
X147183782Y-89665345D01*
X147280477Y-89568651D01*
X147406683Y-89394944D01*
X147504161Y-89203633D01*
X147504162Y-89203628D01*
X147504816Y-89202052D01*
X147505225Y-89201543D01*
X147506373Y-89199292D01*
X147506845Y-89199532D01*
X147548654Y-89147647D01*
X147614948Y-89125579D01*
X147619379Y-89125500D01*
X152275501Y-89125500D01*
X152342540Y-89145185D01*
X152388295Y-89197989D01*
X152399501Y-89249500D01*
X152399501Y-89397876D01*
X152405908Y-89457483D01*
X152456202Y-89592328D01*
X152456206Y-89592335D01*
X152542452Y-89707544D01*
X152542455Y-89707547D01*
X152657664Y-89793793D01*
X152657671Y-89793797D01*
X152792517Y-89844091D01*
X152792516Y-89844091D01*
X152799444Y-89844835D01*
X152852127Y-89850500D01*
X154647872Y-89850499D01*
X154707483Y-89844091D01*
X154842331Y-89793796D01*
X154957546Y-89707546D01*
X155043796Y-89592331D01*
X155094091Y-89457483D01*
X155100500Y-89397873D01*
X155100499Y-87684450D01*
X155120184Y-87617412D01*
X155172987Y-87571657D01*
X155242146Y-87561713D01*
X155305702Y-87590738D01*
X155312180Y-87596770D01*
X157538181Y-89822771D01*
X157571666Y-89884094D01*
X157574500Y-89910452D01*
X157574500Y-103183885D01*
X157554815Y-103250924D01*
X157521428Y-103283606D01*
X157522331Y-103284849D01*
X157352786Y-103408028D01*
X157208028Y-103552786D01*
X157087715Y-103718386D01*
X156994781Y-103900776D01*
X156931522Y-104095465D01*
X156899500Y-104297648D01*
X156899500Y-104502351D01*
X156931522Y-104704534D01*
X156994781Y-104899223D01*
X157037248Y-104982567D01*
X157087585Y-105081359D01*
X157087715Y-105081613D01*
X157208028Y-105247213D01*
X157352784Y-105391969D01*
X157425750Y-105444981D01*
X157513385Y-105508651D01*
X157556051Y-105563979D01*
X157564500Y-105608968D01*
X157564500Y-108807371D01*
X157544815Y-108874410D01*
X157513386Y-108907689D01*
X157407925Y-108984311D01*
X157274312Y-109117924D01*
X157274312Y-109117925D01*
X157274310Y-109117927D01*
X157226610Y-109183579D01*
X157163240Y-109270800D01*
X157077454Y-109439163D01*
X157019059Y-109618881D01*
X156989500Y-109805513D01*
X156989500Y-109994486D01*
X157019059Y-110181118D01*
X157077454Y-110360836D01*
X157141094Y-110485735D01*
X157163240Y-110529199D01*
X157274310Y-110682073D01*
X157407927Y-110815690D01*
X157560801Y-110926760D01*
X157640347Y-110967290D01*
X157729163Y-111012545D01*
X157729165Y-111012545D01*
X157729168Y-111012547D01*
X157819593Y-111041928D01*
X157908881Y-111070940D01*
X158095514Y-111100500D01*
X158095519Y-111100500D01*
X158284486Y-111100500D01*
X158471118Y-111070940D01*
X158490132Y-111064762D01*
X158650832Y-111012547D01*
X158819199Y-110926760D01*
X158972073Y-110815690D01*
X159105690Y-110682073D01*
X159216760Y-110529199D01*
X159302547Y-110360832D01*
X159360940Y-110181118D01*
X159363226Y-110166683D01*
X159390500Y-109994486D01*
X159390500Y-109805513D01*
X159360940Y-109618881D01*
X159333846Y-109535497D01*
X159302547Y-109439168D01*
X159302545Y-109439165D01*
X159302545Y-109439163D01*
X159257290Y-109350347D01*
X159216760Y-109270801D01*
X159105690Y-109117927D01*
X158972073Y-108984310D01*
X158866614Y-108907689D01*
X158823949Y-108852358D01*
X158815500Y-108807371D01*
X158815500Y-105621958D01*
X158835185Y-105554919D01*
X158878186Y-105516021D01*
X158877457Y-105514832D01*
X158881600Y-105512293D01*
X158881604Y-105512289D01*
X158881610Y-105512287D01*
X159047219Y-105391966D01*
X159191966Y-105247219D01*
X159191968Y-105247215D01*
X159191971Y-105247213D01*
X159280093Y-105125921D01*
X159312287Y-105081610D01*
X159339795Y-105027621D01*
X159387769Y-104976826D01*
X159455589Y-104960030D01*
X159521725Y-104982567D01*
X159560765Y-105027621D01*
X159588141Y-105081350D01*
X159588147Y-105081359D01*
X159620523Y-105125921D01*
X159620524Y-105125922D01*
X160300000Y-104446446D01*
X160300000Y-104452661D01*
X160327259Y-104554394D01*
X160379920Y-104645606D01*
X160454394Y-104720080D01*
X160545606Y-104772741D01*
X160647339Y-104800000D01*
X160653553Y-104800000D01*
X159974076Y-105479474D01*
X160018650Y-105511859D01*
X160200968Y-105604755D01*
X160395582Y-105667990D01*
X160597683Y-105700000D01*
X160802317Y-105700000D01*
X161004417Y-105667990D01*
X161199031Y-105604755D01*
X161381349Y-105511859D01*
X161425921Y-105479474D01*
X161425922Y-105479474D01*
X161391431Y-105444983D01*
X183372000Y-105444983D01*
X183372000Y-107645001D01*
X183372001Y-107645018D01*
X183382500Y-107747796D01*
X183382501Y-107747799D01*
X183422924Y-107869786D01*
X183437686Y-107914334D01*
X183529788Y-108063656D01*
X183653844Y-108187712D01*
X183803166Y-108279814D01*
X183969703Y-108334999D01*
X184072491Y-108345500D01*
X184423000Y-108345499D01*
X184490039Y-108365183D01*
X184535794Y-108417987D01*
X184547000Y-108469499D01*
X184547000Y-110974889D01*
X184527315Y-111041928D01*
X184474511Y-111087683D01*
X184470464Y-111089445D01*
X184374451Y-111129216D01*
X184374448Y-111129217D01*
X184374440Y-111129221D01*
X184170045Y-111247230D01*
X183982802Y-111390906D01*
X183982795Y-111390912D01*
X183815912Y-111557795D01*
X183815906Y-111557802D01*
X183672230Y-111745045D01*
X183554219Y-111949443D01*
X183554214Y-111949454D01*
X183463894Y-112167506D01*
X183402806Y-112395489D01*
X183372001Y-112629479D01*
X183372000Y-112629495D01*
X183372000Y-112865504D01*
X183372001Y-112865520D01*
X183402806Y-113099510D01*
X183463894Y-113327493D01*
X183554214Y-113545545D01*
X183554219Y-113545556D01*
X183623239Y-113665100D01*
X183672227Y-113749950D01*
X183672229Y-113749953D01*
X183672230Y-113749954D01*
X183815906Y-113937197D01*
X183815912Y-113937204D01*
X183982795Y-114104087D01*
X183982801Y-114104092D01*
X184170050Y-114247773D01*
X184301418Y-114323618D01*
X184374443Y-114365780D01*
X184374448Y-114365782D01*
X184374451Y-114365784D01*
X184592507Y-114456106D01*
X184820486Y-114517193D01*
X185054489Y-114548000D01*
X185054496Y-114548000D01*
X185290504Y-114548000D01*
X185290511Y-114548000D01*
X185524514Y-114517193D01*
X185752493Y-114456106D01*
X185970549Y-114365784D01*
X186174950Y-114247773D01*
X186362199Y-114104092D01*
X186529092Y-113937199D01*
X186672773Y-113749950D01*
X186790784Y-113545549D01*
X186881106Y-113327493D01*
X186942193Y-113099514D01*
X186973000Y-112865511D01*
X186973000Y-112629489D01*
X186942193Y-112395486D01*
X186881106Y-112167507D01*
X186790784Y-111949451D01*
X186790782Y-111949448D01*
X186790780Y-111949443D01*
X186743487Y-111867531D01*
X186672773Y-111745050D01*
X186529092Y-111557801D01*
X186529087Y-111557795D01*
X186362204Y-111390912D01*
X186362197Y-111390906D01*
X186174954Y-111247230D01*
X186174953Y-111247229D01*
X186174950Y-111247227D01*
X186078543Y-111191566D01*
X185970559Y-111129221D01*
X185970554Y-111129219D01*
X185970549Y-111129216D01*
X185874545Y-111089449D01*
X185820143Y-111045608D01*
X185798079Y-110979313D01*
X185798000Y-110974889D01*
X185798000Y-108469499D01*
X185817685Y-108402460D01*
X185870489Y-108356705D01*
X185922000Y-108345499D01*
X186272502Y-108345499D01*
X186272508Y-108345499D01*
X186375297Y-108334999D01*
X186541834Y-108279814D01*
X186691156Y-108187712D01*
X186815212Y-108063656D01*
X186907314Y-107914334D01*
X186962499Y-107747797D01*
X186973000Y-107645009D01*
X186972999Y-105444992D01*
X186962499Y-105342203D01*
X186907314Y-105175666D01*
X186815212Y-105026344D01*
X186691156Y-104902288D01*
X186598388Y-104845069D01*
X186541836Y-104810187D01*
X186541831Y-104810185D01*
X186537202Y-104808651D01*
X186375297Y-104755001D01*
X186375295Y-104755000D01*
X186272510Y-104744500D01*
X184072498Y-104744500D01*
X184072481Y-104744501D01*
X183969703Y-104755000D01*
X183969700Y-104755001D01*
X183803168Y-104810185D01*
X183803163Y-104810187D01*
X183653842Y-104902289D01*
X183529789Y-105026342D01*
X183437687Y-105175663D01*
X183437685Y-105175668D01*
X183423018Y-105219930D01*
X183382501Y-105342203D01*
X183382501Y-105342204D01*
X183382500Y-105342204D01*
X183372000Y-105444983D01*
X161391431Y-105444983D01*
X160746447Y-104800000D01*
X160752661Y-104800000D01*
X160854394Y-104772741D01*
X160945606Y-104720080D01*
X161020080Y-104645606D01*
X161072741Y-104554394D01*
X161100000Y-104452661D01*
X161100000Y-104446448D01*
X161779474Y-105125922D01*
X161779474Y-105125921D01*
X161811859Y-105081349D01*
X161904755Y-104899031D01*
X161967990Y-104704417D01*
X162000000Y-104502317D01*
X162000000Y-104297682D01*
X161967990Y-104095582D01*
X161904755Y-103900968D01*
X161811859Y-103718650D01*
X161779474Y-103674077D01*
X161779474Y-103674076D01*
X161100000Y-104353551D01*
X161100000Y-104347339D01*
X161072741Y-104245606D01*
X161020080Y-104154394D01*
X160945606Y-104079920D01*
X160854394Y-104027259D01*
X160752661Y-104000000D01*
X160746446Y-104000000D01*
X161425922Y-103320524D01*
X161425921Y-103320523D01*
X161381359Y-103288147D01*
X161381350Y-103288141D01*
X161199031Y-103195244D01*
X161004417Y-103132009D01*
X160802317Y-103100000D01*
X160597683Y-103100000D01*
X160395582Y-103132009D01*
X160200968Y-103195244D01*
X160018644Y-103288143D01*
X159974077Y-103320523D01*
X159974077Y-103320524D01*
X160653554Y-104000000D01*
X160647339Y-104000000D01*
X160545606Y-104027259D01*
X160454394Y-104079920D01*
X160379920Y-104154394D01*
X160327259Y-104245606D01*
X160300000Y-104347339D01*
X160300000Y-104353553D01*
X159620524Y-103674077D01*
X159620523Y-103674077D01*
X159588143Y-103718644D01*
X159560765Y-103772378D01*
X159512790Y-103823174D01*
X159444969Y-103839969D01*
X159378834Y-103817431D01*
X159339795Y-103772378D01*
X159312287Y-103718390D01*
X159312285Y-103718387D01*
X159312284Y-103718385D01*
X159191971Y-103552786D01*
X159047213Y-103408028D01*
X158877669Y-103284849D01*
X158878884Y-103283176D01*
X158837831Y-103237792D01*
X158825500Y-103183885D01*
X158825500Y-89538393D01*
X158825499Y-89538389D01*
X158801463Y-89417548D01*
X158776214Y-89356592D01*
X158754312Y-89303715D01*
X158685858Y-89201267D01*
X158685855Y-89201263D01*
X152592928Y-83108338D01*
X152592925Y-83108334D01*
X152592925Y-83108335D01*
X152585858Y-83101268D01*
X152585858Y-83101267D01*
X152498733Y-83014142D01*
X152498732Y-83014141D01*
X152498731Y-83014140D01*
X152447509Y-82979915D01*
X152396287Y-82945689D01*
X152396286Y-82945688D01*
X152396283Y-82945686D01*
X152396280Y-82945685D01*
X152315792Y-82912347D01*
X152282453Y-82898537D01*
X152272427Y-82896543D01*
X152222029Y-82886518D01*
X152161610Y-82874500D01*
X152161607Y-82874500D01*
X152161606Y-82874500D01*
X143967741Y-82874500D01*
X143967721Y-82874499D01*
X143961607Y-82874499D01*
X143838394Y-82874499D01*
X143737597Y-82894548D01*
X143737592Y-82894548D01*
X143717550Y-82898536D01*
X143717548Y-82898537D01*
X143679411Y-82914334D01*
X143679410Y-82914334D01*
X143603721Y-82945684D01*
X143603708Y-82945691D01*
X143501267Y-83014141D01*
X143501263Y-83014144D01*
X142837181Y-83678227D01*
X142775858Y-83711712D01*
X142706166Y-83706728D01*
X142650233Y-83664856D01*
X142625816Y-83599392D01*
X142625500Y-83590546D01*
X142625500Y-75157741D01*
X142625501Y-75157720D01*
X142625501Y-75028391D01*
X142601464Y-74907555D01*
X142601463Y-74907549D01*
X142554312Y-74793715D01*
X142485858Y-74691267D01*
X142485855Y-74691263D01*
X141614900Y-73820309D01*
X141581415Y-73758986D01*
X141580108Y-73713230D01*
X141589973Y-73650941D01*
X141600500Y-73584485D01*
X141600500Y-73395513D01*
X141570940Y-73208881D01*
X141534694Y-73097328D01*
X141512547Y-73029168D01*
X141512545Y-73029165D01*
X141512545Y-73029163D01*
X141467290Y-72940347D01*
X141426760Y-72860801D01*
X141315690Y-72707927D01*
X141182073Y-72574310D01*
X141076614Y-72497689D01*
X141033949Y-72442358D01*
X141025500Y-72397371D01*
X141025500Y-68251930D01*
X141045185Y-68184891D01*
X141097989Y-68139136D01*
X141141877Y-68128416D01*
X141141868Y-68128320D01*
X141142564Y-68128248D01*
X141143219Y-68128089D01*
X141144987Y-68127999D01*
X141145008Y-68127999D01*
X141247797Y-68117499D01*
X141414334Y-68062314D01*
X141563656Y-67970212D01*
X141687712Y-67846156D01*
X141779814Y-67696834D01*
X141834999Y-67530297D01*
X141845500Y-67427509D01*
X141845499Y-65227492D01*
X141842912Y-65202171D01*
X141834999Y-65124703D01*
X141834998Y-65124700D01*
X141779814Y-64958166D01*
X141687712Y-64808844D01*
X141563656Y-64684788D01*
X141414334Y-64592686D01*
X141247797Y-64537501D01*
X141247795Y-64537500D01*
X141145010Y-64527000D01*
X138944998Y-64527000D01*
X138944981Y-64527001D01*
X138842203Y-64537500D01*
X138842200Y-64537501D01*
X138675668Y-64592685D01*
X138675663Y-64592687D01*
X138526342Y-64684789D01*
X138402289Y-64808842D01*
X138310187Y-64958163D01*
X138310185Y-64958168D01*
X138297043Y-64997828D01*
X138255001Y-65124703D01*
X138255001Y-65124704D01*
X138255000Y-65124704D01*
X138244500Y-65227483D01*
X138244500Y-67427501D01*
X138244501Y-67427518D01*
X138255000Y-67530296D01*
X138255001Y-67530299D01*
X138310185Y-67696831D01*
X138310186Y-67696834D01*
X138402288Y-67846156D01*
X138526344Y-67970212D01*
X138675666Y-68062314D01*
X138842203Y-68117499D01*
X138944991Y-68128000D01*
X139650500Y-68127999D01*
X139717539Y-68147683D01*
X139763294Y-68200487D01*
X139774500Y-68251999D01*
X139774500Y-72397371D01*
X139754815Y-72464410D01*
X139723386Y-72497689D01*
X139617925Y-72574311D01*
X139484312Y-72707924D01*
X139484312Y-72707925D01*
X139484310Y-72707927D01*
X139453564Y-72750245D01*
X139373240Y-72860800D01*
X139287454Y-73029163D01*
X139229059Y-73208881D01*
X139199500Y-73395513D01*
X139199500Y-73584486D01*
X139229059Y-73771118D01*
X139287454Y-73950836D01*
X139373240Y-74119199D01*
X139484310Y-74272073D01*
X139617927Y-74405690D01*
X139770801Y-74516760D01*
X139850347Y-74557290D01*
X139939163Y-74602545D01*
X139939165Y-74602545D01*
X139939168Y-74602547D01*
X140035497Y-74633846D01*
X140118881Y-74660940D01*
X140305514Y-74690500D01*
X140305519Y-74690500D01*
X140494485Y-74690500D01*
X140560941Y-74679973D01*
X140623231Y-74670108D01*
X140692523Y-74679062D01*
X140730309Y-74704900D01*
X141338181Y-75312771D01*
X141371666Y-75374094D01*
X141374500Y-75400452D01*
X141374500Y-77030547D01*
X141354815Y-77097586D01*
X141302011Y-77143341D01*
X141232853Y-77153285D01*
X141169297Y-77124260D01*
X141162819Y-77118228D01*
X137864900Y-73820310D01*
X137831415Y-73758987D01*
X137830108Y-73713230D01*
X137830109Y-73713229D01*
X137838414Y-73660788D01*
X137850500Y-73584485D01*
X137850500Y-73395513D01*
X137820940Y-73208881D01*
X137784694Y-73097328D01*
X137762547Y-73029168D01*
X137762545Y-73029165D01*
X137762545Y-73029163D01*
X137717290Y-72940347D01*
X137676760Y-72860801D01*
X137565690Y-72707927D01*
X137432073Y-72574310D01*
X137279199Y-72463240D01*
X137110836Y-72377454D01*
X136931118Y-72319059D01*
X136744486Y-72289500D01*
X136744481Y-72289500D01*
X136555519Y-72289500D01*
X136555514Y-72289500D01*
X136426769Y-72309891D01*
X136357475Y-72300936D01*
X136319690Y-72275099D01*
X134113570Y-70068979D01*
X130254104Y-66209514D01*
X133165000Y-66209514D01*
X133165000Y-66445485D01*
X133195799Y-66679414D01*
X133256870Y-66907337D01*
X133347160Y-67125319D01*
X133347165Y-67125328D01*
X133465144Y-67329671D01*
X133465145Y-67329672D01*
X133527721Y-67411223D01*
X134363958Y-66574987D01*
X134388978Y-66635390D01*
X134460112Y-66741851D01*
X134550649Y-66832388D01*
X134657110Y-66903522D01*
X134717511Y-66928541D01*
X133881275Y-67764777D01*
X133962827Y-67827354D01*
X133962828Y-67827355D01*
X134167171Y-67945334D01*
X134167180Y-67945339D01*
X134385163Y-68035629D01*
X134385161Y-68035629D01*
X134613085Y-68096700D01*
X134847014Y-68127499D01*
X134847029Y-68127500D01*
X135082971Y-68127500D01*
X135082985Y-68127499D01*
X135316914Y-68096700D01*
X135544837Y-68035629D01*
X135762819Y-67945339D01*
X135762828Y-67945334D01*
X135967181Y-67827350D01*
X136048723Y-67764779D01*
X136048723Y-67764776D01*
X135212487Y-66928541D01*
X135272890Y-66903522D01*
X135379351Y-66832388D01*
X135469888Y-66741851D01*
X135541022Y-66635390D01*
X135566041Y-66574988D01*
X136402276Y-67411223D01*
X136402279Y-67411223D01*
X136464850Y-67329681D01*
X136582834Y-67125328D01*
X136582839Y-67125319D01*
X136673129Y-66907337D01*
X136734200Y-66679414D01*
X136764999Y-66445485D01*
X136765000Y-66445471D01*
X136765000Y-66209528D01*
X136764999Y-66209514D01*
X136734200Y-65975585D01*
X136673129Y-65747662D01*
X136582839Y-65529680D01*
X136582834Y-65529671D01*
X136464855Y-65325328D01*
X136464854Y-65325327D01*
X136402277Y-65243775D01*
X135566041Y-66080011D01*
X135541022Y-66019610D01*
X135469888Y-65913149D01*
X135379351Y-65822612D01*
X135272890Y-65751478D01*
X135212488Y-65726458D01*
X136048723Y-64890221D01*
X135967172Y-64827645D01*
X135967171Y-64827644D01*
X135762828Y-64709665D01*
X135762819Y-64709660D01*
X135544836Y-64619370D01*
X135544838Y-64619370D01*
X135316914Y-64558299D01*
X135082985Y-64527500D01*
X134847014Y-64527500D01*
X134613085Y-64558299D01*
X134385162Y-64619370D01*
X134167180Y-64709660D01*
X134167171Y-64709665D01*
X133962828Y-64827644D01*
X133962818Y-64827650D01*
X133881275Y-64890220D01*
X133881275Y-64890221D01*
X134717512Y-65726458D01*
X134657110Y-65751478D01*
X134550649Y-65822612D01*
X134460112Y-65913149D01*
X134388978Y-66019610D01*
X134363958Y-66080011D01*
X133527721Y-65243775D01*
X133527720Y-65243775D01*
X133465150Y-65325318D01*
X133465144Y-65325328D01*
X133347165Y-65529671D01*
X133347160Y-65529680D01*
X133256870Y-65747662D01*
X133195799Y-65975585D01*
X133165000Y-66209514D01*
X130254104Y-66209514D01*
X129652927Y-65608337D01*
X129652925Y-65608334D01*
X129652925Y-65608335D01*
X129645858Y-65601268D01*
X129645858Y-65601267D01*
X129558733Y-65514142D01*
X129558732Y-65514141D01*
X129558731Y-65514140D01*
X129507509Y-65479915D01*
X129456287Y-65445689D01*
X129456286Y-65445688D01*
X129456283Y-65445686D01*
X129456280Y-65445685D01*
X129375792Y-65412347D01*
X129342453Y-65398537D01*
X129332427Y-65396543D01*
X129282029Y-65386518D01*
X129221610Y-65374500D01*
X129221607Y-65374500D01*
X129221606Y-65374500D01*
X125424499Y-65374500D01*
X125357460Y-65354815D01*
X125311705Y-65302011D01*
X125300499Y-65250500D01*
X125300499Y-64899998D01*
X125300498Y-64899981D01*
X125289999Y-64797203D01*
X125289998Y-64797200D01*
X125234814Y-64630666D01*
X125142712Y-64481344D01*
X125018656Y-64357288D01*
X124869334Y-64265186D01*
X124702797Y-64210001D01*
X124702795Y-64210000D01*
X124600010Y-64199500D01*
X122399998Y-64199500D01*
X122399981Y-64199501D01*
X122297203Y-64210000D01*
X122297200Y-64210001D01*
X122130668Y-64265185D01*
X122130663Y-64265187D01*
X121981342Y-64357289D01*
X121857289Y-64481342D01*
X121765187Y-64630663D01*
X121765186Y-64630666D01*
X121710001Y-64797203D01*
X121710001Y-64797204D01*
X121710000Y-64797204D01*
X121699500Y-64899983D01*
X121699500Y-67100001D01*
X121699501Y-67100018D01*
X121710000Y-67202796D01*
X121710001Y-67202799D01*
X121765185Y-67369331D01*
X121765187Y-67369336D01*
X121789241Y-67408334D01*
X121857288Y-67518656D01*
X121981344Y-67642712D01*
X122130666Y-67734814D01*
X122297203Y-67789999D01*
X122399991Y-67800500D01*
X124600008Y-67800499D01*
X124702797Y-67789999D01*
X124869334Y-67734814D01*
X125018656Y-67642712D01*
X125142712Y-67518656D01*
X125234814Y-67369334D01*
X125289999Y-67202797D01*
X125300500Y-67100009D01*
X125300500Y-66749500D01*
X125320185Y-66682461D01*
X125372989Y-66636706D01*
X125424500Y-66625500D01*
X128849548Y-66625500D01*
X128916587Y-66645185D01*
X128937229Y-66661819D01*
X135435099Y-73159690D01*
X135468584Y-73221013D01*
X135469891Y-73266769D01*
X135449500Y-73395513D01*
X135449500Y-73584486D01*
X135479059Y-73771118D01*
X135537454Y-73950836D01*
X135623240Y-74119199D01*
X135734310Y-74272073D01*
X135867927Y-74405690D01*
X136020801Y-74516760D01*
X136100347Y-74557290D01*
X136189163Y-74602545D01*
X136189165Y-74602545D01*
X136189168Y-74602547D01*
X136285497Y-74633846D01*
X136368881Y-74660940D01*
X136555514Y-74690500D01*
X136555519Y-74690500D01*
X136744485Y-74690500D01*
X136820788Y-74678414D01*
X136873231Y-74670108D01*
X136942524Y-74679062D01*
X136980310Y-74704900D01*
X140588181Y-78312771D01*
X140621666Y-78374094D01*
X140624500Y-78400452D01*
X140624500Y-79785590D01*
X140604815Y-79852629D01*
X140552011Y-79898384D01*
X140499353Y-79907697D01*
X140499353Y-79909500D01*
X140305514Y-79909500D01*
X140118881Y-79939059D01*
X139939163Y-79997454D01*
X139770800Y-80083240D01*
X139683579Y-80146610D01*
X139617927Y-80194310D01*
X139617925Y-80194312D01*
X139617924Y-80194312D01*
X139489056Y-80323181D01*
X139427733Y-80356666D01*
X139401375Y-80359500D01*
X137648625Y-80359500D01*
X137581586Y-80339815D01*
X137560944Y-80323181D01*
X137432075Y-80194312D01*
X137432073Y-80194310D01*
X137279199Y-80083240D01*
X137274141Y-80080663D01*
X137110836Y-79997454D01*
X136931118Y-79939059D01*
X136744486Y-79909500D01*
X136744481Y-79909500D01*
X136555519Y-79909500D01*
X136555514Y-79909500D01*
X136368881Y-79939059D01*
X136189163Y-79997454D01*
X136020800Y-80083240D01*
X135933579Y-80146610D01*
X135867927Y-80194310D01*
X135867925Y-80194312D01*
X135867924Y-80194312D01*
X135734312Y-80327924D01*
X135734312Y-80327925D01*
X135734310Y-80327927D01*
X135686610Y-80393579D01*
X135623240Y-80480800D01*
X135537454Y-80649163D01*
X135479059Y-80828881D01*
X135449500Y-81015513D01*
X135449500Y-81204486D01*
X135479059Y-81391118D01*
X135537454Y-81570836D01*
X135614108Y-81721276D01*
X135623240Y-81739199D01*
X135734310Y-81892073D01*
X135867927Y-82025690D01*
X136020801Y-82136760D01*
X136100347Y-82177290D01*
X136189163Y-82222545D01*
X136189165Y-82222545D01*
X136189168Y-82222547D01*
X136285497Y-82253846D01*
X136368881Y-82280940D01*
X136555514Y-82310500D01*
X136555519Y-82310500D01*
X136744486Y-82310500D01*
X136931118Y-82280940D01*
X136950390Y-82274678D01*
X137110832Y-82222547D01*
X137279199Y-82136760D01*
X137432073Y-82025690D01*
X137560944Y-81896819D01*
X137622267Y-81863334D01*
X137648625Y-81860500D01*
X139401375Y-81860500D01*
X139468414Y-81880185D01*
X139489056Y-81896819D01*
X139613181Y-82020944D01*
X139646666Y-82082267D01*
X139649500Y-82108625D01*
X139649500Y-115933918D01*
X139649500Y-115933920D01*
X139649499Y-115933920D01*
X139678340Y-116078907D01*
X139678342Y-116078913D01*
X139734916Y-116215495D01*
X139738771Y-116221264D01*
X139738772Y-116221267D01*
X139738773Y-116221267D01*
X139776256Y-116277366D01*
X139817051Y-116338420D01*
X139817052Y-116338421D01*
X144857937Y-121379304D01*
X144891422Y-121440627D01*
X144892729Y-121486383D01*
X144875900Y-121592637D01*
X144875900Y-121807356D01*
X144909489Y-122019428D01*
X144975837Y-122223630D01*
X144975838Y-122223633D01*
X145037773Y-122345185D01*
X145073317Y-122414944D01*
X145199523Y-122588651D01*
X145351349Y-122740477D01*
X145502094Y-122850000D01*
X145528998Y-122869547D01*
X145527624Y-122871437D01*
X145568030Y-122916152D01*
X145579411Y-122985089D01*
X145551715Y-123049235D01*
X145528314Y-123069511D01*
X145528998Y-123070453D01*
X145525056Y-123073316D01*
X145525056Y-123073317D01*
X145351349Y-123199523D01*
X145351347Y-123199525D01*
X145351346Y-123199525D01*
X145199525Y-123351346D01*
X145199525Y-123351347D01*
X145199523Y-123351349D01*
X145155327Y-123412179D01*
X145073317Y-123525055D01*
X145068021Y-123535449D01*
X145062240Y-123546794D01*
X145014268Y-123597590D01*
X144951756Y-123614500D01*
X138598389Y-123614500D01*
X138537971Y-123626518D01*
X138494743Y-123635116D01*
X138477546Y-123638537D01*
X138363716Y-123685687D01*
X138363707Y-123685692D01*
X138261268Y-123754140D01*
X138217705Y-123797703D01*
X138174142Y-123841267D01*
X138174139Y-123841270D01*
X135812863Y-126202547D01*
X133477229Y-128538181D01*
X133415906Y-128571666D01*
X133389548Y-128574500D01*
X129390452Y-128574500D01*
X129323413Y-128554815D01*
X129302771Y-128538181D01*
X125342428Y-124577838D01*
X125308943Y-124516515D01*
X125312177Y-124451841D01*
X125317246Y-124436243D01*
X125350500Y-124226287D01*
X125350500Y-124114452D01*
X125370185Y-124047413D01*
X125422989Y-124001658D01*
X125492147Y-123991714D01*
X125555703Y-124020739D01*
X125562181Y-124026771D01*
X126171016Y-124635606D01*
X126171045Y-124635637D01*
X126261265Y-124725857D01*
X126265085Y-124728409D01*
X126309043Y-124757780D01*
X126309045Y-124757783D01*
X126309045Y-124757782D01*
X126363714Y-124794312D01*
X126444207Y-124827652D01*
X126477548Y-124841463D01*
X126537971Y-124853481D01*
X126598393Y-124865500D01*
X126598394Y-124865500D01*
X129711756Y-124865500D01*
X129778795Y-124885185D01*
X129822240Y-124933205D01*
X129833317Y-124954944D01*
X129959523Y-125128651D01*
X130111349Y-125280477D01*
X130285056Y-125406683D01*
X130476367Y-125504161D01*
X130492938Y-125509545D01*
X130550615Y-125548981D01*
X130577814Y-125613339D01*
X130565902Y-125682186D01*
X130518659Y-125733663D01*
X130510919Y-125737961D01*
X130397004Y-125796004D01*
X130250505Y-125902441D01*
X130250500Y-125902445D01*
X130122445Y-126030500D01*
X130122441Y-126030505D01*
X130016006Y-126177002D01*
X129933788Y-126338360D01*
X129933787Y-126338363D01*
X129877829Y-126510589D01*
X129849500Y-126689448D01*
X129849500Y-126870551D01*
X129877829Y-127049410D01*
X129933787Y-127221636D01*
X129933788Y-127221639D01*
X129989664Y-127331300D01*
X130008637Y-127368536D01*
X130016006Y-127382997D01*
X130122441Y-127529494D01*
X130122445Y-127529499D01*
X130250500Y-127657554D01*
X130250505Y-127657558D01*
X130296799Y-127691192D01*
X130397006Y-127763996D01*
X130502484Y-127817740D01*
X130558360Y-127846211D01*
X130558363Y-127846212D01*
X130644476Y-127874191D01*
X130730591Y-127902171D01*
X130813429Y-127915291D01*
X130909449Y-127930500D01*
X130909454Y-127930500D01*
X131090551Y-127930500D01*
X131177259Y-127916765D01*
X131269409Y-127902171D01*
X131441639Y-127846211D01*
X131602994Y-127763996D01*
X131749501Y-127657553D01*
X131877553Y-127529501D01*
X131983996Y-127382994D01*
X132066211Y-127221639D01*
X132122171Y-127049409D01*
X132144583Y-126907906D01*
X132150500Y-126870551D01*
X132150500Y-126689448D01*
X132132691Y-126577011D01*
X132122171Y-126510591D01*
X132071808Y-126355586D01*
X132066212Y-126338363D01*
X132066211Y-126338360D01*
X132028393Y-126264140D01*
X131983996Y-126177006D01*
X131954580Y-126136518D01*
X131877558Y-126030505D01*
X131877554Y-126030500D01*
X131749499Y-125902445D01*
X131749494Y-125902441D01*
X131602997Y-125796006D01*
X131602996Y-125796005D01*
X131602994Y-125796004D01*
X131489081Y-125737962D01*
X131438285Y-125689987D01*
X131421490Y-125622166D01*
X131444028Y-125556031D01*
X131498743Y-125512580D01*
X131507057Y-125509546D01*
X131523633Y-125504161D01*
X131714944Y-125406683D01*
X131888651Y-125280477D01*
X132040477Y-125128651D01*
X132166683Y-124954944D01*
X132264161Y-124763633D01*
X132330511Y-124559427D01*
X132364100Y-124347357D01*
X132364100Y-124132643D01*
X132330511Y-123920573D01*
X132297336Y-123818470D01*
X132264162Y-123716369D01*
X132264161Y-123716366D01*
X132205678Y-123601588D01*
X132166683Y-123525056D01*
X132040477Y-123351349D01*
X131888651Y-123199523D01*
X131714944Y-123073317D01*
X131714943Y-123073316D01*
X131711002Y-123070453D01*
X131712405Y-123068521D01*
X131672078Y-123024073D01*
X131660558Y-122955160D01*
X131688125Y-122890958D01*
X131711709Y-122870521D01*
X131711002Y-122869547D01*
X131714944Y-122866683D01*
X131888651Y-122740477D01*
X132040477Y-122588651D01*
X132166683Y-122414944D01*
X132264161Y-122223633D01*
X132330511Y-122019427D01*
X132364100Y-121807357D01*
X132364100Y-121592643D01*
X132330511Y-121380573D01*
X132297336Y-121278470D01*
X132264162Y-121176369D01*
X132264161Y-121176366D01*
X132205678Y-121061588D01*
X132166683Y-120985056D01*
X132040477Y-120811349D01*
X131888651Y-120659523D01*
X131714944Y-120533317D01*
X131714943Y-120533316D01*
X131711002Y-120530453D01*
X131712405Y-120528521D01*
X131672078Y-120484073D01*
X131660558Y-120415160D01*
X131688125Y-120350958D01*
X131711709Y-120330521D01*
X131711002Y-120329547D01*
X131714944Y-120326683D01*
X131888651Y-120200477D01*
X132040477Y-120048651D01*
X132166683Y-119874944D01*
X132264161Y-119683633D01*
X132330511Y-119479427D01*
X132364100Y-119267357D01*
X132364100Y-119052643D01*
X132330511Y-118840573D01*
X132297336Y-118738470D01*
X132264162Y-118636369D01*
X132264161Y-118636366D01*
X132205678Y-118521588D01*
X132166683Y-118445056D01*
X132040477Y-118271349D01*
X131888651Y-118119523D01*
X131714944Y-117993317D01*
X131714943Y-117993316D01*
X131711002Y-117990453D01*
X131712405Y-117988521D01*
X131672078Y-117944073D01*
X131660558Y-117875160D01*
X131688125Y-117810958D01*
X131711709Y-117790521D01*
X131711002Y-117789547D01*
X131714944Y-117786683D01*
X131888651Y-117660477D01*
X132040477Y-117508651D01*
X132166683Y-117334944D01*
X132264161Y-117143633D01*
X132330511Y-116939427D01*
X132364100Y-116727357D01*
X132364100Y-116512643D01*
X132330511Y-116300573D01*
X132292891Y-116184789D01*
X132264162Y-116096369D01*
X132264161Y-116096366D01*
X132181389Y-115933918D01*
X132166683Y-115905056D01*
X132040477Y-115731349D01*
X131888651Y-115579523D01*
X131714944Y-115453317D01*
X131714943Y-115453316D01*
X131711002Y-115450453D01*
X131712405Y-115448521D01*
X131672078Y-115404073D01*
X131660558Y-115335160D01*
X131688125Y-115270958D01*
X131711709Y-115250521D01*
X131711002Y-115249547D01*
X131714944Y-115246683D01*
X131888651Y-115120477D01*
X132040477Y-114968651D01*
X132166683Y-114794944D01*
X132264161Y-114603633D01*
X132330511Y-114399427D01*
X132364100Y-114187357D01*
X132364100Y-113972643D01*
X132330511Y-113760573D01*
X132297336Y-113658470D01*
X132264162Y-113556369D01*
X132264161Y-113556366D01*
X132214492Y-113458888D01*
X132166683Y-113365056D01*
X132040477Y-113191349D01*
X131888651Y-113039523D01*
X131714944Y-112913317D01*
X131714943Y-112913316D01*
X131711002Y-112910453D01*
X131712405Y-112908521D01*
X131672078Y-112864073D01*
X131660558Y-112795160D01*
X131688125Y-112730958D01*
X131711709Y-112710521D01*
X131711002Y-112709547D01*
X131714944Y-112706683D01*
X131888651Y-112580477D01*
X132040477Y-112428651D01*
X132166683Y-112254944D01*
X132264161Y-112063633D01*
X132330511Y-111859427D01*
X132364100Y-111647357D01*
X132364100Y-111432643D01*
X132330511Y-111220573D01*
X132281893Y-111070940D01*
X132264162Y-111016369D01*
X132264161Y-111016366D01*
X132200951Y-110892310D01*
X132166683Y-110825056D01*
X132040477Y-110651349D01*
X131888651Y-110499523D01*
X131714944Y-110373317D01*
X131714943Y-110373316D01*
X131711002Y-110370453D01*
X131712405Y-110368521D01*
X131672078Y-110324073D01*
X131660558Y-110255160D01*
X131688125Y-110190958D01*
X131711709Y-110170521D01*
X131711002Y-110169547D01*
X131714944Y-110166683D01*
X131888651Y-110040477D01*
X132040477Y-109888651D01*
X132166683Y-109714944D01*
X132264161Y-109523633D01*
X132330511Y-109319427D01*
X132364100Y-109107357D01*
X132364100Y-108892643D01*
X132330511Y-108680573D01*
X132297336Y-108578470D01*
X132264162Y-108476369D01*
X132264161Y-108476366D01*
X132190820Y-108332428D01*
X132166683Y-108285056D01*
X132040477Y-108111349D01*
X131888651Y-107959523D01*
X131714944Y-107833317D01*
X131714943Y-107833316D01*
X131711002Y-107830453D01*
X131712405Y-107828521D01*
X131672078Y-107784073D01*
X131660558Y-107715160D01*
X131688125Y-107650958D01*
X131711709Y-107630521D01*
X131711002Y-107629547D01*
X131714944Y-107626683D01*
X131888651Y-107500477D01*
X132040477Y-107348651D01*
X132166683Y-107174944D01*
X132264161Y-106983633D01*
X132330511Y-106779427D01*
X132364100Y-106567357D01*
X132364100Y-106352643D01*
X132330511Y-106140573D01*
X132297336Y-106038470D01*
X132264162Y-105936369D01*
X132264161Y-105936366D01*
X132210211Y-105830484D01*
X132166683Y-105745056D01*
X132040477Y-105571349D01*
X131888651Y-105419523D01*
X131714944Y-105293317D01*
X131714943Y-105293316D01*
X131711002Y-105290453D01*
X131712405Y-105288521D01*
X131672078Y-105244073D01*
X131660558Y-105175160D01*
X131688125Y-105110958D01*
X131711709Y-105090521D01*
X131711002Y-105089547D01*
X131722284Y-105081350D01*
X131888651Y-104960477D01*
X132040477Y-104808651D01*
X132166683Y-104634944D01*
X132264161Y-104443633D01*
X132330511Y-104239427D01*
X132364100Y-104027357D01*
X132364100Y-103812643D01*
X132330511Y-103600573D01*
X132297336Y-103498470D01*
X132264162Y-103396369D01*
X132264161Y-103396366D01*
X132197480Y-103265498D01*
X132166683Y-103205056D01*
X132040477Y-103031349D01*
X131888651Y-102879523D01*
X131714944Y-102753317D01*
X131714943Y-102753316D01*
X131711002Y-102750453D01*
X131712405Y-102748521D01*
X131672078Y-102704073D01*
X131660558Y-102635160D01*
X131688125Y-102570958D01*
X131711709Y-102550521D01*
X131711002Y-102549547D01*
X131714944Y-102546683D01*
X131888651Y-102420477D01*
X132040477Y-102268651D01*
X132166683Y-102094944D01*
X132264161Y-101903633D01*
X132330511Y-101699427D01*
X132364100Y-101487357D01*
X132364100Y-101272643D01*
X132330511Y-101060573D01*
X132297336Y-100958470D01*
X132264162Y-100856369D01*
X132264161Y-100856366D01*
X132202227Y-100734815D01*
X132166683Y-100665056D01*
X132040477Y-100491349D01*
X131888651Y-100339523D01*
X131714944Y-100213317D01*
X131714943Y-100213316D01*
X131711002Y-100210453D01*
X131712405Y-100208521D01*
X131672078Y-100164073D01*
X131660558Y-100095160D01*
X131688125Y-100030958D01*
X131711709Y-100010521D01*
X131711002Y-100009547D01*
X131714944Y-100006683D01*
X131888651Y-99880477D01*
X132040477Y-99728651D01*
X132166683Y-99554944D01*
X132264161Y-99363633D01*
X132330511Y-99159427D01*
X132364100Y-98947357D01*
X132364100Y-98732643D01*
X132330511Y-98520573D01*
X132264161Y-98316367D01*
X132264161Y-98316366D01*
X132195763Y-98182129D01*
X132166683Y-98125056D01*
X132040477Y-97951349D01*
X131943788Y-97854660D01*
X131910303Y-97793337D01*
X131915287Y-97723645D01*
X131957159Y-97667712D01*
X131988137Y-97650797D01*
X132105684Y-97606955D01*
X132105693Y-97606950D01*
X132220787Y-97520790D01*
X132220790Y-97520787D01*
X132306950Y-97405693D01*
X132306954Y-97405686D01*
X132357196Y-97270979D01*
X132357198Y-97270972D01*
X132363599Y-97211444D01*
X132363600Y-97211427D01*
X132363600Y-96550000D01*
X131442251Y-96550000D01*
X131473381Y-96496081D01*
X131508000Y-96366880D01*
X131508000Y-96233120D01*
X131473381Y-96103919D01*
X131442251Y-96050000D01*
X132363600Y-96050000D01*
X132363600Y-95388572D01*
X132363599Y-95388555D01*
X132357198Y-95329027D01*
X132357196Y-95329020D01*
X132306954Y-95194313D01*
X132306950Y-95194306D01*
X132220790Y-95079212D01*
X132220787Y-95079209D01*
X132105693Y-94993049D01*
X132105686Y-94993045D01*
X131988136Y-94949202D01*
X131932202Y-94907331D01*
X131907785Y-94841866D01*
X131922637Y-94773593D01*
X131943782Y-94745345D01*
X132040477Y-94648651D01*
X132166683Y-94474944D01*
X132264161Y-94283633D01*
X132330511Y-94079427D01*
X132364100Y-93867357D01*
X132364100Y-93652643D01*
X132330511Y-93440573D01*
X132297336Y-93338470D01*
X132264162Y-93236369D01*
X132264161Y-93236366D01*
X132194933Y-93100500D01*
X132166683Y-93045056D01*
X132040477Y-92871349D01*
X131888651Y-92719523D01*
X131714944Y-92593317D01*
X131714943Y-92593316D01*
X131711002Y-92590453D01*
X131712405Y-92588521D01*
X131672078Y-92544073D01*
X131660558Y-92475160D01*
X131688125Y-92410958D01*
X131711709Y-92390521D01*
X131711002Y-92389547D01*
X131714944Y-92386683D01*
X131888651Y-92260477D01*
X132040477Y-92108651D01*
X132166683Y-91934944D01*
X132264161Y-91743633D01*
X132330511Y-91539427D01*
X132364100Y-91327357D01*
X132364100Y-91112643D01*
X132330511Y-90900573D01*
X132272861Y-90723142D01*
X132264162Y-90696369D01*
X132264161Y-90696366D01*
X132191780Y-90554312D01*
X132166683Y-90505056D01*
X132040477Y-90331349D01*
X131888651Y-90179523D01*
X131714944Y-90053317D01*
X131714943Y-90053316D01*
X131711002Y-90050453D01*
X131712405Y-90048521D01*
X131672078Y-90004073D01*
X131660558Y-89935160D01*
X131688125Y-89870958D01*
X131711709Y-89850521D01*
X131711002Y-89849547D01*
X131714944Y-89846683D01*
X131888651Y-89720477D01*
X132040477Y-89568651D01*
X132166683Y-89394944D01*
X132264161Y-89203633D01*
X132330511Y-88999427D01*
X132364100Y-88787357D01*
X132364100Y-88572643D01*
X132330511Y-88360573D01*
X132297336Y-88258470D01*
X132264162Y-88156369D01*
X132264161Y-88156366D01*
X132185623Y-88002228D01*
X132166683Y-87965056D01*
X132040477Y-87791349D01*
X131888651Y-87639523D01*
X131714944Y-87513317D01*
X131523633Y-87415839D01*
X131523621Y-87415835D01*
X131507057Y-87410453D01*
X131449382Y-87371015D01*
X131422184Y-87306656D01*
X131434099Y-87237810D01*
X131481343Y-87186334D01*
X131489060Y-87182048D01*
X131602994Y-87123996D01*
X131749501Y-87017553D01*
X131877553Y-86889501D01*
X131983996Y-86742994D01*
X132066211Y-86581639D01*
X132122171Y-86409409D01*
X132140695Y-86292452D01*
X132150500Y-86230551D01*
X132150500Y-86049448D01*
X132134019Y-85945397D01*
X132122171Y-85870591D01*
X132066211Y-85698361D01*
X132066211Y-85698360D01*
X132037740Y-85642484D01*
X131983996Y-85537006D01*
X131970396Y-85518287D01*
X131877558Y-85390505D01*
X131877554Y-85390500D01*
X131749499Y-85262445D01*
X131749494Y-85262441D01*
X131602997Y-85156006D01*
X131602996Y-85156005D01*
X131602994Y-85156004D01*
X131551300Y-85129664D01*
X131441639Y-85073788D01*
X131441636Y-85073787D01*
X131269410Y-85017829D01*
X131090551Y-84989500D01*
X131090546Y-84989500D01*
X130909454Y-84989500D01*
X130909449Y-84989500D01*
X130730589Y-85017829D01*
X130558363Y-85073787D01*
X130558360Y-85073788D01*
X130397002Y-85156006D01*
X130250505Y-85262441D01*
X130250500Y-85262445D01*
X130122445Y-85390500D01*
X130122441Y-85390505D01*
X130016006Y-85537002D01*
X129933788Y-85698360D01*
X129933787Y-85698363D01*
X129877829Y-85870589D01*
X129849500Y-86049448D01*
X129849500Y-86230551D01*
X129877829Y-86409410D01*
X129933787Y-86581636D01*
X129933790Y-86581644D01*
X129991144Y-86694204D01*
X130004041Y-86762874D01*
X129977765Y-86827614D01*
X129920659Y-86867872D01*
X129880660Y-86874500D01*
X125724499Y-86874500D01*
X125657460Y-86854815D01*
X125611705Y-86802011D01*
X125600499Y-86750500D01*
X125600499Y-86602129D01*
X125600498Y-86602123D01*
X125600497Y-86602116D01*
X125594091Y-86542517D01*
X125578132Y-86499730D01*
X125543797Y-86407671D01*
X125543793Y-86407664D01*
X125457547Y-86292455D01*
X125457544Y-86292452D01*
X125342335Y-86206206D01*
X125342328Y-86206202D01*
X125207482Y-86155908D01*
X125207483Y-86155908D01*
X125147883Y-86149501D01*
X125147881Y-86149500D01*
X125147873Y-86149500D01*
X125147864Y-86149500D01*
X123352129Y-86149500D01*
X123352123Y-86149501D01*
X123292516Y-86155908D01*
X123157671Y-86206202D01*
X123157664Y-86206206D01*
X123042455Y-86292452D01*
X123042452Y-86292455D01*
X122956206Y-86407664D01*
X122956202Y-86407671D01*
X122905908Y-86542517D01*
X122901702Y-86581644D01*
X122899501Y-86602123D01*
X122899500Y-86602135D01*
X122899500Y-88397870D01*
X122899501Y-88397876D01*
X122905908Y-88457483D01*
X122956202Y-88592328D01*
X122956206Y-88592335D01*
X123042452Y-88707544D01*
X123042455Y-88707547D01*
X123157664Y-88793793D01*
X123157671Y-88793797D01*
X123292517Y-88844091D01*
X123292516Y-88844091D01*
X123299444Y-88844835D01*
X123352127Y-88850500D01*
X125147872Y-88850499D01*
X125207483Y-88844091D01*
X125342331Y-88793796D01*
X125457546Y-88707546D01*
X125543796Y-88592331D01*
X125594091Y-88457483D01*
X125600500Y-88397873D01*
X125600500Y-88249500D01*
X125620185Y-88182461D01*
X125672989Y-88136706D01*
X125724500Y-88125500D01*
X129509548Y-88125500D01*
X129576587Y-88145185D01*
X129597229Y-88161819D01*
X129646778Y-88211368D01*
X129680263Y-88272691D01*
X129677029Y-88337363D01*
X129669491Y-88360562D01*
X129669487Y-88360579D01*
X129635900Y-88572643D01*
X129635900Y-88787357D01*
X129637595Y-88798056D01*
X129669489Y-88999428D01*
X129737344Y-89208266D01*
X129736197Y-89208638D01*
X129743064Y-89272518D01*
X129711789Y-89334997D01*
X129651699Y-89370649D01*
X129621035Y-89374500D01*
X122310452Y-89374500D01*
X122243413Y-89354815D01*
X122222771Y-89338181D01*
X120886818Y-88002228D01*
X120853333Y-87940905D01*
X120850499Y-87914547D01*
X120850499Y-86602129D01*
X120850498Y-86602123D01*
X120850497Y-86602116D01*
X120844091Y-86542517D01*
X120828132Y-86499730D01*
X120793797Y-86407671D01*
X120793793Y-86407664D01*
X120707547Y-86292455D01*
X120707544Y-86292452D01*
X120592335Y-86206206D01*
X120592328Y-86206202D01*
X120457482Y-86155908D01*
X120457483Y-86155908D01*
X120397883Y-86149501D01*
X120397881Y-86149500D01*
X120397873Y-86149500D01*
X120397864Y-86149500D01*
X118602129Y-86149500D01*
X118602123Y-86149501D01*
X118542516Y-86155908D01*
X118407671Y-86206202D01*
X118407664Y-86206206D01*
X118292455Y-86292452D01*
X118292452Y-86292455D01*
X118206206Y-86407664D01*
X118206202Y-86407671D01*
X118155908Y-86542517D01*
X118151702Y-86581644D01*
X118149501Y-86602123D01*
X118149500Y-86602135D01*
X105450500Y-86602135D01*
X105450499Y-85870591D01*
X105450499Y-85039629D01*
X105450498Y-85039623D01*
X105450497Y-85039616D01*
X105444091Y-84980017D01*
X105393796Y-84845169D01*
X105393795Y-84845168D01*
X105393793Y-84845164D01*
X105307547Y-84729955D01*
X105307544Y-84729952D01*
X105192335Y-84643706D01*
X105192328Y-84643702D01*
X105164459Y-84633308D01*
X105108525Y-84591437D01*
X105084108Y-84525973D01*
X105098960Y-84457700D01*
X105107460Y-84444260D01*
X105240217Y-84261538D01*
X105344048Y-84057758D01*
X105399590Y-83886818D01*
X105414721Y-83840249D01*
X105414721Y-83840248D01*
X105414722Y-83840245D01*
X105450500Y-83614354D01*
X105450500Y-83385646D01*
X105414722Y-83159755D01*
X105414721Y-83159751D01*
X105414721Y-83159750D01*
X105344049Y-82942244D01*
X105244973Y-82747797D01*
X105240217Y-82738462D01*
X105105786Y-82553434D01*
X104944066Y-82391714D01*
X104859134Y-82330007D01*
X104816470Y-82274678D01*
X104810491Y-82205064D01*
X104843097Y-82143269D01*
X104859137Y-82129371D01*
X104943739Y-82067905D01*
X105105402Y-81906242D01*
X105239788Y-81721276D01*
X105343582Y-81517570D01*
X105414234Y-81300128D01*
X105428509Y-81210000D01*
X104440748Y-81210000D01*
X104462518Y-81172292D01*
X104500000Y-81032409D01*
X104500000Y-80887591D01*
X104462518Y-80747708D01*
X104440748Y-80710000D01*
X105428509Y-80710000D01*
X105414234Y-80619871D01*
X105343582Y-80402429D01*
X105239788Y-80198723D01*
X105105402Y-80013757D01*
X104943742Y-79852097D01*
X104758776Y-79717711D01*
X104555068Y-79613917D01*
X104337625Y-79543265D01*
X104337626Y-79543265D01*
X104200000Y-79521467D01*
X104200000Y-80469252D01*
X104162292Y-80447482D01*
X104022409Y-80410000D01*
X103877591Y-80410000D01*
X103737708Y-80447482D01*
X103700000Y-80469252D01*
X103700000Y-79521467D01*
X103562374Y-79543265D01*
X103344931Y-79613917D01*
X103141223Y-79717711D01*
X102956257Y-79852097D01*
X102794597Y-80013757D01*
X102660211Y-80198723D01*
X102556417Y-80402431D01*
X102485765Y-80619874D01*
X102485765Y-80619875D01*
X102451191Y-80838163D01*
X102421262Y-80901298D01*
X102361950Y-80938229D01*
X102292087Y-80937231D01*
X102241037Y-80906446D01*
X100061819Y-78727228D01*
X100028334Y-78665905D01*
X100025500Y-78639547D01*
X100025500Y-76510452D01*
X100045185Y-76443413D01*
X100061819Y-76422771D01*
X107085855Y-69398736D01*
X107085855Y-69398735D01*
X107085858Y-69398733D01*
X107154312Y-69296285D01*
X107201463Y-69182451D01*
X107225501Y-69061606D01*
X107225501Y-68938393D01*
X107225501Y-68933283D01*
X107225500Y-68933257D01*
X107225500Y-66910452D01*
X107245185Y-66843413D01*
X107261819Y-66822771D01*
X108202576Y-65882014D01*
X116620000Y-65882014D01*
X116620000Y-66117985D01*
X116650799Y-66351914D01*
X116711870Y-66579837D01*
X116802160Y-66797819D01*
X116802165Y-66797828D01*
X116920144Y-67002171D01*
X116920145Y-67002172D01*
X116982721Y-67083723D01*
X117818958Y-66247487D01*
X117843978Y-66307890D01*
X117915112Y-66414351D01*
X118005649Y-66504888D01*
X118112110Y-66576022D01*
X118172511Y-66601041D01*
X117336275Y-67437277D01*
X117417827Y-67499854D01*
X117417828Y-67499855D01*
X117622171Y-67617834D01*
X117622180Y-67617839D01*
X117840163Y-67708129D01*
X117840161Y-67708129D01*
X118068085Y-67769200D01*
X118302014Y-67799999D01*
X118302029Y-67800000D01*
X118537971Y-67800000D01*
X118537985Y-67799999D01*
X118771914Y-67769200D01*
X118999837Y-67708129D01*
X119217819Y-67617839D01*
X119217828Y-67617834D01*
X119422181Y-67499850D01*
X119503723Y-67437279D01*
X119503723Y-67437276D01*
X118667487Y-66601041D01*
X118727890Y-66576022D01*
X118834351Y-66504888D01*
X118924888Y-66414351D01*
X118996022Y-66307890D01*
X119021041Y-66247487D01*
X119857276Y-67083723D01*
X119857279Y-67083723D01*
X119919850Y-67002181D01*
X120037834Y-66797828D01*
X120037839Y-66797819D01*
X120128129Y-66579837D01*
X120189200Y-66351914D01*
X120219999Y-66117985D01*
X120220000Y-66117971D01*
X120220000Y-65882028D01*
X120219999Y-65882014D01*
X120189200Y-65648085D01*
X120128129Y-65420162D01*
X120037839Y-65202180D01*
X120037834Y-65202171D01*
X119919855Y-64997828D01*
X119919854Y-64997827D01*
X119857277Y-64916275D01*
X119021041Y-65752511D01*
X118996022Y-65692110D01*
X118924888Y-65585649D01*
X118834351Y-65495112D01*
X118727890Y-65423978D01*
X118667488Y-65398958D01*
X119503723Y-64562721D01*
X119422172Y-64500145D01*
X119422171Y-64500144D01*
X119217828Y-64382165D01*
X119217819Y-64382160D01*
X118999836Y-64291870D01*
X118999838Y-64291870D01*
X118771914Y-64230799D01*
X118537985Y-64200000D01*
X118302014Y-64200000D01*
X118068085Y-64230799D01*
X117840162Y-64291870D01*
X117622180Y-64382160D01*
X117622171Y-64382165D01*
X117417828Y-64500144D01*
X117417818Y-64500150D01*
X117336275Y-64562720D01*
X117336275Y-64562721D01*
X118172512Y-65398958D01*
X118112110Y-65423978D01*
X118005649Y-65495112D01*
X117915112Y-65585649D01*
X117843978Y-65692110D01*
X117818958Y-65752511D01*
X116982721Y-64916275D01*
X116982720Y-64916275D01*
X116920150Y-64997818D01*
X116920144Y-64997828D01*
X116802165Y-65202171D01*
X116802160Y-65202180D01*
X116711870Y-65420162D01*
X116650799Y-65648085D01*
X116620000Y-65882014D01*
X108202576Y-65882014D01*
X112422771Y-61661819D01*
X112484094Y-61628334D01*
X112510452Y-61625500D01*
X149339548Y-61625500D01*
X149406587Y-61645185D01*
X149427229Y-61661819D01*
X157724669Y-69959260D01*
X157758154Y-70020583D01*
X157753170Y-70090275D01*
X157751549Y-70094394D01*
X157656704Y-70323369D01*
X157585441Y-70589331D01*
X157585438Y-70589344D01*
X157549501Y-70862315D01*
X157549500Y-70862332D01*
X157549500Y-71137667D01*
X157549501Y-71137684D01*
X157585438Y-71410655D01*
X157585439Y-71410660D01*
X157585440Y-71410666D01*
X157585441Y-71410668D01*
X157656704Y-71676630D01*
X157762075Y-71931017D01*
X157762080Y-71931028D01*
X157844861Y-72074407D01*
X157899751Y-72169479D01*
X157899753Y-72169482D01*
X157899754Y-72169483D01*
X158067370Y-72387926D01*
X158067376Y-72387933D01*
X158262066Y-72582623D01*
X158262072Y-72582628D01*
X158480521Y-72750249D01*
X158599007Y-72818657D01*
X158718971Y-72887919D01*
X158718976Y-72887921D01*
X158718979Y-72887923D01*
X158947954Y-72982768D01*
X159002356Y-73026608D01*
X159024421Y-73092902D01*
X159024500Y-73097328D01*
X159024500Y-79652671D01*
X159004815Y-79719710D01*
X158952011Y-79765465D01*
X158947953Y-79767232D01*
X158718983Y-79862075D01*
X158718971Y-79862080D01*
X158480516Y-79999754D01*
X158262073Y-80167370D01*
X158262066Y-80167376D01*
X158067376Y-80362066D01*
X158067370Y-80362073D01*
X157899754Y-80580516D01*
X157762080Y-80818971D01*
X157762075Y-80818982D01*
X157656704Y-81073369D01*
X157585441Y-81339331D01*
X157585438Y-81339344D01*
X157549501Y-81612315D01*
X157549500Y-81612332D01*
X157549500Y-81887667D01*
X157549501Y-81887684D01*
X157585438Y-82160655D01*
X157585439Y-82160660D01*
X157585440Y-82160666D01*
X157602021Y-82222547D01*
X157656704Y-82426630D01*
X157762075Y-82681017D01*
X157762080Y-82681028D01*
X157800630Y-82747797D01*
X157899751Y-82919479D01*
X157899753Y-82919482D01*
X157899754Y-82919483D01*
X158067370Y-83137926D01*
X158067376Y-83137933D01*
X158262066Y-83332623D01*
X158262073Y-83332629D01*
X158278846Y-83345499D01*
X158480521Y-83500249D01*
X158599007Y-83568657D01*
X158718971Y-83637919D01*
X158718976Y-83637921D01*
X158718979Y-83637923D01*
X158973368Y-83743295D01*
X159239334Y-83814560D01*
X159512326Y-83850500D01*
X159512333Y-83850500D01*
X159787667Y-83850500D01*
X159787674Y-83850500D01*
X160060666Y-83814560D01*
X160326632Y-83743295D01*
X160581021Y-83637923D01*
X160819479Y-83500249D01*
X161037928Y-83332628D01*
X161232628Y-83137928D01*
X161400249Y-82919479D01*
X161537923Y-82681021D01*
X161632768Y-82452045D01*
X161676608Y-82397644D01*
X161742902Y-82375579D01*
X161747328Y-82375500D01*
X165147048Y-82375500D01*
X165214087Y-82395185D01*
X165234729Y-82411819D01*
X183476779Y-100653870D01*
X183510264Y-100715193D01*
X183505280Y-100784885D01*
X183503659Y-100789003D01*
X183463896Y-100884999D01*
X183402806Y-101112989D01*
X183372001Y-101346979D01*
X183372000Y-101346995D01*
X183372000Y-101583004D01*
X183372001Y-101583020D01*
X183402806Y-101817010D01*
X183463894Y-102044993D01*
X183554214Y-102263045D01*
X183554219Y-102263056D01*
X183583694Y-102314107D01*
X183672227Y-102467450D01*
X183672229Y-102467453D01*
X183672230Y-102467454D01*
X183815906Y-102654697D01*
X183815912Y-102654704D01*
X183982795Y-102821587D01*
X183982801Y-102821592D01*
X184170050Y-102965273D01*
X184284497Y-103031349D01*
X184374443Y-103083280D01*
X184374448Y-103083282D01*
X184374451Y-103083284D01*
X184592507Y-103173606D01*
X184820486Y-103234693D01*
X185054489Y-103265500D01*
X185054496Y-103265500D01*
X185290504Y-103265500D01*
X185290511Y-103265500D01*
X185524514Y-103234693D01*
X185752493Y-103173606D01*
X185970549Y-103083284D01*
X186174950Y-102965273D01*
X186362199Y-102821592D01*
X186529092Y-102654699D01*
X186672773Y-102467450D01*
X186790784Y-102263049D01*
X186881106Y-102044993D01*
X186942193Y-101817014D01*
X186973000Y-101583011D01*
X186973000Y-101346989D01*
X186942193Y-101112986D01*
X186881106Y-100885007D01*
X186790784Y-100666951D01*
X186790782Y-100666948D01*
X186790780Y-100666943D01*
X186739134Y-100577491D01*
X186672773Y-100462550D01*
X186538488Y-100287546D01*
X186529093Y-100275302D01*
X186529087Y-100275295D01*
X186362204Y-100108412D01*
X186362197Y-100108406D01*
X186174954Y-99964730D01*
X186174953Y-99964729D01*
X186174950Y-99964727D01*
X186093457Y-99917677D01*
X185970556Y-99846719D01*
X185970545Y-99846714D01*
X185752493Y-99756394D01*
X185524514Y-99695307D01*
X185524513Y-99695306D01*
X185524510Y-99695306D01*
X185290520Y-99664501D01*
X185290517Y-99664500D01*
X185290511Y-99664500D01*
X185054489Y-99664500D01*
X185054483Y-99664500D01*
X185054479Y-99664501D01*
X184820489Y-99695306D01*
X184592499Y-99756396D01*
X184496503Y-99796159D01*
X184427034Y-99803628D01*
X184364555Y-99772353D01*
X184361370Y-99769279D01*
X165947698Y-81355608D01*
X165947678Y-81355586D01*
X165856233Y-81264141D01*
X165795724Y-81223711D01*
X165753786Y-81195688D01*
X165753787Y-81195688D01*
X165753785Y-81195687D01*
X165713539Y-81179017D01*
X165673292Y-81162347D01*
X165639952Y-81148537D01*
X165639949Y-81148536D01*
X165639945Y-81148535D01*
X165576105Y-81135836D01*
X165576098Y-81135836D01*
X165519107Y-81124500D01*
X165519106Y-81124500D01*
X161747328Y-81124500D01*
X161680289Y-81104815D01*
X161634534Y-81052011D01*
X161632781Y-81047985D01*
X161537923Y-80818979D01*
X161537921Y-80818976D01*
X161537919Y-80818971D01*
X161439882Y-80649168D01*
X161400249Y-80580521D01*
X161296259Y-80444998D01*
X161232629Y-80362073D01*
X161232623Y-80362066D01*
X161037933Y-80167376D01*
X161037926Y-80167370D01*
X160819483Y-79999754D01*
X160819482Y-79999753D01*
X160819479Y-79999751D01*
X160700995Y-79931344D01*
X160581028Y-79862080D01*
X160581016Y-79862075D01*
X160352047Y-79767232D01*
X160297644Y-79723391D01*
X160275579Y-79657097D01*
X160275500Y-79652671D01*
X160275500Y-73097328D01*
X160295185Y-73030289D01*
X160347989Y-72984534D01*
X160352014Y-72982781D01*
X160581021Y-72887923D01*
X160819479Y-72750249D01*
X161037928Y-72582628D01*
X161232628Y-72387928D01*
X161400249Y-72169479D01*
X161537923Y-71931021D01*
X161643295Y-71676632D01*
X161714560Y-71410666D01*
X161750500Y-71137674D01*
X161750500Y-70862326D01*
X161714560Y-70589334D01*
X161643295Y-70323368D01*
X161548450Y-70094393D01*
X161540981Y-70024923D01*
X161572256Y-69962444D01*
X161575301Y-69959288D01*
X163072772Y-68461819D01*
X163134095Y-68428334D01*
X163160453Y-68425500D01*
X176197048Y-68425500D01*
X176264087Y-68445185D01*
X176284729Y-68461819D01*
X183476779Y-75653870D01*
X183510264Y-75715193D01*
X183505280Y-75784885D01*
X183503659Y-75789003D01*
X183463896Y-75884999D01*
X183402806Y-76112989D01*
X183372001Y-76346979D01*
X183372000Y-76346995D01*
X183372000Y-76583004D01*
X183372001Y-76583020D01*
X183402806Y-76817010D01*
X183463894Y-77044993D01*
X183554214Y-77263045D01*
X183554219Y-77263056D01*
X183625177Y-77385957D01*
X183672227Y-77467450D01*
X183672229Y-77467453D01*
X183672230Y-77467454D01*
X183815906Y-77654697D01*
X183815912Y-77654704D01*
X183982795Y-77821587D01*
X183982801Y-77821592D01*
X184170050Y-77965273D01*
X184301418Y-78041118D01*
X184374443Y-78083280D01*
X184374448Y-78083282D01*
X184374451Y-78083284D01*
X184592507Y-78173606D01*
X184820486Y-78234693D01*
X185054489Y-78265500D01*
X185054496Y-78265500D01*
X185290504Y-78265500D01*
X185290511Y-78265500D01*
X185524514Y-78234693D01*
X185752493Y-78173606D01*
X185970549Y-78083284D01*
X186174950Y-77965273D01*
X186362199Y-77821592D01*
X186529092Y-77654699D01*
X186672773Y-77467450D01*
X186790784Y-77263049D01*
X186881106Y-77044993D01*
X186942193Y-76817014D01*
X186973000Y-76583011D01*
X186973000Y-76346989D01*
X186942193Y-76112986D01*
X186881106Y-75885007D01*
X186790784Y-75666951D01*
X186790782Y-75666948D01*
X186790780Y-75666943D01*
X186748618Y-75593918D01*
X186672773Y-75462550D01*
X186529092Y-75275301D01*
X186529087Y-75275295D01*
X186362204Y-75108412D01*
X186362197Y-75108406D01*
X186174954Y-74964730D01*
X186174953Y-74964729D01*
X186174950Y-74964727D01*
X186075915Y-74907549D01*
X185970556Y-74846719D01*
X185970545Y-74846714D01*
X185752493Y-74756394D01*
X185524510Y-74695306D01*
X185290520Y-74664501D01*
X185290517Y-74664500D01*
X185290511Y-74664500D01*
X185054489Y-74664500D01*
X185054483Y-74664500D01*
X185054479Y-74664501D01*
X184820489Y-74695306D01*
X184592499Y-74756396D01*
X184496503Y-74796159D01*
X184427034Y-74803628D01*
X184364555Y-74772353D01*
X184361370Y-74769279D01*
X177000428Y-67408338D01*
X177000425Y-67408334D01*
X177000425Y-67408335D01*
X176993358Y-67401268D01*
X176993358Y-67401267D01*
X176906233Y-67314142D01*
X176906232Y-67314141D01*
X176906231Y-67314140D01*
X176855009Y-67279915D01*
X176803787Y-67245689D01*
X176803786Y-67245688D01*
X176803783Y-67245686D01*
X176803780Y-67245685D01*
X176723292Y-67212347D01*
X176689952Y-67198537D01*
X176689944Y-67198535D01*
X176609089Y-67182451D01*
X176609080Y-67182451D01*
X176569107Y-67174500D01*
X176569106Y-67174500D01*
X162911606Y-67174500D01*
X162788393Y-67174500D01*
X162768406Y-67178475D01*
X162748419Y-67182451D01*
X162748418Y-67182450D01*
X162667555Y-67198535D01*
X162667547Y-67198537D01*
X162553716Y-67245687D01*
X162477991Y-67296286D01*
X162477990Y-67296287D01*
X162451263Y-67314144D01*
X160690738Y-69074669D01*
X160629415Y-69108154D01*
X160559723Y-69103170D01*
X160555604Y-69101549D01*
X160326630Y-69006704D01*
X160171676Y-68965185D01*
X160060666Y-68935440D01*
X160060660Y-68935439D01*
X160060655Y-68935438D01*
X159787684Y-68899501D01*
X159787679Y-68899500D01*
X159787674Y-68899500D01*
X159512326Y-68899500D01*
X159512320Y-68899500D01*
X159512315Y-68899501D01*
X159239344Y-68935438D01*
X159239337Y-68935439D01*
X159239334Y-68935440D01*
X159183125Y-68950500D01*
X158973369Y-69006704D01*
X158744394Y-69101549D01*
X158674924Y-69109018D01*
X158612445Y-69077743D01*
X158609260Y-69074669D01*
X150142928Y-60608338D01*
X150142925Y-60608334D01*
X150142925Y-60608335D01*
X150135858Y-60601268D01*
X150135858Y-60601267D01*
X150048733Y-60514142D01*
X150048732Y-60514141D01*
X150048731Y-60514140D01*
X149997509Y-60479915D01*
X149946287Y-60445689D01*
X149946286Y-60445688D01*
X149946283Y-60445686D01*
X149946280Y-60445685D01*
X149865792Y-60412347D01*
X149832453Y-60398537D01*
X149822427Y-60396543D01*
X149772029Y-60386518D01*
X149711610Y-60374500D01*
X149711607Y-60374500D01*
X149711606Y-60374500D01*
X112261607Y-60374500D01*
X112138393Y-60374500D01*
X112138389Y-60374500D01*
X112077971Y-60386518D01*
X112017548Y-60398537D01*
X112017543Y-60398538D01*
X111984207Y-60412347D01*
X111970397Y-60418067D01*
X111948169Y-60427274D01*
X111903713Y-60445688D01*
X111893557Y-60452475D01*
X111893449Y-60452547D01*
X111801268Y-60514140D01*
X111757705Y-60557703D01*
X111714142Y-60601267D01*
X111714139Y-60601270D01*
X106201270Y-66114139D01*
X106201267Y-66114142D01*
X106177507Y-66137902D01*
X106114142Y-66201266D01*
X106090296Y-66236955D01*
X106090295Y-66236956D01*
X106045690Y-66303709D01*
X106045685Y-66303718D01*
X106016368Y-66374497D01*
X106016368Y-66374500D01*
X105999862Y-66414351D01*
X105998537Y-66417549D01*
X105998535Y-66417556D01*
X105974500Y-66538389D01*
X105974500Y-68689547D01*
X105954815Y-68756586D01*
X105938181Y-68777228D01*
X98914144Y-75801264D01*
X98914138Y-75801272D01*
X98845692Y-75903705D01*
X98845684Y-75903719D01*
X98816042Y-75975284D01*
X98816040Y-75975289D01*
X98812347Y-75984207D01*
X98798537Y-76017548D01*
X98774500Y-76138394D01*
X94500500Y-76138394D01*
X94500500Y-59624500D01*
X94520185Y-59557461D01*
X94572989Y-59511706D01*
X94624500Y-59500500D01*
X193375500Y-59500500D01*
X193442539Y-59520185D01*
G37*
%TD.AperFunction*%
%TD*%
M02*
