M48
; DRILL file KiCad 10.0.5 date 2026-09-23T00:17:59
; FORMAT={-:-/ absolute / metric / decimal}
; #@! TF.CreationDate,2026-09-23T00:17:59+08:00
; #@! TF.GenerationSoftware,Kicad,Pcbnew,10.0.5
; #@! TF.FileFunction,Plated,1,2,PTH
FMAT,2
METRIC
; #@! TA.AperFunction,Plated,PTH,ViaDrill
T1C0.300
; #@! TA.AperFunction,Plated,PTH,ComponentDrill
T2C0.700
; #@! TA.AperFunction,Plated,PTH,ComponentDrill
T3C0.800
; #@! TA.AperFunction,Plated,PTH,ComponentDrill
T4C1.000
; #@! TA.AperFunction,Plated,PTH,ComponentDrill
T5C1.016
; #@! TA.AperFunction,Plated,PTH,ComponentDrill
T6C1.100
; #@! TA.AperFunction,Plated,PTH,ComponentDrill
T7C1.300
; #@! TA.AperFunction,Plated,PTH,ComponentDrill
T8C1.600
; #@! TA.AperFunction,Plated,PTH,ComponentDrill
T9C2.500
%
G90
G05
T1
X135.0Y-109.5
X135.75Y-109.5
X136.5Y-109.5
X150.25Y-114.0
X151.0Y-114.0
X151.75Y-114.0
X163.75Y-102.0
X164.5Y-102.0
X165.25Y-102.0
T2
X112.69Y-105.5
X112.69Y-113.0
X120.31Y-105.5
X120.31Y-113.0
X136.65Y-73.49
X136.65Y-81.11
X140.4Y-73.49
X140.4Y-81.11
X158.19Y-109.9
X165.81Y-109.9
T3
X158.2Y-104.4
X160.7Y-104.4
T4
X110.88Y-131.0
X113.42Y-131.0
X115.96Y-131.0
X118.5Y-131.0
X119.5Y-87.5
X121.04Y-131.0
X124.0Y-91.75
X124.0Y-94.29
X124.0Y-96.83
X124.0Y-99.37
X124.0Y-101.91
X124.0Y-104.45
X124.0Y-106.99
X124.0Y-116.5
X124.0Y-119.04
X124.0Y-121.58
X124.0Y-124.12
X124.25Y-87.5
X151.84Y-128.0
X153.75Y-88.5
X153.75Y-94.0
X153.75Y-96.54
X153.75Y-99.08
X153.75Y-118.25
X154.38Y-128.0
X156.92Y-128.0
X159.46Y-128.0
X162.0Y-128.0
X163.6Y-114.3
X166.92Y-128.0
X169.46Y-128.0
X172.0Y-128.0
X174.54Y-128.0
X177.08Y-128.0
X179.62Y-128.0
X182.16Y-128.0
X184.7Y-128.0
X190.2Y-124.0
T5
X131.0Y-88.68
X131.0Y-91.22
X131.0Y-93.76
X131.0Y-96.3
X131.0Y-98.84
X131.0Y-101.38
X131.0Y-103.92
X131.0Y-106.46
X131.0Y-109.0
X131.0Y-111.54
X131.0Y-114.08
X131.0Y-116.62
X131.0Y-119.16
X131.0Y-121.7
X131.0Y-124.24
X146.24Y-88.68
X146.24Y-91.22
X146.24Y-93.76
X146.24Y-96.3
X146.24Y-98.84
X146.24Y-101.38
X146.24Y-103.92
X146.24Y-106.46
X146.24Y-109.0
X146.24Y-111.54
X146.24Y-114.08
X146.24Y-116.62
X146.24Y-119.16
X146.24Y-121.7
X146.24Y-124.24
T6
X103.95Y-80.96
X103.95Y-83.5
X103.95Y-86.04
T7
X118.42Y-66.0
X123.5Y-66.0
X134.965Y-66.328
X140.045Y-66.328
X185.172Y-76.465
X185.172Y-81.545
X185.172Y-88.0
X185.172Y-93.08
X185.172Y-101.465
X185.172Y-106.545
X185.172Y-112.747
X185.172Y-117.828
T8
X159.65Y-71.0
X159.65Y-81.75
X172.35Y-71.0
X172.35Y-81.75
T9
X98.0Y-63.0
X98.0Y-130.0
X190.0Y-63.0
X190.0Y-130.0
M30
