%TF.GenerationSoftware,KiCad,Pcbnew,10.0.5*%
%TF.CreationDate,2026-09-23T00:18:20+08:00*%
%TF.ProjectId,thesis,74686573-6973-42e6-9b69-6361645f7063,rev?*%
%TF.SameCoordinates,Original*%
%TF.FileFunction,Copper,L1,Top*%
%TF.FilePolarity,Positive*%
%FSLAX46Y46*%
G04 Gerber Fmt 4.6, Leading zero omitted, Abs format (unit mm)*
G04 Created by KiCad (PCBNEW 10.0.5) date 2026-09-23 00:18:20*
%MOMM*%
%LPD*%
G01*
G04 APERTURE LIST*
G04 Aperture macros list*
%AMRoundRect*
0 Rectangle with rounded corners*
0 $1 Rounding radius*
0 $2 $3 $4 $5 $6 $7 $8 $9 X,Y pos of 4 corners*
0 Add a 4 corners polygon primitive as box body*
4,1,4,$2,$3,$4,$5,$6,$7,$8,$9,$2,$3,0*
0 Add four circle primitives for the rounded corners*
1,1,$1+$1,$2,$3*
1,1,$1+$1,$4,$5*
1,1,$1+$1,$6,$7*
1,1,$1+$1,$8,$9*
0 Add four rect primitives between the rounded corners*
20,1,$1+$1,$2,$3,$4,$5,0*
20,1,$1+$1,$4,$5,$6,$7,0*
20,1,$1+$1,$6,$7,$8,$9,0*
20,1,$1+$1,$8,$9,$2,$3,0*%
G04 Aperture macros list end*
%TA.AperFunction,ComponentPad*%
%ADD10R,1.700000X1.700000*%
%TD*%
%TA.AperFunction,ComponentPad*%
%ADD11C,2.600000*%
%TD*%
%TA.AperFunction,ComponentPad*%
%ADD12RoundRect,0.250000X1.050000X1.050000X-1.050000X1.050000X-1.050000X-1.050000X1.050000X-1.050000X0*%
%TD*%
%TA.AperFunction,ComponentPad*%
%ADD13C,1.700000*%
%TD*%
%TA.AperFunction,ComponentPad*%
%ADD14C,1.600000*%
%TD*%
%TA.AperFunction,ComponentPad*%
%ADD15C,1.400000*%
%TD*%
%TA.AperFunction,ComponentPad*%
%ADD16RoundRect,0.250000X1.050000X-1.050000X1.050000X1.050000X-1.050000X1.050000X-1.050000X-1.050000X0*%
%TD*%
%TA.AperFunction,ComponentPad*%
%ADD17R,2.000000X1.905000*%
%TD*%
%TA.AperFunction,ComponentPad*%
%ADD18O,2.000000X1.905000*%
%TD*%
%TA.AperFunction,ComponentPad*%
%ADD19C,5.000000*%
%TD*%
%TA.AperFunction,ComponentPad*%
%ADD20RoundRect,0.250000X1.350000X1.350000X-1.350000X1.350000X-1.350000X-1.350000X1.350000X-1.350000X0*%
%TD*%
%TA.AperFunction,ComponentPad*%
%ADD21C,3.200000*%
%TD*%
%TA.AperFunction,ComponentPad*%
%ADD22C,1.727200*%
%TD*%
%TA.AperFunction,ComponentPad*%
%ADD23R,1.727200X1.727200*%
%TD*%
%TA.AperFunction,ViaPad*%
%ADD24C,0.600000*%
%TD*%
G04 APERTURE END LIST*
D10*
%TO.P,J1,1,Pin_1_1*%
%TO.N,Vin*%
X190200000Y-124000000D03*
%TD*%
D11*
%TO.P,TH2,2*%
%TO.N,GND*%
X134965000Y-66327500D03*
D12*
%TO.P,TH2,1*%
%TO.N,Net-(A1-PadA1)*%
X140045000Y-66327500D03*
%TD*%
D10*
%TO.P,J11,1,Pin_1_1*%
%TO.N,+3.3V*%
X162000000Y-128000000D03*
D13*
%TO.P,J11,2,Pin_2_2*%
X159460000Y-128000000D03*
%TO.P,J11,3,Pin_3_3*%
X156920000Y-128000000D03*
%TO.P,J11,4,Pin_4_4*%
X154380000Y-128000000D03*
%TO.P,J11,5,Pin_5_5*%
X151840000Y-128000000D03*
%TD*%
D10*
%TO.P,J2,1,Pin_1_1*%
%TO.N,GND*%
X121040000Y-131000000D03*
D13*
%TO.P,J2,2,Pin_2_2*%
X118500000Y-131000000D03*
%TO.P,J2,3,Pin_3_3*%
X115960000Y-131000000D03*
%TO.P,J2,4,Pin_4_4*%
X113420000Y-131000000D03*
%TO.P,J2,5,Pin_5_5*%
X110880000Y-131000000D03*
%TD*%
D14*
%TO.P,C1,2*%
%TO.N,GND*%
X160700000Y-104400000D03*
%TO.P,C1,1*%
%TO.N,Net-(A1-PadA2)*%
X158200000Y-104400000D03*
%TD*%
D10*
%TO.P,U1,1,A1_1*%
%TO.N,GND*%
X166920000Y-128000000D03*
D13*
%TO.P,U1,2,A0_2*%
X169460000Y-128000000D03*
%TO.P,U1,3,SDA_3*%
%TO.N,/A1*%
X172000000Y-128000000D03*
%TO.P,U1,4,SCL_4*%
%TO.N,/A0*%
X174540000Y-128000000D03*
%TO.P,U1,5,VS_5*%
%TO.N,+3.3V*%
X177080000Y-128000000D03*
%TO.P,U1,6,GND_6*%
%TO.N,GND*%
X179620000Y-128000000D03*
%TO.P,U1,7,IN-_7*%
%TO.N,Net-(D1-K)*%
X182160000Y-128000000D03*
%TO.P,U1,8,IN+_8*%
%TO.N,Vin*%
X184700000Y-128000000D03*
%TD*%
D10*
%TO.P,J9,1,Pin_1_1*%
%TO.N,Net-(J9-Pin_1)*%
X153750000Y-99080000D03*
D13*
%TO.P,J9,2,Pin_2_2*%
%TO.N,Net-(J9-Pin_2)*%
X153750000Y-96540000D03*
%TO.P,J9,3,Pin_3_3*%
%TO.N,Net-(J9-Pin_3)*%
X153750000Y-94000000D03*
%TD*%
D15*
%TO.P,R5,1*%
%TO.N,Net-(J10-Pin_1)*%
X165810000Y-109900000D03*
%TO.P,R5,2*%
%TO.N,Net-(A1-PadA2)*%
X158190000Y-109900000D03*
%TD*%
%TO.P,R4,1*%
%TO.N,Net-(A1-PadA1)*%
X140400000Y-73490000D03*
%TO.P,R4,2*%
%TO.N,+3.3V*%
X140400000Y-81110000D03*
%TD*%
D10*
%TO.P,J10,1,Pin_1_1*%
%TO.N,Net-(J10-Pin_1)*%
X163600000Y-114300000D03*
%TD*%
%TO.P,J8,1,Pin_1_1*%
%TO.N,Net-(J8-Pin_1)*%
X153750000Y-88500000D03*
%TD*%
%TO.P,J7,1,Pin_1_1*%
%TO.N,Net-(J7-Pin_1)*%
X153750000Y-118250000D03*
%TD*%
%TO.P,J6,1,Pin_1_1*%
%TO.N,Net-(A1-D1{slash}TX)*%
X124250000Y-87500000D03*
%TD*%
%TO.P,J5,1,Pin_1_1*%
%TO.N,Net-(A1-D0{slash}RX)*%
X119500000Y-87500000D03*
%TD*%
D16*
%TO.P,L1,1*%
%TO.N,Net-(D1-K)*%
X185172500Y-93080000D03*
D11*
%TO.P,L1,2*%
%TO.N,Net-(L1-Pad2)*%
X185172500Y-88000000D03*
%TD*%
D17*
%TO.P,Q1,1,G_1*%
%TO.N,Net-(Q1-G)*%
X103950000Y-86040000D03*
D18*
%TO.P,Q1,2,D_2*%
%TO.N,Net-(D1-A)*%
X103950000Y-83500000D03*
%TO.P,Q1,3,S_3*%
%TO.N,GND*%
X103950000Y-80960000D03*
%TD*%
D19*
%TO.P,H1,1,1_1*%
%TO.N,GND*%
X190000000Y-63000000D03*
%TD*%
D20*
%TO.P,D2,1,K_1*%
%TO.N,Net-(D1-K)*%
X172350000Y-71000000D03*
D21*
%TO.P,D2,2,A_2*%
%TO.N,Net-(D1-A)*%
X159650000Y-71000000D03*
%TD*%
D19*
%TO.P,H3,1,1_1*%
%TO.N,GND*%
X190000000Y-130000000D03*
%TD*%
D16*
%TO.P,L2,1*%
%TO.N,Net-(D1-K)*%
X185172500Y-117827500D03*
D11*
%TO.P,L2,2*%
%TO.N,Net-(L2-Pad2)*%
X185172500Y-112747500D03*
%TD*%
D19*
%TO.P,H2,1,1_1*%
%TO.N,GND*%
X98000000Y-63000000D03*
%TD*%
D15*
%TO.P,R1,1*%
%TO.N,Net-(A1-PadA0)*%
X136650000Y-73490000D03*
%TO.P,R1,2*%
%TO.N,+3.3V*%
X136650000Y-81110000D03*
%TD*%
D20*
%TO.P,D1,1,K_1*%
%TO.N,Net-(D1-K)*%
X172350000Y-81750000D03*
D21*
%TO.P,D1,2,A_2*%
%TO.N,Net-(D1-A)*%
X159650000Y-81750000D03*
%TD*%
D10*
%TO.P,J4,1,Pin_1_1*%
%TO.N,Net-(J4-Pin_1)*%
X124000000Y-116500000D03*
D13*
%TO.P,J4,2,Pin_2_2*%
%TO.N,Net-(A1-D11_MOSI)*%
X124000000Y-119040000D03*
%TO.P,J4,3,Pin_3_3*%
%TO.N,Net-(A1-D12_MISO)*%
X124000000Y-121580000D03*
%TO.P,J4,4,Pin_4_4*%
%TO.N,Net-(A1-D13_SCK)*%
X124000000Y-124120000D03*
%TD*%
D15*
%TO.P,R3,1*%
%TO.N,Net-(Q1-G)*%
X112690000Y-113000000D03*
%TO.P,R3,2*%
%TO.N,Net-(A1-PadD9)*%
X120310000Y-113000000D03*
%TD*%
D16*
%TO.P,L4,1*%
%TO.N,Net-(L1-Pad2)*%
X185172500Y-81545000D03*
D11*
%TO.P,L4,2*%
%TO.N,Net-(D1-A)*%
X185172500Y-76465000D03*
%TD*%
D12*
%TO.P,TH1,1*%
%TO.N,Net-(A1-PadA0)*%
X123500000Y-66000000D03*
D11*
%TO.P,TH1,2*%
%TO.N,GND*%
X118420000Y-66000000D03*
%TD*%
D19*
%TO.P,H4,1,1_1*%
%TO.N,GND*%
X98000000Y-130000000D03*
%TD*%
D16*
%TO.P,L3,1*%
%TO.N,Net-(L2-Pad2)*%
X185172500Y-106545000D03*
D11*
%TO.P,L3,2*%
%TO.N,Net-(D1-A)*%
X185172500Y-101465000D03*
%TD*%
D10*
%TO.P,J3,1,Pin_1_1*%
%TO.N,Net-(J3-Pin_1)*%
X124000000Y-91750000D03*
D13*
%TO.P,J3,2,Pin_2_2*%
%TO.N,Net-(J3-Pin_2)*%
X124000000Y-94290000D03*
%TO.P,J3,3,Pin_3_3*%
%TO.N,Net-(J3-Pin_3)*%
X124000000Y-96830000D03*
%TO.P,J3,4,Pin_4_4*%
%TO.N,Net-(J3-Pin_4)*%
X124000000Y-99370000D03*
%TO.P,J3,5,Pin_5_5*%
%TO.N,Net-(J3-Pin_5)*%
X124000000Y-101910000D03*
%TO.P,J3,6,Pin_6_6*%
%TO.N,Net-(J3-Pin_6)*%
X124000000Y-104450000D03*
%TO.P,J3,7,Pin_7_7*%
%TO.N,Net-(J3-Pin_7)*%
X124000000Y-106990000D03*
%TD*%
D15*
%TO.P,R2,1*%
%TO.N,Net-(Q1-G)*%
X112690000Y-105500000D03*
%TO.P,R2,2*%
%TO.N,GND*%
X120310000Y-105500000D03*
%TD*%
D22*
%TO.P,A1,3V3,3.3V_3V3*%
%TO.N,+3.3V*%
X146240000Y-121700000D03*
%TO.P,A1,5V,5V_5V*%
%TO.N,unconnected-(A1-Pad5V)*%
X146240000Y-96300000D03*
%TO.P,A1,A0,A0_A0*%
%TO.N,Net-(A1-PadA0)*%
X146240000Y-116620000D03*
%TO.P,A1,A1,A1_A1*%
%TO.N,Net-(A1-PadA1)*%
X146240000Y-114080000D03*
%TO.P,A1,A2,A2_A2*%
%TO.N,Net-(A1-PadA2)*%
X146240000Y-111540000D03*
%TO.P,A1,A3,A3_A3*%
%TO.N,Net-(J9-Pin_1)*%
X146240000Y-109000000D03*
%TO.P,A1,A4,A4/SDA_A4*%
%TO.N,/A0*%
X146240000Y-106460000D03*
%TO.P,A1,A5,A5/SCL_A5*%
%TO.N,/A1*%
X146240000Y-103920000D03*
%TO.P,A1,A6,A6_A6*%
%TO.N,Net-(J9-Pin_2)*%
X146240000Y-101380000D03*
%TO.P,A1,A7,A7_A7*%
%TO.N,Net-(J9-Pin_3)*%
X146240000Y-98840000D03*
%TO.P,A1,AREF,AREF_AREF*%
%TO.N,Net-(J7-Pin_1)*%
X146240000Y-119160000D03*
%TO.P,A1,D0,D0/RX_D0*%
%TO.N,Net-(A1-D0{slash}RX)*%
X131000000Y-91220000D03*
%TO.P,A1,D1,D1/TX_D1*%
%TO.N,Net-(A1-D1{slash}TX)*%
X131000000Y-88680000D03*
%TO.P,A1,D2,D2_D2*%
%TO.N,Net-(J3-Pin_1)*%
X131000000Y-98840000D03*
%TO.P,A1,D3,D3_D3*%
%TO.N,Net-(J3-Pin_2)*%
X131000000Y-101380000D03*
%TO.P,A1,D4,D4_D4*%
%TO.N,Net-(J3-Pin_3)*%
X131000000Y-103920000D03*
%TO.P,A1,D5,D5_D5*%
%TO.N,Net-(J3-Pin_4)*%
X131000000Y-106460000D03*
%TO.P,A1,D6,D6_D6*%
%TO.N,Net-(J3-Pin_5)*%
X131000000Y-109000000D03*
%TO.P,A1,D7,D7_D7*%
%TO.N,Net-(J3-Pin_6)*%
X131000000Y-111540000D03*
%TO.P,A1,D8,D8_D8*%
%TO.N,Net-(J3-Pin_7)*%
X131000000Y-114080000D03*
%TO.P,A1,D9,D9_D9*%
%TO.N,Net-(A1-PadD9)*%
X131000000Y-116620000D03*
%TO.P,A1,D10,D10_D10*%
%TO.N,Net-(J4-Pin_1)*%
X131000000Y-119160000D03*
%TO.P,A1,D11,D11_MOSI_D11*%
%TO.N,Net-(A1-D11_MOSI)*%
X131000000Y-121700000D03*
%TO.P,A1,D12,D12_MISO_D12*%
%TO.N,Net-(A1-D12_MISO)*%
X131000000Y-124240000D03*
%TO.P,A1,D13,D13_SCK_D13*%
%TO.N,Net-(A1-D13_SCK)*%
X146240000Y-124240000D03*
D23*
%TO.P,A1,GND1,GND_GND1*%
%TO.N,GND*%
X131000000Y-96300000D03*
%TO.P,A1,GND2,GND_GND2*%
X146240000Y-91220000D03*
D22*
%TO.P,A1,RST1,RESET_RST1*%
%TO.N,unconnected-(A1-RESET-PadRST1)*%
X131000000Y-93760000D03*
%TO.P,A1,RST2,RESET_RST2*%
%TO.N,unconnected-(A1-RESET-PadRST2)*%
X146240000Y-93760000D03*
%TO.P,A1,VIN,VIN_VIN*%
%TO.N,Net-(J8-Pin_1)*%
X146240000Y-88680000D03*
%TD*%
D24*
%TO.N,GND*%
X150250000Y-114000000D03*
X151750000Y-114000000D03*
X151000000Y-114000000D03*
X135000000Y-109500000D03*
X135750000Y-109500000D03*
X164500000Y-102000000D03*
X165250000Y-102000000D03*
X163750000Y-102000000D03*
X136500000Y-109500000D03*
%TD*%
%TA.AperFunction,Conductor*%
%TO.N,GND*%
G36*
X193442539Y-59520185D02*
G01*
X193488294Y-59572989D01*
X193499500Y-59624500D01*
X193499500Y-133375500D01*
X193479815Y-133442539D01*
X193427011Y-133488294D01*
X193375500Y-133499500D01*
X94624500Y-133499500D01*
X94557461Y-133479815D01*
X94511706Y-133427011D01*
X94500500Y-133375500D01*
X94500500Y-130893753D01*
X109530000Y-130893753D01*
X109530000Y-131106246D01*
X109563242Y-131316127D01*
X109563242Y-131316130D01*
X109628904Y-131518217D01*
X109725375Y-131707550D01*
X109764728Y-131761716D01*
X110397037Y-131129408D01*
X110414075Y-131192993D01*
X110479901Y-131307007D01*
X110572993Y-131400099D01*
X110687007Y-131465925D01*
X110750590Y-131482962D01*
X110118282Y-132115269D01*
X110118282Y-132115270D01*
X110172449Y-132154624D01*
X110361782Y-132251095D01*
X110563870Y-132316757D01*
X110773754Y-132350000D01*
X110986246Y-132350000D01*
X111196127Y-132316757D01*
X111196130Y-132316757D01*
X111398217Y-132251095D01*
X111587554Y-132154622D01*
X111641716Y-132115270D01*
X111641717Y-132115270D01*
X111009408Y-131482962D01*
X111072993Y-131465925D01*
X111187007Y-131400099D01*
X111280099Y-131307007D01*
X111345925Y-131192993D01*
X111362962Y-131129409D01*
X111995270Y-131761717D01*
X111995270Y-131761716D01*
X112034622Y-131707554D01*
X112039514Y-131697954D01*
X112087488Y-131647157D01*
X112155308Y-131630361D01*
X112221444Y-131652897D01*
X112260486Y-131697954D01*
X112265375Y-131707550D01*
X112304728Y-131761716D01*
X112937037Y-131129408D01*
X112954075Y-131192993D01*
X113019901Y-131307007D01*
X113112993Y-131400099D01*
X113227007Y-131465925D01*
X113290590Y-131482962D01*
X112658282Y-132115269D01*
X112658282Y-132115270D01*
X112712449Y-132154624D01*
X112901782Y-132251095D01*
X113103870Y-132316757D01*
X113313754Y-132350000D01*
X113526246Y-132350000D01*
X113736127Y-132316757D01*
X113736130Y-132316757D01*
X113938217Y-132251095D01*
X114127554Y-132154622D01*
X114181716Y-132115270D01*
X114181717Y-132115270D01*
X113549408Y-131482962D01*
X113612993Y-131465925D01*
X113727007Y-131400099D01*
X113820099Y-131307007D01*
X113885925Y-131192993D01*
X113902962Y-131129409D01*
X114535270Y-131761717D01*
X114535270Y-131761716D01*
X114574622Y-131707554D01*
X114579514Y-131697954D01*
X114627488Y-131647157D01*
X114695308Y-131630361D01*
X114761444Y-131652897D01*
X114800486Y-131697954D01*
X114805375Y-131707550D01*
X114844728Y-131761716D01*
X115477037Y-131129408D01*
X115494075Y-131192993D01*
X115559901Y-131307007D01*
X115652993Y-131400099D01*
X115767007Y-131465925D01*
X115830590Y-131482962D01*
X115198282Y-132115269D01*
X115198282Y-132115270D01*
X115252449Y-132154624D01*
X115441782Y-132251095D01*
X115643870Y-132316757D01*
X115853754Y-132350000D01*
X116066246Y-132350000D01*
X116276127Y-132316757D01*
X116276130Y-132316757D01*
X116478217Y-132251095D01*
X116667554Y-132154622D01*
X116721716Y-132115270D01*
X116721717Y-132115270D01*
X116089408Y-131482962D01*
X116152993Y-131465925D01*
X116267007Y-131400099D01*
X116360099Y-131307007D01*
X116425925Y-131192993D01*
X116442962Y-131129408D01*
X117075270Y-131761717D01*
X117075270Y-131761716D01*
X117114622Y-131707554D01*
X117119514Y-131697954D01*
X117167488Y-131647157D01*
X117235308Y-131630361D01*
X117301444Y-131652897D01*
X117340486Y-131697954D01*
X117345375Y-131707550D01*
X117384728Y-131761716D01*
X118017037Y-131129408D01*
X118034075Y-131192993D01*
X118099901Y-131307007D01*
X118192993Y-131400099D01*
X118307007Y-131465925D01*
X118370590Y-131482962D01*
X117738282Y-132115269D01*
X117738282Y-132115270D01*
X117792449Y-132154624D01*
X117981782Y-132251095D01*
X118183870Y-132316757D01*
X118393754Y-132350000D01*
X118606246Y-132350000D01*
X118816127Y-132316757D01*
X118816130Y-132316757D01*
X119018217Y-132251095D01*
X119207554Y-132154622D01*
X119261716Y-132115270D01*
X119261717Y-132115270D01*
X118629408Y-131482962D01*
X118692993Y-131465925D01*
X118807007Y-131400099D01*
X118900099Y-131307007D01*
X118965925Y-131192993D01*
X118982962Y-131129408D01*
X119652356Y-131798803D01*
X119685841Y-131860126D01*
X119684926Y-131874831D01*
X119687497Y-131874555D01*
X119696401Y-131957373D01*
X119696403Y-131957380D01*
X119746645Y-132092086D01*
X119746649Y-132092093D01*
X119832809Y-132207187D01*
X119832812Y-132207190D01*
X119947906Y-132293350D01*
X119947913Y-132293354D01*
X120082620Y-132343596D01*
X120082627Y-132343598D01*
X120142155Y-132349999D01*
X120142172Y-132350000D01*
X120790000Y-132350000D01*
X120790000Y-131433012D01*
X120847007Y-131465925D01*
X120974174Y-131500000D01*
X121105826Y-131500000D01*
X121232993Y-131465925D01*
X121290000Y-131433012D01*
X121290000Y-132350000D01*
X121937828Y-132350000D01*
X121937844Y-132349999D01*
X121997372Y-132343598D01*
X121997379Y-132343596D01*
X122132086Y-132293354D01*
X122132093Y-132293350D01*
X122247187Y-132207190D01*
X122247190Y-132207187D01*
X122333350Y-132092093D01*
X122333354Y-132092086D01*
X122383596Y-131957379D01*
X122383598Y-131957372D01*
X122389999Y-131897844D01*
X122390000Y-131897827D01*
X122390000Y-131250000D01*
X121473012Y-131250000D01*
X121505925Y-131192993D01*
X121540000Y-131065826D01*
X121540000Y-130934174D01*
X121505925Y-130807007D01*
X121473012Y-130750000D01*
X122390000Y-130750000D01*
X122390000Y-130102172D01*
X122389999Y-130102155D01*
X122383598Y-130042627D01*
X122383596Y-130042620D01*
X122333354Y-129907913D01*
X122333350Y-129907906D01*
X122247190Y-129792812D01*
X122247187Y-129792809D01*
X122132093Y-129706649D01*
X122132086Y-129706645D01*
X121997379Y-129656403D01*
X121997372Y-129656401D01*
X121937844Y-129650000D01*
X121290000Y-129650000D01*
X121290000Y-130566988D01*
X121232993Y-130534075D01*
X121105826Y-130500000D01*
X120974174Y-130500000D01*
X120847007Y-130534075D01*
X120790000Y-130566988D01*
X120790000Y-129650000D01*
X120142155Y-129650000D01*
X120082627Y-129656401D01*
X120082620Y-129656403D01*
X119947913Y-129706645D01*
X119947906Y-129706649D01*
X119832812Y-129792809D01*
X119832809Y-129792812D01*
X119746649Y-129907906D01*
X119746645Y-129907913D01*
X119696403Y-130042619D01*
X119696401Y-130042626D01*
X119687497Y-130125444D01*
X119684434Y-130125114D01*
X119685336Y-130142094D01*
X119652356Y-130201195D01*
X118982962Y-130870590D01*
X118965925Y-130807007D01*
X118900099Y-130692993D01*
X118807007Y-130599901D01*
X118692993Y-130534075D01*
X118629409Y-130517037D01*
X119261716Y-129884728D01*
X119207550Y-129845375D01*
X119018217Y-129748904D01*
X118816129Y-129683242D01*
X118606246Y-129650000D01*
X118393754Y-129650000D01*
X118183872Y-129683242D01*
X118183869Y-129683242D01*
X117981782Y-129748904D01*
X117792439Y-129845380D01*
X117738282Y-129884727D01*
X117738282Y-129884728D01*
X118370591Y-130517037D01*
X118307007Y-130534075D01*
X118192993Y-130599901D01*
X118099901Y-130692993D01*
X118034075Y-130807007D01*
X118017037Y-130870591D01*
X117384728Y-130238282D01*
X117384727Y-130238282D01*
X117345380Y-130292440D01*
X117340483Y-130302051D01*
X117292506Y-130352845D01*
X117224684Y-130369638D01*
X117158550Y-130347098D01*
X117119516Y-130302048D01*
X117114626Y-130292452D01*
X117075270Y-130238282D01*
X117075269Y-130238282D01*
X116442962Y-130870590D01*
X116425925Y-130807007D01*
X116360099Y-130692993D01*
X116267007Y-130599901D01*
X116152993Y-130534075D01*
X116089409Y-130517037D01*
X116721716Y-129884728D01*
X116667550Y-129845375D01*
X116478217Y-129748904D01*
X116276129Y-129683242D01*
X116066246Y-129650000D01*
X115853754Y-129650000D01*
X115643872Y-129683242D01*
X115643869Y-129683242D01*
X115441782Y-129748904D01*
X115252439Y-129845380D01*
X115198282Y-129884727D01*
X115198282Y-129884728D01*
X115830591Y-130517037D01*
X115767007Y-130534075D01*
X115652993Y-130599901D01*
X115559901Y-130692993D01*
X115494075Y-130807007D01*
X115477037Y-130870591D01*
X114844728Y-130238282D01*
X114844727Y-130238282D01*
X114805380Y-130292440D01*
X114800483Y-130302051D01*
X114752506Y-130352845D01*
X114684684Y-130369638D01*
X114618550Y-130347098D01*
X114579516Y-130302048D01*
X114574626Y-130292452D01*
X114535270Y-130238282D01*
X114535269Y-130238282D01*
X113902962Y-130870590D01*
X113885925Y-130807007D01*
X113820099Y-130692993D01*
X113727007Y-130599901D01*
X113612993Y-130534075D01*
X113549409Y-130517037D01*
X114181716Y-129884728D01*
X114127550Y-129845375D01*
X113938217Y-129748904D01*
X113736129Y-129683242D01*
X113526246Y-129650000D01*
X113313754Y-129650000D01*
X113103872Y-129683242D01*
X113103869Y-129683242D01*
X112901782Y-129748904D01*
X112712439Y-129845380D01*
X112658282Y-129884727D01*
X112658282Y-129884728D01*
X113290591Y-130517037D01*
X113227007Y-130534075D01*
X113112993Y-130599901D01*
X113019901Y-130692993D01*
X112954075Y-130807007D01*
X112937037Y-130870591D01*
X112304728Y-130238282D01*
X112304727Y-130238282D01*
X112265380Y-130292440D01*
X112260483Y-130302051D01*
X112212506Y-130352845D01*
X112144684Y-130369638D01*
X112078550Y-130347098D01*
X112039516Y-130302048D01*
X112034626Y-130292452D01*
X111995270Y-130238282D01*
X111995269Y-130238282D01*
X111362962Y-130870590D01*
X111345925Y-130807007D01*
X111280099Y-130692993D01*
X111187007Y-130599901D01*
X111072993Y-130534075D01*
X111009409Y-130517037D01*
X111641716Y-129884728D01*
X111587550Y-129845375D01*
X111398217Y-129748904D01*
X111196129Y-129683242D01*
X110986246Y-129650000D01*
X110773754Y-129650000D01*
X110563872Y-129683242D01*
X110563869Y-129683242D01*
X110361782Y-129748904D01*
X110172439Y-129845380D01*
X110118282Y-129884727D01*
X110118282Y-129884728D01*
X110750591Y-130517037D01*
X110687007Y-130534075D01*
X110572993Y-130599901D01*
X110479901Y-130692993D01*
X110414075Y-130807007D01*
X110397037Y-130870591D01*
X109764728Y-130238282D01*
X109764727Y-130238282D01*
X109725380Y-130292439D01*
X109628904Y-130481782D01*
X109563242Y-130683869D01*
X109563242Y-130683872D01*
X109530000Y-130893753D01*
X94500500Y-130893753D01*
X94500500Y-115602135D01*
X122649500Y-115602135D01*
X122649500Y-117397870D01*
X122649501Y-117397876D01*
X122655908Y-117457483D01*
X122706202Y-117592328D01*
X122706206Y-117592335D01*
X122792452Y-117707544D01*
X122792455Y-117707547D01*
X122907664Y-117793793D01*
X122907671Y-117793797D01*
X123039082Y-117842810D01*
X123095016Y-117884681D01*
X123119433Y-117950145D01*
X123104582Y-118018418D01*
X123083431Y-118046673D01*
X122969889Y-118160215D01*
X122844951Y-118332179D01*
X122748444Y-118521585D01*
X122682753Y-118723760D01*
X122649500Y-118933713D01*
X122649500Y-119146286D01*
X122681156Y-119346157D01*
X122682754Y-119356243D01*
X122743694Y-119543797D01*
X122748444Y-119558414D01*
X122844951Y-119747820D01*
X122969890Y-119919786D01*
X123120213Y-120070109D01*
X123292182Y-120195050D01*
X123300946Y-120199516D01*
X123351742Y-120247491D01*
X123368536Y-120315312D01*
X123345998Y-120381447D01*
X123300946Y-120420484D01*
X123292182Y-120424949D01*
X123120213Y-120549890D01*
X122969890Y-120700213D01*
X122844951Y-120872179D01*
X122748444Y-121061585D01*
X122682753Y-121263760D01*
X122649500Y-121473713D01*
X122649500Y-121686286D01*
X122668675Y-121807356D01*
X122682754Y-121896243D01*
X122722779Y-122019428D01*
X122748444Y-122098414D01*
X122844951Y-122287820D01*
X122969890Y-122459786D01*
X123120213Y-122610109D01*
X123292182Y-122735050D01*
X123300946Y-122739516D01*
X123351742Y-122787491D01*
X123368536Y-122855312D01*
X123345998Y-122921447D01*
X123300946Y-122960484D01*
X123292182Y-122964949D01*
X123120213Y-123089890D01*
X122969890Y-123240213D01*
X122844951Y-123412179D01*
X122748444Y-123601585D01*
X122682753Y-123803760D01*
X122649500Y-124013713D01*
X122649500Y-124226286D01*
X122668675Y-124347356D01*
X122682754Y-124436243D01*
X122722779Y-124559428D01*
X122748444Y-124638414D01*
X122844951Y-124827820D01*
X122969890Y-124999786D01*
X123120213Y-125150109D01*
X123292179Y-125275048D01*
X123292181Y-125275049D01*
X123292184Y-125275051D01*
X123481588Y-125371557D01*
X123683757Y-125437246D01*
X123893713Y-125470500D01*
X123893714Y-125470500D01*
X124106286Y-125470500D01*
X124106287Y-125470500D01*
X124316243Y-125437246D01*
X124518412Y-125371557D01*
X124707816Y-125275051D01*
X124800728Y-125207547D01*
X124879786Y-125150109D01*
X124879788Y-125150106D01*
X124879792Y-125150104D01*
X125030104Y-124999792D01*
X125030106Y-124999788D01*
X125030109Y-124999786D01*
X125155048Y-124827820D01*
X125155047Y-124827820D01*
X125155051Y-124827816D01*
X125251557Y-124638412D01*
X125317246Y-124436243D01*
X125350500Y-124226287D01*
X125350500Y-124013713D01*
X125317246Y-123803757D01*
X125251557Y-123601588D01*
X125155051Y-123412184D01*
X125155049Y-123412181D01*
X125155048Y-123412179D01*
X125030109Y-123240213D01*
X124879786Y-123089890D01*
X124707820Y-122964951D01*
X124706269Y-122964161D01*
X124699054Y-122960485D01*
X124648259Y-122912512D01*
X124631463Y-122844692D01*
X124653999Y-122778556D01*
X124699054Y-122739515D01*
X124707816Y-122735051D01*
X124747524Y-122706202D01*
X124879786Y-122610109D01*
X124879788Y-122610106D01*
X124879792Y-122610104D01*
X125030104Y-122459792D01*
X125030106Y-122459788D01*
X125030109Y-122459786D01*
X125155048Y-122287820D01*
X125155047Y-122287820D01*
X125155051Y-122287816D01*
X125251557Y-122098412D01*
X125317246Y-121896243D01*
X125350500Y-121686287D01*
X125350500Y-121473713D01*
X125317246Y-121263757D01*
X125251557Y-121061588D01*
X125155051Y-120872184D01*
X125155049Y-120872181D01*
X125155048Y-120872179D01*
X125030109Y-120700213D01*
X124879786Y-120549890D01*
X124707820Y-120424951D01*
X124706269Y-120424161D01*
X124699054Y-120420485D01*
X124648259Y-120372512D01*
X124631463Y-120304692D01*
X124653999Y-120238556D01*
X124699054Y-120199515D01*
X124707816Y-120195051D01*
X124729789Y-120179086D01*
X124879786Y-120070109D01*
X124879788Y-120070106D01*
X124879792Y-120070104D01*
X125030104Y-119919792D01*
X125030106Y-119919788D01*
X125030109Y-119919786D01*
X125155048Y-119747820D01*
X125155047Y-119747820D01*
X125155051Y-119747816D01*
X125251557Y-119558412D01*
X125317246Y-119356243D01*
X125350500Y-119146287D01*
X125350500Y-118933713D01*
X125317246Y-118723757D01*
X125251557Y-118521588D01*
X125155051Y-118332184D01*
X125155049Y-118332181D01*
X125155048Y-118332179D01*
X125030109Y-118160213D01*
X124916569Y-118046673D01*
X124883084Y-117985350D01*
X124888068Y-117915658D01*
X124929940Y-117859725D01*
X124960915Y-117842810D01*
X125092331Y-117793796D01*
X125207546Y-117707546D01*
X125293796Y-117592331D01*
X125344091Y-117457483D01*
X125350500Y-117397873D01*
X125350499Y-115602128D01*
X125344091Y-115542517D01*
X125309753Y-115450453D01*
X125293797Y-115407671D01*
X125293793Y-115407664D01*
X125207547Y-115292455D01*
X125207544Y-115292452D01*
X125092335Y-115206206D01*
X125092328Y-115206202D01*
X124957482Y-115155908D01*
X124957483Y-115155908D01*
X124897883Y-115149501D01*
X124897881Y-115149500D01*
X124897873Y-115149500D01*
X124897864Y-115149500D01*
X123102129Y-115149500D01*
X123102123Y-115149501D01*
X123042516Y-115155908D01*
X122907671Y-115206202D01*
X122907664Y-115206206D01*
X122792455Y-115292452D01*
X122792452Y-115292455D01*
X122706206Y-115407664D01*
X122706202Y-115407671D01*
X122655908Y-115542517D01*
X122649501Y-115602116D01*
X122649501Y-115602123D01*
X122649500Y-115602135D01*
X94500500Y-115602135D01*
X94500500Y-112905513D01*
X111489500Y-112905513D01*
X111489500Y-113094486D01*
X111519059Y-113281118D01*
X111577454Y-113460836D01*
X111626130Y-113556367D01*
X111663240Y-113629199D01*
X111774310Y-113782073D01*
X111907927Y-113915690D01*
X112060801Y-114026760D01*
X112140347Y-114067290D01*
X112229163Y-114112545D01*
X112229165Y-114112545D01*
X112229168Y-114112547D01*
X112325497Y-114143846D01*
X112408881Y-114170940D01*
X112595514Y-114200500D01*
X112595519Y-114200500D01*
X112784486Y-114200500D01*
X112971118Y-114170940D01*
X113150832Y-114112547D01*
X113319199Y-114026760D01*
X113472073Y-113915690D01*
X113605690Y-113782073D01*
X113716760Y-113629199D01*
X113802547Y-113460832D01*
X113860940Y-113281118D01*
X113875158Y-113191349D01*
X113890500Y-113094486D01*
X113890500Y-112905513D01*
X119109500Y-112905513D01*
X119109500Y-113094486D01*
X119139059Y-113281118D01*
X119197454Y-113460836D01*
X119246130Y-113556367D01*
X119283240Y-113629199D01*
X119394310Y-113782073D01*
X119527927Y-113915690D01*
X119680801Y-114026760D01*
X119760347Y-114067290D01*
X119849163Y-114112545D01*
X119849165Y-114112545D01*
X119849168Y-114112547D01*
X119945497Y-114143846D01*
X120028881Y-114170940D01*
X120215514Y-114200500D01*
X120215519Y-114200500D01*
X120404486Y-114200500D01*
X120591118Y-114170940D01*
X120770832Y-114112547D01*
X120939199Y-114026760D01*
X121092073Y-113915690D01*
X121225690Y-113782073D01*
X121336760Y-113629199D01*
X121422547Y-113460832D01*
X121480940Y-113281118D01*
X121495158Y-113191349D01*
X121510500Y-113094486D01*
X121510500Y-112905513D01*
X121480940Y-112718881D01*
X121422545Y-112539163D01*
X121349339Y-112395489D01*
X121336760Y-112370801D01*
X121225690Y-112217927D01*
X121092073Y-112084310D01*
X120939199Y-111973240D01*
X120770836Y-111887454D01*
X120591118Y-111829059D01*
X120404486Y-111799500D01*
X120404481Y-111799500D01*
X120215519Y-111799500D01*
X120215514Y-111799500D01*
X120028881Y-111829059D01*
X119849163Y-111887454D01*
X119680800Y-111973240D01*
X119593579Y-112036610D01*
X119527927Y-112084310D01*
X119527925Y-112084312D01*
X119527924Y-112084312D01*
X119394312Y-112217924D01*
X119394312Y-112217925D01*
X119394310Y-112217927D01*
X119346610Y-112283579D01*
X119283240Y-112370800D01*
X119197454Y-112539163D01*
X119139059Y-112718881D01*
X119109500Y-112905513D01*
X113890500Y-112905513D01*
X113860940Y-112718881D01*
X113802545Y-112539163D01*
X113729339Y-112395489D01*
X113716760Y-112370801D01*
X113605690Y-112217927D01*
X113472073Y-112084310D01*
X113319199Y-111973240D01*
X113150836Y-111887454D01*
X112971118Y-111829059D01*
X112784486Y-111799500D01*
X112784481Y-111799500D01*
X112595519Y-111799500D01*
X112595514Y-111799500D01*
X112408881Y-111829059D01*
X112229163Y-111887454D01*
X112060800Y-111973240D01*
X111973579Y-112036610D01*
X111907927Y-112084310D01*
X111907925Y-112084312D01*
X111907924Y-112084312D01*
X111774312Y-112217924D01*
X111774312Y-112217925D01*
X111774310Y-112217927D01*
X111726610Y-112283579D01*
X111663240Y-112370800D01*
X111577454Y-112539163D01*
X111519059Y-112718881D01*
X111489500Y-112905513D01*
X94500500Y-112905513D01*
X94500500Y-105405513D01*
X111489500Y-105405513D01*
X111489500Y-105594486D01*
X111519059Y-105781118D01*
X111577454Y-105960836D01*
X111653564Y-106110208D01*
X111663240Y-106129199D01*
X111774310Y-106282073D01*
X111907927Y-106415690D01*
X112060801Y-106526760D01*
X112140347Y-106567290D01*
X112229163Y-106612545D01*
X112229165Y-106612545D01*
X112229168Y-106612547D01*
X112325497Y-106643846D01*
X112408881Y-106670940D01*
X112595514Y-106700500D01*
X112595519Y-106700500D01*
X112784486Y-106700500D01*
X112971118Y-106670940D01*
X112972623Y-106670451D01*
X113150832Y-106612547D01*
X113319199Y-106526760D01*
X113345182Y-106507882D01*
X119655669Y-106507882D01*
X119655670Y-106507883D01*
X119681059Y-106526329D01*
X119849362Y-106612085D01*
X120028997Y-106670451D01*
X120215553Y-106700000D01*
X120404447Y-106700000D01*
X120591002Y-106670451D01*
X120770637Y-106612085D01*
X120938937Y-106526331D01*
X120964328Y-106507883D01*
X120964328Y-106507882D01*
X120310001Y-105853554D01*
X120310000Y-105853554D01*
X119655669Y-106507882D01*
X113345182Y-106507882D01*
X113472073Y-106415690D01*
X113605690Y-106282073D01*
X113716760Y-106129199D01*
X113802547Y-105960832D01*
X113860940Y-105781118D01*
X113873541Y-105701557D01*
X113890500Y-105594486D01*
X113890500Y-105405552D01*
X119110000Y-105405552D01*
X119110000Y-105594447D01*
X119139548Y-105781002D01*
X119197914Y-105960637D01*
X119283666Y-106128933D01*
X119302116Y-106154328D01*
X119956446Y-105500000D01*
X119956446Y-105499999D01*
X119910369Y-105453922D01*
X119960000Y-105453922D01*
X119960000Y-105546078D01*
X119983852Y-105635095D01*
X120029930Y-105714905D01*
X120095095Y-105780070D01*
X120174905Y-105826148D01*
X120263922Y-105850000D01*
X120356078Y-105850000D01*
X120445095Y-105826148D01*
X120524905Y-105780070D01*
X120590070Y-105714905D01*
X120636148Y-105635095D01*
X120660000Y-105546078D01*
X120660000Y-105499999D01*
X120663554Y-105499999D01*
X120663554Y-105500000D01*
X121317882Y-106154328D01*
X121317883Y-106154328D01*
X121336331Y-106128937D01*
X121422085Y-105960637D01*
X121480451Y-105781002D01*
X121510000Y-105594447D01*
X121510000Y-105405552D01*
X121480451Y-105218997D01*
X121422085Y-105039362D01*
X121336329Y-104871059D01*
X121317883Y-104845670D01*
X121317882Y-104845669D01*
X120663554Y-105499999D01*
X120660000Y-105499999D01*
X120660000Y-105453922D01*
X120636148Y-105364905D01*
X120590070Y-105285095D01*
X120524905Y-105219930D01*
X120445095Y-105173852D01*
X120356078Y-105150000D01*
X120263922Y-105150000D01*
X120174905Y-105173852D01*
X120095095Y-105219930D01*
X120029930Y-105285095D01*
X119983852Y-105364905D01*
X119960000Y-105453922D01*
X119910369Y-105453922D01*
X119302116Y-104845669D01*
X119302116Y-104845670D01*
X119283669Y-104871060D01*
X119197914Y-105039362D01*
X119139548Y-105218997D01*
X119110000Y-105405552D01*
X113890500Y-105405552D01*
X113890500Y-105405513D01*
X113860940Y-105218881D01*
X113818916Y-105089547D01*
X113802547Y-105039168D01*
X113802545Y-105039165D01*
X113802545Y-105039163D01*
X113732803Y-104902288D01*
X113716760Y-104870801D01*
X113605690Y-104717927D01*
X113472073Y-104584310D01*
X113345179Y-104492116D01*
X119655669Y-104492116D01*
X120310000Y-105146446D01*
X120310001Y-105146446D01*
X120964328Y-104492116D01*
X120938933Y-104473666D01*
X120770637Y-104387914D01*
X120591002Y-104329548D01*
X120404447Y-104300000D01*
X120215553Y-104300000D01*
X120028997Y-104329548D01*
X119849362Y-104387914D01*
X119681060Y-104473669D01*
X119655670Y-104492116D01*
X119655669Y-104492116D01*
X113345179Y-104492116D01*
X113319199Y-104473240D01*
X113150836Y-104387454D01*
X112971118Y-104329059D01*
X112784486Y-104299500D01*
X112784481Y-104299500D01*
X112595519Y-104299500D01*
X112595514Y-104299500D01*
X112408881Y-104329059D01*
X112229163Y-104387454D01*
X112060800Y-104473240D01*
X111973579Y-104536610D01*
X111907927Y-104584310D01*
X111907925Y-104584312D01*
X111907924Y-104584312D01*
X111774312Y-104717924D01*
X111774312Y-104717925D01*
X111774310Y-104717927D01*
X111755003Y-104744501D01*
X111663240Y-104870800D01*
X111577454Y-105039163D01*
X111519059Y-105218881D01*
X111489500Y-105405513D01*
X94500500Y-105405513D01*
X94500500Y-90852135D01*
X122649500Y-90852135D01*
X122649500Y-92647870D01*
X122649501Y-92647876D01*
X122655908Y-92707483D01*
X122706202Y-92842328D01*
X122706206Y-92842335D01*
X122792452Y-92957544D01*
X122792455Y-92957547D01*
X122907664Y-93043793D01*
X122907671Y-93043797D01*
X123039082Y-93092810D01*
X123095016Y-93134681D01*
X123119433Y-93200145D01*
X123104582Y-93268418D01*
X123083431Y-93296673D01*
X122969889Y-93410215D01*
X122844951Y-93582179D01*
X122748444Y-93771585D01*
X122682753Y-93973760D01*
X122666017Y-94079427D01*
X122649500Y-94183713D01*
X122649500Y-94396287D01*
X122682754Y-94606243D01*
X122747874Y-94806662D01*
X122748444Y-94808414D01*
X122844951Y-94997820D01*
X122969890Y-95169786D01*
X123120213Y-95320109D01*
X123292182Y-95445050D01*
X123300946Y-95449516D01*
X123351742Y-95497491D01*
X123368536Y-95565312D01*
X123345998Y-95631447D01*
X123300946Y-95670484D01*
X123292182Y-95674949D01*
X123120213Y-95799890D01*
X122969890Y-95950213D01*
X122844951Y-96122179D01*
X122748444Y-96311585D01*
X122682753Y-96513760D01*
X122667206Y-96611920D01*
X122649500Y-96723713D01*
X122649500Y-96936287D01*
X122682754Y-97146243D01*
X122723283Y-97270979D01*
X122748444Y-97348414D01*
X122844951Y-97537820D01*
X122969890Y-97709786D01*
X123120213Y-97860109D01*
X123292182Y-97985050D01*
X123300946Y-97989516D01*
X123351742Y-98037491D01*
X123368536Y-98105312D01*
X123345998Y-98171447D01*
X123300946Y-98210484D01*
X123292182Y-98214949D01*
X123120213Y-98339890D01*
X122969890Y-98490213D01*
X122844951Y-98662179D01*
X122748444Y-98851585D01*
X122682753Y-99053760D01*
X122666017Y-99159427D01*
X122649500Y-99263713D01*
X122649500Y-99476287D01*
X122682754Y-99686243D01*
X122734894Y-99846714D01*
X122748444Y-99888414D01*
X122844951Y-100077820D01*
X122969890Y-100249786D01*
X123120213Y-100400109D01*
X123292182Y-100525050D01*
X123300946Y-100529516D01*
X123351742Y-100577491D01*
X123368536Y-100645312D01*
X123345998Y-100711447D01*
X123300946Y-100750484D01*
X123292182Y-100754949D01*
X123120213Y-100879890D01*
X122969890Y-101030213D01*
X122844951Y-101202179D01*
X122748444Y-101391585D01*
X122682753Y-101593760D01*
X122666017Y-101699427D01*
X122649500Y-101803713D01*
X122649500Y-102016287D01*
X122682754Y-102226243D01*
X122696533Y-102268651D01*
X122748444Y-102428414D01*
X122844951Y-102617820D01*
X122969890Y-102789786D01*
X123120213Y-102940109D01*
X123292182Y-103065050D01*
X123300946Y-103069516D01*
X123351742Y-103117491D01*
X123368536Y-103185312D01*
X123345998Y-103251447D01*
X123300946Y-103290484D01*
X123292182Y-103294949D01*
X123120213Y-103419890D01*
X122969890Y-103570213D01*
X122844951Y-103742179D01*
X122748444Y-103931585D01*
X122682753Y-104133760D01*
X122649500Y-104343713D01*
X122649500Y-104556287D01*
X122653939Y-104584312D01*
X122672961Y-104704417D01*
X122682754Y-104766243D01*
X122726958Y-104902289D01*
X122748444Y-104968414D01*
X122844951Y-105157820D01*
X122969890Y-105329786D01*
X123120213Y-105480109D01*
X123292182Y-105605050D01*
X123300946Y-105609516D01*
X123351742Y-105657491D01*
X123368536Y-105725312D01*
X123345998Y-105791447D01*
X123300946Y-105830484D01*
X123292182Y-105834949D01*
X123120213Y-105959890D01*
X122969890Y-106110213D01*
X122844951Y-106282179D01*
X122748444Y-106471585D01*
X122682753Y-106673760D01*
X122678597Y-106700000D01*
X122649500Y-106883713D01*
X122649500Y-107096287D01*
X122682754Y-107306243D01*
X122696533Y-107348651D01*
X122748444Y-107508414D01*
X122844951Y-107697820D01*
X122969890Y-107869786D01*
X123120213Y-108020109D01*
X123292179Y-108145048D01*
X123292181Y-108145049D01*
X123292184Y-108145051D01*
X123481588Y-108241557D01*
X123683757Y-108307246D01*
X123893713Y-108340500D01*
X123893714Y-108340500D01*
X124106286Y-108340500D01*
X124106287Y-108340500D01*
X124316243Y-108307246D01*
X124518412Y-108241557D01*
X124707816Y-108145051D01*
X124754207Y-108111346D01*
X124879786Y-108020109D01*
X124879788Y-108020106D01*
X124879792Y-108020104D01*
X125030104Y-107869792D01*
X125030106Y-107869788D01*
X125030109Y-107869786D01*
X125155048Y-107697820D01*
X125155047Y-107697820D01*
X125155051Y-107697816D01*
X125251557Y-107508412D01*
X125317246Y-107306243D01*
X125350500Y-107096287D01*
X125350500Y-106883713D01*
X125317246Y-106673757D01*
X125251557Y-106471588D01*
X125155051Y-106282184D01*
X125155049Y-106282181D01*
X125155048Y-106282179D01*
X125030109Y-106110213D01*
X124879786Y-105959890D01*
X124707820Y-105834951D01*
X124707115Y-105834591D01*
X124699054Y-105830485D01*
X124648259Y-105782512D01*
X124631463Y-105714692D01*
X124653999Y-105648556D01*
X124699054Y-105609515D01*
X124707816Y-105605051D01*
X124836085Y-105511859D01*
X124879786Y-105480109D01*
X124879788Y-105480106D01*
X124879792Y-105480104D01*
X125030104Y-105329792D01*
X125030106Y-105329788D01*
X125030109Y-105329786D01*
X125155048Y-105157820D01*
X125155047Y-105157820D01*
X125155051Y-105157816D01*
X125251557Y-104968412D01*
X125317246Y-104766243D01*
X125350500Y-104556287D01*
X125350500Y-104343713D01*
X125317246Y-104133757D01*
X125251557Y-103931588D01*
X125155051Y-103742184D01*
X125155049Y-103742181D01*
X125155048Y-103742179D01*
X125030109Y-103570213D01*
X124879786Y-103419890D01*
X124707820Y-103294951D01*
X124707115Y-103294591D01*
X124699054Y-103290485D01*
X124648259Y-103242512D01*
X124631463Y-103174692D01*
X124653999Y-103108556D01*
X124699054Y-103069515D01*
X124707816Y-103065051D01*
X124845150Y-102965273D01*
X124879786Y-102940109D01*
X124879788Y-102940106D01*
X124879792Y-102940104D01*
X125030104Y-102789792D01*
X125030106Y-102789788D01*
X125030109Y-102789786D01*
X125155048Y-102617820D01*
X125155047Y-102617820D01*
X125155051Y-102617816D01*
X125251557Y-102428412D01*
X125317246Y-102226243D01*
X125350500Y-102016287D01*
X125350500Y-101803713D01*
X125317246Y-101593757D01*
X125251557Y-101391588D01*
X125155051Y-101202184D01*
X125155049Y-101202181D01*
X125155048Y-101202179D01*
X125030109Y-101030213D01*
X124879786Y-100879890D01*
X124707820Y-100754951D01*
X124707115Y-100754591D01*
X124699054Y-100750485D01*
X124648259Y-100702512D01*
X124631463Y-100634692D01*
X124653999Y-100568556D01*
X124699054Y-100529515D01*
X124707816Y-100525051D01*
X124793849Y-100462545D01*
X124879786Y-100400109D01*
X124879788Y-100400106D01*
X124879792Y-100400104D01*
X125030104Y-100249792D01*
X125030106Y-100249788D01*
X125030109Y-100249786D01*
X125155048Y-100077820D01*
X125155047Y-100077820D01*
X125155051Y-100077816D01*
X125251557Y-99888412D01*
X125317246Y-99686243D01*
X125350500Y-99476287D01*
X125350500Y-99263713D01*
X125317246Y-99053757D01*
X125251557Y-98851588D01*
X125155051Y-98662184D01*
X125147023Y-98651134D01*
X125030109Y-98490213D01*
X124879786Y-98339890D01*
X124707820Y-98214951D01*
X124707115Y-98214591D01*
X124699054Y-98210485D01*
X124648259Y-98162512D01*
X124631463Y-98094692D01*
X124653999Y-98028556D01*
X124699054Y-97989515D01*
X124707816Y-97985051D01*
X124754207Y-97951346D01*
X124879786Y-97860109D01*
X124879788Y-97860106D01*
X124879792Y-97860104D01*
X125030104Y-97709792D01*
X125030106Y-97709788D01*
X125030109Y-97709786D01*
X125155048Y-97537820D01*
X125155047Y-97537820D01*
X125155051Y-97537816D01*
X125251557Y-97348412D01*
X125317246Y-97146243D01*
X125350500Y-96936287D01*
X125350500Y-96723713D01*
X125317246Y-96513757D01*
X125251557Y-96311588D01*
X125155051Y-96122184D01*
X125155049Y-96122181D01*
X125155048Y-96122179D01*
X125030109Y-95950213D01*
X124879786Y-95799890D01*
X124707820Y-95674951D01*
X124707115Y-95674591D01*
X124699054Y-95670485D01*
X124648259Y-95622512D01*
X124631463Y-95554692D01*
X124653999Y-95488556D01*
X124699054Y-95449515D01*
X124707816Y-95445051D01*
X124754207Y-95411346D01*
X124879786Y-95320109D01*
X124879788Y-95320106D01*
X124879792Y-95320104D01*
X125030104Y-95169792D01*
X125030106Y-95169788D01*
X125030109Y-95169786D01*
X125155048Y-94997820D01*
X125155047Y-94997820D01*
X125155051Y-94997816D01*
X125251557Y-94808412D01*
X125317246Y-94606243D01*
X125350500Y-94396287D01*
X125350500Y-94183713D01*
X125317246Y-93973757D01*
X125251557Y-93771588D01*
X125155051Y-93582184D01*
X125155049Y-93582181D01*
X125155048Y-93582179D01*
X125030109Y-93410213D01*
X124916569Y-93296673D01*
X124883084Y-93235350D01*
X124888068Y-93165658D01*
X124929940Y-93109725D01*
X124960915Y-93092810D01*
X125092331Y-93043796D01*
X125207546Y-92957546D01*
X125293796Y-92842331D01*
X125344091Y-92707483D01*
X125350500Y-92647873D01*
X125350499Y-90852128D01*
X125344091Y-90792517D01*
X125326972Y-90746619D01*
X125293797Y-90657671D01*
X125293793Y-90657664D01*
X125207547Y-90542455D01*
X125207544Y-90542452D01*
X125092335Y-90456206D01*
X125092328Y-90456202D01*
X124957482Y-90405908D01*
X124957483Y-90405908D01*
X124897883Y-90399501D01*
X124897881Y-90399500D01*
X124897873Y-90399500D01*
X124897864Y-90399500D01*
X123102129Y-90399500D01*
X123102123Y-90399501D01*
X123042516Y-90405908D01*
X122907671Y-90456202D01*
X122907664Y-90456206D01*
X122792455Y-90542452D01*
X122792452Y-90542455D01*
X122706206Y-90657664D01*
X122706202Y-90657671D01*
X122655908Y-90792517D01*
X122653653Y-90813498D01*
X122649501Y-90852123D01*
X122649500Y-90852135D01*
X94500500Y-90852135D01*
X94500500Y-83385646D01*
X102449500Y-83385646D01*
X102449500Y-83614353D01*
X102485278Y-83840246D01*
X102485278Y-83840249D01*
X102555950Y-84057755D01*
X102555952Y-84057758D01*
X102659783Y-84261538D01*
X102792525Y-84444242D01*
X102816005Y-84510046D01*
X102800180Y-84578100D01*
X102750074Y-84626795D01*
X102735541Y-84633308D01*
X102707670Y-84643703D01*
X102707664Y-84643706D01*
X102592455Y-84729952D01*
X102592452Y-84729955D01*
X102506206Y-84845164D01*
X102506202Y-84845171D01*
X102455908Y-84980017D01*
X102449501Y-85039616D01*
X102449501Y-85039623D01*
X102449500Y-85039635D01*
X102449500Y-87040370D01*
X102449501Y-87040376D01*
X102455908Y-87099983D01*
X102506202Y-87234828D01*
X102506206Y-87234835D01*
X102592452Y-87350044D01*
X102592455Y-87350047D01*
X102707664Y-87436293D01*
X102707671Y-87436297D01*
X102842517Y-87486591D01*
X102842516Y-87486591D01*
X102849444Y-87487335D01*
X102902127Y-87493000D01*
X104997872Y-87492999D01*
X105057483Y-87486591D01*
X105192331Y-87436296D01*
X105307546Y-87350046D01*
X105393796Y-87234831D01*
X105444091Y-87099983D01*
X105450500Y-87040373D01*
X105450500Y-86602135D01*
X118149500Y-86602135D01*
X118149500Y-88397870D01*
X118149501Y-88397876D01*
X118155908Y-88457483D01*
X118206202Y-88592328D01*
X118206206Y-88592335D01*
X118292452Y-88707544D01*
X118292455Y-88707547D01*
X118407664Y-88793793D01*
X118407671Y-88793797D01*
X118542517Y-88844091D01*
X118542516Y-88844091D01*
X118549444Y-88844835D01*
X118602127Y-88850500D01*
X120397872Y-88850499D01*
X120457483Y-88844091D01*
X120592331Y-88793796D01*
X120707546Y-88707546D01*
X120793796Y-88592331D01*
X120844091Y-88457483D01*
X120850500Y-88397873D01*
X120850499Y-86602135D01*
X122899500Y-86602135D01*
X122899500Y-88397870D01*
X122899501Y-88397876D01*
X122905908Y-88457483D01*
X122956202Y-88592328D01*
X122956206Y-88592335D01*
X123042452Y-88707544D01*
X123042455Y-88707547D01*
X123157664Y-88793793D01*
X123157671Y-88793797D01*
X123292517Y-88844091D01*
X123292516Y-88844091D01*
X123299444Y-88844835D01*
X123352127Y-88850500D01*
X125147872Y-88850499D01*
X125207483Y-88844091D01*
X125342331Y-88793796D01*
X125457546Y-88707546D01*
X125543796Y-88592331D01*
X125551139Y-88572643D01*
X129635900Y-88572643D01*
X129635900Y-88787357D01*
X129637595Y-88798056D01*
X129669489Y-88999428D01*
X129735837Y-89203630D01*
X129735838Y-89203633D01*
X129813776Y-89356593D01*
X129833317Y-89394944D01*
X129959523Y-89568651D01*
X130111349Y-89720477D01*
X130285056Y-89846683D01*
X130288998Y-89849547D01*
X130287624Y-89851437D01*
X130328030Y-89896152D01*
X130339411Y-89965089D01*
X130311715Y-90029235D01*
X130288314Y-90049511D01*
X130288998Y-90050453D01*
X130285056Y-90053316D01*
X130285056Y-90053317D01*
X130111349Y-90179523D01*
X130111347Y-90179525D01*
X130111346Y-90179525D01*
X129959525Y-90331346D01*
X129959525Y-90331347D01*
X129959523Y-90331349D01*
X129905353Y-90405908D01*
X129833317Y-90505055D01*
X129735838Y-90696366D01*
X129735837Y-90696369D01*
X129669489Y-90900571D01*
X129635900Y-91112643D01*
X129635900Y-91327356D01*
X129669489Y-91539428D01*
X129735837Y-91743630D01*
X129735838Y-91743633D01*
X129803895Y-91877200D01*
X129833317Y-91934944D01*
X129959523Y-92108651D01*
X130111349Y-92260477D01*
X130201111Y-92325693D01*
X130288998Y-92389547D01*
X130287624Y-92391437D01*
X130328030Y-92436152D01*
X130339411Y-92505089D01*
X130311715Y-92569235D01*
X130288314Y-92589511D01*
X130288998Y-92590453D01*
X130285056Y-92593316D01*
X130285056Y-92593317D01*
X130111349Y-92719523D01*
X130111347Y-92719525D01*
X130111346Y-92719525D01*
X129959525Y-92871346D01*
X129959525Y-92871347D01*
X129959523Y-92871349D01*
X129905322Y-92945949D01*
X129833317Y-93045055D01*
X129735838Y-93236366D01*
X129735837Y-93236369D01*
X129669489Y-93440571D01*
X129647060Y-93582184D01*
X129635900Y-93652643D01*
X129635900Y-93867357D01*
X129652694Y-93973392D01*
X129669489Y-94079428D01*
X129735837Y-94283630D01*
X129735838Y-94283633D01*
X129820268Y-94449334D01*
X129833317Y-94474944D01*
X129959523Y-94648651D01*
X129959525Y-94648653D01*
X130056211Y-94745339D01*
X130089696Y-94806662D01*
X130084712Y-94876354D01*
X130042840Y-94932287D01*
X130011863Y-94949202D01*
X129894313Y-94993045D01*
X129894306Y-94993049D01*
X129779212Y-95079209D01*
X129779209Y-95079212D01*
X129693049Y-95194306D01*
X129693045Y-95194313D01*
X129642803Y-95329020D01*
X129642801Y-95329027D01*
X129636400Y-95388555D01*
X129636400Y-96050000D01*
X130557749Y-96050000D01*
X130526619Y-96103919D01*
X130492000Y-96233120D01*
X130492000Y-96366880D01*
X130526619Y-96496081D01*
X130557749Y-96550000D01*
X129636400Y-96550000D01*
X129636400Y-97211444D01*
X129642801Y-97270972D01*
X129642803Y-97270979D01*
X129693045Y-97405686D01*
X129693049Y-97405693D01*
X129779209Y-97520787D01*
X129779212Y-97520790D01*
X129894306Y-97606950D01*
X129894313Y-97606954D01*
X130011863Y-97650797D01*
X130067797Y-97692668D01*
X130092214Y-97758132D01*
X130077363Y-97826405D01*
X130056212Y-97854660D01*
X129959522Y-97951350D01*
X129833317Y-98125055D01*
X129735838Y-98316366D01*
X129735837Y-98316369D01*
X129669489Y-98520571D01*
X129635900Y-98732643D01*
X129635900Y-98947356D01*
X129669489Y-99159428D01*
X129735837Y-99363630D01*
X129735838Y-99363633D01*
X129793239Y-99476287D01*
X129833317Y-99554944D01*
X129959523Y-99728651D01*
X130111349Y-99880477D01*
X130285056Y-100006683D01*
X130288998Y-100009547D01*
X130287624Y-100011437D01*
X130328030Y-100056152D01*
X130339411Y-100125089D01*
X130311715Y-100189235D01*
X130288314Y-100209511D01*
X130288998Y-100210453D01*
X130285056Y-100213316D01*
X130285056Y-100213317D01*
X130111349Y-100339523D01*
X130111347Y-100339525D01*
X130111346Y-100339525D01*
X129959525Y-100491346D01*
X129959525Y-100491347D01*
X129959523Y-100491349D01*
X129931793Y-100529516D01*
X129833317Y-100665055D01*
X129735838Y-100856366D01*
X129735837Y-100856369D01*
X129669489Y-101060571D01*
X129635900Y-101272643D01*
X129635900Y-101487356D01*
X129669489Y-101699428D01*
X129735837Y-101903630D01*
X129735838Y-101903633D01*
X129833317Y-102094944D01*
X129959523Y-102268651D01*
X130111349Y-102420477D01*
X130285056Y-102546683D01*
X130288998Y-102549547D01*
X130287624Y-102551437D01*
X130328030Y-102596152D01*
X130339411Y-102665089D01*
X130311715Y-102729235D01*
X130288314Y-102749511D01*
X130288998Y-102750453D01*
X130285056Y-102753316D01*
X130285056Y-102753317D01*
X130111349Y-102879523D01*
X130111347Y-102879525D01*
X130111346Y-102879525D01*
X129959525Y-103031346D01*
X129959525Y-103031347D01*
X129959523Y-103031349D01*
X129931793Y-103069516D01*
X129833317Y-103205055D01*
X129735838Y-103396366D01*
X129735837Y-103396369D01*
X129669489Y-103600571D01*
X129647060Y-103742184D01*
X129635900Y-103812643D01*
X129635900Y-104027357D01*
X129644225Y-104079920D01*
X129669489Y-104239428D01*
X129735837Y-104443630D01*
X129735838Y-104443633D01*
X129833317Y-104634944D01*
X129959523Y-104808651D01*
X130111349Y-104960477D01*
X130277716Y-105081350D01*
X130288998Y-105089547D01*
X130287624Y-105091437D01*
X130328030Y-105136152D01*
X130339411Y-105205089D01*
X130311715Y-105269235D01*
X130288314Y-105289511D01*
X130288998Y-105290453D01*
X130285056Y-105293316D01*
X130285056Y-105293317D01*
X130111349Y-105419523D01*
X130111347Y-105419525D01*
X130111346Y-105419525D01*
X129959525Y-105571346D01*
X129959525Y-105571347D01*
X129959523Y-105571349D01*
X129931793Y-105609516D01*
X129833317Y-105745055D01*
X129735838Y-105936366D01*
X129735837Y-105936369D01*
X129669489Y-106140571D01*
X129647060Y-106282184D01*
X129635900Y-106352643D01*
X129635900Y-106567357D01*
X129652229Y-106670451D01*
X129669489Y-106779428D01*
X129735837Y-106983630D01*
X129735838Y-106983633D01*
X129793239Y-107096287D01*
X129833317Y-107174944D01*
X129959523Y-107348651D01*
X130111349Y-107500477D01*
X130285056Y-107626683D01*
X130288998Y-107629547D01*
X130287624Y-107631437D01*
X130328030Y-107676152D01*
X130339411Y-107745089D01*
X130311715Y-107809235D01*
X130288314Y-107829511D01*
X130288998Y-107830453D01*
X130285056Y-107833316D01*
X130285056Y-107833317D01*
X130111349Y-107959523D01*
X130111347Y-107959525D01*
X130111346Y-107959525D01*
X129959525Y-108111346D01*
X129959525Y-108111347D01*
X129959523Y-108111349D01*
X129935039Y-108145048D01*
X129833317Y-108285055D01*
X129735838Y-108476366D01*
X129735837Y-108476369D01*
X129669489Y-108680571D01*
X129635900Y-108892643D01*
X129635900Y-109107356D01*
X129669489Y-109319428D01*
X129735837Y-109523630D01*
X129735838Y-109523633D01*
X129833317Y-109714944D01*
X129959523Y-109888651D01*
X130111349Y-110040477D01*
X130285056Y-110166683D01*
X130288998Y-110169547D01*
X130287624Y-110171437D01*
X130328030Y-110216152D01*
X130339411Y-110285089D01*
X130311715Y-110349235D01*
X130288314Y-110369511D01*
X130288998Y-110370453D01*
X130285056Y-110373316D01*
X130285056Y-110373317D01*
X130111349Y-110499523D01*
X130111347Y-110499525D01*
X130111346Y-110499525D01*
X129959525Y-110651346D01*
X129959525Y-110651347D01*
X129959523Y-110651349D01*
X129937201Y-110682073D01*
X129833317Y-110825055D01*
X129735838Y-111016366D01*
X129735837Y-111016369D01*
X129669489Y-111220571D01*
X129635900Y-111432643D01*
X129635900Y-111647356D01*
X129669489Y-111859428D01*
X129735837Y-112063630D01*
X129735838Y-112063633D01*
X129814454Y-112217924D01*
X129833317Y-112254944D01*
X129959523Y-112428651D01*
X130111349Y-112580477D01*
X130285056Y-112706683D01*
X130288998Y-112709547D01*
X130287624Y-112711437D01*
X130328030Y-112756152D01*
X130339411Y-112825089D01*
X130311715Y-112889235D01*
X130288314Y-112909511D01*
X130288998Y-112910453D01*
X130285056Y-112913316D01*
X130285056Y-112913317D01*
X130111349Y-113039523D01*
X130111347Y-113039525D01*
X130111346Y-113039525D01*
X129959525Y-113191346D01*
X129959525Y-113191347D01*
X129959523Y-113191349D01*
X129905322Y-113265949D01*
X129833317Y-113365055D01*
X129735838Y-113556366D01*
X129735837Y-113556369D01*
X129669489Y-113760571D01*
X129641514Y-113937197D01*
X129635900Y-113972643D01*
X129635900Y-114187357D01*
X129645469Y-114247773D01*
X129669489Y-114399428D01*
X129735837Y-114603630D01*
X129735838Y-114603633D01*
X129833317Y-114794944D01*
X129959523Y-114968651D01*
X130111349Y-115120477D01*
X130285056Y-115246683D01*
X130288998Y-115249547D01*
X130287624Y-115251437D01*
X130328030Y-115296152D01*
X130339411Y-115365089D01*
X130311715Y-115429235D01*
X130288314Y-115449511D01*
X130288998Y-115450453D01*
X130285056Y-115453316D01*
X130285056Y-115453317D01*
X130111349Y-115579523D01*
X130111347Y-115579525D01*
X130111346Y-115579525D01*
X129959525Y-115731346D01*
X129959525Y-115731347D01*
X129959523Y-115731349D01*
X129905322Y-115805949D01*
X129833317Y-115905055D01*
X129735838Y-116096366D01*
X129735837Y-116096369D01*
X129669489Y-116300571D01*
X129669489Y-116300573D01*
X129635900Y-116512643D01*
X129635900Y-116727357D01*
X129635922Y-116727498D01*
X129669489Y-116939428D01*
X129735837Y-117143630D01*
X129735838Y-117143633D01*
X129811696Y-117292510D01*
X129833317Y-117334944D01*
X129959523Y-117508651D01*
X130111349Y-117660477D01*
X130285056Y-117786683D01*
X130288998Y-117789547D01*
X130287624Y-117791437D01*
X130328030Y-117836152D01*
X130339411Y-117905089D01*
X130311715Y-117969235D01*
X130288314Y-117989511D01*
X130288998Y-117990453D01*
X130285056Y-117993316D01*
X130285056Y-117993317D01*
X130111349Y-118119523D01*
X130111347Y-118119525D01*
X130111346Y-118119525D01*
X129959525Y-118271346D01*
X129959525Y-118271347D01*
X129959523Y-118271349D01*
X129915327Y-118332179D01*
X129833317Y-118445055D01*
X129735838Y-118636366D01*
X129735837Y-118636369D01*
X129669489Y-118840571D01*
X129655718Y-118927516D01*
X129635900Y-119052643D01*
X129635900Y-119267357D01*
X129648381Y-119346156D01*
X129669489Y-119479428D01*
X129735837Y-119683630D01*
X129735838Y-119683633D01*
X129833317Y-119874944D01*
X129959523Y-120048651D01*
X130111349Y-120200477D01*
X130254788Y-120304692D01*
X130288998Y-120329547D01*
X130287624Y-120331437D01*
X130328030Y-120376152D01*
X130339411Y-120445089D01*
X130311715Y-120509235D01*
X130288314Y-120529511D01*
X130288998Y-120530453D01*
X130285056Y-120533316D01*
X130285056Y-120533317D01*
X130111349Y-120659523D01*
X130111347Y-120659525D01*
X130111346Y-120659525D01*
X129959525Y-120811346D01*
X129959525Y-120811347D01*
X129959523Y-120811349D01*
X129915327Y-120872179D01*
X129833317Y-120985055D01*
X129735838Y-121176366D01*
X129735837Y-121176369D01*
X129669489Y-121380571D01*
X129635900Y-121592643D01*
X129635900Y-121807356D01*
X129669489Y-122019428D01*
X129735837Y-122223630D01*
X129735838Y-122223633D01*
X129833317Y-122414944D01*
X129959523Y-122588651D01*
X130111349Y-122740477D01*
X130254788Y-122844692D01*
X130288998Y-122869547D01*
X130287624Y-122871437D01*
X130328030Y-122916152D01*
X130339411Y-122985089D01*
X130311715Y-123049235D01*
X130288314Y-123069511D01*
X130288998Y-123070453D01*
X130285056Y-123073316D01*
X130285056Y-123073317D01*
X130111349Y-123199523D01*
X130111347Y-123199525D01*
X130111346Y-123199525D01*
X129959525Y-123351346D01*
X129959525Y-123351347D01*
X129959523Y-123351349D01*
X129915327Y-123412179D01*
X129833317Y-123525055D01*
X129735838Y-123716366D01*
X129735837Y-123716369D01*
X129669489Y-123920571D01*
X129635900Y-124132643D01*
X129635900Y-124347356D01*
X129669489Y-124559428D01*
X129735837Y-124763630D01*
X129735838Y-124763633D01*
X129804233Y-124897864D01*
X129833317Y-124954944D01*
X129959523Y-125128651D01*
X130111349Y-125280477D01*
X130285056Y-125406683D01*
X130476367Y-125504161D01*
X130492938Y-125509545D01*
X130550615Y-125548981D01*
X130577814Y-125613339D01*
X130565902Y-125682186D01*
X130518659Y-125733663D01*
X130510919Y-125737961D01*
X130397004Y-125796004D01*
X130250505Y-125902441D01*
X130250500Y-125902445D01*
X130122445Y-126030500D01*
X130122441Y-126030505D01*
X130016006Y-126177002D01*
X129933788Y-126338360D01*
X129933787Y-126338363D01*
X129877829Y-126510589D01*
X129849500Y-126689448D01*
X129849500Y-126870551D01*
X129877829Y-127049410D01*
X129933787Y-127221636D01*
X129933788Y-127221639D01*
X129969864Y-127292440D01*
X130008637Y-127368536D01*
X130016006Y-127382997D01*
X130122441Y-127529494D01*
X130122445Y-127529499D01*
X130250500Y-127657554D01*
X130250505Y-127657558D01*
X130299278Y-127692993D01*
X130397006Y-127763996D01*
X130502484Y-127817740D01*
X130558360Y-127846211D01*
X130558363Y-127846212D01*
X130644476Y-127874191D01*
X130730591Y-127902171D01*
X130813429Y-127915291D01*
X130909449Y-127930500D01*
X130909454Y-127930500D01*
X131090551Y-127930500D01*
X131177259Y-127916765D01*
X131269409Y-127902171D01*
X131441639Y-127846211D01*
X131602994Y-127763996D01*
X131749501Y-127657553D01*
X131877553Y-127529501D01*
X131983996Y-127382994D01*
X132066211Y-127221639D01*
X132122171Y-127049409D01*
X132144620Y-126907671D01*
X132150500Y-126870551D01*
X132150500Y-126689448D01*
X132134019Y-126585397D01*
X132122171Y-126510591D01*
X132066211Y-126338361D01*
X132066211Y-126338360D01*
X132037740Y-126282484D01*
X131983996Y-126177006D01*
X131970396Y-126158287D01*
X131877558Y-126030505D01*
X131877554Y-126030500D01*
X131749499Y-125902445D01*
X131749494Y-125902441D01*
X131602997Y-125796006D01*
X131602996Y-125796005D01*
X131602994Y-125796004D01*
X131489081Y-125737962D01*
X131438285Y-125689987D01*
X131421490Y-125622166D01*
X131444028Y-125556031D01*
X131498743Y-125512580D01*
X131507057Y-125509546D01*
X131523633Y-125504161D01*
X131714944Y-125406683D01*
X131888651Y-125280477D01*
X132040477Y-125128651D01*
X132166683Y-124954944D01*
X132264161Y-124763633D01*
X132330511Y-124559427D01*
X132364100Y-124347357D01*
X132364100Y-124132643D01*
X132330511Y-123920573D01*
X132297336Y-123818470D01*
X132264162Y-123716369D01*
X132264161Y-123716366D01*
X132205678Y-123601588D01*
X132166683Y-123525056D01*
X132040477Y-123351349D01*
X131888651Y-123199523D01*
X131714944Y-123073317D01*
X131714943Y-123073316D01*
X131711002Y-123070453D01*
X131712405Y-123068521D01*
X131672078Y-123024073D01*
X131660558Y-122955160D01*
X131688125Y-122890958D01*
X131711709Y-122870521D01*
X131711002Y-122869547D01*
X131714944Y-122866683D01*
X131888651Y-122740477D01*
X132040477Y-122588651D01*
X132166683Y-122414944D01*
X132264161Y-122223633D01*
X132330511Y-122019427D01*
X132364100Y-121807357D01*
X132364100Y-121592643D01*
X132330511Y-121380573D01*
X132297336Y-121278470D01*
X132264162Y-121176369D01*
X132264161Y-121176366D01*
X132205678Y-121061588D01*
X132166683Y-120985056D01*
X132040477Y-120811349D01*
X131888651Y-120659523D01*
X131714944Y-120533317D01*
X131714943Y-120533316D01*
X131711002Y-120530453D01*
X131712405Y-120528521D01*
X131672078Y-120484073D01*
X131660558Y-120415160D01*
X131688125Y-120350958D01*
X131711709Y-120330521D01*
X131711002Y-120329547D01*
X131714944Y-120326683D01*
X131888651Y-120200477D01*
X132040477Y-120048651D01*
X132166683Y-119874944D01*
X132264161Y-119683633D01*
X132330511Y-119479427D01*
X132364100Y-119267357D01*
X132364100Y-119052643D01*
X132330511Y-118840573D01*
X132297336Y-118738470D01*
X132264162Y-118636369D01*
X132264161Y-118636366D01*
X132205678Y-118521588D01*
X132166683Y-118445056D01*
X132040477Y-118271349D01*
X131888651Y-118119523D01*
X131714944Y-117993317D01*
X131714943Y-117993316D01*
X131711002Y-117990453D01*
X131712405Y-117988521D01*
X131672078Y-117944073D01*
X131660558Y-117875160D01*
X131688125Y-117810958D01*
X131711709Y-117790521D01*
X131711002Y-117789547D01*
X131714944Y-117786683D01*
X131888651Y-117660477D01*
X132040477Y-117508651D01*
X132166683Y-117334944D01*
X132264161Y-117143633D01*
X132330511Y-116939427D01*
X132364100Y-116727357D01*
X132364100Y-116512643D01*
X132330511Y-116300573D01*
X132292891Y-116184789D01*
X132264162Y-116096369D01*
X132264161Y-116096366D01*
X132166682Y-115905055D01*
X132040477Y-115731349D01*
X131888651Y-115579523D01*
X131714944Y-115453317D01*
X131714943Y-115453316D01*
X131711002Y-115450453D01*
X131712405Y-115448521D01*
X131672078Y-115404073D01*
X131660558Y-115335160D01*
X131688125Y-115270958D01*
X131711709Y-115250521D01*
X131711002Y-115249547D01*
X131714944Y-115246683D01*
X131888651Y-115120477D01*
X132040477Y-114968651D01*
X132166683Y-114794944D01*
X132264161Y-114603633D01*
X132330511Y-114399427D01*
X132364100Y-114187357D01*
X132364100Y-113972643D01*
X132330511Y-113760573D01*
X132264161Y-113556367D01*
X132264161Y-113556366D01*
X132212563Y-113455101D01*
X132166683Y-113365056D01*
X132040477Y-113191349D01*
X131888651Y-113039523D01*
X131714944Y-112913317D01*
X131714943Y-112913316D01*
X131711002Y-112910453D01*
X131712405Y-112908521D01*
X131672078Y-112864073D01*
X131660558Y-112795160D01*
X131688125Y-112730958D01*
X131711709Y-112710521D01*
X131711002Y-112709547D01*
X131714944Y-112706683D01*
X131888651Y-112580477D01*
X132040477Y-112428651D01*
X132166683Y-112254944D01*
X132264161Y-112063633D01*
X132330511Y-111859427D01*
X132364100Y-111647357D01*
X132364100Y-111432643D01*
X132330511Y-111220573D01*
X132281893Y-111070940D01*
X132264162Y-111016369D01*
X132264161Y-111016366D01*
X132166682Y-110825055D01*
X132159876Y-110815687D01*
X132040477Y-110651349D01*
X131888651Y-110499523D01*
X131714944Y-110373317D01*
X131714943Y-110373316D01*
X131711002Y-110370453D01*
X131712405Y-110368521D01*
X131672078Y-110324073D01*
X131660558Y-110255160D01*
X131688125Y-110190958D01*
X131711709Y-110170521D01*
X131711002Y-110169547D01*
X131714944Y-110166683D01*
X131888651Y-110040477D01*
X132040477Y-109888651D01*
X132166683Y-109714944D01*
X132264161Y-109523633D01*
X132330511Y-109319427D01*
X132364100Y-109107357D01*
X132364100Y-108892643D01*
X132330511Y-108680573D01*
X132264161Y-108476367D01*
X132264161Y-108476366D01*
X132166682Y-108285055D01*
X132162873Y-108279812D01*
X132040477Y-108111349D01*
X131888651Y-107959523D01*
X131714944Y-107833317D01*
X131714943Y-107833316D01*
X131711002Y-107830453D01*
X131712405Y-107828521D01*
X131672078Y-107784073D01*
X131660558Y-107715160D01*
X131688125Y-107650958D01*
X131711709Y-107630521D01*
X131711002Y-107629547D01*
X131714944Y-107626683D01*
X131888651Y-107500477D01*
X132040477Y-107348651D01*
X132166683Y-107174944D01*
X132264161Y-106983633D01*
X132330511Y-106779427D01*
X132364100Y-106567357D01*
X132364100Y-106352643D01*
X132330511Y-106140573D01*
X132297336Y-106038470D01*
X132264162Y-105936369D01*
X132264161Y-105936366D01*
X132210211Y-105830484D01*
X132166683Y-105745056D01*
X132040477Y-105571349D01*
X131888651Y-105419523D01*
X131714944Y-105293317D01*
X131714943Y-105293316D01*
X131711002Y-105290453D01*
X131712405Y-105288521D01*
X131672078Y-105244073D01*
X131660558Y-105175160D01*
X131688125Y-105110958D01*
X131711709Y-105090521D01*
X131711002Y-105089547D01*
X131722284Y-105081350D01*
X131888651Y-104960477D01*
X132040477Y-104808651D01*
X132166683Y-104634944D01*
X132264161Y-104443633D01*
X132330511Y-104239427D01*
X132364100Y-104027357D01*
X132364100Y-103812643D01*
X132330511Y-103600573D01*
X132264161Y-103396367D01*
X132264161Y-103396366D01*
X132185768Y-103242512D01*
X132166683Y-103205056D01*
X132040477Y-103031349D01*
X131888651Y-102879523D01*
X131714944Y-102753317D01*
X131714943Y-102753316D01*
X131711002Y-102750453D01*
X131712405Y-102748521D01*
X131672078Y-102704073D01*
X131660558Y-102635160D01*
X131688125Y-102570958D01*
X131711709Y-102550521D01*
X131711002Y-102549547D01*
X131714944Y-102546683D01*
X131888651Y-102420477D01*
X132040477Y-102268651D01*
X132166683Y-102094944D01*
X132264161Y-101903633D01*
X132330511Y-101699427D01*
X132364100Y-101487357D01*
X132364100Y-101272643D01*
X132330511Y-101060573D01*
X132273467Y-100885007D01*
X132264162Y-100856369D01*
X132264161Y-100856366D01*
X132167650Y-100666954D01*
X132166683Y-100665056D01*
X132040477Y-100491349D01*
X131888651Y-100339523D01*
X131714944Y-100213317D01*
X131714943Y-100213316D01*
X131711002Y-100210453D01*
X131712405Y-100208521D01*
X131672078Y-100164073D01*
X131660558Y-100095160D01*
X131688125Y-100030958D01*
X131711709Y-100010521D01*
X131711002Y-100009547D01*
X131714944Y-100006683D01*
X131888651Y-99880477D01*
X132040477Y-99728651D01*
X132166683Y-99554944D01*
X132264161Y-99363633D01*
X132330511Y-99159427D01*
X132364100Y-98947357D01*
X132364100Y-98732643D01*
X132330511Y-98520573D01*
X132264161Y-98316367D01*
X132264161Y-98316366D01*
X132195763Y-98182129D01*
X132166683Y-98125056D01*
X132040477Y-97951349D01*
X131943788Y-97854660D01*
X131910303Y-97793337D01*
X131915287Y-97723645D01*
X131957159Y-97667712D01*
X131988137Y-97650797D01*
X132105684Y-97606955D01*
X132105693Y-97606950D01*
X132220787Y-97520790D01*
X132220790Y-97520787D01*
X132306950Y-97405693D01*
X132306954Y-97405686D01*
X132357196Y-97270979D01*
X132357198Y-97270972D01*
X132363599Y-97211444D01*
X132363600Y-97211427D01*
X132363600Y-96550000D01*
X131442251Y-96550000D01*
X131473381Y-96496081D01*
X131508000Y-96366880D01*
X131508000Y-96233120D01*
X131473381Y-96103919D01*
X131442251Y-96050000D01*
X132363600Y-96050000D01*
X132363600Y-95388572D01*
X132363599Y-95388555D01*
X132357198Y-95329027D01*
X132357196Y-95329020D01*
X132306954Y-95194313D01*
X132306950Y-95194306D01*
X132220790Y-95079212D01*
X132220787Y-95079209D01*
X132105693Y-94993049D01*
X132105686Y-94993045D01*
X131988136Y-94949202D01*
X131932202Y-94907331D01*
X131907785Y-94841866D01*
X131922637Y-94773593D01*
X131943782Y-94745345D01*
X132040477Y-94648651D01*
X132166683Y-94474944D01*
X132264161Y-94283633D01*
X132330511Y-94079427D01*
X132364100Y-93867357D01*
X132364100Y-93652643D01*
X132330511Y-93440573D01*
X132297336Y-93338470D01*
X132264162Y-93236369D01*
X132264161Y-93236366D01*
X132204975Y-93120208D01*
X132166683Y-93045056D01*
X132040477Y-92871349D01*
X131888651Y-92719523D01*
X131714944Y-92593317D01*
X131714943Y-92593316D01*
X131711002Y-92590453D01*
X131712405Y-92588521D01*
X131672078Y-92544073D01*
X131660558Y-92475160D01*
X131688125Y-92410958D01*
X131711709Y-92390521D01*
X131711002Y-92389547D01*
X131714944Y-92386683D01*
X131888651Y-92260477D01*
X132040477Y-92108651D01*
X132166683Y-91934944D01*
X132264161Y-91743633D01*
X132330511Y-91539427D01*
X132364100Y-91327357D01*
X132364100Y-91112643D01*
X132330511Y-90900573D01*
X132280489Y-90746619D01*
X132264162Y-90696369D01*
X132264161Y-90696366D01*
X132214492Y-90598888D01*
X132166683Y-90505056D01*
X132040477Y-90331349D01*
X131888651Y-90179523D01*
X131714944Y-90053317D01*
X131714943Y-90053316D01*
X131711002Y-90050453D01*
X131712405Y-90048521D01*
X131672078Y-90004073D01*
X131660558Y-89935160D01*
X131688125Y-89870958D01*
X131711709Y-89850521D01*
X131711002Y-89849547D01*
X131714944Y-89846683D01*
X131888651Y-89720477D01*
X132040477Y-89568651D01*
X132166683Y-89394944D01*
X132264161Y-89203633D01*
X132330511Y-88999427D01*
X132364100Y-88787357D01*
X132364100Y-88572643D01*
X144875900Y-88572643D01*
X144875900Y-88787357D01*
X144877595Y-88798056D01*
X144909489Y-88999428D01*
X144975837Y-89203630D01*
X144975838Y-89203633D01*
X145053776Y-89356593D01*
X145073317Y-89394944D01*
X145199523Y-89568651D01*
X145199525Y-89568653D01*
X145296211Y-89665339D01*
X145329696Y-89726662D01*
X145324712Y-89796354D01*
X145282840Y-89852287D01*
X145251863Y-89869202D01*
X145134313Y-89913045D01*
X145134306Y-89913049D01*
X145019212Y-89999209D01*
X145019209Y-89999212D01*
X144933049Y-90114306D01*
X144933045Y-90114313D01*
X144882803Y-90249020D01*
X144882801Y-90249027D01*
X144876400Y-90308555D01*
X144876400Y-90970000D01*
X145797749Y-90970000D01*
X145766619Y-91023919D01*
X145732000Y-91153120D01*
X145732000Y-91286880D01*
X145766619Y-91416081D01*
X145797749Y-91470000D01*
X144876400Y-91470000D01*
X144876400Y-92131444D01*
X144882801Y-92190972D01*
X144882803Y-92190979D01*
X144933045Y-92325686D01*
X144933049Y-92325693D01*
X145019209Y-92440787D01*
X145019212Y-92440790D01*
X145134306Y-92526950D01*
X145134313Y-92526954D01*
X145251863Y-92570797D01*
X145307797Y-92612668D01*
X145332214Y-92678132D01*
X145317363Y-92746405D01*
X145296212Y-92774660D01*
X145199522Y-92871350D01*
X145073317Y-93045055D01*
X144975838Y-93236366D01*
X144975837Y-93236369D01*
X144909489Y-93440571D01*
X144887060Y-93582184D01*
X144875900Y-93652643D01*
X144875900Y-93867357D01*
X144892694Y-93973392D01*
X144909489Y-94079428D01*
X144975837Y-94283630D01*
X144975838Y-94283633D01*
X145060268Y-94449334D01*
X145073317Y-94474944D01*
X145199523Y-94648651D01*
X145351349Y-94800477D01*
X145525056Y-94926683D01*
X145528998Y-94929547D01*
X145527624Y-94931437D01*
X145568030Y-94976152D01*
X145579411Y-95045089D01*
X145551715Y-95109235D01*
X145528314Y-95129511D01*
X145528998Y-95130453D01*
X145525056Y-95133316D01*
X145525056Y-95133317D01*
X145351349Y-95259523D01*
X145351347Y-95259525D01*
X145351346Y-95259525D01*
X145199525Y-95411346D01*
X145199525Y-95411347D01*
X145199523Y-95411349D01*
X145171793Y-95449516D01*
X145073317Y-95585055D01*
X144975838Y-95776366D01*
X144975837Y-95776369D01*
X144909489Y-95980571D01*
X144887060Y-96122184D01*
X144875900Y-96192643D01*
X144875900Y-96407357D01*
X144889953Y-96496081D01*
X144909489Y-96619428D01*
X144975837Y-96823630D01*
X144975838Y-96823633D01*
X145033239Y-96936287D01*
X145073317Y-97014944D01*
X145199523Y-97188651D01*
X145351349Y-97340477D01*
X145525056Y-97466683D01*
X145528998Y-97469547D01*
X145527624Y-97471437D01*
X145568030Y-97516152D01*
X145579411Y-97585089D01*
X145551715Y-97649235D01*
X145528314Y-97669511D01*
X145528998Y-97670453D01*
X145525056Y-97673316D01*
X145525056Y-97673317D01*
X145351349Y-97799523D01*
X145351347Y-97799525D01*
X145351346Y-97799525D01*
X145199525Y-97951346D01*
X145199525Y-97951347D01*
X145199523Y-97951349D01*
X145171793Y-97989516D01*
X145073317Y-98125055D01*
X144975838Y-98316366D01*
X144975837Y-98316369D01*
X144909489Y-98520571D01*
X144875900Y-98732643D01*
X144875900Y-98947356D01*
X144909489Y-99159428D01*
X144975837Y-99363630D01*
X144975838Y-99363633D01*
X145033239Y-99476287D01*
X145073317Y-99554944D01*
X145199523Y-99728651D01*
X145351349Y-99880477D01*
X145525056Y-100006683D01*
X145528998Y-100009547D01*
X145527624Y-100011437D01*
X145568030Y-100056152D01*
X145579411Y-100125089D01*
X145551715Y-100189235D01*
X145528314Y-100209511D01*
X145528998Y-100210453D01*
X145525056Y-100213316D01*
X145525056Y-100213317D01*
X145351349Y-100339523D01*
X145351347Y-100339525D01*
X145351346Y-100339525D01*
X145199525Y-100491346D01*
X145199525Y-100491347D01*
X145199523Y-100491349D01*
X145171793Y-100529516D01*
X145073317Y-100665055D01*
X144975838Y-100856366D01*
X144975837Y-100856369D01*
X144909489Y-101060571D01*
X144875900Y-101272643D01*
X144875900Y-101487356D01*
X144909489Y-101699428D01*
X144975837Y-101903630D01*
X144975838Y-101903633D01*
X145073317Y-102094944D01*
X145199523Y-102268651D01*
X145351349Y-102420477D01*
X145525056Y-102546683D01*
X145528998Y-102549547D01*
X145527624Y-102551437D01*
X145568030Y-102596152D01*
X145579411Y-102665089D01*
X145551715Y-102729235D01*
X145528314Y-102749511D01*
X145528998Y-102750453D01*
X145525056Y-102753316D01*
X145525056Y-102753317D01*
X145351349Y-102879523D01*
X145351347Y-102879525D01*
X145351346Y-102879525D01*
X145199525Y-103031346D01*
X145199525Y-103031347D01*
X145199523Y-103031349D01*
X145171793Y-103069516D01*
X145073317Y-103205055D01*
X144975838Y-103396366D01*
X144975837Y-103396369D01*
X144909489Y-103600571D01*
X144887060Y-103742184D01*
X144875900Y-103812643D01*
X144875900Y-104027357D01*
X144884225Y-104079920D01*
X144909489Y-104239428D01*
X144975837Y-104443630D01*
X144975838Y-104443633D01*
X145073317Y-104634944D01*
X145199523Y-104808651D01*
X145351349Y-104960477D01*
X145517716Y-105081350D01*
X145528998Y-105089547D01*
X145527624Y-105091437D01*
X145568030Y-105136152D01*
X145579411Y-105205089D01*
X145551715Y-105269235D01*
X145528314Y-105289511D01*
X145528998Y-105290453D01*
X145525056Y-105293316D01*
X145525056Y-105293317D01*
X145351349Y-105419523D01*
X145351347Y-105419525D01*
X145351346Y-105419525D01*
X145199525Y-105571346D01*
X145199525Y-105571347D01*
X145199523Y-105571349D01*
X145171793Y-105609516D01*
X145073317Y-105745055D01*
X144975838Y-105936366D01*
X144975837Y-105936369D01*
X144909489Y-106140571D01*
X144887060Y-106282184D01*
X144875900Y-106352643D01*
X144875900Y-106567357D01*
X144892229Y-106670451D01*
X144909489Y-106779428D01*
X144975837Y-106983630D01*
X144975838Y-106983633D01*
X145033239Y-107096287D01*
X145073317Y-107174944D01*
X145199523Y-107348651D01*
X145351349Y-107500477D01*
X145525056Y-107626683D01*
X145528998Y-107629547D01*
X145527624Y-107631437D01*
X145568030Y-107676152D01*
X145579411Y-107745089D01*
X145551715Y-107809235D01*
X145528314Y-107829511D01*
X145528998Y-107830453D01*
X145525056Y-107833316D01*
X145525056Y-107833317D01*
X145351349Y-107959523D01*
X145351347Y-107959525D01*
X145351346Y-107959525D01*
X145199525Y-108111346D01*
X145199525Y-108111347D01*
X145199523Y-108111349D01*
X145175039Y-108145048D01*
X145073317Y-108285055D01*
X144975838Y-108476366D01*
X144975837Y-108476369D01*
X144909489Y-108680571D01*
X144875900Y-108892643D01*
X144875900Y-109107356D01*
X144909489Y-109319428D01*
X144975837Y-109523630D01*
X144975838Y-109523633D01*
X145073317Y-109714944D01*
X145199523Y-109888651D01*
X145351349Y-110040477D01*
X145525056Y-110166683D01*
X145528998Y-110169547D01*
X145527624Y-110171437D01*
X145568030Y-110216152D01*
X145579411Y-110285089D01*
X145551715Y-110349235D01*
X145528314Y-110369511D01*
X145528998Y-110370453D01*
X145525056Y-110373316D01*
X145525056Y-110373317D01*
X145351349Y-110499523D01*
X145351347Y-110499525D01*
X145351346Y-110499525D01*
X145199525Y-110651346D01*
X145199525Y-110651347D01*
X145199523Y-110651349D01*
X145177201Y-110682073D01*
X145073317Y-110825055D01*
X144975838Y-111016366D01*
X144975837Y-111016369D01*
X144909489Y-111220571D01*
X144875900Y-111432643D01*
X144875900Y-111647356D01*
X144909489Y-111859428D01*
X144975837Y-112063630D01*
X144975838Y-112063633D01*
X145054454Y-112217924D01*
X145073317Y-112254944D01*
X145199523Y-112428651D01*
X145351349Y-112580477D01*
X145525056Y-112706683D01*
X145528998Y-112709547D01*
X145527624Y-112711437D01*
X145568030Y-112756152D01*
X145579411Y-112825089D01*
X145551715Y-112889235D01*
X145528314Y-112909511D01*
X145528998Y-112910453D01*
X145525056Y-112913316D01*
X145525056Y-112913317D01*
X145351349Y-113039523D01*
X145351347Y-113039525D01*
X145351346Y-113039525D01*
X145199525Y-113191346D01*
X145199525Y-113191347D01*
X145199523Y-113191349D01*
X145145322Y-113265949D01*
X145073317Y-113365055D01*
X144975838Y-113556366D01*
X144975837Y-113556369D01*
X144909489Y-113760571D01*
X144881514Y-113937197D01*
X144875900Y-113972643D01*
X144875900Y-114187357D01*
X144885469Y-114247773D01*
X144909489Y-114399428D01*
X144975837Y-114603630D01*
X144975838Y-114603633D01*
X145073317Y-114794944D01*
X145199523Y-114968651D01*
X145351349Y-115120477D01*
X145525056Y-115246683D01*
X145528998Y-115249547D01*
X145527624Y-115251437D01*
X145568030Y-115296152D01*
X145579411Y-115365089D01*
X145551715Y-115429235D01*
X145528314Y-115449511D01*
X145528998Y-115450453D01*
X145525056Y-115453316D01*
X145525056Y-115453317D01*
X145351349Y-115579523D01*
X145351347Y-115579525D01*
X145351346Y-115579525D01*
X145199525Y-115731346D01*
X145199525Y-115731347D01*
X145199523Y-115731349D01*
X145145322Y-115805949D01*
X145073317Y-115905055D01*
X144975838Y-116096366D01*
X144975837Y-116096369D01*
X144909489Y-116300571D01*
X144909489Y-116300573D01*
X144875900Y-116512643D01*
X144875900Y-116727357D01*
X144875922Y-116727498D01*
X144909489Y-116939428D01*
X144975837Y-117143630D01*
X144975838Y-117143633D01*
X145051696Y-117292510D01*
X145073317Y-117334944D01*
X145199523Y-117508651D01*
X145351349Y-117660477D01*
X145525056Y-117786683D01*
X145528998Y-117789547D01*
X145527624Y-117791437D01*
X145568030Y-117836152D01*
X145579411Y-117905089D01*
X145551715Y-117969235D01*
X145528314Y-117989511D01*
X145528998Y-117990453D01*
X145525056Y-117993316D01*
X145525056Y-117993317D01*
X145351349Y-118119523D01*
X145351347Y-118119525D01*
X145351346Y-118119525D01*
X145199525Y-118271346D01*
X145199525Y-118271347D01*
X145199523Y-118271349D01*
X145155327Y-118332179D01*
X145073317Y-118445055D01*
X144975838Y-118636366D01*
X144975837Y-118636369D01*
X144909489Y-118840571D01*
X144895718Y-118927516D01*
X144875900Y-119052643D01*
X144875900Y-119267357D01*
X144888381Y-119346156D01*
X144909489Y-119479428D01*
X144975837Y-119683630D01*
X144975838Y-119683633D01*
X145073317Y-119874944D01*
X145199523Y-120048651D01*
X145351349Y-120200477D01*
X145494788Y-120304692D01*
X145528998Y-120329547D01*
X145527624Y-120331437D01*
X145568030Y-120376152D01*
X145579411Y-120445089D01*
X145551715Y-120509235D01*
X145528314Y-120529511D01*
X145528998Y-120530453D01*
X145525056Y-120533316D01*
X145525056Y-120533317D01*
X145351349Y-120659523D01*
X145351347Y-120659525D01*
X145351346Y-120659525D01*
X145199525Y-120811346D01*
X145199525Y-120811347D01*
X145199523Y-120811349D01*
X145155327Y-120872179D01*
X145073317Y-120985055D01*
X144975838Y-121176366D01*
X144975837Y-121176369D01*
X144909489Y-121380571D01*
X144875900Y-121592643D01*
X144875900Y-121807356D01*
X144909489Y-122019428D01*
X144975837Y-122223630D01*
X144975838Y-122223633D01*
X145073317Y-122414944D01*
X145199523Y-122588651D01*
X145351349Y-122740477D01*
X145494788Y-122844692D01*
X145528998Y-122869547D01*
X145527624Y-122871437D01*
X145568030Y-122916152D01*
X145579411Y-122985089D01*
X145551715Y-123049235D01*
X145528314Y-123069511D01*
X145528998Y-123070453D01*
X145525056Y-123073316D01*
X145525056Y-123073317D01*
X145351349Y-123199523D01*
X145351347Y-123199525D01*
X145351346Y-123199525D01*
X145199525Y-123351346D01*
X145199525Y-123351347D01*
X145199523Y-123351349D01*
X145155327Y-123412179D01*
X145073317Y-123525055D01*
X144975838Y-123716366D01*
X144975837Y-123716369D01*
X144909489Y-123920571D01*
X144875900Y-124132643D01*
X144875900Y-124347356D01*
X144909489Y-124559428D01*
X144975837Y-124763630D01*
X144975838Y-124763633D01*
X145044233Y-124897864D01*
X145073317Y-124954944D01*
X145199523Y-125128651D01*
X145351349Y-125280477D01*
X145525056Y-125406683D01*
X145716367Y-125504161D01*
X145732938Y-125509545D01*
X145790615Y-125548981D01*
X145817814Y-125613339D01*
X145805902Y-125682186D01*
X145758659Y-125733663D01*
X145750919Y-125737961D01*
X145637004Y-125796004D01*
X145490505Y-125902441D01*
X145490500Y-125902445D01*
X145362445Y-126030500D01*
X145362441Y-126030505D01*
X145256006Y-126177002D01*
X145173788Y-126338360D01*
X145173787Y-126338363D01*
X145117829Y-126510589D01*
X145089500Y-126689448D01*
X145089500Y-126870551D01*
X145117829Y-127049410D01*
X145173787Y-127221636D01*
X145173788Y-127221639D01*
X145209864Y-127292440D01*
X145248637Y-127368536D01*
X145256006Y-127382997D01*
X145362441Y-127529494D01*
X145362445Y-127529499D01*
X145490500Y-127657554D01*
X145490505Y-127657558D01*
X145539278Y-127692993D01*
X145637006Y-127763996D01*
X145742484Y-127817740D01*
X145798360Y-127846211D01*
X145798363Y-127846212D01*
X145884476Y-127874191D01*
X145970591Y-127902171D01*
X146053429Y-127915291D01*
X146149449Y-127930500D01*
X146149454Y-127930500D01*
X146330551Y-127930500D01*
X146417259Y-127916765D01*
X146509409Y-127902171D01*
X146535440Y-127893713D01*
X150489500Y-127893713D01*
X150489500Y-128106286D01*
X150522753Y-128316239D01*
X150588444Y-128518414D01*
X150684951Y-128707820D01*
X150809890Y-128879786D01*
X150960213Y-129030109D01*
X151132179Y-129155048D01*
X151132181Y-129155049D01*
X151132184Y-129155051D01*
X151321588Y-129251557D01*
X151523757Y-129317246D01*
X151733713Y-129350500D01*
X151733714Y-129350500D01*
X151946286Y-129350500D01*
X151946287Y-129350500D01*
X152156243Y-129317246D01*
X152358412Y-129251557D01*
X152547816Y-129155051D01*
X152634138Y-129092335D01*
X152719786Y-129030109D01*
X152719788Y-129030106D01*
X152719792Y-129030104D01*
X152870104Y-128879792D01*
X152870106Y-128879788D01*
X152870109Y-128879786D01*
X152995048Y-128707820D01*
X152995047Y-128707820D01*
X152995051Y-128707816D01*
X152999514Y-128699054D01*
X153047488Y-128648259D01*
X153115308Y-128631463D01*
X153181444Y-128653999D01*
X153220486Y-128699056D01*
X153224951Y-128707820D01*
X153349890Y-128879786D01*
X153500213Y-129030109D01*
X153672179Y-129155048D01*
X153672181Y-129155049D01*
X153672184Y-129155051D01*
X153861588Y-129251557D01*
X154063757Y-129317246D01*
X154273713Y-129350500D01*
X154273714Y-129350500D01*
X154486286Y-129350500D01*
X154486287Y-129350500D01*
X154696243Y-129317246D01*
X154898412Y-129251557D01*
X155087816Y-129155051D01*
X155174138Y-129092335D01*
X155259786Y-129030109D01*
X155259788Y-129030106D01*
X155259792Y-129030104D01*
X155410104Y-128879792D01*
X155410106Y-128879788D01*
X155410109Y-128879786D01*
X155535048Y-128707820D01*
X155535047Y-128707820D01*
X155535051Y-128707816D01*
X155539514Y-128699054D01*
X155587488Y-128648259D01*
X155655308Y-128631463D01*
X155721444Y-128653999D01*
X155760486Y-128699056D01*
X155764951Y-128707820D01*
X155889890Y-128879786D01*
X156040213Y-129030109D01*
X156212179Y-129155048D01*
X156212181Y-129155049D01*
X156212184Y-129155051D01*
X156401588Y-129251557D01*
X156603757Y-129317246D01*
X156813713Y-129350500D01*
X156813714Y-129350500D01*
X157026286Y-129350500D01*
X157026287Y-129350500D01*
X157236243Y-129317246D01*
X157438412Y-129251557D01*
X157627816Y-129155051D01*
X157714138Y-129092335D01*
X157799786Y-129030109D01*
X157799788Y-129030106D01*
X157799792Y-129030104D01*
X157950104Y-128879792D01*
X157950106Y-128879788D01*
X157950109Y-128879786D01*
X158075048Y-128707820D01*
X158075047Y-128707820D01*
X158075051Y-128707816D01*
X158079514Y-128699054D01*
X158127488Y-128648259D01*
X158195308Y-128631463D01*
X158261444Y-128653999D01*
X158300486Y-128699056D01*
X158304951Y-128707820D01*
X158429890Y-128879786D01*
X158580213Y-129030109D01*
X158752179Y-129155048D01*
X158752181Y-129155049D01*
X158752184Y-129155051D01*
X158941588Y-129251557D01*
X159143757Y-129317246D01*
X159353713Y-129350500D01*
X159353714Y-129350500D01*
X159566286Y-129350500D01*
X159566287Y-129350500D01*
X159776243Y-129317246D01*
X159978412Y-129251557D01*
X160167816Y-129155051D01*
X160254471Y-129092093D01*
X160339784Y-129030110D01*
X160339784Y-129030109D01*
X160339792Y-129030104D01*
X160453329Y-128916566D01*
X160514648Y-128883084D01*
X160584340Y-128888068D01*
X160640274Y-128929939D01*
X160657189Y-128960917D01*
X160706202Y-129092328D01*
X160706206Y-129092335D01*
X160792452Y-129207544D01*
X160792455Y-129207547D01*
X160907664Y-129293793D01*
X160907671Y-129293797D01*
X161042517Y-129344091D01*
X161042516Y-129344091D01*
X161049444Y-129344835D01*
X161102127Y-129350500D01*
X162897872Y-129350499D01*
X162957483Y-129344091D01*
X163092331Y-129293796D01*
X163207546Y-129207546D01*
X163293796Y-129092331D01*
X163344091Y-128957483D01*
X163350500Y-128897873D01*
X163350499Y-128000000D01*
X163350499Y-127102155D01*
X165570000Y-127102155D01*
X165570000Y-127750000D01*
X166486988Y-127750000D01*
X166454075Y-127807007D01*
X166420000Y-127934174D01*
X166420000Y-128065826D01*
X166454075Y-128192993D01*
X166486988Y-128250000D01*
X165570000Y-128250000D01*
X165570000Y-128897844D01*
X165576401Y-128957372D01*
X165576403Y-128957379D01*
X165626645Y-129092086D01*
X165626649Y-129092093D01*
X165712809Y-129207187D01*
X165712812Y-129207190D01*
X165827906Y-129293350D01*
X165827913Y-129293354D01*
X165962620Y-129343596D01*
X165962627Y-129343598D01*
X166022155Y-129349999D01*
X166022172Y-129350000D01*
X166670000Y-129350000D01*
X166670000Y-128433012D01*
X166727007Y-128465925D01*
X166854174Y-128500000D01*
X166985826Y-128500000D01*
X167112993Y-128465925D01*
X167170000Y-128433012D01*
X167170000Y-129350000D01*
X167817828Y-129350000D01*
X167817844Y-129349999D01*
X167877372Y-129343598D01*
X167877379Y-129343596D01*
X168012086Y-129293354D01*
X168012093Y-129293350D01*
X168127187Y-129207190D01*
X168127190Y-129207187D01*
X168213350Y-129092093D01*
X168213354Y-129092086D01*
X168235529Y-129032632D01*
X168274319Y-128859390D01*
X168274682Y-128858734D01*
X168274642Y-128857984D01*
X168307642Y-128798802D01*
X168977037Y-128129408D01*
X168994075Y-128192993D01*
X169059901Y-128307007D01*
X169152993Y-128400099D01*
X169267007Y-128465925D01*
X169330590Y-128482962D01*
X168698282Y-129115269D01*
X168698282Y-129115270D01*
X168752449Y-129154624D01*
X168941782Y-129251095D01*
X169143870Y-129316757D01*
X169353754Y-129350000D01*
X169566246Y-129350000D01*
X169776127Y-129316757D01*
X169776130Y-129316757D01*
X169978217Y-129251095D01*
X170167554Y-129154622D01*
X170221716Y-129115270D01*
X170221717Y-129115270D01*
X169589408Y-128482962D01*
X169652993Y-128465925D01*
X169767007Y-128400099D01*
X169860099Y-128307007D01*
X169925925Y-128192993D01*
X169942962Y-128129409D01*
X170575270Y-128761717D01*
X170575270Y-128761716D01*
X170614622Y-128707555D01*
X170619232Y-128698507D01*
X170667205Y-128647709D01*
X170735025Y-128630912D01*
X170801161Y-128653447D01*
X170840204Y-128698504D01*
X170844949Y-128707817D01*
X170969890Y-128879786D01*
X171120213Y-129030109D01*
X171292179Y-129155048D01*
X171292181Y-129155049D01*
X171292184Y-129155051D01*
X171481588Y-129251557D01*
X171683757Y-129317246D01*
X171893713Y-129350500D01*
X171893714Y-129350500D01*
X172106286Y-129350500D01*
X172106287Y-129350500D01*
X172316243Y-129317246D01*
X172518412Y-129251557D01*
X172707816Y-129155051D01*
X172794138Y-129092335D01*
X172879786Y-129030109D01*
X172879788Y-129030106D01*
X172879792Y-129030104D01*
X173030104Y-128879792D01*
X173030106Y-128879788D01*
X173030109Y-128879786D01*
X173155048Y-128707820D01*
X173155047Y-128707820D01*
X173155051Y-128707816D01*
X173159514Y-128699054D01*
X173207488Y-128648259D01*
X173275308Y-128631463D01*
X173341444Y-128653999D01*
X173380486Y-128699056D01*
X173384951Y-128707820D01*
X173509890Y-128879786D01*
X173660213Y-129030109D01*
X173832179Y-129155048D01*
X173832181Y-129155049D01*
X173832184Y-129155051D01*
X174021588Y-129251557D01*
X174223757Y-129317246D01*
X174433713Y-129350500D01*
X174433714Y-129350500D01*
X174646286Y-129350500D01*
X174646287Y-129350500D01*
X174856243Y-129317246D01*
X175058412Y-129251557D01*
X175247816Y-129155051D01*
X175334138Y-129092335D01*
X175419786Y-129030109D01*
X175419788Y-129030106D01*
X175419792Y-129030104D01*
X175570104Y-128879792D01*
X175570106Y-128879788D01*
X175570109Y-128879786D01*
X175695048Y-128707820D01*
X175695047Y-128707820D01*
X175695051Y-128707816D01*
X175699514Y-128699054D01*
X175747488Y-128648259D01*
X175815308Y-128631463D01*
X175881444Y-128653999D01*
X175920486Y-128699056D01*
X175924951Y-128707820D01*
X176049890Y-128879786D01*
X176200213Y-129030109D01*
X176372179Y-129155048D01*
X176372181Y-129155049D01*
X176372184Y-129155051D01*
X176561588Y-129251557D01*
X176763757Y-129317246D01*
X176973713Y-129350500D01*
X176973714Y-129350500D01*
X177186286Y-129350500D01*
X177186287Y-129350500D01*
X177396243Y-129317246D01*
X177598412Y-129251557D01*
X177787816Y-129155051D01*
X177874138Y-129092335D01*
X177959786Y-129030109D01*
X177959788Y-129030106D01*
X177959792Y-129030104D01*
X178110104Y-128879792D01*
X178110106Y-128879788D01*
X178110109Y-128879786D01*
X178195890Y-128761717D01*
X178235051Y-128707816D01*
X178239793Y-128698508D01*
X178287763Y-128647711D01*
X178355583Y-128630911D01*
X178421719Y-128653445D01*
X178460763Y-128698500D01*
X178465373Y-128707547D01*
X178504728Y-128761716D01*
X179137037Y-128129408D01*
X179154075Y-128192993D01*
X179219901Y-128307007D01*
X179312993Y-128400099D01*
X179427007Y-128465925D01*
X179490590Y-128482962D01*
X178858282Y-129115269D01*
X178858282Y-129115270D01*
X178912449Y-129154624D01*
X179101782Y-129251095D01*
X179303870Y-129316757D01*
X179513754Y-129350000D01*
X179726246Y-129350000D01*
X179936127Y-129316757D01*
X179936130Y-129316757D01*
X180138217Y-129251095D01*
X180327554Y-129154622D01*
X180381716Y-129115270D01*
X180381717Y-129115270D01*
X179749408Y-128482962D01*
X179812993Y-128465925D01*
X179927007Y-128400099D01*
X180020099Y-128307007D01*
X180085925Y-128192993D01*
X180102962Y-128129408D01*
X180735270Y-128761717D01*
X180735270Y-128761716D01*
X180774622Y-128707555D01*
X180779232Y-128698507D01*
X180827205Y-128647709D01*
X180895025Y-128630912D01*
X180961161Y-128653447D01*
X181000204Y-128698504D01*
X181004949Y-128707817D01*
X181129890Y-128879786D01*
X181280213Y-129030109D01*
X181452179Y-129155048D01*
X181452181Y-129155049D01*
X181452184Y-129155051D01*
X181641588Y-129251557D01*
X181843757Y-129317246D01*
X182053713Y-129350500D01*
X182053714Y-129350500D01*
X182266286Y-129350500D01*
X182266287Y-129350500D01*
X182476243Y-129317246D01*
X182678412Y-129251557D01*
X182867816Y-129155051D01*
X182954138Y-129092335D01*
X183039786Y-129030109D01*
X183039788Y-129030106D01*
X183039792Y-129030104D01*
X183190104Y-128879792D01*
X183190106Y-128879788D01*
X183190109Y-128879786D01*
X183315048Y-128707820D01*
X183315047Y-128707820D01*
X183315051Y-128707816D01*
X183319514Y-128699054D01*
X183367488Y-128648259D01*
X183435308Y-128631463D01*
X183501444Y-128653999D01*
X183540486Y-128699056D01*
X183544951Y-128707820D01*
X183669890Y-128879786D01*
X183820213Y-129030109D01*
X183992179Y-129155048D01*
X183992181Y-129155049D01*
X183992184Y-129155051D01*
X184181588Y-129251557D01*
X184383757Y-129317246D01*
X184593713Y-129350500D01*
X184593714Y-129350500D01*
X184806286Y-129350500D01*
X184806287Y-129350500D01*
X185016243Y-129317246D01*
X185218412Y-129251557D01*
X185407816Y-129155051D01*
X185494138Y-129092335D01*
X185579786Y-129030109D01*
X185579788Y-129030106D01*
X185579792Y-129030104D01*
X185730104Y-128879792D01*
X185730106Y-128879788D01*
X185730109Y-128879786D01*
X185855048Y-128707820D01*
X185855047Y-128707820D01*
X185855051Y-128707816D01*
X185951557Y-128518412D01*
X186017246Y-128316243D01*
X186050500Y-128106287D01*
X186050500Y-127893713D01*
X186017246Y-127683757D01*
X185951557Y-127481588D01*
X185855051Y-127292184D01*
X185855049Y-127292181D01*
X185855048Y-127292179D01*
X185730109Y-127120213D01*
X185579786Y-126969890D01*
X185407820Y-126844951D01*
X185218414Y-126748444D01*
X185218413Y-126748443D01*
X185218412Y-126748443D01*
X185016243Y-126682754D01*
X185016241Y-126682753D01*
X185016240Y-126682753D01*
X184854957Y-126657208D01*
X184806287Y-126649500D01*
X184593713Y-126649500D01*
X184545042Y-126657208D01*
X184383760Y-126682753D01*
X184181585Y-126748444D01*
X183992179Y-126844951D01*
X183820213Y-126969890D01*
X183669890Y-127120213D01*
X183544949Y-127292182D01*
X183540484Y-127300946D01*
X183492509Y-127351742D01*
X183424688Y-127368536D01*
X183358553Y-127345998D01*
X183319516Y-127300946D01*
X183315050Y-127292182D01*
X183190109Y-127120213D01*
X183039786Y-126969890D01*
X182867820Y-126844951D01*
X182678414Y-126748444D01*
X182678413Y-126748443D01*
X182678412Y-126748443D01*
X182476243Y-126682754D01*
X182476241Y-126682753D01*
X182476240Y-126682753D01*
X182314957Y-126657208D01*
X182266287Y-126649500D01*
X182053713Y-126649500D01*
X182005042Y-126657208D01*
X181843760Y-126682753D01*
X181641585Y-126748444D01*
X181452179Y-126844951D01*
X181280213Y-126969890D01*
X181129890Y-127120213D01*
X181004949Y-127292182D01*
X181000202Y-127301499D01*
X180952227Y-127352293D01*
X180884405Y-127369087D01*
X180818271Y-127346548D01*
X180779234Y-127301495D01*
X180774626Y-127292452D01*
X180735270Y-127238282D01*
X180735269Y-127238282D01*
X180102962Y-127870590D01*
X180085925Y-127807007D01*
X180020099Y-127692993D01*
X179927007Y-127599901D01*
X179812993Y-127534075D01*
X179749409Y-127517037D01*
X180381716Y-126884728D01*
X180327550Y-126845375D01*
X180138217Y-126748904D01*
X179936129Y-126683242D01*
X179726246Y-126650000D01*
X179513754Y-126650000D01*
X179303872Y-126683242D01*
X179303869Y-126683242D01*
X179101782Y-126748904D01*
X178912439Y-126845380D01*
X178858282Y-126884727D01*
X178858282Y-126884728D01*
X179490591Y-127517037D01*
X179427007Y-127534075D01*
X179312993Y-127599901D01*
X179219901Y-127692993D01*
X179154075Y-127807007D01*
X179137037Y-127870591D01*
X178504728Y-127238282D01*
X178504727Y-127238282D01*
X178465380Y-127292440D01*
X178465376Y-127292446D01*
X178460760Y-127301505D01*
X178412781Y-127352297D01*
X178344959Y-127369087D01*
X178278826Y-127346543D01*
X178239794Y-127301493D01*
X178235051Y-127292184D01*
X178235049Y-127292181D01*
X178235048Y-127292179D01*
X178110109Y-127120213D01*
X177959786Y-126969890D01*
X177787820Y-126844951D01*
X177598414Y-126748444D01*
X177598413Y-126748443D01*
X177598412Y-126748443D01*
X177396243Y-126682754D01*
X177396241Y-126682753D01*
X177396240Y-126682753D01*
X177234957Y-126657208D01*
X177186287Y-126649500D01*
X176973713Y-126649500D01*
X176925042Y-126657208D01*
X176763760Y-126682753D01*
X176561585Y-126748444D01*
X176372179Y-126844951D01*
X176200213Y-126969890D01*
X176049890Y-127120213D01*
X175924949Y-127292182D01*
X175920484Y-127300946D01*
X175872509Y-127351742D01*
X175804688Y-127368536D01*
X175738553Y-127345998D01*
X175699516Y-127300946D01*
X175695050Y-127292182D01*
X175570109Y-127120213D01*
X175419786Y-126969890D01*
X175247820Y-126844951D01*
X175058414Y-126748444D01*
X175058413Y-126748443D01*
X175058412Y-126748443D01*
X174856243Y-126682754D01*
X174856241Y-126682753D01*
X174856240Y-126682753D01*
X174694957Y-126657208D01*
X174646287Y-126649500D01*
X174433713Y-126649500D01*
X174385042Y-126657208D01*
X174223760Y-126682753D01*
X174021585Y-126748444D01*
X173832179Y-126844951D01*
X173660213Y-126969890D01*
X173509890Y-127120213D01*
X173384949Y-127292182D01*
X173380484Y-127300946D01*
X173332509Y-127351742D01*
X173264688Y-127368536D01*
X173198553Y-127345998D01*
X173159516Y-127300946D01*
X173155050Y-127292182D01*
X173030109Y-127120213D01*
X172879786Y-126969890D01*
X172707820Y-126844951D01*
X172518414Y-126748444D01*
X172518413Y-126748443D01*
X172518412Y-126748443D01*
X172316243Y-126682754D01*
X172316241Y-126682753D01*
X172316240Y-126682753D01*
X172154957Y-126657208D01*
X172106287Y-126649500D01*
X171893713Y-126649500D01*
X171845042Y-126657208D01*
X171683760Y-126682753D01*
X171481585Y-126748444D01*
X171292179Y-126844951D01*
X171120213Y-126969890D01*
X170969890Y-127120213D01*
X170844949Y-127292182D01*
X170840202Y-127301499D01*
X170792227Y-127352293D01*
X170724405Y-127369087D01*
X170658271Y-127346548D01*
X170619234Y-127301495D01*
X170614626Y-127292452D01*
X170575270Y-127238282D01*
X170575269Y-127238282D01*
X169942962Y-127870590D01*
X169925925Y-127807007D01*
X169860099Y-127692993D01*
X169767007Y-127599901D01*
X169652993Y-127534075D01*
X169589409Y-127517037D01*
X170221716Y-126884728D01*
X170167550Y-126845375D01*
X169978217Y-126748904D01*
X169776129Y-126683242D01*
X169566246Y-126650000D01*
X169353754Y-126650000D01*
X169143872Y-126683242D01*
X169143869Y-126683242D01*
X168941782Y-126748904D01*
X168752439Y-126845380D01*
X168698282Y-126884727D01*
X168698282Y-126884728D01*
X169330591Y-127517037D01*
X169267007Y-127534075D01*
X169152993Y-127599901D01*
X169059901Y-127692993D01*
X168994075Y-127807007D01*
X168977037Y-127870591D01*
X168307642Y-127201196D01*
X168274319Y-127140609D01*
X168235527Y-126967364D01*
X168213354Y-126907913D01*
X168213350Y-126907906D01*
X168127190Y-126792812D01*
X168127187Y-126792809D01*
X168012093Y-126706649D01*
X168012086Y-126706645D01*
X167877379Y-126656403D01*
X167877372Y-126656401D01*
X167817844Y-126650000D01*
X167170000Y-126650000D01*
X167170000Y-127566988D01*
X167112993Y-127534075D01*
X166985826Y-127500000D01*
X166854174Y-127500000D01*
X166727007Y-127534075D01*
X166670000Y-127566988D01*
X166670000Y-126650000D01*
X166022155Y-126650000D01*
X165962627Y-126656401D01*
X165962620Y-126656403D01*
X165827913Y-126706645D01*
X165827906Y-126706649D01*
X165712812Y-126792809D01*
X165712809Y-126792812D01*
X165626649Y-126907906D01*
X165626645Y-126907913D01*
X165576403Y-127042620D01*
X165576401Y-127042627D01*
X165570000Y-127102155D01*
X163350499Y-127102155D01*
X163350499Y-127102129D01*
X163350498Y-127102123D01*
X163344091Y-127042516D01*
X163293797Y-126907671D01*
X163293793Y-126907664D01*
X163207547Y-126792455D01*
X163207544Y-126792452D01*
X163092335Y-126706206D01*
X163092328Y-126706202D01*
X162957482Y-126655908D01*
X162957483Y-126655908D01*
X162897883Y-126649501D01*
X162897881Y-126649500D01*
X162897873Y-126649500D01*
X162897864Y-126649500D01*
X161102129Y-126649500D01*
X161102123Y-126649501D01*
X161042516Y-126655908D01*
X160907671Y-126706202D01*
X160907664Y-126706206D01*
X160792455Y-126792452D01*
X160792452Y-126792455D01*
X160706206Y-126907664D01*
X160706203Y-126907669D01*
X160657189Y-127039083D01*
X160615317Y-127095016D01*
X160549853Y-127119433D01*
X160481580Y-127104581D01*
X160453326Y-127083430D01*
X160339786Y-126969890D01*
X160167820Y-126844951D01*
X159978414Y-126748444D01*
X159978413Y-126748443D01*
X159978412Y-126748443D01*
X159776243Y-126682754D01*
X159776241Y-126682753D01*
X159776240Y-126682753D01*
X159614957Y-126657208D01*
X159566287Y-126649500D01*
X159353713Y-126649500D01*
X159305042Y-126657208D01*
X159143760Y-126682753D01*
X158941585Y-126748444D01*
X158752179Y-126844951D01*
X158580213Y-126969890D01*
X158429890Y-127120213D01*
X158304949Y-127292182D01*
X158300484Y-127300946D01*
X158252509Y-127351742D01*
X158184688Y-127368536D01*
X158118553Y-127345998D01*
X158079516Y-127300946D01*
X158075050Y-127292182D01*
X157950109Y-127120213D01*
X157799786Y-126969890D01*
X157627820Y-126844951D01*
X157438414Y-126748444D01*
X157438413Y-126748443D01*
X157438412Y-126748443D01*
X157236243Y-126682754D01*
X157236241Y-126682753D01*
X157236240Y-126682753D01*
X157074957Y-126657208D01*
X157026287Y-126649500D01*
X156813713Y-126649500D01*
X156765042Y-126657208D01*
X156603760Y-126682753D01*
X156401585Y-126748444D01*
X156212179Y-126844951D01*
X156040213Y-126969890D01*
X155889890Y-127120213D01*
X155764949Y-127292182D01*
X155760484Y-127300946D01*
X155712509Y-127351742D01*
X155644688Y-127368536D01*
X155578553Y-127345998D01*
X155539516Y-127300946D01*
X155535050Y-127292182D01*
X155410109Y-127120213D01*
X155259786Y-126969890D01*
X155087820Y-126844951D01*
X154898414Y-126748444D01*
X154898413Y-126748443D01*
X154898412Y-126748443D01*
X154696243Y-126682754D01*
X154696241Y-126682753D01*
X154696240Y-126682753D01*
X154534957Y-126657208D01*
X154486287Y-126649500D01*
X154273713Y-126649500D01*
X154225042Y-126657208D01*
X154063760Y-126682753D01*
X153861585Y-126748444D01*
X153672179Y-126844951D01*
X153500213Y-126969890D01*
X153349890Y-127120213D01*
X153224949Y-127292182D01*
X153220484Y-127300946D01*
X153172509Y-127351742D01*
X153104688Y-127368536D01*
X153038553Y-127345998D01*
X152999516Y-127300946D01*
X152995050Y-127292182D01*
X152870109Y-127120213D01*
X152719786Y-126969890D01*
X152547820Y-126844951D01*
X152358414Y-126748444D01*
X152358413Y-126748443D01*
X152358412Y-126748443D01*
X152156243Y-126682754D01*
X152156241Y-126682753D01*
X152156240Y-126682753D01*
X151994957Y-126657208D01*
X151946287Y-126649500D01*
X151733713Y-126649500D01*
X151685042Y-126657208D01*
X151523760Y-126682753D01*
X151321585Y-126748444D01*
X151132179Y-126844951D01*
X150960213Y-126969890D01*
X150809890Y-127120213D01*
X150684951Y-127292179D01*
X150588444Y-127481585D01*
X150522753Y-127683760D01*
X150489500Y-127893713D01*
X146535440Y-127893713D01*
X146681639Y-127846211D01*
X146842994Y-127763996D01*
X146989501Y-127657553D01*
X147117553Y-127529501D01*
X147223996Y-127382994D01*
X147306211Y-127221639D01*
X147362171Y-127049409D01*
X147384620Y-126907671D01*
X147390500Y-126870551D01*
X147390500Y-126689448D01*
X147374019Y-126585397D01*
X147362171Y-126510591D01*
X147306211Y-126338361D01*
X147306211Y-126338360D01*
X147277740Y-126282484D01*
X147223996Y-126177006D01*
X147210396Y-126158287D01*
X147117558Y-126030505D01*
X147117554Y-126030500D01*
X146989499Y-125902445D01*
X146989494Y-125902441D01*
X146842997Y-125796006D01*
X146842996Y-125796005D01*
X146842994Y-125796004D01*
X146729081Y-125737962D01*
X146678285Y-125689987D01*
X146661490Y-125622166D01*
X146684028Y-125556031D01*
X146738743Y-125512580D01*
X146747057Y-125509546D01*
X146763633Y-125504161D01*
X146954944Y-125406683D01*
X147128651Y-125280477D01*
X147280477Y-125128651D01*
X147406683Y-124954944D01*
X147504161Y-124763633D01*
X147570511Y-124559427D01*
X147604100Y-124347357D01*
X147604100Y-124132643D01*
X147570511Y-123920573D01*
X147537336Y-123818470D01*
X147504162Y-123716369D01*
X147504161Y-123716366D01*
X147445678Y-123601588D01*
X147406683Y-123525056D01*
X147280477Y-123351349D01*
X147128651Y-123199523D01*
X146994608Y-123102135D01*
X188849500Y-123102135D01*
X188849500Y-124897870D01*
X188849501Y-124897876D01*
X188855908Y-124957483D01*
X188906202Y-125092328D01*
X188906206Y-125092335D01*
X188992452Y-125207544D01*
X188992455Y-125207547D01*
X189107664Y-125293793D01*
X189107671Y-125293797D01*
X189242517Y-125344091D01*
X189242516Y-125344091D01*
X189249444Y-125344835D01*
X189302127Y-125350500D01*
X191097872Y-125350499D01*
X191157483Y-125344091D01*
X191292331Y-125293796D01*
X191407546Y-125207546D01*
X191493796Y-125092331D01*
X191544091Y-124957483D01*
X191550500Y-124897873D01*
X191550499Y-123102128D01*
X191544091Y-123042517D01*
X191535334Y-123019039D01*
X191493797Y-122907671D01*
X191493793Y-122907664D01*
X191407547Y-122792455D01*
X191407544Y-122792452D01*
X191292335Y-122706206D01*
X191292328Y-122706202D01*
X191157482Y-122655908D01*
X191157483Y-122655908D01*
X191097883Y-122649501D01*
X191097881Y-122649500D01*
X191097873Y-122649500D01*
X191097864Y-122649500D01*
X189302129Y-122649500D01*
X189302123Y-122649501D01*
X189242516Y-122655908D01*
X189107671Y-122706202D01*
X189107664Y-122706206D01*
X188992455Y-122792452D01*
X188992452Y-122792455D01*
X188906206Y-122907664D01*
X188906202Y-122907671D01*
X188855908Y-123042517D01*
X188850815Y-123089896D01*
X188849501Y-123102123D01*
X188849500Y-123102135D01*
X146994608Y-123102135D01*
X146954944Y-123073317D01*
X146954829Y-123073258D01*
X146950791Y-123070325D01*
X146932356Y-123046423D01*
X146912078Y-123024073D01*
X146911236Y-123019039D01*
X146908120Y-123014999D01*
X146905535Y-122984932D01*
X146900558Y-122955160D01*
X146902572Y-122950469D01*
X146902135Y-122945386D01*
X146916215Y-122918693D01*
X146928125Y-122890958D01*
X146933139Y-122886613D01*
X146934735Y-122883588D01*
X146940179Y-122880512D01*
X146951709Y-122870521D01*
X146951002Y-122869547D01*
X146954944Y-122866683D01*
X147128651Y-122740477D01*
X147280477Y-122588651D01*
X147406683Y-122414944D01*
X147504161Y-122223633D01*
X147570511Y-122019427D01*
X147604100Y-121807357D01*
X147604100Y-121592643D01*
X147570511Y-121380573D01*
X147537336Y-121278470D01*
X147504162Y-121176369D01*
X147504161Y-121176366D01*
X147445678Y-121061588D01*
X147406683Y-120985056D01*
X147280477Y-120811349D01*
X147128651Y-120659523D01*
X146954944Y-120533317D01*
X146954943Y-120533316D01*
X146951002Y-120530453D01*
X146952405Y-120528521D01*
X146912078Y-120484073D01*
X146900558Y-120415160D01*
X146928125Y-120350958D01*
X146951709Y-120330521D01*
X146951002Y-120329547D01*
X146954944Y-120326683D01*
X147128651Y-120200477D01*
X147280477Y-120048651D01*
X147406683Y-119874944D01*
X147504161Y-119683633D01*
X147570511Y-119479427D01*
X147604100Y-119267357D01*
X147604100Y-119052643D01*
X147570511Y-118840573D01*
X147537336Y-118738470D01*
X147504162Y-118636369D01*
X147504161Y-118636366D01*
X147445678Y-118521588D01*
X147406683Y-118445056D01*
X147280477Y-118271349D01*
X147128651Y-118119523D01*
X146954944Y-117993317D01*
X146954943Y-117993316D01*
X146951002Y-117990453D01*
X146952405Y-117988521D01*
X146912078Y-117944073D01*
X146900558Y-117875160D01*
X146928125Y-117810958D01*
X146951709Y-117790521D01*
X146951002Y-117789547D01*
X146954944Y-117786683D01*
X147128651Y-117660477D01*
X147280477Y-117508651D01*
X147394193Y-117352135D01*
X152399500Y-117352135D01*
X152399500Y-119147870D01*
X152399501Y-119147876D01*
X152405908Y-119207483D01*
X152456202Y-119342328D01*
X152456206Y-119342335D01*
X152542452Y-119457544D01*
X152542455Y-119457547D01*
X152657664Y-119543793D01*
X152657671Y-119543797D01*
X152792517Y-119594091D01*
X152792516Y-119594091D01*
X152799444Y-119594835D01*
X152852127Y-119600500D01*
X154647872Y-119600499D01*
X154707483Y-119594091D01*
X154842331Y-119543796D01*
X154957546Y-119457546D01*
X155043796Y-119342331D01*
X155094091Y-119207483D01*
X155100500Y-119147873D01*
X155100499Y-117352128D01*
X155094091Y-117292517D01*
X155094088Y-117292510D01*
X155043797Y-117157671D01*
X155043793Y-117157664D01*
X154957547Y-117042455D01*
X154957544Y-117042452D01*
X154842335Y-116956206D01*
X154842328Y-116956202D01*
X154707482Y-116905908D01*
X154707483Y-116905908D01*
X154647883Y-116899501D01*
X154647881Y-116899500D01*
X154647873Y-116899500D01*
X154647864Y-116899500D01*
X152852129Y-116899500D01*
X152852123Y-116899501D01*
X152792516Y-116905908D01*
X152657671Y-116956202D01*
X152657664Y-116956206D01*
X152542455Y-117042452D01*
X152542452Y-117042455D01*
X152456206Y-117157664D01*
X152456202Y-117157671D01*
X152405908Y-117292517D01*
X152401347Y-117334944D01*
X152399501Y-117352123D01*
X152399500Y-117352135D01*
X147394193Y-117352135D01*
X147406683Y-117334944D01*
X147428301Y-117292517D01*
X147428305Y-117292510D01*
X147461008Y-117228324D01*
X147504161Y-117143633D01*
X147570511Y-116939427D01*
X147604080Y-116727483D01*
X183372000Y-116727483D01*
X183372000Y-118927501D01*
X183372001Y-118927518D01*
X183382500Y-119030296D01*
X183382501Y-119030299D01*
X183421462Y-119147873D01*
X183437686Y-119196834D01*
X183529788Y-119346156D01*
X183653844Y-119470212D01*
X183803166Y-119562314D01*
X183969703Y-119617499D01*
X184072491Y-119628000D01*
X186272508Y-119627999D01*
X186375297Y-119617499D01*
X186541834Y-119562314D01*
X186691156Y-119470212D01*
X186815212Y-119346156D01*
X186907314Y-119196834D01*
X186962499Y-119030297D01*
X186973000Y-118927509D01*
X186972999Y-116727492D01*
X186962499Y-116624703D01*
X186907314Y-116458166D01*
X186815212Y-116308844D01*
X186691156Y-116184788D01*
X186547802Y-116096367D01*
X186541836Y-116092687D01*
X186541831Y-116092685D01*
X186540362Y-116092198D01*
X186375297Y-116037501D01*
X186375295Y-116037500D01*
X186272510Y-116027000D01*
X184072498Y-116027000D01*
X184072481Y-116027001D01*
X183969703Y-116037500D01*
X183969700Y-116037501D01*
X183803168Y-116092685D01*
X183803163Y-116092687D01*
X183653842Y-116184789D01*
X183529789Y-116308842D01*
X183437687Y-116458163D01*
X183437686Y-116458166D01*
X183382501Y-116624703D01*
X183382501Y-116624704D01*
X183382500Y-116624704D01*
X183372000Y-116727483D01*
X147604080Y-116727483D01*
X147604100Y-116727357D01*
X147604100Y-116512643D01*
X147570511Y-116300573D01*
X147532891Y-116184789D01*
X147504162Y-116096369D01*
X147504161Y-116096366D01*
X147406682Y-115905055D01*
X147280477Y-115731349D01*
X147128651Y-115579523D01*
X146954944Y-115453317D01*
X146954943Y-115453316D01*
X146951002Y-115450453D01*
X146952405Y-115448521D01*
X146912078Y-115404073D01*
X146900558Y-115335160D01*
X146928125Y-115270958D01*
X146951709Y-115250521D01*
X146951002Y-115249547D01*
X146954944Y-115246683D01*
X147128651Y-115120477D01*
X147280477Y-114968651D01*
X147406683Y-114794944D01*
X147504161Y-114603633D01*
X147570511Y-114399427D01*
X147604100Y-114187357D01*
X147604100Y-113972643D01*
X147570511Y-113760573D01*
X147504161Y-113556367D01*
X147504161Y-113556366D01*
X147452563Y-113455101D01*
X147425576Y-113402135D01*
X162249500Y-113402135D01*
X162249500Y-115197870D01*
X162249501Y-115197876D01*
X162255908Y-115257483D01*
X162306202Y-115392328D01*
X162306206Y-115392335D01*
X162392452Y-115507544D01*
X162392455Y-115507547D01*
X162507664Y-115593793D01*
X162507671Y-115593797D01*
X162642517Y-115644091D01*
X162642516Y-115644091D01*
X162649444Y-115644835D01*
X162702127Y-115650500D01*
X164497872Y-115650499D01*
X164557483Y-115644091D01*
X164692331Y-115593796D01*
X164807546Y-115507546D01*
X164893796Y-115392331D01*
X164944091Y-115257483D01*
X164950500Y-115197873D01*
X164950499Y-113402128D01*
X164944091Y-113342517D01*
X164938487Y-113327493D01*
X164893797Y-113207671D01*
X164893793Y-113207664D01*
X164807547Y-113092455D01*
X164807544Y-113092452D01*
X164692335Y-113006206D01*
X164692328Y-113006202D01*
X164557482Y-112955908D01*
X164557483Y-112955908D01*
X164497883Y-112949501D01*
X164497881Y-112949500D01*
X164497873Y-112949500D01*
X164497864Y-112949500D01*
X162702129Y-112949500D01*
X162702123Y-112949501D01*
X162642516Y-112955908D01*
X162507671Y-113006202D01*
X162507664Y-113006206D01*
X162392455Y-113092452D01*
X162392452Y-113092455D01*
X162306206Y-113207664D01*
X162306202Y-113207671D01*
X162255908Y-113342517D01*
X162249501Y-113402116D01*
X162249501Y-113402123D01*
X162249500Y-113402135D01*
X147425576Y-113402135D01*
X147406683Y-113365056D01*
X147280477Y-113191349D01*
X147128651Y-113039523D01*
X146954944Y-112913317D01*
X146954943Y-112913316D01*
X146951002Y-112910453D01*
X146952405Y-112908521D01*
X146912078Y-112864073D01*
X146900558Y-112795160D01*
X146928125Y-112730958D01*
X146951709Y-112710521D01*
X146951002Y-112709547D01*
X146954944Y-112706683D01*
X147061184Y-112629495D01*
X183372000Y-112629495D01*
X183372000Y-112865504D01*
X183372001Y-112865520D01*
X183402806Y-113099510D01*
X183463894Y-113327493D01*
X183554214Y-113545545D01*
X183554219Y-113545556D01*
X183602511Y-113629199D01*
X183672227Y-113749950D01*
X183672229Y-113749953D01*
X183672230Y-113749954D01*
X183815906Y-113937197D01*
X183815912Y-113937204D01*
X183982795Y-114104087D01*
X183982801Y-114104092D01*
X184170050Y-114247773D01*
X184301418Y-114323618D01*
X184374443Y-114365780D01*
X184374448Y-114365782D01*
X184374451Y-114365784D01*
X184592507Y-114456106D01*
X184820486Y-114517193D01*
X185054489Y-114548000D01*
X185054496Y-114548000D01*
X185290504Y-114548000D01*
X185290511Y-114548000D01*
X185524514Y-114517193D01*
X185752493Y-114456106D01*
X185970549Y-114365784D01*
X186174950Y-114247773D01*
X186362199Y-114104092D01*
X186529092Y-113937199D01*
X186672773Y-113749950D01*
X186790784Y-113545549D01*
X186881106Y-113327493D01*
X186942193Y-113099514D01*
X186973000Y-112865511D01*
X186973000Y-112629489D01*
X186942193Y-112395486D01*
X186881106Y-112167507D01*
X186790784Y-111949451D01*
X186790782Y-111949448D01*
X186790780Y-111949443D01*
X186738809Y-111859428D01*
X186672773Y-111745050D01*
X186529092Y-111557801D01*
X186529087Y-111557795D01*
X186362204Y-111390912D01*
X186362197Y-111390906D01*
X186174954Y-111247230D01*
X186174953Y-111247229D01*
X186174950Y-111247227D01*
X186093457Y-111200177D01*
X185970556Y-111129219D01*
X185970545Y-111129214D01*
X185752493Y-111038894D01*
X185654165Y-111012547D01*
X185524514Y-110977807D01*
X185524513Y-110977806D01*
X185524510Y-110977806D01*
X185290520Y-110947001D01*
X185290517Y-110947000D01*
X185290511Y-110947000D01*
X185054489Y-110947000D01*
X185054483Y-110947000D01*
X185054479Y-110947001D01*
X184820489Y-110977806D01*
X184592506Y-111038894D01*
X184374454Y-111129214D01*
X184374443Y-111129219D01*
X184170045Y-111247230D01*
X183982802Y-111390906D01*
X183982795Y-111390912D01*
X183815912Y-111557795D01*
X183815906Y-111557802D01*
X183672230Y-111745045D01*
X183554219Y-111949443D01*
X183554214Y-111949454D01*
X183463894Y-112167506D01*
X183402806Y-112395489D01*
X183372001Y-112629479D01*
X183372000Y-112629495D01*
X147061184Y-112629495D01*
X147128651Y-112580477D01*
X147280477Y-112428651D01*
X147406683Y-112254944D01*
X147504161Y-112063633D01*
X147570511Y-111859427D01*
X147604100Y-111647357D01*
X147604100Y-111432643D01*
X147570511Y-111220573D01*
X147521893Y-111070940D01*
X147504162Y-111016369D01*
X147504161Y-111016366D01*
X147406682Y-110825055D01*
X147399876Y-110815687D01*
X147280477Y-110651349D01*
X147128651Y-110499523D01*
X146954944Y-110373317D01*
X146954943Y-110373316D01*
X146951002Y-110370453D01*
X146952405Y-110368521D01*
X146912078Y-110324073D01*
X146900558Y-110255160D01*
X146928125Y-110190958D01*
X146951709Y-110170521D01*
X146951002Y-110169547D01*
X146954944Y-110166683D01*
X147128651Y-110040477D01*
X147280477Y-109888651D01*
X147340881Y-109805513D01*
X156989500Y-109805513D01*
X156989500Y-109994486D01*
X157019059Y-110181118D01*
X157077454Y-110360836D01*
X157148119Y-110499523D01*
X157163240Y-110529199D01*
X157274310Y-110682073D01*
X157407927Y-110815690D01*
X157560801Y-110926760D01*
X157640347Y-110967290D01*
X157729163Y-111012545D01*
X157729165Y-111012545D01*
X157729168Y-111012547D01*
X157810255Y-111038894D01*
X157908881Y-111070940D01*
X158095514Y-111100500D01*
X158095519Y-111100500D01*
X158284486Y-111100500D01*
X158471118Y-111070940D01*
X158650832Y-111012547D01*
X158819199Y-110926760D01*
X158972073Y-110815690D01*
X159105690Y-110682073D01*
X159216760Y-110529199D01*
X159302547Y-110360832D01*
X159360940Y-110181118D01*
X159363226Y-110166683D01*
X159390500Y-109994486D01*
X159390500Y-109805513D01*
X164609500Y-109805513D01*
X164609500Y-109994486D01*
X164639059Y-110181118D01*
X164697454Y-110360836D01*
X164768119Y-110499523D01*
X164783240Y-110529199D01*
X164894310Y-110682073D01*
X165027927Y-110815690D01*
X165180801Y-110926760D01*
X165260347Y-110967290D01*
X165349163Y-111012545D01*
X165349165Y-111012545D01*
X165349168Y-111012547D01*
X165430255Y-111038894D01*
X165528881Y-111070940D01*
X165715514Y-111100500D01*
X165715519Y-111100500D01*
X165904486Y-111100500D01*
X166091118Y-111070940D01*
X166270832Y-111012547D01*
X166439199Y-110926760D01*
X166592073Y-110815690D01*
X166725690Y-110682073D01*
X166836760Y-110529199D01*
X166922547Y-110360832D01*
X166980940Y-110181118D01*
X166983226Y-110166683D01*
X167010500Y-109994486D01*
X167010500Y-109805513D01*
X166980940Y-109618881D01*
X166953846Y-109535497D01*
X166922547Y-109439168D01*
X166922545Y-109439165D01*
X166922545Y-109439163D01*
X166877290Y-109350347D01*
X166836760Y-109270801D01*
X166725690Y-109117927D01*
X166592073Y-108984310D01*
X166439199Y-108873240D01*
X166270836Y-108787454D01*
X166091118Y-108729059D01*
X165904486Y-108699500D01*
X165904481Y-108699500D01*
X165715519Y-108699500D01*
X165715514Y-108699500D01*
X165528881Y-108729059D01*
X165349163Y-108787454D01*
X165180800Y-108873240D01*
X165093579Y-108936610D01*
X165027927Y-108984310D01*
X165027925Y-108984312D01*
X165027924Y-108984312D01*
X164894312Y-109117924D01*
X164894312Y-109117925D01*
X164894310Y-109117927D01*
X164846610Y-109183579D01*
X164783240Y-109270800D01*
X164697454Y-109439163D01*
X164639059Y-109618881D01*
X164609500Y-109805513D01*
X159390500Y-109805513D01*
X159360940Y-109618881D01*
X159333846Y-109535497D01*
X159302547Y-109439168D01*
X159302545Y-109439165D01*
X159302545Y-109439163D01*
X159257290Y-109350347D01*
X159216760Y-109270801D01*
X159105690Y-109117927D01*
X158972073Y-108984310D01*
X158819199Y-108873240D01*
X158650836Y-108787454D01*
X158471118Y-108729059D01*
X158284486Y-108699500D01*
X158284481Y-108699500D01*
X158095519Y-108699500D01*
X158095514Y-108699500D01*
X157908881Y-108729059D01*
X157729163Y-108787454D01*
X157560800Y-108873240D01*
X157473579Y-108936610D01*
X157407927Y-108984310D01*
X157407925Y-108984312D01*
X157407924Y-108984312D01*
X157274312Y-109117924D01*
X157274312Y-109117925D01*
X157274310Y-109117927D01*
X157226610Y-109183579D01*
X157163240Y-109270800D01*
X157077454Y-109439163D01*
X157019059Y-109618881D01*
X156989500Y-109805513D01*
X147340881Y-109805513D01*
X147406683Y-109714944D01*
X147504161Y-109523633D01*
X147570511Y-109319427D01*
X147604100Y-109107357D01*
X147604100Y-108892643D01*
X147570511Y-108680573D01*
X147504161Y-108476367D01*
X147504161Y-108476366D01*
X147406682Y-108285055D01*
X147402873Y-108279812D01*
X147280477Y-108111349D01*
X147128651Y-107959523D01*
X146954944Y-107833317D01*
X146954943Y-107833316D01*
X146951002Y-107830453D01*
X146952405Y-107828521D01*
X146912078Y-107784073D01*
X146900558Y-107715160D01*
X146928125Y-107650958D01*
X146951709Y-107630521D01*
X146951002Y-107629547D01*
X146954944Y-107626683D01*
X147128651Y-107500477D01*
X147280477Y-107348651D01*
X147406683Y-107174944D01*
X147504161Y-106983633D01*
X147570511Y-106779427D01*
X147604100Y-106567357D01*
X147604100Y-106352643D01*
X147570511Y-106140573D01*
X147537336Y-106038470D01*
X147504162Y-105936369D01*
X147504161Y-105936366D01*
X147450211Y-105830484D01*
X147406683Y-105745056D01*
X147280477Y-105571349D01*
X147128651Y-105419523D01*
X146954944Y-105293317D01*
X146954943Y-105293316D01*
X146951002Y-105290453D01*
X146952405Y-105288521D01*
X146912078Y-105244073D01*
X146900558Y-105175160D01*
X146928125Y-105110958D01*
X146951709Y-105090521D01*
X146951002Y-105089547D01*
X146962284Y-105081350D01*
X147128651Y-104960477D01*
X147280477Y-104808651D01*
X147406683Y-104634944D01*
X147504161Y-104443633D01*
X147518338Y-104400001D01*
X147551595Y-104297648D01*
X156899500Y-104297648D01*
X156899500Y-104502351D01*
X156931522Y-104704534D01*
X156994781Y-104899223D01*
X157037248Y-104982567D01*
X157087585Y-105081359D01*
X157087715Y-105081613D01*
X157208028Y-105247213D01*
X157352786Y-105391971D01*
X157474100Y-105480109D01*
X157518390Y-105512287D01*
X157634300Y-105571346D01*
X157700776Y-105605218D01*
X157700778Y-105605218D01*
X157700781Y-105605220D01*
X157792727Y-105635095D01*
X157895465Y-105668477D01*
X157996557Y-105684488D01*
X158097648Y-105700500D01*
X158097649Y-105700500D01*
X158302351Y-105700500D01*
X158302352Y-105700500D01*
X158504534Y-105668477D01*
X158699219Y-105605220D01*
X158881610Y-105512287D01*
X159009290Y-105419523D01*
X159047213Y-105391971D01*
X159047215Y-105391968D01*
X159047219Y-105391966D01*
X159191966Y-105247219D01*
X159191968Y-105247215D01*
X159191971Y-105247213D01*
X159280093Y-105125921D01*
X159312287Y-105081610D01*
X159339795Y-105027621D01*
X159387769Y-104976826D01*
X159455589Y-104960030D01*
X159521725Y-104982567D01*
X159560765Y-105027621D01*
X159588141Y-105081350D01*
X159588147Y-105081359D01*
X159620523Y-105125921D01*
X159620524Y-105125922D01*
X160300000Y-104446446D01*
X160300000Y-104452661D01*
X160327259Y-104554394D01*
X160379920Y-104645606D01*
X160454394Y-104720080D01*
X160545606Y-104772741D01*
X160647339Y-104800000D01*
X160653553Y-104800000D01*
X159974076Y-105479474D01*
X160018650Y-105511859D01*
X160200968Y-105604755D01*
X160395582Y-105667990D01*
X160597683Y-105700000D01*
X160802317Y-105700000D01*
X161004417Y-105667990D01*
X161199031Y-105604755D01*
X161381349Y-105511859D01*
X161425921Y-105479474D01*
X161425922Y-105479474D01*
X161391431Y-105444983D01*
X183372000Y-105444983D01*
X183372000Y-107645001D01*
X183372001Y-107645018D01*
X183382500Y-107747796D01*
X183382501Y-107747799D01*
X183422924Y-107869786D01*
X183437686Y-107914334D01*
X183529788Y-108063656D01*
X183653844Y-108187712D01*
X183803166Y-108279814D01*
X183969703Y-108334999D01*
X184072491Y-108345500D01*
X186272508Y-108345499D01*
X186375297Y-108334999D01*
X186541834Y-108279814D01*
X186691156Y-108187712D01*
X186815212Y-108063656D01*
X186907314Y-107914334D01*
X186962499Y-107747797D01*
X186973000Y-107645009D01*
X186972999Y-105444992D01*
X186967582Y-105391967D01*
X186962499Y-105342203D01*
X186962498Y-105342200D01*
X186945351Y-105290453D01*
X186907314Y-105175666D01*
X186815212Y-105026344D01*
X186691156Y-104902288D01*
X186541834Y-104810186D01*
X186375297Y-104755001D01*
X186375295Y-104755000D01*
X186272510Y-104744500D01*
X184072498Y-104744500D01*
X184072481Y-104744501D01*
X183969703Y-104755000D01*
X183969700Y-104755001D01*
X183803168Y-104810185D01*
X183803163Y-104810187D01*
X183653842Y-104902289D01*
X183529789Y-105026342D01*
X183437687Y-105175663D01*
X183437685Y-105175668D01*
X183423018Y-105219930D01*
X183382501Y-105342203D01*
X183382501Y-105342204D01*
X183382500Y-105342204D01*
X183372000Y-105444983D01*
X161391431Y-105444983D01*
X160746447Y-104800000D01*
X160752661Y-104800000D01*
X160854394Y-104772741D01*
X160945606Y-104720080D01*
X161020080Y-104645606D01*
X161072741Y-104554394D01*
X161100000Y-104452661D01*
X161100000Y-104446448D01*
X161779474Y-105125922D01*
X161779474Y-105125921D01*
X161811859Y-105081349D01*
X161904755Y-104899031D01*
X161967990Y-104704417D01*
X162000000Y-104502317D01*
X162000000Y-104297682D01*
X161967990Y-104095582D01*
X161904755Y-103900968D01*
X161811859Y-103718650D01*
X161779474Y-103674077D01*
X161779474Y-103674076D01*
X161100000Y-104353551D01*
X161100000Y-104347339D01*
X161072741Y-104245606D01*
X161020080Y-104154394D01*
X160945606Y-104079920D01*
X160854394Y-104027259D01*
X160752661Y-104000000D01*
X160746446Y-104000000D01*
X161425922Y-103320524D01*
X161425921Y-103320523D01*
X161381359Y-103288147D01*
X161381350Y-103288141D01*
X161199031Y-103195244D01*
X161004417Y-103132009D01*
X160802317Y-103100000D01*
X160597683Y-103100000D01*
X160395582Y-103132009D01*
X160200968Y-103195244D01*
X160018644Y-103288143D01*
X159974077Y-103320523D01*
X159974077Y-103320524D01*
X160653554Y-104000000D01*
X160647339Y-104000000D01*
X160545606Y-104027259D01*
X160454394Y-104079920D01*
X160379920Y-104154394D01*
X160327259Y-104245606D01*
X160300000Y-104347339D01*
X160300000Y-104353553D01*
X159620524Y-103674077D01*
X159620523Y-103674077D01*
X159588143Y-103718644D01*
X159560765Y-103772378D01*
X159512790Y-103823174D01*
X159444969Y-103839969D01*
X159378834Y-103817431D01*
X159339795Y-103772378D01*
X159312287Y-103718390D01*
X159312285Y-103718387D01*
X159312284Y-103718385D01*
X159191971Y-103552786D01*
X159047213Y-103408028D01*
X158881613Y-103287715D01*
X158881612Y-103287714D01*
X158881610Y-103287713D01*
X158810434Y-103251447D01*
X158699223Y-103194781D01*
X158504534Y-103131522D01*
X158329995Y-103103878D01*
X158302352Y-103099500D01*
X158097648Y-103099500D01*
X158073329Y-103103351D01*
X157895465Y-103131522D01*
X157700776Y-103194781D01*
X157518386Y-103287715D01*
X157352786Y-103408028D01*
X157208028Y-103552786D01*
X157087715Y-103718386D01*
X156994781Y-103900776D01*
X156931522Y-104095465D01*
X156899500Y-104297648D01*
X147551595Y-104297648D01*
X147565628Y-104254458D01*
X147568503Y-104245606D01*
X147570511Y-104239427D01*
X147604100Y-104027357D01*
X147604100Y-103812643D01*
X147570511Y-103600573D01*
X147504161Y-103396367D01*
X147504161Y-103396366D01*
X147425768Y-103242512D01*
X147406683Y-103205056D01*
X147280477Y-103031349D01*
X147128651Y-102879523D01*
X146954944Y-102753317D01*
X146954943Y-102753316D01*
X146951002Y-102750453D01*
X146952405Y-102748521D01*
X146912078Y-102704073D01*
X146900558Y-102635160D01*
X146928125Y-102570958D01*
X146951709Y-102550521D01*
X146951002Y-102549547D01*
X146954944Y-102546683D01*
X147128651Y-102420477D01*
X147280477Y-102268651D01*
X147406683Y-102094944D01*
X147504161Y-101903633D01*
X147570511Y-101699427D01*
X147604100Y-101487357D01*
X147604100Y-101346995D01*
X183372000Y-101346995D01*
X183372000Y-101583004D01*
X183372001Y-101583020D01*
X183402806Y-101817010D01*
X183463894Y-102044993D01*
X183554214Y-102263045D01*
X183554219Y-102263056D01*
X183625177Y-102385957D01*
X183672227Y-102467450D01*
X183672229Y-102467453D01*
X183672230Y-102467454D01*
X183815906Y-102654697D01*
X183815912Y-102654704D01*
X183982795Y-102821587D01*
X183982801Y-102821592D01*
X184170050Y-102965273D01*
X184284497Y-103031349D01*
X184374443Y-103083280D01*
X184374448Y-103083282D01*
X184374451Y-103083284D01*
X184592507Y-103173606D01*
X184820486Y-103234693D01*
X185054489Y-103265500D01*
X185054496Y-103265500D01*
X185290504Y-103265500D01*
X185290511Y-103265500D01*
X185524514Y-103234693D01*
X185752493Y-103173606D01*
X185970549Y-103083284D01*
X186174950Y-102965273D01*
X186362199Y-102821592D01*
X186529092Y-102654699D01*
X186672773Y-102467450D01*
X186790784Y-102263049D01*
X186881106Y-102044993D01*
X186942193Y-101817014D01*
X186973000Y-101583011D01*
X186973000Y-101346989D01*
X186942193Y-101112986D01*
X186881106Y-100885007D01*
X186790784Y-100666951D01*
X186790782Y-100666948D01*
X186790780Y-100666943D01*
X186739134Y-100577491D01*
X186672773Y-100462550D01*
X186538488Y-100287546D01*
X186529093Y-100275302D01*
X186529087Y-100275295D01*
X186362204Y-100108412D01*
X186362197Y-100108406D01*
X186174954Y-99964730D01*
X186174953Y-99964729D01*
X186174950Y-99964727D01*
X186093457Y-99917677D01*
X185970556Y-99846719D01*
X185970545Y-99846714D01*
X185752493Y-99756394D01*
X185524514Y-99695307D01*
X185524513Y-99695306D01*
X185524510Y-99695306D01*
X185290520Y-99664501D01*
X185290517Y-99664500D01*
X185290511Y-99664500D01*
X185054489Y-99664500D01*
X185054483Y-99664500D01*
X185054479Y-99664501D01*
X184820489Y-99695306D01*
X184592506Y-99756394D01*
X184374454Y-99846714D01*
X184374443Y-99846719D01*
X184170045Y-99964730D01*
X183982802Y-100108406D01*
X183982795Y-100108412D01*
X183815912Y-100275295D01*
X183815906Y-100275302D01*
X183672230Y-100462545D01*
X183554219Y-100666943D01*
X183554214Y-100666954D01*
X183463894Y-100885006D01*
X183402806Y-101112989D01*
X183372001Y-101346979D01*
X183372000Y-101346995D01*
X147604100Y-101346995D01*
X147604100Y-101272643D01*
X147570511Y-101060573D01*
X147513467Y-100885007D01*
X147504162Y-100856369D01*
X147504161Y-100856366D01*
X147407650Y-100666954D01*
X147406683Y-100665056D01*
X147280477Y-100491349D01*
X147128651Y-100339523D01*
X146954944Y-100213317D01*
X146954943Y-100213316D01*
X146951002Y-100210453D01*
X146952405Y-100208521D01*
X146912078Y-100164073D01*
X146900558Y-100095160D01*
X146928125Y-100030958D01*
X146951709Y-100010521D01*
X146951002Y-100009547D01*
X146954944Y-100006683D01*
X147128651Y-99880477D01*
X147280477Y-99728651D01*
X147406683Y-99554944D01*
X147504161Y-99363633D01*
X147570511Y-99159427D01*
X147604100Y-98947357D01*
X147604100Y-98732643D01*
X147570511Y-98520573D01*
X147504161Y-98316367D01*
X147504161Y-98316366D01*
X147435763Y-98182129D01*
X147406683Y-98125056D01*
X147280477Y-97951349D01*
X147128651Y-97799523D01*
X146954944Y-97673317D01*
X146954943Y-97673316D01*
X146951002Y-97670453D01*
X146952405Y-97668521D01*
X146912078Y-97624073D01*
X146900558Y-97555160D01*
X146928125Y-97490958D01*
X146951709Y-97470521D01*
X146951002Y-97469547D01*
X146954944Y-97466683D01*
X147128651Y-97340477D01*
X147280477Y-97188651D01*
X147406683Y-97014944D01*
X147504161Y-96823633D01*
X147570511Y-96619427D01*
X147604100Y-96407357D01*
X147604100Y-96192643D01*
X147570511Y-95980573D01*
X147511804Y-95799890D01*
X147504162Y-95776369D01*
X147504161Y-95776366D01*
X147406682Y-95585055D01*
X147392338Y-95565312D01*
X147280477Y-95411349D01*
X147128651Y-95259523D01*
X146954944Y-95133317D01*
X146954943Y-95133316D01*
X146951002Y-95130453D01*
X146952405Y-95128521D01*
X146912078Y-95084073D01*
X146900558Y-95015160D01*
X146928125Y-94950958D01*
X146951709Y-94930521D01*
X146951002Y-94929547D01*
X146954944Y-94926683D01*
X147128651Y-94800477D01*
X147280477Y-94648651D01*
X147406683Y-94474944D01*
X147504161Y-94283633D01*
X147570511Y-94079427D01*
X147599926Y-93893713D01*
X152399500Y-93893713D01*
X152399500Y-94106286D01*
X152427588Y-94283630D01*
X152432754Y-94316243D01*
X152484319Y-94474944D01*
X152498444Y-94518414D01*
X152594951Y-94707820D01*
X152719890Y-94879786D01*
X152870213Y-95030109D01*
X153042182Y-95155050D01*
X153050946Y-95159516D01*
X153101742Y-95207491D01*
X153118536Y-95275312D01*
X153095998Y-95341447D01*
X153050946Y-95380484D01*
X153042182Y-95384949D01*
X152870213Y-95509890D01*
X152719890Y-95660213D01*
X152594951Y-95832179D01*
X152498444Y-96021585D01*
X152432753Y-96223760D01*
X152399500Y-96433713D01*
X152399500Y-96646286D01*
X152427588Y-96823630D01*
X152432754Y-96856243D01*
X152484319Y-97014944D01*
X152498444Y-97058414D01*
X152594951Y-97247820D01*
X152719890Y-97419786D01*
X152833430Y-97533326D01*
X152866915Y-97594649D01*
X152861931Y-97664341D01*
X152820059Y-97720274D01*
X152789083Y-97737189D01*
X152657669Y-97786203D01*
X152657664Y-97786206D01*
X152542455Y-97872452D01*
X152542452Y-97872455D01*
X152456206Y-97987664D01*
X152456202Y-97987671D01*
X152405908Y-98122517D01*
X152400648Y-98171447D01*
X152399501Y-98182123D01*
X152399500Y-98182135D01*
X152399500Y-99977870D01*
X152399501Y-99977876D01*
X152405908Y-100037483D01*
X152456202Y-100172328D01*
X152456206Y-100172335D01*
X152542452Y-100287544D01*
X152542455Y-100287547D01*
X152657664Y-100373793D01*
X152657671Y-100373797D01*
X152792517Y-100424091D01*
X152792516Y-100424091D01*
X152799444Y-100424835D01*
X152852127Y-100430500D01*
X154647872Y-100430499D01*
X154707483Y-100424091D01*
X154842331Y-100373796D01*
X154957546Y-100287546D01*
X155043796Y-100172331D01*
X155094091Y-100037483D01*
X155100500Y-99977873D01*
X155100499Y-98182128D01*
X155094091Y-98122517D01*
X155092571Y-98118443D01*
X155043797Y-97987671D01*
X155043793Y-97987664D01*
X154957547Y-97872455D01*
X154957544Y-97872452D01*
X154842335Y-97786206D01*
X154842328Y-97786202D01*
X154710917Y-97737189D01*
X154654983Y-97695318D01*
X154630566Y-97629853D01*
X154645418Y-97561580D01*
X154666563Y-97533332D01*
X154780104Y-97419792D01*
X154790348Y-97405693D01*
X154905048Y-97247820D01*
X154905047Y-97247820D01*
X154905051Y-97247816D01*
X155001557Y-97058412D01*
X155067246Y-96856243D01*
X155100500Y-96646287D01*
X155100500Y-96433713D01*
X155067246Y-96223757D01*
X155001557Y-96021588D01*
X154905051Y-95832184D01*
X154905049Y-95832181D01*
X154905048Y-95832179D01*
X154780109Y-95660213D01*
X154629786Y-95509890D01*
X154457820Y-95384951D01*
X154457115Y-95384591D01*
X154449054Y-95380485D01*
X154398259Y-95332512D01*
X154381463Y-95264692D01*
X154403999Y-95198556D01*
X154449054Y-95159515D01*
X154457816Y-95155051D01*
X154479789Y-95139086D01*
X154629786Y-95030109D01*
X154629788Y-95030106D01*
X154629792Y-95030104D01*
X154780104Y-94879792D01*
X154780106Y-94879788D01*
X154780109Y-94879786D01*
X154905048Y-94707820D01*
X154905047Y-94707820D01*
X154905051Y-94707816D01*
X155001557Y-94518412D01*
X155067246Y-94316243D01*
X155100500Y-94106287D01*
X155100500Y-93893713D01*
X155067246Y-93683757D01*
X155001557Y-93481588D01*
X154905051Y-93292184D01*
X154905049Y-93292181D01*
X154905048Y-93292179D01*
X154780109Y-93120213D01*
X154629786Y-92969890D01*
X154457820Y-92844951D01*
X154268414Y-92748444D01*
X154268413Y-92748443D01*
X154268412Y-92748443D01*
X154066243Y-92682754D01*
X154066241Y-92682753D01*
X154066240Y-92682753D01*
X153904957Y-92657208D01*
X153856287Y-92649500D01*
X153643713Y-92649500D01*
X153595042Y-92657208D01*
X153433760Y-92682753D01*
X153231585Y-92748444D01*
X153042179Y-92844951D01*
X152870213Y-92969890D01*
X152719890Y-93120213D01*
X152594951Y-93292179D01*
X152498444Y-93481585D01*
X152432753Y-93683760D01*
X152399500Y-93893713D01*
X147599926Y-93893713D01*
X147604100Y-93867357D01*
X147604100Y-93652643D01*
X147570511Y-93440573D01*
X147537336Y-93338470D01*
X147504162Y-93236369D01*
X147504161Y-93236366D01*
X147444975Y-93120208D01*
X147406683Y-93045056D01*
X147280477Y-92871349D01*
X147183788Y-92774660D01*
X147150303Y-92713337D01*
X147155287Y-92643645D01*
X147197159Y-92587712D01*
X147228137Y-92570797D01*
X147345684Y-92526955D01*
X147345693Y-92526950D01*
X147460787Y-92440790D01*
X147460790Y-92440787D01*
X147546950Y-92325693D01*
X147546954Y-92325686D01*
X147597196Y-92190979D01*
X147597198Y-92190972D01*
X147603599Y-92131444D01*
X147603600Y-92131427D01*
X147603600Y-91979983D01*
X183372000Y-91979983D01*
X183372000Y-94180001D01*
X183372001Y-94180018D01*
X183382500Y-94282796D01*
X183382501Y-94282799D01*
X183420108Y-94396287D01*
X183437686Y-94449334D01*
X183529788Y-94598656D01*
X183653844Y-94722712D01*
X183803166Y-94814814D01*
X183969703Y-94869999D01*
X184072491Y-94880500D01*
X186272508Y-94880499D01*
X186375297Y-94869999D01*
X186541834Y-94814814D01*
X186691156Y-94722712D01*
X186815212Y-94598656D01*
X186907314Y-94449334D01*
X186962499Y-94282797D01*
X186973000Y-94180009D01*
X186972999Y-91979992D01*
X186962499Y-91877203D01*
X186907314Y-91710666D01*
X186815212Y-91561344D01*
X186691156Y-91437288D01*
X186541834Y-91345186D01*
X186375297Y-91290001D01*
X186375295Y-91290000D01*
X186272510Y-91279500D01*
X184072498Y-91279500D01*
X184072481Y-91279501D01*
X183969703Y-91290000D01*
X183969700Y-91290001D01*
X183803168Y-91345185D01*
X183803163Y-91345187D01*
X183653842Y-91437289D01*
X183529789Y-91561342D01*
X183437687Y-91710663D01*
X183437686Y-91710666D01*
X183382501Y-91877203D01*
X183382501Y-91877204D01*
X183382500Y-91877204D01*
X183372000Y-91979983D01*
X147603600Y-91979983D01*
X147603600Y-91470000D01*
X146682251Y-91470000D01*
X146713381Y-91416081D01*
X146748000Y-91286880D01*
X146748000Y-91153120D01*
X146713381Y-91023919D01*
X146682251Y-90970000D01*
X147603600Y-90970000D01*
X147603600Y-90308572D01*
X147603599Y-90308555D01*
X147597198Y-90249027D01*
X147597196Y-90249020D01*
X147546954Y-90114313D01*
X147546950Y-90114306D01*
X147460790Y-89999212D01*
X147460787Y-89999209D01*
X147345693Y-89913049D01*
X147345686Y-89913045D01*
X147228136Y-89869202D01*
X147172202Y-89827331D01*
X147147785Y-89761866D01*
X147162637Y-89693593D01*
X147183782Y-89665345D01*
X147280477Y-89568651D01*
X147406683Y-89394944D01*
X147504161Y-89203633D01*
X147570511Y-88999427D01*
X147604100Y-88787357D01*
X147604100Y-88572643D01*
X147570511Y-88360573D01*
X147504161Y-88156367D01*
X147504161Y-88156366D01*
X147406682Y-87965055D01*
X147346335Y-87881995D01*
X147280477Y-87791349D01*
X147128651Y-87639523D01*
X147077191Y-87602135D01*
X152399500Y-87602135D01*
X152399500Y-89397870D01*
X152399501Y-89397876D01*
X152405908Y-89457483D01*
X152456202Y-89592328D01*
X152456206Y-89592335D01*
X152542452Y-89707544D01*
X152542455Y-89707547D01*
X152657664Y-89793793D01*
X152657671Y-89793797D01*
X152792517Y-89844091D01*
X152792516Y-89844091D01*
X152799444Y-89844835D01*
X152852127Y-89850500D01*
X154647872Y-89850499D01*
X154707483Y-89844091D01*
X154842331Y-89793796D01*
X154957546Y-89707546D01*
X155043796Y-89592331D01*
X155094091Y-89457483D01*
X155100500Y-89397873D01*
X155100499Y-87881995D01*
X183372000Y-87881995D01*
X183372000Y-88118004D01*
X183372001Y-88118020D01*
X183402806Y-88352010D01*
X183463894Y-88579993D01*
X183554214Y-88798045D01*
X183554219Y-88798056D01*
X183625177Y-88920957D01*
X183672227Y-89002450D01*
X183672229Y-89002453D01*
X183672230Y-89002454D01*
X183815906Y-89189697D01*
X183815912Y-89189704D01*
X183982795Y-89356587D01*
X183982802Y-89356593D01*
X184092806Y-89441001D01*
X184170050Y-89500273D01*
X184288481Y-89568649D01*
X184374443Y-89618280D01*
X184374448Y-89618282D01*
X184374451Y-89618284D01*
X184592507Y-89708606D01*
X184820486Y-89769693D01*
X185054489Y-89800500D01*
X185054496Y-89800500D01*
X185290504Y-89800500D01*
X185290511Y-89800500D01*
X185524514Y-89769693D01*
X185752493Y-89708606D01*
X185970549Y-89618284D01*
X186174950Y-89500273D01*
X186362199Y-89356592D01*
X186529092Y-89189699D01*
X186672773Y-89002450D01*
X186790784Y-88798049D01*
X186881106Y-88579993D01*
X186942193Y-88352014D01*
X186973000Y-88118011D01*
X186973000Y-87881989D01*
X186942193Y-87647986D01*
X186881106Y-87420007D01*
X186792549Y-87206211D01*
X186790785Y-87201953D01*
X186790780Y-87201943D01*
X186745775Y-87123993D01*
X186672773Y-86997550D01*
X186529092Y-86810301D01*
X186529087Y-86810295D01*
X186362204Y-86643412D01*
X186362197Y-86643406D01*
X186174954Y-86499730D01*
X186174953Y-86499729D01*
X186174950Y-86499727D01*
X186093457Y-86452677D01*
X185970556Y-86381719D01*
X185970545Y-86381714D01*
X185752493Y-86291394D01*
X185524514Y-86230307D01*
X185524513Y-86230306D01*
X185524510Y-86230306D01*
X185290520Y-86199501D01*
X185290517Y-86199500D01*
X185290511Y-86199500D01*
X185054489Y-86199500D01*
X185054483Y-86199500D01*
X185054479Y-86199501D01*
X184820489Y-86230306D01*
X184592506Y-86291394D01*
X184374454Y-86381714D01*
X184374443Y-86381719D01*
X184170045Y-86499730D01*
X183982802Y-86643406D01*
X183982795Y-86643412D01*
X183815912Y-86810295D01*
X183815906Y-86810302D01*
X183672230Y-86997545D01*
X183554219Y-87201943D01*
X183554215Y-87201953D01*
X183463894Y-87420006D01*
X183402806Y-87647989D01*
X183372001Y-87881979D01*
X183372000Y-87881995D01*
X155100499Y-87881995D01*
X155100499Y-87602128D01*
X155094091Y-87542517D01*
X155075622Y-87493000D01*
X155043797Y-87407671D01*
X155043793Y-87407664D01*
X154957547Y-87292455D01*
X154957544Y-87292452D01*
X154842335Y-87206206D01*
X154842328Y-87206202D01*
X154707482Y-87155908D01*
X154707483Y-87155908D01*
X154647883Y-87149501D01*
X154647881Y-87149500D01*
X154647873Y-87149500D01*
X154647864Y-87149500D01*
X152852129Y-87149500D01*
X152852123Y-87149501D01*
X152792516Y-87155908D01*
X152657671Y-87206202D01*
X152657664Y-87206206D01*
X152542455Y-87292452D01*
X152542452Y-87292455D01*
X152456206Y-87407664D01*
X152456202Y-87407671D01*
X152405908Y-87542517D01*
X152399501Y-87602116D01*
X152399501Y-87602123D01*
X152399500Y-87602135D01*
X147077191Y-87602135D01*
X146954944Y-87513317D01*
X146763633Y-87415839D01*
X146763621Y-87415835D01*
X146747057Y-87410453D01*
X146689382Y-87371015D01*
X146662184Y-87306656D01*
X146674099Y-87237810D01*
X146721343Y-87186334D01*
X146729060Y-87182048D01*
X146842994Y-87123996D01*
X146989501Y-87017553D01*
X147117553Y-86889501D01*
X147223996Y-86742994D01*
X147306211Y-86581639D01*
X147362171Y-86409409D01*
X147380863Y-86291394D01*
X147390500Y-86230551D01*
X147390500Y-86049448D01*
X147374019Y-85945397D01*
X147362171Y-85870591D01*
X147306211Y-85698361D01*
X147306211Y-85698360D01*
X147277740Y-85642484D01*
X147223996Y-85537006D01*
X147210396Y-85518287D01*
X147117558Y-85390505D01*
X147117554Y-85390500D01*
X146989499Y-85262445D01*
X146989494Y-85262441D01*
X146842997Y-85156006D01*
X146842996Y-85156005D01*
X146842994Y-85156004D01*
X146791300Y-85129664D01*
X146681639Y-85073788D01*
X146681636Y-85073787D01*
X146509410Y-85017829D01*
X146330551Y-84989500D01*
X146330546Y-84989500D01*
X146149454Y-84989500D01*
X146149449Y-84989500D01*
X145970589Y-85017829D01*
X145798363Y-85073787D01*
X145798360Y-85073788D01*
X145637002Y-85156006D01*
X145490505Y-85262441D01*
X145490500Y-85262445D01*
X145362445Y-85390500D01*
X145362441Y-85390505D01*
X145256006Y-85537002D01*
X145173788Y-85698360D01*
X145173787Y-85698363D01*
X145117829Y-85870589D01*
X145089500Y-86049448D01*
X145089500Y-86230551D01*
X145117829Y-86409410D01*
X145173787Y-86581636D01*
X145173788Y-86581639D01*
X145256006Y-86742997D01*
X145362441Y-86889494D01*
X145362445Y-86889499D01*
X145490500Y-87017554D01*
X145490505Y-87017558D01*
X145603953Y-87099982D01*
X145637006Y-87123996D01*
X145750918Y-87182037D01*
X145801714Y-87230012D01*
X145818509Y-87297833D01*
X145795972Y-87363968D01*
X145741257Y-87407419D01*
X145732943Y-87410452D01*
X145716374Y-87415835D01*
X145716366Y-87415838D01*
X145525055Y-87513317D01*
X145425949Y-87585322D01*
X145351349Y-87639523D01*
X145351347Y-87639525D01*
X145351346Y-87639525D01*
X145199525Y-87791346D01*
X145199525Y-87791347D01*
X145199523Y-87791349D01*
X145145322Y-87865949D01*
X145073317Y-87965055D01*
X144975838Y-88156366D01*
X144975837Y-88156369D01*
X144909489Y-88360571D01*
X144894140Y-88457482D01*
X144875900Y-88572643D01*
X132364100Y-88572643D01*
X132330511Y-88360573D01*
X132264161Y-88156367D01*
X132264161Y-88156366D01*
X132166682Y-87965055D01*
X132106335Y-87881995D01*
X132040477Y-87791349D01*
X131888651Y-87639523D01*
X131714944Y-87513317D01*
X131523633Y-87415839D01*
X131523621Y-87415835D01*
X131507057Y-87410453D01*
X131449382Y-87371015D01*
X131422184Y-87306656D01*
X131434099Y-87237810D01*
X131481343Y-87186334D01*
X131489060Y-87182048D01*
X131602994Y-87123996D01*
X131749501Y-87017553D01*
X131877553Y-86889501D01*
X131983996Y-86742994D01*
X132066211Y-86581639D01*
X132122171Y-86409409D01*
X132140863Y-86291394D01*
X132150500Y-86230551D01*
X132150500Y-86049448D01*
X132134019Y-85945397D01*
X132122171Y-85870591D01*
X132066211Y-85698361D01*
X132066211Y-85698360D01*
X132037740Y-85642484D01*
X131983996Y-85537006D01*
X131970396Y-85518287D01*
X131877558Y-85390505D01*
X131877554Y-85390500D01*
X131749499Y-85262445D01*
X131749494Y-85262441D01*
X131602997Y-85156006D01*
X131602996Y-85156005D01*
X131602994Y-85156004D01*
X131551300Y-85129664D01*
X131441639Y-85073788D01*
X131441636Y-85073787D01*
X131269410Y-85017829D01*
X131090551Y-84989500D01*
X131090546Y-84989500D01*
X130909454Y-84989500D01*
X130909449Y-84989500D01*
X130730589Y-85017829D01*
X130558363Y-85073787D01*
X130558360Y-85073788D01*
X130397002Y-85156006D01*
X130250505Y-85262441D01*
X130250500Y-85262445D01*
X130122445Y-85390500D01*
X130122441Y-85390505D01*
X130016006Y-85537002D01*
X129933788Y-85698360D01*
X129933787Y-85698363D01*
X129877829Y-85870589D01*
X129849500Y-86049448D01*
X129849500Y-86230551D01*
X129877829Y-86409410D01*
X129933787Y-86581636D01*
X129933788Y-86581639D01*
X130016006Y-86742997D01*
X130122441Y-86889494D01*
X130122445Y-86889499D01*
X130250500Y-87017554D01*
X130250505Y-87017558D01*
X130363953Y-87099982D01*
X130397006Y-87123996D01*
X130510918Y-87182037D01*
X130561714Y-87230012D01*
X130578509Y-87297833D01*
X130555972Y-87363968D01*
X130501257Y-87407419D01*
X130492943Y-87410452D01*
X130476374Y-87415835D01*
X130476366Y-87415838D01*
X130285055Y-87513317D01*
X130185949Y-87585322D01*
X130111349Y-87639523D01*
X130111347Y-87639525D01*
X130111346Y-87639525D01*
X129959525Y-87791346D01*
X129959525Y-87791347D01*
X129959523Y-87791349D01*
X129905322Y-87865949D01*
X129833317Y-87965055D01*
X129735838Y-88156366D01*
X129735837Y-88156369D01*
X129669489Y-88360571D01*
X129654140Y-88457482D01*
X129635900Y-88572643D01*
X125551139Y-88572643D01*
X125569119Y-88524438D01*
X125594091Y-88457483D01*
X125594091Y-88457482D01*
X125600500Y-88397873D01*
X125600499Y-86602128D01*
X125594091Y-86542517D01*
X125578132Y-86499730D01*
X125543797Y-86407671D01*
X125543793Y-86407664D01*
X125457547Y-86292455D01*
X125457544Y-86292452D01*
X125342335Y-86206206D01*
X125342328Y-86206202D01*
X125207482Y-86155908D01*
X125207483Y-86155908D01*
X125147883Y-86149501D01*
X125147881Y-86149500D01*
X125147873Y-86149500D01*
X125147864Y-86149500D01*
X123352129Y-86149500D01*
X123352123Y-86149501D01*
X123292516Y-86155908D01*
X123157671Y-86206202D01*
X123157664Y-86206206D01*
X123042455Y-86292452D01*
X123042452Y-86292455D01*
X122956206Y-86407664D01*
X122956202Y-86407671D01*
X122905908Y-86542517D01*
X122899857Y-86598805D01*
X122899501Y-86602123D01*
X122899500Y-86602135D01*
X120850499Y-86602135D01*
X120850499Y-86602128D01*
X120844091Y-86542517D01*
X120828132Y-86499730D01*
X120793797Y-86407671D01*
X120793793Y-86407664D01*
X120707547Y-86292455D01*
X120707544Y-86292452D01*
X120592335Y-86206206D01*
X120592328Y-86206202D01*
X120457482Y-86155908D01*
X120457483Y-86155908D01*
X120397883Y-86149501D01*
X120397881Y-86149500D01*
X120397873Y-86149500D01*
X120397864Y-86149500D01*
X118602129Y-86149500D01*
X118602123Y-86149501D01*
X118542516Y-86155908D01*
X118407671Y-86206202D01*
X118407664Y-86206206D01*
X118292455Y-86292452D01*
X118292452Y-86292455D01*
X118206206Y-86407664D01*
X118206202Y-86407671D01*
X118155908Y-86542517D01*
X118149857Y-86598805D01*
X118149501Y-86602123D01*
X118149500Y-86602135D01*
X105450500Y-86602135D01*
X105450499Y-85870591D01*
X105450499Y-85039629D01*
X105450498Y-85039623D01*
X105450497Y-85039616D01*
X105444091Y-84980017D01*
X105393796Y-84845169D01*
X105393795Y-84845168D01*
X105393793Y-84845164D01*
X105307547Y-84729955D01*
X105307544Y-84729952D01*
X105192335Y-84643706D01*
X105192328Y-84643702D01*
X105164459Y-84633308D01*
X105108525Y-84591437D01*
X105084108Y-84525973D01*
X105098960Y-84457700D01*
X105107460Y-84444260D01*
X105240217Y-84261538D01*
X105344048Y-84057758D01*
X105411390Y-83850500D01*
X105414721Y-83840249D01*
X105414721Y-83840248D01*
X105414722Y-83840245D01*
X105450500Y-83614354D01*
X105450500Y-83385646D01*
X105414722Y-83159755D01*
X105414721Y-83159751D01*
X105414721Y-83159750D01*
X105344049Y-82942244D01*
X105244973Y-82747797D01*
X105240217Y-82738462D01*
X105105786Y-82553434D01*
X104944066Y-82391714D01*
X104859134Y-82330007D01*
X104816470Y-82274678D01*
X104810491Y-82205064D01*
X104843097Y-82143269D01*
X104859137Y-82129371D01*
X104943739Y-82067905D01*
X105105402Y-81906242D01*
X105239788Y-81721276D01*
X105343582Y-81517570D01*
X105414234Y-81300128D01*
X105428509Y-81210000D01*
X104440748Y-81210000D01*
X104462518Y-81172292D01*
X104500000Y-81032409D01*
X104500000Y-81015513D01*
X135449500Y-81015513D01*
X135449500Y-81204486D01*
X135479059Y-81391118D01*
X135537454Y-81570836D01*
X135614108Y-81721276D01*
X135623240Y-81739199D01*
X135734310Y-81892073D01*
X135867927Y-82025690D01*
X136020801Y-82136760D01*
X136100347Y-82177290D01*
X136189163Y-82222545D01*
X136189165Y-82222545D01*
X136189168Y-82222547D01*
X136285497Y-82253846D01*
X136368881Y-82280940D01*
X136555514Y-82310500D01*
X136555519Y-82310500D01*
X136744486Y-82310500D01*
X136931118Y-82280940D01*
X136950390Y-82274678D01*
X137110832Y-82222547D01*
X137279199Y-82136760D01*
X137432073Y-82025690D01*
X137565690Y-81892073D01*
X137676760Y-81739199D01*
X137762547Y-81570832D01*
X137820940Y-81391118D01*
X137829142Y-81339331D01*
X137850500Y-81204486D01*
X137850500Y-81015513D01*
X139199500Y-81015513D01*
X139199500Y-81204486D01*
X139229059Y-81391118D01*
X139287454Y-81570836D01*
X139364108Y-81721276D01*
X139373240Y-81739199D01*
X139484310Y-81892073D01*
X139617927Y-82025690D01*
X139770801Y-82136760D01*
X139850347Y-82177290D01*
X139939163Y-82222545D01*
X139939165Y-82222545D01*
X139939168Y-82222547D01*
X140035497Y-82253846D01*
X140118881Y-82280940D01*
X140305514Y-82310500D01*
X140305519Y-82310500D01*
X140494486Y-82310500D01*
X140681118Y-82280940D01*
X140700390Y-82274678D01*
X140860832Y-82222547D01*
X141029199Y-82136760D01*
X141182073Y-82025690D01*
X141315690Y-81892073D01*
X141426760Y-81739199D01*
X141491402Y-81612332D01*
X157549500Y-81612332D01*
X157549500Y-81887667D01*
X157549501Y-81887684D01*
X157585438Y-82160655D01*
X157585439Y-82160660D01*
X157585440Y-82160666D01*
X157602021Y-82222547D01*
X157656704Y-82426630D01*
X157762075Y-82681017D01*
X157762080Y-82681028D01*
X157800630Y-82747797D01*
X157899751Y-82919479D01*
X157899753Y-82919482D01*
X157899754Y-82919483D01*
X158067370Y-83137926D01*
X158067376Y-83137933D01*
X158262066Y-83332623D01*
X158262073Y-83332629D01*
X158278846Y-83345499D01*
X158480521Y-83500249D01*
X158599007Y-83568657D01*
X158718971Y-83637919D01*
X158718976Y-83637921D01*
X158718979Y-83637923D01*
X158973368Y-83743295D01*
X159239334Y-83814560D01*
X159512326Y-83850500D01*
X159512333Y-83850500D01*
X159787667Y-83850500D01*
X159787674Y-83850500D01*
X160060666Y-83814560D01*
X160326632Y-83743295D01*
X160581021Y-83637923D01*
X160819479Y-83500249D01*
X161037928Y-83332628D01*
X161232628Y-83137928D01*
X161400249Y-82919479D01*
X161537923Y-82681021D01*
X161643295Y-82426632D01*
X161714560Y-82160666D01*
X161750500Y-81887674D01*
X161750500Y-81612326D01*
X161714560Y-81339334D01*
X161643295Y-81073368D01*
X161537923Y-80818979D01*
X161537921Y-80818976D01*
X161537919Y-80818971D01*
X161439882Y-80649168D01*
X161400249Y-80580521D01*
X161296259Y-80444998D01*
X161278858Y-80422320D01*
X161232629Y-80362073D01*
X161232623Y-80362066D01*
X161220540Y-80349983D01*
X170249500Y-80349983D01*
X170249500Y-83150001D01*
X170249501Y-83150018D01*
X170260000Y-83252796D01*
X170260001Y-83252799D01*
X170304023Y-83385646D01*
X170315186Y-83419334D01*
X170407288Y-83568656D01*
X170531344Y-83692712D01*
X170680666Y-83784814D01*
X170847203Y-83839999D01*
X170949991Y-83850500D01*
X173750008Y-83850499D01*
X173852797Y-83839999D01*
X174019334Y-83784814D01*
X174168656Y-83692712D01*
X174292712Y-83568656D01*
X174384814Y-83419334D01*
X174439999Y-83252797D01*
X174450500Y-83150009D01*
X174450499Y-80444983D01*
X183372000Y-80444983D01*
X183372000Y-82645001D01*
X183372001Y-82645018D01*
X183382500Y-82747796D01*
X183382501Y-82747799D01*
X183437685Y-82914331D01*
X183437686Y-82914334D01*
X183529788Y-83063656D01*
X183653844Y-83187712D01*
X183803166Y-83279814D01*
X183969703Y-83334999D01*
X184072491Y-83345500D01*
X186272508Y-83345499D01*
X186375297Y-83334999D01*
X186541834Y-83279814D01*
X186691156Y-83187712D01*
X186815212Y-83063656D01*
X186907314Y-82914334D01*
X186962499Y-82747797D01*
X186973000Y-82645009D01*
X186972999Y-80444992D01*
X186962499Y-80342203D01*
X186907314Y-80175666D01*
X186815212Y-80026344D01*
X186691156Y-79902288D01*
X186541834Y-79810186D01*
X186375297Y-79755001D01*
X186375295Y-79755000D01*
X186272510Y-79744500D01*
X184072498Y-79744500D01*
X184072481Y-79744501D01*
X183969703Y-79755000D01*
X183969700Y-79755001D01*
X183803168Y-79810185D01*
X183803163Y-79810187D01*
X183653842Y-79902289D01*
X183529789Y-80026342D01*
X183437687Y-80175663D01*
X183437685Y-80175668D01*
X183413982Y-80247200D01*
X183382501Y-80342203D01*
X183382501Y-80342204D01*
X183382500Y-80342204D01*
X183372000Y-80444983D01*
X174450499Y-80444983D01*
X174450499Y-80349992D01*
X174449703Y-80342204D01*
X174439999Y-80247203D01*
X174439998Y-80247200D01*
X174423934Y-80198723D01*
X174384814Y-80080666D01*
X174292712Y-79931344D01*
X174168656Y-79807288D01*
X174075888Y-79750069D01*
X174019336Y-79715187D01*
X174019331Y-79715185D01*
X174017862Y-79714698D01*
X173852797Y-79660001D01*
X173852795Y-79660000D01*
X173750010Y-79649500D01*
X170949998Y-79649500D01*
X170949981Y-79649501D01*
X170847203Y-79660000D01*
X170847200Y-79660001D01*
X170680668Y-79715185D01*
X170680663Y-79715187D01*
X170531342Y-79807289D01*
X170407289Y-79931342D01*
X170315187Y-80080663D01*
X170315186Y-80080666D01*
X170260001Y-80247203D01*
X170260001Y-80247204D01*
X170260000Y-80247204D01*
X170249500Y-80349983D01*
X161220540Y-80349983D01*
X161037933Y-80167376D01*
X161037926Y-80167370D01*
X160819483Y-79999754D01*
X160819482Y-79999753D01*
X160819479Y-79999751D01*
X160700995Y-79931344D01*
X160581028Y-79862080D01*
X160581017Y-79862075D01*
X160326630Y-79756704D01*
X160193649Y-79721072D01*
X160060666Y-79685440D01*
X160060660Y-79685439D01*
X160060655Y-79685438D01*
X159787684Y-79649501D01*
X159787679Y-79649500D01*
X159787674Y-79649500D01*
X159512326Y-79649500D01*
X159512320Y-79649500D01*
X159512315Y-79649501D01*
X159239344Y-79685438D01*
X159239337Y-79685439D01*
X159239334Y-79685440D01*
X159183125Y-79700500D01*
X158973369Y-79756704D01*
X158718982Y-79862075D01*
X158718971Y-79862080D01*
X158480516Y-79999754D01*
X158262073Y-80167370D01*
X158262066Y-80167376D01*
X158067376Y-80362066D01*
X158067370Y-80362073D01*
X157899754Y-80580516D01*
X157762080Y-80818971D01*
X157762075Y-80818982D01*
X157656704Y-81073369D01*
X157585441Y-81339331D01*
X157585438Y-81339344D01*
X157549501Y-81612315D01*
X157549500Y-81612332D01*
X141491402Y-81612332D01*
X141512547Y-81570832D01*
X141570940Y-81391118D01*
X141579142Y-81339331D01*
X141600500Y-81204486D01*
X141600500Y-81015513D01*
X141570940Y-80828881D01*
X141512545Y-80649163D01*
X141426759Y-80480800D01*
X141400742Y-80444991D01*
X141315690Y-80327927D01*
X141182073Y-80194310D01*
X141029199Y-80083240D01*
X141024141Y-80080663D01*
X140860836Y-79997454D01*
X140681118Y-79939059D01*
X140494486Y-79909500D01*
X140494481Y-79909500D01*
X140305519Y-79909500D01*
X140305514Y-79909500D01*
X140118881Y-79939059D01*
X139939163Y-79997454D01*
X139770800Y-80083240D01*
X139683579Y-80146610D01*
X139617927Y-80194310D01*
X139617925Y-80194312D01*
X139617924Y-80194312D01*
X139484312Y-80327924D01*
X139484312Y-80327925D01*
X139484310Y-80327927D01*
X139436610Y-80393579D01*
X139373240Y-80480800D01*
X139287454Y-80649163D01*
X139229059Y-80828881D01*
X139199500Y-81015513D01*
X137850500Y-81015513D01*
X137820940Y-80828881D01*
X137762545Y-80649163D01*
X137676759Y-80480800D01*
X137650742Y-80444991D01*
X137565690Y-80327927D01*
X137432073Y-80194310D01*
X137279199Y-80083240D01*
X137274141Y-80080663D01*
X137110836Y-79997454D01*
X136931118Y-79939059D01*
X136744486Y-79909500D01*
X136744481Y-79909500D01*
X136555519Y-79909500D01*
X136555514Y-79909500D01*
X136368881Y-79939059D01*
X136189163Y-79997454D01*
X136020800Y-80083240D01*
X135933579Y-80146610D01*
X135867927Y-80194310D01*
X135867925Y-80194312D01*
X135867924Y-80194312D01*
X135734312Y-80327924D01*
X135734312Y-80327925D01*
X135734310Y-80327927D01*
X135686610Y-80393579D01*
X135623240Y-80480800D01*
X135537454Y-80649163D01*
X135479059Y-80828881D01*
X135449500Y-81015513D01*
X104500000Y-81015513D01*
X104500000Y-80887591D01*
X104462518Y-80747708D01*
X104440748Y-80710000D01*
X105428509Y-80710000D01*
X105414234Y-80619871D01*
X105343582Y-80402429D01*
X105239788Y-80198723D01*
X105105402Y-80013757D01*
X104943742Y-79852097D01*
X104758776Y-79717711D01*
X104555068Y-79613917D01*
X104337625Y-79543265D01*
X104337626Y-79543265D01*
X104200000Y-79521467D01*
X104200000Y-80469252D01*
X104162292Y-80447482D01*
X104022409Y-80410000D01*
X103877591Y-80410000D01*
X103737708Y-80447482D01*
X103700000Y-80469252D01*
X103700000Y-79521467D01*
X103562374Y-79543265D01*
X103344931Y-79613917D01*
X103141223Y-79717711D01*
X102956257Y-79852097D01*
X102794597Y-80013757D01*
X102660211Y-80198723D01*
X102556417Y-80402429D01*
X102485765Y-80619871D01*
X102471491Y-80710000D01*
X103459252Y-80710000D01*
X103437482Y-80747708D01*
X103400000Y-80887591D01*
X103400000Y-81032409D01*
X103437482Y-81172292D01*
X103459252Y-81210000D01*
X102471491Y-81210000D01*
X102485765Y-81300128D01*
X102556417Y-81517570D01*
X102660211Y-81721276D01*
X102794597Y-81906242D01*
X102956257Y-82067902D01*
X102956263Y-82067907D01*
X103040863Y-82129372D01*
X103083529Y-82184701D01*
X103089508Y-82254315D01*
X103056903Y-82316110D01*
X103040864Y-82330007D01*
X102955940Y-82391709D01*
X102955931Y-82391716D01*
X102794216Y-82553431D01*
X102794216Y-82553432D01*
X102794214Y-82553434D01*
X102736480Y-82632896D01*
X102659783Y-82738461D01*
X102555950Y-82942244D01*
X102485278Y-83159750D01*
X102485278Y-83159753D01*
X102449500Y-83385646D01*
X94500500Y-83385646D01*
X94500500Y-76346995D01*
X183372000Y-76346995D01*
X183372000Y-76583004D01*
X183372001Y-76583020D01*
X183402806Y-76817010D01*
X183463894Y-77044993D01*
X183554214Y-77263045D01*
X183554219Y-77263056D01*
X183625177Y-77385957D01*
X183672227Y-77467450D01*
X183672229Y-77467453D01*
X183672230Y-77467454D01*
X183815906Y-77654697D01*
X183815912Y-77654704D01*
X183982795Y-77821587D01*
X183982801Y-77821592D01*
X184170050Y-77965273D01*
X184301418Y-78041118D01*
X184374443Y-78083280D01*
X184374448Y-78083282D01*
X184374451Y-78083284D01*
X184592507Y-78173606D01*
X184820486Y-78234693D01*
X185054489Y-78265500D01*
X185054496Y-78265500D01*
X185290504Y-78265500D01*
X185290511Y-78265500D01*
X185524514Y-78234693D01*
X185752493Y-78173606D01*
X185970549Y-78083284D01*
X186174950Y-77965273D01*
X186362199Y-77821592D01*
X186529092Y-77654699D01*
X186672773Y-77467450D01*
X186790784Y-77263049D01*
X186881106Y-77044993D01*
X186942193Y-76817014D01*
X186973000Y-76583011D01*
X186973000Y-76346989D01*
X186942193Y-76112986D01*
X186881106Y-75885007D01*
X186790784Y-75666951D01*
X186790782Y-75666948D01*
X186790780Y-75666943D01*
X186748618Y-75593918D01*
X186672773Y-75462550D01*
X186529092Y-75275301D01*
X186529087Y-75275295D01*
X186362204Y-75108412D01*
X186362197Y-75108406D01*
X186174954Y-74964730D01*
X186174953Y-74964729D01*
X186174950Y-74964727D01*
X186093457Y-74917677D01*
X185970556Y-74846719D01*
X185970545Y-74846714D01*
X185752493Y-74756394D01*
X185524510Y-74695306D01*
X185290520Y-74664501D01*
X185290517Y-74664500D01*
X185290511Y-74664500D01*
X185054489Y-74664500D01*
X185054483Y-74664500D01*
X185054479Y-74664501D01*
X184820489Y-74695306D01*
X184592506Y-74756394D01*
X184374454Y-74846714D01*
X184374443Y-74846719D01*
X184170045Y-74964730D01*
X183982802Y-75108406D01*
X183982795Y-75108412D01*
X183815912Y-75275295D01*
X183815906Y-75275302D01*
X183672230Y-75462545D01*
X183554219Y-75666943D01*
X183554214Y-75666954D01*
X183463894Y-75885006D01*
X183402806Y-76112989D01*
X183372001Y-76346979D01*
X183372000Y-76346995D01*
X94500500Y-76346995D01*
X94500500Y-73395513D01*
X135449500Y-73395513D01*
X135449500Y-73584486D01*
X135479059Y-73771118D01*
X135537454Y-73950836D01*
X135623240Y-74119199D01*
X135734310Y-74272073D01*
X135867927Y-74405690D01*
X136020801Y-74516760D01*
X136100347Y-74557290D01*
X136189163Y-74602545D01*
X136189165Y-74602545D01*
X136189168Y-74602547D01*
X136285497Y-74633846D01*
X136368881Y-74660940D01*
X136555514Y-74690500D01*
X136555519Y-74690500D01*
X136744486Y-74690500D01*
X136931118Y-74660940D01*
X137110832Y-74602547D01*
X137279199Y-74516760D01*
X137432073Y-74405690D01*
X137565690Y-74272073D01*
X137676760Y-74119199D01*
X137762547Y-73950832D01*
X137820940Y-73771118D01*
X137850500Y-73584486D01*
X137850500Y-73395513D01*
X139199500Y-73395513D01*
X139199500Y-73584486D01*
X139229059Y-73771118D01*
X139287454Y-73950836D01*
X139373240Y-74119199D01*
X139484310Y-74272073D01*
X139617927Y-74405690D01*
X139770801Y-74516760D01*
X139850347Y-74557290D01*
X139939163Y-74602545D01*
X139939165Y-74602545D01*
X139939168Y-74602547D01*
X140035497Y-74633846D01*
X140118881Y-74660940D01*
X140305514Y-74690500D01*
X140305519Y-74690500D01*
X140494486Y-74690500D01*
X140681118Y-74660940D01*
X140860832Y-74602547D01*
X141029199Y-74516760D01*
X141182073Y-74405690D01*
X141315690Y-74272073D01*
X141426760Y-74119199D01*
X141512547Y-73950832D01*
X141570940Y-73771118D01*
X141600500Y-73584486D01*
X141600500Y-73395513D01*
X141570940Y-73208881D01*
X141524047Y-73064561D01*
X141512547Y-73029168D01*
X141512545Y-73029165D01*
X141512545Y-73029163D01*
X141467290Y-72940347D01*
X141426760Y-72860801D01*
X141315690Y-72707927D01*
X141182073Y-72574310D01*
X141029199Y-72463240D01*
X140860836Y-72377454D01*
X140681118Y-72319059D01*
X140494486Y-72289500D01*
X140494481Y-72289500D01*
X140305519Y-72289500D01*
X140305514Y-72289500D01*
X140118881Y-72319059D01*
X139939163Y-72377454D01*
X139770800Y-72463240D01*
X139716353Y-72502799D01*
X139617927Y-72574310D01*
X139617925Y-72574312D01*
X139617924Y-72574312D01*
X139484312Y-72707924D01*
X139484312Y-72707925D01*
X139484310Y-72707927D01*
X139453564Y-72750245D01*
X139373240Y-72860800D01*
X139287454Y-73029163D01*
X139229059Y-73208881D01*
X139199500Y-73395513D01*
X137850500Y-73395513D01*
X137820940Y-73208881D01*
X137774047Y-73064561D01*
X137762547Y-73029168D01*
X137762545Y-73029165D01*
X137762545Y-73029163D01*
X137717290Y-72940347D01*
X137676760Y-72860801D01*
X137565690Y-72707927D01*
X137432073Y-72574310D01*
X137279199Y-72463240D01*
X137110836Y-72377454D01*
X136931118Y-72319059D01*
X136744486Y-72289500D01*
X136744481Y-72289500D01*
X136555519Y-72289500D01*
X136555514Y-72289500D01*
X136368881Y-72319059D01*
X136189163Y-72377454D01*
X136020800Y-72463240D01*
X135966353Y-72502799D01*
X135867927Y-72574310D01*
X135867925Y-72574312D01*
X135867924Y-72574312D01*
X135734312Y-72707924D01*
X135734312Y-72707925D01*
X135734310Y-72707927D01*
X135703564Y-72750245D01*
X135623240Y-72860800D01*
X135537454Y-73029163D01*
X135479059Y-73208881D01*
X135449500Y-73395513D01*
X94500500Y-73395513D01*
X94500500Y-70862332D01*
X157549500Y-70862332D01*
X157549500Y-71137667D01*
X157549501Y-71137684D01*
X157585438Y-71410655D01*
X157585439Y-71410660D01*
X157585440Y-71410666D01*
X157585441Y-71410668D01*
X157656704Y-71676630D01*
X157762075Y-71931017D01*
X157762080Y-71931028D01*
X157844861Y-72074407D01*
X157899751Y-72169479D01*
X157899753Y-72169482D01*
X157899754Y-72169483D01*
X158067370Y-72387926D01*
X158067376Y-72387933D01*
X158262066Y-72582623D01*
X158262072Y-72582628D01*
X158480521Y-72750249D01*
X158599007Y-72818657D01*
X158718971Y-72887919D01*
X158718976Y-72887921D01*
X158718979Y-72887923D01*
X158973368Y-72993295D01*
X159239334Y-73064560D01*
X159512326Y-73100500D01*
X159512333Y-73100500D01*
X159787667Y-73100500D01*
X159787674Y-73100500D01*
X160060666Y-73064560D01*
X160326632Y-72993295D01*
X160581021Y-72887923D01*
X160819479Y-72750249D01*
X161037928Y-72582628D01*
X161232628Y-72387928D01*
X161400249Y-72169479D01*
X161537923Y-71931021D01*
X161643295Y-71676632D01*
X161714560Y-71410666D01*
X161750500Y-71137674D01*
X161750500Y-70862326D01*
X161714560Y-70589334D01*
X161643295Y-70323368D01*
X161537923Y-70068979D01*
X161537921Y-70068976D01*
X161537919Y-70068971D01*
X161488732Y-69983778D01*
X161400249Y-69830521D01*
X161232628Y-69612072D01*
X161232623Y-69612066D01*
X161220540Y-69599983D01*
X170249500Y-69599983D01*
X170249500Y-72400001D01*
X170249501Y-72400018D01*
X170260000Y-72502796D01*
X170260001Y-72502799D01*
X170315185Y-72669331D01*
X170315186Y-72669334D01*
X170407288Y-72818656D01*
X170531344Y-72942712D01*
X170680666Y-73034814D01*
X170847203Y-73089999D01*
X170949991Y-73100500D01*
X173750008Y-73100499D01*
X173852797Y-73089999D01*
X174019334Y-73034814D01*
X174168656Y-72942712D01*
X174292712Y-72818656D01*
X174384814Y-72669334D01*
X174439999Y-72502797D01*
X174450500Y-72400009D01*
X174450499Y-69599992D01*
X174439999Y-69497203D01*
X174384814Y-69330666D01*
X174292712Y-69181344D01*
X174168656Y-69057288D01*
X174019334Y-68965186D01*
X173852797Y-68910001D01*
X173852795Y-68910000D01*
X173750010Y-68899500D01*
X170949998Y-68899500D01*
X170949981Y-68899501D01*
X170847203Y-68910000D01*
X170847200Y-68910001D01*
X170680668Y-68965185D01*
X170680663Y-68965187D01*
X170531342Y-69057289D01*
X170407289Y-69181342D01*
X170315187Y-69330663D01*
X170315186Y-69330666D01*
X170260001Y-69497203D01*
X170260001Y-69497204D01*
X170260000Y-69497204D01*
X170249500Y-69599983D01*
X161220540Y-69599983D01*
X161037933Y-69417376D01*
X161037926Y-69417370D01*
X160819483Y-69249754D01*
X160819482Y-69249753D01*
X160819479Y-69249751D01*
X160700995Y-69181344D01*
X160581028Y-69112080D01*
X160581017Y-69112075D01*
X160326630Y-69006704D01*
X160171676Y-68965185D01*
X160060666Y-68935440D01*
X160060660Y-68935439D01*
X160060655Y-68935438D01*
X159787684Y-68899501D01*
X159787679Y-68899500D01*
X159787674Y-68899500D01*
X159512326Y-68899500D01*
X159512320Y-68899500D01*
X159512315Y-68899501D01*
X159239344Y-68935438D01*
X159239337Y-68935439D01*
X159239334Y-68935440D01*
X159183125Y-68950500D01*
X158973369Y-69006704D01*
X158718982Y-69112075D01*
X158718971Y-69112080D01*
X158480516Y-69249754D01*
X158262073Y-69417370D01*
X158262066Y-69417376D01*
X158067376Y-69612066D01*
X158067370Y-69612073D01*
X157899754Y-69830516D01*
X157762080Y-70068971D01*
X157762075Y-70068982D01*
X157656704Y-70323369D01*
X157585441Y-70589331D01*
X157585438Y-70589344D01*
X157549501Y-70862315D01*
X157549500Y-70862332D01*
X94500500Y-70862332D01*
X94500500Y-65882014D01*
X116620000Y-65882014D01*
X116620000Y-66117985D01*
X116650799Y-66351914D01*
X116711870Y-66579837D01*
X116802160Y-66797819D01*
X116802165Y-66797828D01*
X116920144Y-67002171D01*
X116920145Y-67002172D01*
X116982721Y-67083723D01*
X117818958Y-66247487D01*
X117843978Y-66307890D01*
X117915112Y-66414351D01*
X118005649Y-66504888D01*
X118112110Y-66576022D01*
X118172511Y-66601041D01*
X117336275Y-67437277D01*
X117417827Y-67499854D01*
X117417828Y-67499855D01*
X117622171Y-67617834D01*
X117622180Y-67617839D01*
X117840163Y-67708129D01*
X117840161Y-67708129D01*
X118068085Y-67769200D01*
X118302014Y-67799999D01*
X118302029Y-67800000D01*
X118537971Y-67800000D01*
X118537985Y-67799999D01*
X118771914Y-67769200D01*
X118999837Y-67708129D01*
X119217819Y-67617839D01*
X119217828Y-67617834D01*
X119422181Y-67499850D01*
X119503723Y-67437279D01*
X119503723Y-67437276D01*
X118667487Y-66601041D01*
X118727890Y-66576022D01*
X118834351Y-66504888D01*
X118924888Y-66414351D01*
X118996022Y-66307890D01*
X119021041Y-66247487D01*
X119857276Y-67083723D01*
X119857279Y-67083723D01*
X119919850Y-67002181D01*
X120037834Y-66797828D01*
X120037839Y-66797819D01*
X120128129Y-66579837D01*
X120189200Y-66351914D01*
X120219999Y-66117985D01*
X120220000Y-66117971D01*
X120220000Y-65882028D01*
X120219999Y-65882014D01*
X120189200Y-65648085D01*
X120128129Y-65420162D01*
X120037839Y-65202180D01*
X120037834Y-65202171D01*
X119919855Y-64997828D01*
X119919848Y-64997817D01*
X119900286Y-64972324D01*
X119900283Y-64972321D01*
X119857277Y-64916275D01*
X119021041Y-65752511D01*
X118996022Y-65692110D01*
X118924888Y-65585649D01*
X118834351Y-65495112D01*
X118727890Y-65423978D01*
X118667488Y-65398958D01*
X119166462Y-64899983D01*
X121699500Y-64899983D01*
X121699500Y-67100001D01*
X121699501Y-67100018D01*
X121710000Y-67202796D01*
X121710001Y-67202799D01*
X121752043Y-67329671D01*
X121765186Y-67369334D01*
X121857288Y-67518656D01*
X121981344Y-67642712D01*
X122130666Y-67734814D01*
X122297203Y-67789999D01*
X122399991Y-67800500D01*
X124600008Y-67800499D01*
X124702797Y-67789999D01*
X124869334Y-67734814D01*
X125018656Y-67642712D01*
X125142712Y-67518656D01*
X125234814Y-67369334D01*
X125289999Y-67202797D01*
X125300500Y-67100009D01*
X125300499Y-66209514D01*
X133165000Y-66209514D01*
X133165000Y-66445485D01*
X133195799Y-66679414D01*
X133256870Y-66907337D01*
X133347160Y-67125319D01*
X133347165Y-67125328D01*
X133465144Y-67329671D01*
X133465145Y-67329672D01*
X133527721Y-67411223D01*
X134363958Y-66574987D01*
X134388978Y-66635390D01*
X134460112Y-66741851D01*
X134550649Y-66832388D01*
X134657110Y-66903522D01*
X134717511Y-66928541D01*
X133881275Y-67764777D01*
X133962827Y-67827354D01*
X133962828Y-67827355D01*
X134167171Y-67945334D01*
X134167180Y-67945339D01*
X134385163Y-68035629D01*
X134385161Y-68035629D01*
X134613085Y-68096700D01*
X134847014Y-68127499D01*
X134847029Y-68127500D01*
X135082971Y-68127500D01*
X135082985Y-68127499D01*
X135316914Y-68096700D01*
X135544837Y-68035629D01*
X135762819Y-67945339D01*
X135762828Y-67945334D01*
X135967181Y-67827350D01*
X136048723Y-67764779D01*
X136048723Y-67764776D01*
X135212487Y-66928541D01*
X135272890Y-66903522D01*
X135379351Y-66832388D01*
X135469888Y-66741851D01*
X135541022Y-66635390D01*
X135566041Y-66574988D01*
X136402276Y-67411223D01*
X136402279Y-67411223D01*
X136464850Y-67329681D01*
X136582834Y-67125328D01*
X136582839Y-67125319D01*
X136673129Y-66907337D01*
X136734200Y-66679414D01*
X136764999Y-66445485D01*
X136765000Y-66445471D01*
X136765000Y-66209528D01*
X136764999Y-66209514D01*
X136734200Y-65975585D01*
X136673129Y-65747662D01*
X136582839Y-65529680D01*
X136582834Y-65529671D01*
X136464855Y-65325328D01*
X136464848Y-65325317D01*
X136445286Y-65299824D01*
X136445283Y-65299821D01*
X136402277Y-65243775D01*
X135566041Y-66080011D01*
X135541022Y-66019610D01*
X135469888Y-65913149D01*
X135379351Y-65822612D01*
X135272890Y-65751478D01*
X135212488Y-65726458D01*
X135711462Y-65227483D01*
X138244500Y-65227483D01*
X138244500Y-67427501D01*
X138244501Y-67427518D01*
X138255000Y-67530296D01*
X138255001Y-67530299D01*
X138310185Y-67696831D01*
X138310186Y-67696834D01*
X138402288Y-67846156D01*
X138526344Y-67970212D01*
X138675666Y-68062314D01*
X138842203Y-68117499D01*
X138944991Y-68128000D01*
X141145008Y-68127999D01*
X141247797Y-68117499D01*
X141414334Y-68062314D01*
X141563656Y-67970212D01*
X141687712Y-67846156D01*
X141779814Y-67696834D01*
X141834999Y-67530297D01*
X141845500Y-67427509D01*
X141845499Y-65227492D01*
X141842912Y-65202171D01*
X141834999Y-65124703D01*
X141834998Y-65124700D01*
X141779814Y-64958166D01*
X141687712Y-64808844D01*
X141563656Y-64684788D01*
X141414334Y-64592686D01*
X141247797Y-64537501D01*
X141247795Y-64537500D01*
X141145010Y-64527000D01*
X138944998Y-64527000D01*
X138944981Y-64527001D01*
X138842203Y-64537500D01*
X138842200Y-64537501D01*
X138675668Y-64592685D01*
X138675663Y-64592687D01*
X138526342Y-64684789D01*
X138402289Y-64808842D01*
X138310187Y-64958163D01*
X138310185Y-64958168D01*
X138297043Y-64997828D01*
X138255001Y-65124703D01*
X138255001Y-65124704D01*
X138255000Y-65124704D01*
X138244500Y-65227483D01*
X135711462Y-65227483D01*
X136048723Y-64890221D01*
X135967172Y-64827645D01*
X135967171Y-64827644D01*
X135762828Y-64709665D01*
X135762819Y-64709660D01*
X135544836Y-64619370D01*
X135544838Y-64619370D01*
X135316914Y-64558299D01*
X135082985Y-64527500D01*
X134847014Y-64527500D01*
X134613085Y-64558299D01*
X134385162Y-64619370D01*
X134167180Y-64709660D01*
X134167171Y-64709665D01*
X133962828Y-64827644D01*
X133962818Y-64827650D01*
X133881275Y-64890220D01*
X133881275Y-64890221D01*
X134717512Y-65726458D01*
X134657110Y-65751478D01*
X134550649Y-65822612D01*
X134460112Y-65913149D01*
X134388978Y-66019610D01*
X134363958Y-66080011D01*
X133527721Y-65243775D01*
X133527720Y-65243775D01*
X133465150Y-65325318D01*
X133465144Y-65325328D01*
X133347165Y-65529671D01*
X133347160Y-65529680D01*
X133256870Y-65747662D01*
X133195799Y-65975585D01*
X133165000Y-66209514D01*
X125300499Y-66209514D01*
X125300499Y-66000000D01*
X125300499Y-64938174D01*
X125300499Y-64899998D01*
X125300498Y-64899981D01*
X125289999Y-64797203D01*
X125289998Y-64797200D01*
X125234814Y-64630666D01*
X125142712Y-64481344D01*
X125018656Y-64357288D01*
X124869334Y-64265186D01*
X124702797Y-64210001D01*
X124702795Y-64210000D01*
X124600010Y-64199500D01*
X122399998Y-64199500D01*
X122399981Y-64199501D01*
X122297203Y-64210000D01*
X122297200Y-64210001D01*
X122130668Y-64265185D01*
X122130663Y-64265187D01*
X121981342Y-64357289D01*
X121857289Y-64481342D01*
X121765187Y-64630663D01*
X121765186Y-64630666D01*
X121710001Y-64797203D01*
X121710001Y-64797204D01*
X121710000Y-64797204D01*
X121699500Y-64899983D01*
X119166462Y-64899983D01*
X119503723Y-64562721D01*
X119422172Y-64500145D01*
X119422171Y-64500144D01*
X119217828Y-64382165D01*
X119217819Y-64382160D01*
X118999836Y-64291870D01*
X118999838Y-64291870D01*
X118771914Y-64230799D01*
X118537985Y-64200000D01*
X118302014Y-64200000D01*
X118068085Y-64230799D01*
X117840162Y-64291870D01*
X117622180Y-64382160D01*
X117622171Y-64382165D01*
X117417828Y-64500144D01*
X117417818Y-64500150D01*
X117336275Y-64562720D01*
X117336275Y-64562721D01*
X118172512Y-65398958D01*
X118112110Y-65423978D01*
X118005649Y-65495112D01*
X117915112Y-65585649D01*
X117843978Y-65692110D01*
X117818958Y-65752511D01*
X116982721Y-64916275D01*
X116982720Y-64916275D01*
X116920150Y-64997818D01*
X116920144Y-64997828D01*
X116802165Y-65202171D01*
X116802160Y-65202180D01*
X116711870Y-65420162D01*
X116650799Y-65648085D01*
X116620000Y-65882014D01*
X94500500Y-65882014D01*
X94500500Y-59624500D01*
X94520185Y-59557461D01*
X94572989Y-59511706D01*
X94624500Y-59500500D01*
X193375500Y-59500500D01*
X193442539Y-59520185D01*
G37*
%TD.AperFunction*%
%TD*%
M02*
